# Blender v2.79 (sub 0) OBJ File: 'Minnnow_ioexperment.blend'
# www.blender.org
mtllib Minnnow_ioexperment_000011.mtl
v 0.251208 0.273001 0.190819
v 0.215057 -0.159074 0.130763
v 0.363239 0.067251 0.182933
v 0.124046 0.190820 0.746304
v 0.153941 0.051360 0.739276
v 0.119753 -0.094767 0.647314
v 0.031525 -0.049348 0.995588
v 0.007214 -0.089098 1.012402
v 0.030703 -0.063444 0.976813
v 0.245785 0.257610 -0.624706
v 0.346251 0.050659 -0.631240
v 0.201678 -0.177555 -0.649808
v 0.109715 0.123514 -1.226545
v 0.166105 0.051821 -1.225479
v 0.129845 -0.057767 -1.230433
v -0.043328 -0.089098 1.008289
v 0.036314 0.040249 -1.512100
v 0.053792 0.011828 -1.510917
v 0.041470 -0.032575 -1.513610
v 0.020559 0.026351 -1.644146
v 0.033024 0.007273 -1.643457
v 0.025015 -0.021889 -1.645036
v 0.006666 0.033492 -1.774621
v 0.013326 0.008464 -1.773357
v 0.009017 -0.029794 -1.775658
v -0.009359 0.187632 -1.921470
v -0.002627 0.035463 -1.920678
v -0.007087 -0.197136 -1.922670
v -0.017730 0.265364 -1.998981
v -0.010998 0.048424 -1.998189
v -0.015458 -0.283182 -2.000180
v -0.201162 0.273001 0.175166
v -0.160938 -0.159074 0.117722
v -0.312379 0.067251 0.159551
v -0.110352 0.190820 0.733837
v -0.139332 0.051360 0.723678
v -0.095583 -0.094767 0.635861
v -0.064601 -0.049348 0.987766
v -0.060755 -0.063444 0.969371
v -0.130791 0.257610 -0.621441
v -0.231355 0.050659 -0.626233
v -0.087125 -0.177555 -0.647305
v -0.064567 0.123514 -1.216445
v -0.120456 0.051821 -1.208873
v -0.085011 -0.057767 -1.217982
v 0.006667 0.248875 0.743466
v 0.025125 0.431722 0.180055
v 0.057288 0.380931 -0.647140
v 0.022361 0.177768 -1.225173
v -0.019395 -0.034019 1.026794
v 0.015874 -0.210664 0.570354
v 0.031021 -0.337665 0.009682
v 0.056994 -0.222210 -0.685304
v 0.022191 -0.113104 -1.228108
v -0.018245 -0.094433 1.012662
v -0.024283 0.040249 -1.509218
v -0.041570 0.011828 -1.506382
v -0.029559 -0.032575 -1.510232
v 0.005934 0.063840 -1.512371
v 0.005947 -0.057490 -1.512097
v -0.018005 0.026351 -1.642712
v -0.030385 0.007273 -1.641100
v -0.022527 -0.021889 -1.643266
v 0.001239 0.040788 -1.644409
v 0.001184 -0.036614 -1.645189
v -0.013835 0.033492 -1.773859
v -0.020383 0.008464 -1.772104
v -0.016257 -0.029794 -1.774718
v -0.003633 0.052433 -1.775526
v -0.003671 -0.049113 -1.776551
v -0.029756 0.187632 -1.919268
v -0.036164 0.035463 -1.917057
v -0.032232 -0.197136 -1.919954
v -0.019696 0.302787 -1.921648
v -0.019806 -0.314588 -1.922668
v -0.038127 0.265364 -1.996778
v -0.044535 0.048424 -1.994567
v -0.040603 -0.283182 -1.997465
v -0.028067 0.429535 -1.999159
v -0.028177 -0.450629 -2.000179
v -0.029779 0.266998 -2.015013
v -0.027153 0.047052 -1.990703
v -0.029677 -0.284283 -2.014074
v -0.016458 0.002003 0.990696
v -0.013664 -0.109233 0.956354
v 0.042914 -0.018766 0.964244
v 0.021506 -0.089820 0.966297
v 0.046028 -0.048825 0.947072
v -0.070773 -0.018766 0.954994
v -0.049978 -0.089820 0.960481
v -0.071070 -0.048825 0.937544
v 0.188474 -0.049355 0.397374
v 0.240015 0.025056 0.373313
v 0.264844 -0.184816 0.263655
v 0.355473 -0.053973 0.221347
v 0.214244 -0.012150 0.385343
v 0.332674 -0.145756 0.232107
v 0.239836 -0.129347 0.336802
v 0.312199 -0.024874 0.303020
v 0.276017 -0.077110 0.319911
v -0.147143 -0.045426 0.391917
v -0.202758 0.021366 0.357017
v -0.203351 -0.200034 0.269443
v -0.301144 -0.082587 0.208074
v -0.174951 -0.012030 0.374467
v -0.271838 -0.170452 0.229992
v -0.187789 -0.135374 0.337485
v -0.265873 -0.041597 0.288484
v -0.226831 -0.088486 0.312984
v 0.031867 0.436122 0.011691
v 0.030463 0.416399 0.046146
v 0.033707 0.274162 -1.029367
v 0.030613 0.222699 -1.082762
v 0.058151 0.394554 -0.780415
v 0.049746 0.450024 -0.521437
v 0.052842 0.464016 -0.257334
v 0.042288 0.393161 -0.243939
v 0.060220 0.379138 -0.515460
v 0.048787 0.328875 -0.769147
v -0.013351 -0.038183 0.949167
v -0.012803 -0.083997 0.955384
v 0.100110 0.104667 0.810479
v 0.087021 0.093067 0.835607
v 0.084802 0.065129 0.847929
v 0.094754 0.037220 0.840228
v 0.111046 0.025687 0.817016
v 0.124135 0.037287 0.791889
v 0.126354 0.065225 0.779566
v 0.116403 0.093134 0.787267
v 0.112500 0.085916 0.817984
v 0.106222 0.080353 0.830034
v 0.105158 0.066956 0.835943
v 0.109931 0.053572 0.832250
v 0.117744 0.048041 0.821118
v 0.124021 0.053604 0.809068
v 0.125085 0.067002 0.803159
v 0.120313 0.080386 0.806852
v 0.117125 0.067357 0.820769
v 0.097216 0.104120 0.808719
v 0.084127 0.092520 0.833847
v 0.081908 0.064583 0.846169
v 0.091859 0.036673 0.838468
v 0.108151 0.025141 0.815256
v 0.121240 0.036741 0.790129
v 0.123459 0.064678 0.777806
v 0.113508 0.092588 0.785507
v -0.102358 0.104667 0.794005
v -0.093503 0.093067 0.820918
v -0.093306 0.065129 0.833437
v -0.101881 0.037220 0.824229
v -0.114206 0.025687 0.798687
v -0.123061 0.037287 0.771775
v -0.123259 0.065225 0.759256
v -0.114683 0.093134 0.768464
v -0.115798 0.085916 0.799407
v -0.111551 0.080353 0.812314
v -0.111456 0.066956 0.818317
v -0.115569 0.053572 0.813901
v -0.121479 0.048041 0.801653
v -0.125726 0.053604 0.788747
v -0.125821 0.067002 0.782743
v -0.121708 0.080386 0.787159
v -0.120813 0.067357 0.801409
v -0.099217 0.104120 0.792736
v -0.090362 0.092520 0.819649
v -0.090165 0.064583 0.832168
v -0.098740 0.036673 0.822960
v -0.111065 0.025141 0.797418
v -0.119920 0.036741 0.770506
v -0.120118 0.064678 0.757987
v -0.111542 0.092588 0.767195
vn 0.5436 0.7930 0.2752
vn 0.8352 0.4422 0.3268
vn 0.7930 -0.5692 0.2172
vn 0.6166 -0.7641 0.1897
vn 0.4916 0.5928 0.6379
vn 0.4448 -0.8829 0.1507
vn 0.9062 -0.1350 0.4006
vn 0.8763 -0.3948 0.2760
vn 0.3238 -0.9352 -0.1433
vn 0.8373 -0.5467 -0.0063
vn 0.8779 0.4786 -0.0149
vn 0.5497 0.8348 -0.0299
vn 0.3381 -0.9126 -0.2301
vn 0.8267 -0.5032 -0.2516
vn 0.7518 0.5868 -0.3007
vn 0.4973 0.8087 -0.3143
vn 0.9049 -0.2851 -0.3161
vn 0.4912 0.7997 -0.3453
vn 0.4427 -0.8704 -0.2156
vn 0.8052 0.4807 -0.3472
vn 0.9561 -0.2568 -0.1410
vn 0.6065 0.7793 -0.1576
vn 0.5215 -0.8427 -0.1338
vn 0.8295 0.5364 -0.1554
vn 0.5257 -0.8506 -0.0129
vn 0.9637 0.2519 -0.0888
vn 0.9558 -0.2545 -0.1473
vn 0.8783 0.4780 0.0098
vn 0.9866 -0.1036 -0.1258
vn 0.9950 0.0894 0.0438
vn 0.7204 -0.4956 0.4852
vn 0.9971 0.0438 -0.0628
vn 0.9966 0.0306 -0.0769
vn 0.9937 -0.0181 -0.1103
vn 0.9980 0.0628 -0.0050
vn 0.9941 -0.1077 0.0122
vn 0.8009 0.0498 -0.5968
vn 0.7953 -0.0572 -0.6035
vn 0.7000 -0.0532 -0.7122
vn -0.4212 0.0111 -0.9069
vn -0.4486 0.8708 0.2010
vn -0.8545 0.4410 0.2745
vn -0.8037 -0.5696 0.1721
vn -0.6241 -0.7655 0.1565
vn -0.5985 0.5253 0.6049
vn -0.6732 -0.7262 0.1393
vn -0.9733 -0.2276 -0.0291
vn -0.9097 -0.3932 0.1338
vn -0.6952 -0.7171 -0.0497
vn -0.8351 -0.5450 -0.0746
vn -0.8737 0.4788 -0.0864
vn -0.5720 0.8176 -0.0663
vn -0.3368 -0.9213 -0.1946
vn -0.8409 -0.5166 -0.1611
vn -0.8852 0.4340 -0.1676
vn -0.5548 0.7949 -0.2458
vn -0.9353 -0.2851 -0.2097
vn -0.5278 0.7994 -0.2869
vn -0.4647 -0.8703 -0.1632
vn -0.7710 0.5713 -0.2812
vn -0.9644 -0.2547 -0.0715
vn -0.6187 0.7773 -0.1137
vn -0.5749 -0.8113 -0.1067
vn -0.8549 0.5112 -0.0883
vn -0.5259 -0.8502 0.0260
vn -0.8397 0.5399 -0.0592
vn -0.9642 -0.2542 -0.0759
vn -0.5985 0.8007 0.0246
vn -0.9898 -0.1127 0.0868
vn -0.7200 0.4354 0.5404
vn -0.6342 -0.4713 0.6129
vn -0.9535 0.2601 0.1523
vn -0.9925 0.0435 0.1144
vn -0.9944 -0.0181 0.1044
vn -0.9767 0.0894 0.1951
vn -0.9686 -0.1077 0.2241
vn -0.9098 0.0498 -0.4121
vn 0.2158 -0.0163 -0.9763
vn -0.8359 -0.0532 -0.5463
vn -0.8332 0.0452 -0.5511
vn -0.9013 -0.4126 0.1316
vn -0.9297 0.1694 0.3269
vn -0.2405 -0.9434 0.2284
vn -0.6392 0.5698 0.5166
vn 0.8682 -0.4126 0.2756
vn 0.8641 0.1612 0.4767
vn 0.2004 -0.9434 0.2643
vn 0.5472 0.5698 0.6131
vn 0.7662 -0.3582 0.5336
vn 0.6188 -0.1815 0.7643
vn -0.8126 -0.1293 0.5683
vn -0.7689 -0.3664 0.5240
vn -0.6518 -0.1548 0.7424
vn -0.9890 0.1456 0.0267
vn -0.9992 0.0000 -0.0407
vn -0.9884 0.1336 -0.0722
vn -0.9893 -0.1462 -0.0008
vn 0.2639 -0.9619 0.0721
vn -0.2709 -0.9621 0.0305
vn -0.4812 0.1122 0.8694
vn 0.3289 0.1308 0.9353
vn 0.4526 0.8241 0.3406
vn -0.2010 0.9669 0.1571
vn 0.5620 -0.5956 0.5739
vn -0.6430 -0.5987 0.4776
vn 0.1720 0.9661 0.1924
vn -0.5124 0.8205 0.2533
vn 0.9438 0.3294 0.0260
vn 0.8919 -0.3250 0.3146
vn 0.5103 -0.0549 0.8583
vn 0.5623 0.5995 0.5696
vn 0.7638 0.5999 0.2380
vn 0.9969 -0.0537 0.0577
vn 0.6903 -0.3254 0.6462
vn 0.4572 0.3283 0.8265
vn 0.7929 0.2789 0.5418
vn 0.8457 0.2791 0.4549
vn 0.9068 0.1078 0.4077
vn 0.8264 0.0366 0.5619
vn 0.7654 0.2079 0.6091
vn 0.8929 0.2082 0.3994
vn 0.8792 0.0367 0.4750
vn 0.7793 0.1075 0.6174
vn 0.5322 -0.3767 -0.7582
vn -0.0725 -0.9125 0.4025
vn -0.5322 0.3767 0.7582
vn 0.4276 0.3789 -0.8207
vn 0.3251 -0.9116 -0.2515
vn -0.4276 -0.3789 0.8207
vn -0.3250 0.9116 0.2515
vn 0.0725 0.9125 -0.4025
vn -0.9356 0.3294 -0.1270
vn -0.9310 -0.3250 0.1663
vn -0.6423 -0.0549 0.7645
vn -0.6470 0.5995 0.4713
vn -0.7922 0.5999 0.1114
vn -0.9931 -0.0537 -0.1043
vn -0.7857 -0.3254 0.5261
vn -0.5848 0.3283 0.7418
vn -0.8700 0.2789 0.4065
vn -0.9081 0.2791 0.3122
vn -0.9607 0.1078 0.2557
vn -0.9064 0.0366 0.4209
vn -0.8538 0.2079 0.4774
vn -0.9457 0.2082 0.2498
vn -0.9445 0.0367 0.3266
vn -0.8688 0.1075 0.4833
vn -0.4026 -0.3767 -0.8343
vn 0.0064 -0.9125 0.4089
vn 0.4026 0.3767 0.8343
vn -0.2893 0.3789 -0.8791
vn -0.2801 -0.9116 -0.3008
vn 0.2893 -0.3789 0.8791
vn 0.2801 0.9116 0.3008
vn -0.0064 0.9125 -0.4089
vn 0.4273 0.8751 0.2273
vn 0.9502 0.1913 0.2458
vn 0.8621 -0.3986 0.3129
vn 0.6540 -0.7264 0.2111
vn 0.2950 0.6315 0.7171
vn 0.6377 -0.7316 0.2410
vn 0.9652 -0.2276 0.1286
vn 0.8831 -0.3799 0.2754
vn 0.6947 -0.7193 0.0051
vn 0.8448 -0.5350 -0.0018
vn 0.8989 0.4373 -0.0277
vn 0.5751 0.8179 -0.0193
vn 0.4441 -0.8725 -0.2038
vn 0.9366 -0.3018 -0.1781
vn 0.8651 0.4282 -0.2614
vn 0.5472 0.7822 -0.2980
vn 0.9212 -0.2369 -0.3086
vn 0.5738 0.7348 -0.3617
vn 0.5583 -0.8076 -0.1901
vn 0.7333 0.5713 -0.3686
vn 0.9566 -0.2551 -0.1405
vn 0.5928 0.7905 -0.1539
vn 0.5637 -0.8127 -0.1476
vn 0.8449 0.5134 -0.1500
vn 0.8352 -0.5495 0.0214
vn 0.8330 0.5399 -0.1214
vn 0.9879 -0.1044 -0.1147
vn 0.5987 0.8008 -0.0199
vn 0.9959 -0.0183 -0.0882
vn 0.8013 0.4543 0.3894
vn 0.9905 -0.1073 0.0855
vn 0.9655 0.2540 -0.0580
vn 0.9940 0.0435 -0.1001
vn 0.9956 -0.0128 -0.0933
vn 0.9958 0.0894 -0.0179
vn 0.9968 -0.0757 0.0252
vn -0.4192 -0.0163 -0.9077
vn 0.6963 0.0452 -0.7163
vn -0.5611 0.7926 0.2388
vn -0.9649 0.1871 0.1844
vn -0.8729 -0.4152 0.2561
vn -0.6588 -0.7319 0.1739
vn -0.3850 0.6708 0.6339
vn -0.4630 -0.8829 0.0785
vn -0.9591 -0.1350 0.2488
vn -0.9259 -0.3549 0.1293
vn -0.3317 -0.9286 -0.1667
vn -0.8462 -0.5284 -0.0689
vn -0.8939 0.4367 -0.1014
vn -0.5538 0.8295 -0.0725
vn -0.4646 -0.8734 -0.1458
vn -0.9510 -0.3020 -0.0669
vn -0.7806 0.5854 -0.2188
vn -0.5311 0.8120 -0.2421
vn -0.9499 -0.2395 -0.2009
vn -0.6071 0.7384 -0.2935
vn -0.5743 -0.8090 -0.1256
vn -0.8376 0.4842 -0.2530
vn -0.9644 -0.2546 -0.0714
vn -0.6027 0.7903 -0.1106
vn -0.5308 -0.8421 -0.0957
vn -0.8387 0.5362 -0.0953
vn -0.8314 -0.5495 0.0830
vn -0.9676 0.2519 -0.0170
vn -0.9937 -0.1044 -0.0411
vn -0.8751 0.4780 0.0750
vn -0.9913 -0.0184 0.1302
vn -0.9618 0.0894 0.2589
vn -0.9481 -0.1072 0.2995
vn -0.9870 0.0438 0.1545
vn -0.9900 0.0306 0.1376
vn -0.9925 -0.0128 0.1214
vn -0.9761 0.0628 0.2082
vn -0.9684 -0.0757 0.2375
vn -0.9058 -0.0572 -0.4198
vn 0.2179 0.0111 -0.9759
vn -0.9072 -0.4068 0.1072
vn -0.9605 -0.1325 0.2445
vn -0.4631 -0.8829 0.0778
vn -0.5983 0.5265 0.6040
vn 0.8779 -0.4068 0.2524
vn 0.9046 -0.1369 0.4037
vn 0.4445 -0.8829 0.1516
vn 0.4928 0.5265 0.6928
vn 0.7866 -0.1245 0.6048
vn 0.5715 -0.4257 0.7016
vn -0.5810 -0.3992 0.7093
vn -0.9983 -0.0000 0.0579
vn -0.9888 0.1354 -0.0631
vn -0.9893 -0.1446 0.0193
vn -0.9895 0.1438 0.0161
vn 0.4572 0.3282 0.8265
vn 0.5321 -0.3767 -0.7582
vn 0.4275 0.3789 -0.8208
vn -0.4275 -0.3789 0.8208
vn -0.9310 -0.3250 0.1662
vn -0.6469 0.5995 0.4713
vn -0.5849 0.3283 0.7418
vn 0.0065 -0.9125 0.4089
vn -0.2892 0.3789 -0.8791
vn 0.2892 -0.3789 0.8791
vn -0.0065 0.9125 -0.4089
usemtl BodyTop.001
s off
f 46//1 1//1 47//1
f 1//2 5//2 3//2
usemtl BodyBottom.001
f 3//3 6//3 2//3
f 2//4 51//4 52//4
usemtl BodyTop.001
f 86//5 46//5 84//5
usemtl BodyBottom.001
f 85//6 6//6 87//6
usemtl BodyTop.001
f 86//7 9//7 88//7
usemtl BodyBottom.001
f 6//8 88//8 87//8
f 12//9 52//9 53//9
f 2//10 11//10 3//10
usemtl BodyTop.001
f 3//11 10//11 1//11
f 47//12 10//12 48//12
usemtl BodyBottom.001
f 53//13 15//13 12//13
f 12//14 14//14 11//14
usemtl BodyTop.001
f 10//15 14//15 13//15
f 48//16 13//16 49//16
usemtl BodyBottom.001
f 15//17 18//17 14//17
usemtl BodyTop.001
f 13//18 59//18 49//18
usemtl BodyBottom.001
f 54//19 19//19 15//19
usemtl BodyTop.001
f 13//20 18//20 17//20
usemtl BodyBottom.001
f 19//21 21//21 18//21
usemtl BodyTop.001
f 17//22 64//22 59//22
usemtl BodyBottom.001
f 19//23 65//23 22//23
usemtl BodyTop.001
f 17//24 21//24 20//24
usemtl BodyBottom.001
f 65//25 25//25 22//25
usemtl BodyTop.001
f 20//26 24//26 23//26
usemtl BodyBottom.001
f 22//27 24//27 21//27
usemtl BodyTop.001
f 64//28 23//28 69//28
usemtl BodyBottom.001
f 25//29 27//29 24//29
usemtl BodyTop.001
f 69//30 26//30 74//30
usemtl BodyBottom.001
f 70//31 28//31 25//31
usemtl BodyTop.001
f 23//32 27//32 26//32
f 26//33 30//33 29//33
usemtl BodyBottom.001
f 28//34 30//34 27//34
usemtl BodyTop.001
f 74//35 29//35 79//35
usemtl BodyBottom.001
f 75//36 31//36 28//36
usemtl BodyTop.001
f 29//37 81//37 79//37
f 29//38 82//38 81//38
usemtl BodyBottom.001
f 31//39 80//39 83//39
f 31//40 82//40 30//40
usemtl BodyTop.001
f 46//41 32//41 35//41
f 36//42 32//42 34//42
usemtl BodyBottom.001
f 37//43 34//43 33//43
f 51//44 33//44 52//44
usemtl BodyTop.001
f 84//45 35//45 89//45
usemtl BodyBottom.001
f 85//46 37//46 51//46
usemtl BodyTop.001
f 89//47 39//47 38//47
usemtl BodyBottom.001
f 91//48 37//48 90//48
f 42//49 52//49 33//49
f 41//50 33//50 34//50
usemtl BodyTop.001
f 40//51 34//51 32//51
f 47//52 40//52 32//52
usemtl BodyBottom.001
f 45//53 53//53 42//53
f 44//54 42//54 41//54
usemtl BodyTop.001
f 40//55 44//55 41//55
f 49//56 40//56 48//56
usemtl BodyBottom.001
f 57//57 45//57 44//57
usemtl BodyTop.001
f 59//58 43//58 49//58
usemtl BodyBottom.001
f 58//59 54//59 45//59
usemtl BodyTop.001
f 43//60 57//60 44//60
usemtl BodyBottom.001
f 62//61 58//61 57//61
usemtl BodyTop.001
f 64//62 56//62 59//62
usemtl BodyBottom.001
f 58//63 65//63 60//63
usemtl BodyTop.001
f 56//64 62//64 57//64
usemtl BodyBottom.001
f 68//65 65//65 63//65
usemtl BodyTop.001
f 61//66 67//66 62//66
usemtl BodyBottom.001
f 67//67 63//67 62//67
usemtl BodyTop.001
f 64//68 66//68 61//68
usemtl BodyBottom.001
f 72//69 68//69 67//69
usemtl BodyTop.001
f 69//70 71//70 66//70
usemtl BodyBottom.001
f 73//71 70//71 68//71
usemtl BodyTop.001
f 66//72 72//72 67//72
f 71//73 77//73 72//73
usemtl BodyBottom.001
f 77//74 73//74 72//74
usemtl BodyTop.001
f 74//75 76//75 71//75
usemtl BodyBottom.001
f 78//76 75//76 73//76
usemtl BodyTop.001
f 76//77 79//77 81//77
f 76//78 82//78 77//78
usemtl BodyBottom.001
f 78//79 83//79 80//79
f 78//80 82//80 83//80
f 39//81 90//81 16//81
usemtl BodyTop.001
f 36//82 89//82 35//82
usemtl BodyBottom.001
f 16//83 85//83 55//83
usemtl BodyTop.001
f 84//84 38//84 50//84
usemtl BodyBottom.001
f 87//85 9//85 8//85
usemtl BodyTop.001
f 86//86 5//86 4//86
usemtl BodyBottom.001
f 85//87 8//87 55//87
usemtl BodyTop.001
f 7//88 84//88 50//88
usemtl Fin.001
f 100//89 95//89 99//89
f 94//89 100//89 98//89
f 92//90 100//90 96//90
f 100//90 93//90 96//90
f 109//91 104//91 106//91
f 109//92 103//92 107//92
f 101//93 109//93 107//93
f 102//93 109//93 105//93
f 112//94 119//94 114//94
f 110//95 117//95 111//95
f 116//96 118//96 117//96
f 114//97 118//97 115//97
usemtl Mouth.001
f 38//98 120//98 50//98
f 120//99 7//99 50//99
f 120//100 121//100 9//100
f 39//101 121//101 120//101
f 16//102 121//102 39//102
f 8//103 121//103 55//103
f 38//104 39//104 120//104
f 120//105 9//105 7//105
f 16//106 55//106 121//106
f 8//107 9//107 121//107
usemtl Eye.001
f 129//108 136//108 128//108
f 135//109 126//109 127//109
f 125//110 132//110 124//110
f 123//111 130//111 122//111
f 122//112 137//112 129//112
f 128//113 135//113 127//113
f 126//114 133//114 125//114
f 124//115 131//115 123//115
usemtl Pupil.001
f 131//116 138//116 130//116
f 130//117 138//117 137//117
f 136//118 138//118 135//118
f 134//119 138//119 133//119
f 132//120 138//120 131//120
f 137//121 138//121 136//121
f 135//122 138//122 134//122
f 133//123 138//123 132//123
usemtl Eye.001
f 127//124 145//124 128//124
f 125//125 143//125 126//125
f 123//126 141//126 124//126
f 128//127 146//127 129//127
f 126//128 144//128 127//128
f 141//129 125//129 124//129
f 122//130 140//130 123//130
f 129//131 139//131 122//131
f 153//132 162//132 154//132
f 152//133 159//133 160//133
f 150//134 157//134 158//134
f 148//135 155//135 156//135
f 154//136 155//136 147//136
f 152//137 161//137 153//137
f 151//138 158//138 159//138
f 149//139 156//139 157//139
usemtl Pupil.001
f 156//140 155//140 163//140
f 155//141 162//141 163//141
f 161//142 160//142 163//142
f 159//143 158//143 163//143
f 157//144 156//144 163//144
f 162//145 161//145 163//145
f 160//146 159//146 163//146
f 158//147 157//147 163//147
usemtl Eye.001
f 153//148 169//148 152//148
f 151//149 167//149 150//149
f 148//150 166//150 165//150
f 153//151 171//151 170//151
f 152//152 168//152 151//152
f 149//153 167//153 166//153
f 148//154 164//154 147//154
f 147//155 171//155 154//155
usemtl BodyTop.001
f 46//156 4//156 1//156
f 1//157 4//157 5//157
usemtl BodyBottom.001
f 3//158 5//158 6//158
f 2//159 6//159 51//159
usemtl BodyTop.001
f 86//160 4//160 46//160
usemtl BodyBottom.001
f 85//161 51//161 6//161
usemtl BodyTop.001
f 86//162 7//162 9//162
usemtl BodyBottom.001
f 6//163 5//163 88//163
f 12//164 2//164 52//164
f 2//165 12//165 11//165
usemtl BodyTop.001
f 3//166 11//166 10//166
f 47//167 1//167 10//167
usemtl BodyBottom.001
f 53//168 54//168 15//168
f 12//169 15//169 14//169
usemtl BodyTop.001
f 10//170 11//170 14//170
f 48//171 10//171 13//171
usemtl BodyBottom.001
f 15//172 19//172 18//172
usemtl BodyTop.001
f 13//173 17//173 59//173
usemtl BodyBottom.001
f 54//174 60//174 19//174
usemtl BodyTop.001
f 13//175 14//175 18//175
usemtl BodyBottom.001
f 19//176 22//176 21//176
usemtl BodyTop.001
f 17//177 20//177 64//177
usemtl BodyBottom.001
f 19//178 60//178 65//178
usemtl BodyTop.001
f 17//179 18//179 21//179
usemtl BodyBottom.001
f 65//180 70//180 25//180
usemtl BodyTop.001
f 20//181 21//181 24//181
usemtl BodyBottom.001
f 22//182 25//182 24//182
usemtl BodyTop.001
f 64//183 20//183 23//183
usemtl BodyBottom.001
f 25//184 28//184 27//184
usemtl BodyTop.001
f 69//185 23//185 26//185
usemtl BodyBottom.001
f 70//186 75//186 28//186
usemtl BodyTop.001
f 23//187 24//187 27//187
f 26//188 27//188 30//188
usemtl BodyBottom.001
f 28//189 31//189 30//189
usemtl BodyTop.001
f 74//190 26//190 29//190
usemtl BodyBottom.001
f 75//191 80//191 31//191
usemtl BodyTop.001
f 29//192 30//192 82//192
usemtl BodyBottom.001
f 31//193 83//193 82//193
usemtl BodyTop.001
f 46//194 47//194 32//194
f 36//195 35//195 32//195
usemtl BodyBottom.001
f 37//196 36//196 34//196
f 51//197 37//197 33//197
usemtl BodyTop.001
f 84//198 46//198 35//198
usemtl BodyBottom.001
f 85//199 90//199 37//199
usemtl BodyTop.001
f 89//200 91//200 39//200
usemtl BodyBottom.001
f 91//201 36//201 37//201
f 42//202 53//202 52//202
f 41//203 42//203 33//203
usemtl BodyTop.001
f 40//204 41//204 34//204
f 47//205 48//205 40//205
usemtl BodyBottom.001
f 45//206 54//206 53//206
f 44//207 45//207 42//207
usemtl BodyTop.001
f 40//208 43//208 44//208
f 49//209 43//209 40//209
usemtl BodyBottom.001
f 57//210 58//210 45//210
usemtl BodyTop.001
f 59//211 56//211 43//211
usemtl BodyBottom.001
f 58//212 60//212 54//212
usemtl BodyTop.001
f 43//213 56//213 57//213
usemtl BodyBottom.001
f 62//214 63//214 58//214
usemtl BodyTop.001
f 64//215 61//215 56//215
usemtl BodyBottom.001
f 58//216 63//216 65//216
usemtl BodyTop.001
f 56//217 61//217 62//217
usemtl BodyBottom.001
f 68//218 70//218 65//218
usemtl BodyTop.001
f 61//219 66//219 67//219
usemtl BodyBottom.001
f 67//220 68//220 63//220
usemtl BodyTop.001
f 64//221 69//221 66//221
usemtl BodyBottom.001
f 72//222 73//222 68//222
usemtl BodyTop.001
f 69//223 74//223 71//223
usemtl BodyBottom.001
f 73//224 75//224 70//224
usemtl BodyTop.001
f 66//225 71//225 72//225
f 71//226 76//226 77//226
usemtl BodyBottom.001
f 77//227 78//227 73//227
usemtl BodyTop.001
f 74//228 79//228 76//228
usemtl BodyBottom.001
f 78//229 80//229 75//229
usemtl BodyTop.001
f 76//230 81//230 82//230
usemtl BodyBottom.001
f 78//231 77//231 82//231
f 39//232 91//232 90//232
usemtl BodyTop.001
f 36//233 91//233 89//233
usemtl BodyBottom.001
f 16//234 90//234 85//234
usemtl BodyTop.001
f 84//235 89//235 38//235
usemtl BodyBottom.001
f 87//236 88//236 9//236
usemtl BodyTop.001
f 86//237 88//237 5//237
usemtl BodyBottom.001
f 85//238 87//238 8//238
usemtl BodyTop.001
f 7//239 86//239 84//239
usemtl Fin.001
f 100//240 97//240 95//240
f 94//241 97//241 100//241
f 92//90 98//90 100//90
f 100//90 99//90 93//90
f 109//92 108//92 104//92
f 109//242 106//242 103//242
f 101//93 105//93 109//93
f 102//93 108//93 109//93
f 112//243 113//243 119//243
f 110//244 116//244 117//244
f 116//245 115//245 118//245
f 114//246 119//246 118//246
usemtl Eye.001
f 129//108 137//108 136//108
f 135//109 134//109 126//109
f 125//110 133//110 132//110
f 123//111 131//111 130//111
f 122//112 130//112 137//112
f 128//113 136//113 135//113
f 126//114 134//114 133//114
f 124//247 132//247 131//247
f 127//248 144//248 145//248
f 125//125 142//125 143//125
f 123//126 140//126 141//126
f 128//249 145//249 146//249
f 126//128 143//128 144//128
f 141//250 142//250 125//250
f 122//130 139//130 140//130
f 129//131 146//131 139//131
f 153//132 161//132 162//132
f 152//251 151//251 159//251
f 150//134 149//134 157//134
f 148//252 147//252 155//252
f 154//136 162//136 155//136
f 152//137 160//137 161//137
f 151//138 150//138 158//138
f 149//253 148//253 156//253
f 153//148 170//148 169//148
f 151//254 168//254 167//254
f 148//150 149//150 166//150
f 153//255 154//255 171//255
f 152//152 169//152 168//152
f 149//256 150//256 167//256
f 148//154 165//154 164//154
f 147//257 164//257 171//257
