# Blender v2.79 (sub 0) OBJ File: 'Minnnow_ioexperment.blend'
# www.blender.org
mtllib Minnnow_ioexperment_000003.mtl
v 0.217876 0.273001 0.100019
v 0.176139 -0.159074 0.043760
v 0.328610 0.067251 0.081416
v 0.154588 0.190820 0.660796
v 0.183354 0.051360 0.650016
v 0.137722 -0.094767 0.563127
v 0.101320 -0.049348 0.918487
v 0.079733 -0.089098 0.938679
v 0.097758 -0.063444 0.900035
v 0.146570 0.257610 -0.697249
v 0.247006 0.050659 -0.705689
v 0.101946 -0.177555 -0.721541
v 0.037319 0.123514 -1.292618
v 0.093606 0.051821 -1.289058
v 0.057601 -0.057767 -1.295611
v 0.029133 -0.089098 0.942010
v -0.023348 0.040249 -1.581097
v -0.005942 0.011828 -1.579116
v -0.018129 -0.032575 -1.582370
v -0.032831 0.026351 -1.713695
v -0.020413 0.007273 -1.712420
v -0.028339 -0.021889 -1.714374
v -0.040557 0.033492 -1.844680
v -0.033964 0.008464 -1.843104
v -0.038160 -0.029794 -1.845605
v -0.053301 0.187632 -1.992106
v -0.046588 0.035463 -1.991161
v -0.051002 -0.197136 -1.993254
v -0.059904 0.265364 -2.069788
v -0.053191 0.048424 -2.068842
v -0.057605 -0.283182 -2.070935
v -0.233821 0.273001 0.127891
v -0.199304 -0.159074 0.066825
v -0.346003 0.067251 0.123029
v -0.079564 0.190820 0.678276
v -0.109611 0.051360 0.671887
v -0.077387 -0.094767 0.579186
v 0.005085 -0.049348 0.924823
v 0.006196 -0.063444 0.906063
v -0.230300 0.257610 -0.686861
v -0.331049 0.050659 -0.689755
v -0.187082 -0.177555 -0.713574
v -0.137239 0.123514 -1.290240
v -0.193409 0.051821 -1.285148
v -0.157595 -0.057767 -1.292680
v 0.037765 0.248875 0.672929
v -0.008154 0.431722 0.111022
v -0.042529 0.380931 -0.716141
v -0.050010 0.177768 -1.295113
v 0.055517 -0.034019 0.956812
v 0.024855 -0.210664 0.499998
v -0.018648 -0.337665 -0.059098
v -0.043592 -0.222210 -0.754333
v -0.050050 -0.113104 -1.298052
v 0.054586 -0.094433 0.942664
v -0.084012 0.040249 -1.580987
v -0.101411 0.011828 -1.578944
v -0.089236 -0.032575 -1.582241
v -0.053683 0.063840 -1.582756
v -0.053683 -0.057490 -1.582482
v -0.071420 0.026351 -1.714081
v -0.083862 0.007273 -1.713054
v -0.075911 -0.021889 -1.714848
v -0.052118 0.040788 -1.714869
v -0.052140 -0.036614 -1.715651
v -0.061071 0.033492 -1.844885
v -0.067694 0.008464 -1.843441
v -0.063450 -0.029794 -1.845858
v -0.050801 0.052433 -1.846069
v -0.050791 -0.049113 -1.847095
v -0.073742 0.187632 -1.990369
v -0.080199 0.035463 -1.988304
v -0.076202 -0.197136 -1.991112
v -0.063630 0.302787 -1.992519
v -0.063717 -0.314588 -1.993542
v -0.080345 0.265364 -2.068050
v -0.086802 0.048424 -2.065985
v -0.082805 -0.283182 -2.068793
v -0.070234 0.429535 -2.070200
v -0.070321 -0.450629 -2.071223
v -0.071584 0.266998 -2.086090
v -0.069513 0.047052 -2.061726
v -0.071504 -0.284283 -2.085148
v 0.053138 0.002003 0.920673
v 0.050874 -0.109233 0.886292
v 0.107997 -0.018766 0.885813
v 0.087120 -0.089820 0.890979
v 0.108564 -0.048825 0.868370
v -0.005819 -0.018766 0.893307
v 0.015555 -0.089820 0.895691
v -0.008668 -0.048825 0.876089
v 0.181836 -0.048371 0.315289
v 0.223851 0.024132 0.273452
v 0.226004 -0.193792 0.177576
v 0.299882 -0.066304 0.104010
v 0.202843 -0.012120 0.294370
v 0.282834 -0.157038 0.127165
v 0.218556 -0.132719 0.250153
v 0.277545 -0.030925 0.191413
v 0.248050 -0.081822 0.220783
v -0.160329 -0.048313 0.342279
v -0.210509 0.024077 0.310434
v -0.227281 -0.192262 0.212437
v -0.315516 -0.064973 0.156443
v -0.185419 -0.012118 0.326356
v -0.293080 -0.155744 0.174244
v -0.207311 -0.132251 0.283519
v -0.277764 -0.030616 0.238809
v -0.242537 -0.081433 0.261164
v -0.015547 0.436122 -0.057307
v -0.014114 0.416399 -0.022854
v -0.047339 0.274162 -1.098996
v -0.048067 0.222699 -1.152476
v -0.033935 0.394554 -0.849207
v -0.049448 0.450024 -0.590308
v -0.016756 0.464016 -0.327146
v -0.026174 0.393161 -0.312929
v -0.039403 0.379138 -0.584328
v -0.043789 0.328875 -0.838364
v 0.050131 -0.038183 0.879136
v 0.051583 -0.083997 0.885206
v 0.142065 0.104667 0.725332
v 0.132796 0.093067 0.752104
v 0.132405 0.065129 0.764619
v 0.141121 0.037220 0.755544
v 0.153839 0.025687 0.730196
v 0.163109 0.037287 0.703424
v 0.163500 0.065225 0.690909
v 0.154783 0.093134 0.699984
v 0.155419 0.085916 0.730941
v 0.150974 0.080353 0.743780
v 0.150787 0.066956 0.749782
v 0.154967 0.053572 0.745430
v 0.161066 0.048041 0.733274
v 0.165511 0.053604 0.720435
v 0.165698 0.067002 0.714433
v 0.161518 0.080386 0.718785
v 0.160403 0.067357 0.733019
v 0.138944 0.104120 0.724014
v 0.129675 0.092520 0.750787
v 0.129284 0.064583 0.763301
v 0.138000 0.036673 0.754227
v 0.150718 0.025141 0.728879
v 0.159988 0.036741 0.702106
v 0.160379 0.064678 0.689592
v 0.151662 0.092588 0.698666
v -0.060634 0.104667 0.738678
v -0.047934 0.093067 0.764004
v -0.045906 0.065129 0.776359
v -0.055737 0.037220 0.768506
v -0.071669 0.025687 0.745044
v -0.084369 0.037287 0.719718
v -0.086397 0.065225 0.707363
v -0.076566 0.093134 0.715216
v -0.073138 0.085916 0.745990
v -0.067047 0.080353 0.758135
v -0.066075 0.066956 0.764060
v -0.070789 0.053572 0.760294
v -0.078429 0.048041 0.749043
v -0.084520 0.053604 0.736897
v -0.085492 0.067002 0.730972
v -0.080778 0.080386 0.734738
v -0.077806 0.067357 0.748703
v -0.057713 0.104120 0.736963
v -0.045013 0.092520 0.762289
v -0.042985 0.064583 0.774644
v -0.052816 0.036673 0.766791
v -0.068748 0.025141 0.743329
v -0.081447 0.036741 0.718003
v -0.083476 0.064678 0.705648
v -0.073644 0.092588 0.713501
vn 0.5685 0.7949 0.2122
vn 0.8649 0.4444 0.2334
vn 0.8121 -0.5688 0.1305
vn 0.6342 -0.7631 0.1240
vn 0.5793 0.5951 0.5571
vn 0.4619 -0.8829 0.0846
vn 0.9551 -0.1350 0.2636
vn 0.9074 -0.3941 0.1460
vn 0.3233 -0.9316 -0.1663
vn 0.8328 -0.5486 -0.0748
vn 0.8739 0.4782 -0.0874
vn 0.5499 0.8319 -0.0739
vn 0.3307 -0.9184 -0.2172
vn 0.8302 -0.5125 -0.2193
vn 0.7634 0.5858 -0.2720
vn 0.5435 0.7898 -0.2842
vn 0.9180 -0.2851 -0.2757
vn 0.5060 0.7997 -0.3232
vn 0.4518 -0.8704 -0.1958
vn 0.8200 0.4805 -0.3111
vn 0.9617 -0.2569 -0.0956
vn 0.6132 0.7794 -0.1287
vn 0.5272 -0.8427 -0.1090
vn 0.8360 0.5364 -0.1160
vn 0.5256 -0.8506 0.0119
vn 0.9668 0.2519 -0.0433
vn 0.9617 -0.2545 -0.1020
vn 0.8769 0.4780 0.0512
vn 0.9895 -0.1018 -0.1029
vn 0.9938 0.0894 0.0657
vn 0.7042 -0.4994 0.5047
vn 0.9982 0.0438 -0.0405
vn 0.9981 0.0306 -0.0542
vn 0.9960 -0.0181 -0.0877
vn 0.9979 0.0628 0.0177
vn 0.9936 -0.1077 0.0348
vn 0.8142 0.0498 -0.5784
vn 0.8088 -0.0572 -0.5853
vn 0.7160 -0.0532 -0.6961
vn -0.4004 0.0111 -0.9163
vn -0.4205 0.8727 0.2482
vn -0.8206 0.4388 0.3661
vn -0.7805 -0.5698 0.2572
vn -0.6034 -0.7662 0.2210
vn -0.5035 0.5261 0.6854
vn -0.6439 -0.7283 0.2346
vn -0.9671 -0.2276 0.1137
vn -0.8803 -0.3936 0.2647
vn -0.7009 -0.7132 0.0059
vn -0.8396 -0.5431 -0.0044
vn -0.8778 0.4789 -0.0128
vn -0.5761 0.8172 -0.0179
vn -0.3438 -0.9159 -0.2070
vn -0.8386 -0.5087 -0.1949
vn -0.8794 0.4309 -0.2024
vn -0.5577 0.7854 -0.2684
vn -0.9251 -0.2851 -0.2509
vn -0.5146 0.7994 -0.3101
vn -0.4570 -0.8703 -0.1836
vn -0.7578 0.5714 -0.3151
vn -0.9600 -0.2545 -0.1170
vn -0.6129 0.7772 -0.1429
vn -0.5693 -0.8111 -0.1338
vn -0.8499 0.5110 -0.1286
vn -0.5266 -0.8501 0.0012
vn -0.8359 0.5399 -0.0987
vn -0.9595 -0.2541 -0.1213
vn -0.5990 0.8007 -0.0037
vn -0.9914 -0.1141 0.0643
vn -0.7360 0.4317 0.5215
vn -0.6541 -0.4668 0.5952
vn -0.9565 0.2607 0.1311
vn -0.9948 0.0435 0.0918
vn -0.9965 -0.0181 0.0817
vn -0.9809 0.0894 0.1728
vn -0.9735 -0.1077 0.2020
vn -0.9002 0.0498 -0.4327
vn 0.2379 -0.0163 -0.9711
vn -0.8232 -0.0532 -0.5652
vn -0.8204 0.0452 -0.5699
vn -0.8724 -0.4126 0.2622
vn -0.8715 0.1666 0.4613
vn -0.2044 -0.9434 0.2611
vn -0.5566 0.5698 0.6046
vn 0.8992 -0.4126 0.1455
vn 0.9244 0.1641 0.3442
vn 0.2369 -0.9434 0.2321
vn 0.6311 0.5698 0.5264
vn 0.8837 -0.3095 0.3511
vn 0.7938 -0.1155 0.5971
vn -0.8237 -0.0939 0.5592
vn -0.7977 -0.3313 0.5038
vn -0.6664 -0.1397 0.7324
vn -0.9892 0.1456 -0.0171
vn -0.9991 -0.0000 0.0415
vn -0.9893 0.1397 0.0410
vn -0.9894 -0.1426 -0.0287
vn 0.2716 -0.9619 0.0327
vn -0.2635 -0.9621 0.0698
vn -0.3488 0.1122 0.9305
vn 0.4623 0.1308 0.8770
vn 0.4976 0.8241 0.2707
vn -0.1758 0.9669 0.1848
vn 0.6400 -0.5956 0.4855
vn -0.5662 -0.5987 0.5666
vn 0.1983 0.9661 0.1651
vn -0.4698 0.8205 0.3256
vn 0.9375 0.3294 -0.1125
vn 0.9283 -0.3250 0.1806
vn 0.6304 -0.0549 0.7743
vn 0.6396 0.5995 0.4812
vn 0.7904 0.5999 0.1236
vn 0.9946 -0.0537 -0.0889
vn 0.7775 -0.3254 0.5382
vn 0.5733 0.3283 0.7507
vn 0.8637 0.2789 0.4199
vn 0.9032 0.2790 0.3262
vn 0.9567 0.1078 0.2705
vn 0.8998 0.0366 0.4348
vn 0.8463 0.2079 0.4905
vn 0.9417 0.2082 0.2643
vn 0.9393 0.0367 0.3411
vn 0.8613 0.1075 0.4967
vn 0.4154 -0.3767 -0.8280
vn -0.0128 -0.9125 0.4088
vn -0.4154 0.3767 0.8280
vn 0.3028 0.3789 -0.8745
vn 0.2847 -0.9116 -0.2964
vn -0.3028 -0.3789 0.8745
vn -0.2847 0.9116 0.2964
vn 0.0128 0.9125 -0.4088
vn -0.9441 0.3294 0.0114
vn -0.8966 -0.3250 0.3008
vn -0.5235 -0.0549 0.8503
vn -0.5710 0.5995 0.5609
vn -0.7674 0.5999 0.2262
vn -0.9977 -0.0537 0.0423
vn -0.7002 -0.3254 0.6355
vn -0.4699 0.3283 0.8194
vn -0.8011 0.2789 0.5295
vn -0.8526 0.2791 0.4418
vn -0.9129 0.1078 0.3936
vn -0.8350 0.0366 0.5490
vn -0.7747 0.2079 0.5972
vn -0.8989 0.2082 0.3855
vn -0.8865 0.0367 0.4613
vn -0.7887 0.1075 0.6053
vn -0.5204 -0.3767 -0.7663
vn 0.0663 -0.9125 0.4036
vn 0.5204 0.3767 0.7663
vn -0.4148 0.3789 -0.8273
vn -0.3211 -0.9116 -0.2565
vn 0.4149 -0.3789 0.8272
vn 0.3211 0.9116 0.2565
vn -0.0663 0.9125 -0.4036
vn 0.4527 0.8735 0.1791
vn 0.9721 0.1899 0.1375
vn 0.8883 -0.4056 0.2156
vn 0.6702 -0.7289 0.1398
vn 0.3849 0.6343 0.6705
vn 0.6675 -0.7300 0.1467
vn 0.9737 -0.2276 -0.0141
vn 0.9172 -0.3718 0.1436
vn 0.6890 -0.7231 -0.0493
vn 0.8441 -0.5317 -0.0690
vn 0.8933 0.4377 -0.1018
vn 0.5712 0.8181 -0.0669
vn 0.4529 -0.8731 -0.1806
vn 0.9436 -0.3019 -0.1359
vn 0.8722 0.4326 -0.2285
vn 0.5127 0.8126 -0.2771
vn 0.9340 -0.2367 -0.2675
vn 0.5896 0.7345 -0.3360
vn 0.5664 -0.8074 -0.1651
vn 0.7489 0.5713 -0.3358
vn 0.9622 -0.2552 -0.0951
vn 0.5994 0.7905 -0.1257
vn 0.5699 -0.8128 -0.1208
vn 0.8510 0.5135 -0.1099
vn 0.8333 -0.5495 0.0608
vn 0.8378 0.5399 -0.0820
vn 0.9922 -0.1044 -0.0680
vn 0.5989 0.8008 0.0083
vn 0.9977 -0.0183 -0.0660
vn 0.7895 0.4571 0.4096
vn 0.9884 -0.1073 0.1072
vn 0.9669 0.2524 -0.0364
vn 0.9961 0.0435 -0.0774
vn 0.9974 -0.0128 -0.0706
vn 0.9960 0.0894 0.0048
vn 0.9960 -0.0757 0.0479
vn -0.3985 -0.0163 -0.9170
vn 0.7125 0.0452 -0.7003
vn -0.5335 0.7905 0.3008
vn -0.9379 0.1887 0.2910
vn -0.8425 -0.4085 0.3511
vn -0.6387 -0.7299 0.2436
vn -0.2987 0.6667 0.6829
vn -0.4467 -0.8829 0.1450
vn -0.9123 -0.1350 0.3866
vn -0.8935 -0.3640 0.2631
vn -0.3309 -0.9328 -0.1430
vn -0.8458 -0.5335 -0.0006
vn -0.8987 0.4379 -0.0255
vn -0.5518 0.8335 -0.0282
vn -0.4576 -0.8728 -0.1697
vn -0.9469 -0.3019 -0.1107
vn -0.7709 0.5862 -0.2492
vn -0.5203 0.8131 -0.2610
vn -0.9400 -0.2397 -0.2428
vn -0.5932 0.7386 -0.3201
vn -0.5680 -0.8091 -0.1509
vn -0.8254 0.4845 -0.2898
vn -0.5968 0.7903 -0.1390
vn -0.5257 -0.8421 -0.1207
vn -0.8333 0.5362 -0.1348
vn -0.8343 -0.5495 0.0437
vn -0.9657 0.2519 -0.0627
vn -0.9906 -0.1044 -0.0879
vn -0.8777 0.4780 0.0336
vn -0.9939 -0.0184 0.1084
vn -0.9673 0.0894 0.2375
vn -0.9544 -0.1072 0.2786
vn -0.9902 0.0438 0.1327
vn -0.9929 0.0306 0.1151
vn -0.9950 -0.0128 0.0988
vn -0.9806 0.0628 0.1859
vn -0.9736 -0.0757 0.2154
vn -0.8960 -0.0572 -0.4403
vn 0.2400 0.0111 -0.9707
vn -0.8817 -0.4068 0.2388
vn -0.9129 -0.1343 0.3854
vn -0.4468 -0.8829 0.1447
vn -0.5035 0.5265 0.6851
vn 0.9054 -0.4068 0.1212
vn 0.9547 -0.1356 0.2648
vn 0.4619 -0.8829 0.0849
vn 0.5889 0.5265 0.6131
vn 0.9152 -0.0707 0.3968
vn 0.7387 -0.3643 0.5671
vn -0.6141 -0.3870 0.6879
vn -0.9999 0.0000 0.0136
vn -0.9906 0.1354 0.0184
vn -0.9833 -0.1285 0.1290
vn -0.9891 0.1464 -0.0119
vn -0.7002 -0.3254 0.6354
vn -0.4700 0.3282 0.8194
vn -0.5204 -0.3767 -0.7664
vn 0.0662 -0.9125 0.4036
vn 0.5203 0.3767 0.7664
vn -0.4149 0.3789 -0.8272
vn 0.4148 -0.3789 0.8273
usemtl BodyTop.001
s off
f 46//1 1//1 47//1
f 1//2 5//2 3//2
usemtl BodyBottom.001
f 3//3 6//3 2//3
f 2//4 51//4 52//4
usemtl BodyTop.001
f 86//5 46//5 84//5
usemtl BodyBottom.001
f 85//6 6//6 87//6
usemtl BodyTop.001
f 86//7 9//7 88//7
usemtl BodyBottom.001
f 6//8 88//8 87//8
f 12//9 52//9 53//9
f 2//10 11//10 3//10
usemtl BodyTop.001
f 3//11 10//11 1//11
f 47//12 10//12 48//12
usemtl BodyBottom.001
f 53//13 15//13 12//13
f 12//14 14//14 11//14
usemtl BodyTop.001
f 10//15 14//15 13//15
f 10//16 49//16 48//16
usemtl BodyBottom.001
f 15//17 18//17 14//17
usemtl BodyTop.001
f 13//18 59//18 49//18
usemtl BodyBottom.001
f 54//19 19//19 15//19
usemtl BodyTop.001
f 13//20 18//20 17//20
usemtl BodyBottom.001
f 19//21 21//21 18//21
usemtl BodyTop.001
f 17//22 64//22 59//22
usemtl BodyBottom.001
f 19//23 65//23 22//23
usemtl BodyTop.001
f 17//24 21//24 20//24
usemtl BodyBottom.001
f 65//25 25//25 22//25
usemtl BodyTop.001
f 20//26 24//26 23//26
usemtl BodyBottom.001
f 22//27 24//27 21//27
usemtl BodyTop.001
f 64//28 23//28 69//28
usemtl BodyBottom.001
f 25//29 27//29 24//29
usemtl BodyTop.001
f 69//30 26//30 74//30
usemtl BodyBottom.001
f 70//31 28//31 25//31
usemtl BodyTop.001
f 23//32 27//32 26//32
f 26//33 30//33 29//33
usemtl BodyBottom.001
f 28//34 30//34 27//34
usemtl BodyTop.001
f 74//35 29//35 79//35
usemtl BodyBottom.001
f 75//36 31//36 28//36
usemtl BodyTop.001
f 29//37 81//37 79//37
f 29//38 82//38 81//38
usemtl BodyBottom.001
f 31//39 80//39 83//39
f 31//40 82//40 30//40
usemtl BodyTop.001
f 46//41 32//41 35//41
f 36//42 32//42 34//42
usemtl BodyBottom.001
f 37//43 34//43 33//43
f 51//44 33//44 52//44
usemtl BodyTop.001
f 84//45 35//45 89//45
usemtl BodyBottom.001
f 85//46 37//46 51//46
usemtl BodyTop.001
f 89//47 39//47 38//47
usemtl BodyBottom.001
f 91//48 37//48 90//48
f 42//49 52//49 33//49
f 41//50 33//50 34//50
usemtl BodyTop.001
f 40//51 34//51 32//51
f 47//52 40//52 32//52
usemtl BodyBottom.001
f 45//53 53//53 42//53
f 44//54 42//54 41//54
usemtl BodyTop.001
f 40//55 44//55 41//55
f 49//56 40//56 48//56
usemtl BodyBottom.001
f 57//57 45//57 44//57
usemtl BodyTop.001
f 59//58 43//58 49//58
usemtl BodyBottom.001
f 58//59 54//59 45//59
usemtl BodyTop.001
f 43//60 57//60 44//60
usemtl BodyBottom.001
f 62//61 58//61 57//61
usemtl BodyTop.001
f 64//62 56//62 59//62
usemtl BodyBottom.001
f 58//63 65//63 60//63
usemtl BodyTop.001
f 56//64 62//64 57//64
usemtl BodyBottom.001
f 68//65 65//65 63//65
usemtl BodyTop.001
f 61//66 67//66 62//66
usemtl BodyBottom.001
f 67//67 63//67 62//67
usemtl BodyTop.001
f 64//68 66//68 61//68
usemtl BodyBottom.001
f 72//69 68//69 67//69
usemtl BodyTop.001
f 69//70 71//70 66//70
usemtl BodyBottom.001
f 73//71 70//71 68//71
usemtl BodyTop.001
f 66//72 72//72 67//72
f 71//73 77//73 72//73
usemtl BodyBottom.001
f 77//74 73//74 72//74
usemtl BodyTop.001
f 74//75 76//75 71//75
usemtl BodyBottom.001
f 78//76 75//76 73//76
usemtl BodyTop.001
f 76//77 79//77 81//77
f 76//78 82//78 77//78
usemtl BodyBottom.001
f 78//79 83//79 80//79
f 78//80 82//80 83//80
f 39//81 90//81 16//81
usemtl BodyTop.001
f 36//82 89//82 35//82
usemtl BodyBottom.001
f 16//83 85//83 55//83
usemtl BodyTop.001
f 84//84 38//84 50//84
usemtl BodyBottom.001
f 87//85 9//85 8//85
usemtl BodyTop.001
f 86//86 5//86 4//86
usemtl BodyBottom.001
f 85//87 8//87 55//87
usemtl BodyTop.001
f 7//88 84//88 50//88
usemtl Fin.001
f 100//89 95//89 99//89
f 94//89 100//89 98//89
f 92//90 100//90 96//90
f 100//90 93//90 96//90
f 109//91 104//91 106//91
f 109//92 103//92 107//92
f 101//93 109//93 107//93
f 102//93 109//93 105//93
f 112//94 119//94 114//94
f 110//95 117//95 111//95
f 116//96 118//96 117//96
f 114//97 118//97 115//97
usemtl Mouth.001
f 38//98 120//98 50//98
f 120//99 7//99 50//99
f 120//100 121//100 9//100
f 39//101 121//101 120//101
f 16//102 121//102 39//102
f 8//103 121//103 55//103
f 38//104 39//104 120//104
f 120//105 9//105 7//105
f 16//106 55//106 121//106
f 8//107 9//107 121//107
usemtl Eye.001
f 129//108 136//108 128//108
f 127//109 134//109 126//109
f 125//110 132//110 124//110
f 123//111 130//111 122//111
f 122//112 137//112 129//112
f 136//113 127//113 128//113
f 126//114 133//114 125//114
f 132//115 123//115 124//115
usemtl Pupil.001
f 131//116 138//116 130//116
f 130//117 138//117 137//117
f 136//118 138//118 135//118
f 134//119 138//119 133//119
f 132//120 138//120 131//120
f 137//121 138//121 136//121
f 135//122 138//122 134//122
f 133//123 138//123 132//123
usemtl Eye.001
f 127//124 145//124 128//124
f 142//125 126//125 125//125
f 123//126 141//126 124//126
f 128//127 146//127 129//127
f 126//128 144//128 127//128
f 141//129 125//129 124//129
f 122//130 140//130 123//130
f 129//131 139//131 122//131
f 154//132 161//132 162//132
f 151//133 160//133 152//133
f 150//134 157//134 158//134
f 147//135 156//135 148//135
f 147//136 162//136 155//136
f 152//137 161//137 153//137
f 151//138 158//138 159//138
f 149//139 156//139 157//139
usemtl Pupil.001
f 156//140 155//140 163//140
f 155//141 162//141 163//141
f 161//142 160//142 163//142
f 159//143 158//143 163//143
f 157//144 156//144 163//144
f 162//145 161//145 163//145
f 160//146 159//146 163//146
f 158//147 157//147 163//147
usemtl Eye.001
f 152//148 170//148 169//148
f 150//149 168//149 167//149
f 149//150 165//150 148//150
f 153//151 171//151 170//151
f 152//152 168//152 151//152
f 149//153 167//153 166//153
f 147//154 165//154 164//154
f 154//155 164//155 171//155
usemtl BodyTop.001
f 46//156 4//156 1//156
f 1//157 4//157 5//157
usemtl BodyBottom.001
f 3//158 5//158 6//158
f 2//159 6//159 51//159
usemtl BodyTop.001
f 86//160 4//160 46//160
usemtl BodyBottom.001
f 85//161 51//161 6//161
usemtl BodyTop.001
f 86//162 7//162 9//162
usemtl BodyBottom.001
f 6//163 5//163 88//163
f 12//164 2//164 52//164
f 2//165 12//165 11//165
usemtl BodyTop.001
f 3//166 11//166 10//166
f 47//167 1//167 10//167
usemtl BodyBottom.001
f 53//168 54//168 15//168
f 12//169 15//169 14//169
usemtl BodyTop.001
f 10//170 11//170 14//170
f 10//171 13//171 49//171
usemtl BodyBottom.001
f 15//172 19//172 18//172
usemtl BodyTop.001
f 13//173 17//173 59//173
usemtl BodyBottom.001
f 54//174 60//174 19//174
usemtl BodyTop.001
f 13//175 14//175 18//175
usemtl BodyBottom.001
f 19//176 22//176 21//176
usemtl BodyTop.001
f 17//177 20//177 64//177
usemtl BodyBottom.001
f 19//178 60//178 65//178
usemtl BodyTop.001
f 17//179 18//179 21//179
usemtl BodyBottom.001
f 65//180 70//180 25//180
usemtl BodyTop.001
f 20//181 21//181 24//181
usemtl BodyBottom.001
f 22//182 25//182 24//182
usemtl BodyTop.001
f 64//183 20//183 23//183
usemtl BodyBottom.001
f 25//184 28//184 27//184
usemtl BodyTop.001
f 69//185 23//185 26//185
usemtl BodyBottom.001
f 70//186 75//186 28//186
usemtl BodyTop.001
f 23//187 24//187 27//187
f 26//188 27//188 30//188
usemtl BodyBottom.001
f 28//189 31//189 30//189
usemtl BodyTop.001
f 74//190 26//190 29//190
usemtl BodyBottom.001
f 75//191 80//191 31//191
usemtl BodyTop.001
f 29//192 30//192 82//192
usemtl BodyBottom.001
f 31//193 83//193 82//193
usemtl BodyTop.001
f 46//194 47//194 32//194
f 36//195 35//195 32//195
usemtl BodyBottom.001
f 37//196 36//196 34//196
f 51//197 37//197 33//197
usemtl BodyTop.001
f 84//198 46//198 35//198
usemtl BodyBottom.001
f 85//199 90//199 37//199
usemtl BodyTop.001
f 89//200 91//200 39//200
usemtl BodyBottom.001
f 91//201 36//201 37//201
f 42//202 53//202 52//202
f 41//203 42//203 33//203
usemtl BodyTop.001
f 40//204 41//204 34//204
f 47//205 48//205 40//205
usemtl BodyBottom.001
f 45//206 54//206 53//206
f 44//207 45//207 42//207
usemtl BodyTop.001
f 40//208 43//208 44//208
f 49//209 43//209 40//209
usemtl BodyBottom.001
f 57//210 58//210 45//210
usemtl BodyTop.001
f 59//211 56//211 43//211
usemtl BodyBottom.001
f 58//212 60//212 54//212
usemtl BodyTop.001
f 43//213 56//213 57//213
usemtl BodyBottom.001
f 62//61 63//61 58//61
usemtl BodyTop.001
f 64//214 61//214 56//214
usemtl BodyBottom.001
f 58//215 63//215 65//215
usemtl BodyTop.001
f 56//216 61//216 62//216
usemtl BodyBottom.001
f 68//217 70//217 65//217
usemtl BodyTop.001
f 61//218 66//218 67//218
usemtl BodyBottom.001
f 67//219 68//219 63//219
usemtl BodyTop.001
f 64//220 69//220 66//220
usemtl BodyBottom.001
f 72//221 73//221 68//221
usemtl BodyTop.001
f 69//222 74//222 71//222
usemtl BodyBottom.001
f 73//223 75//223 70//223
usemtl BodyTop.001
f 66//224 71//224 72//224
f 71//225 76//225 77//225
usemtl BodyBottom.001
f 77//226 78//226 73//226
usemtl BodyTop.001
f 74//227 79//227 76//227
usemtl BodyBottom.001
f 78//228 80//228 75//228
usemtl BodyTop.001
f 76//229 81//229 82//229
usemtl BodyBottom.001
f 78//230 77//230 82//230
f 39//231 91//231 90//231
usemtl BodyTop.001
f 36//232 91//232 89//232
usemtl BodyBottom.001
f 16//233 90//233 85//233
usemtl BodyTop.001
f 84//234 89//234 38//234
usemtl BodyBottom.001
f 87//235 88//235 9//235
usemtl BodyTop.001
f 86//236 88//236 5//236
usemtl BodyBottom.001
f 85//237 87//237 8//237
usemtl BodyTop.001
f 7//238 86//238 84//238
usemtl Fin.001
f 100//239 97//239 95//239
f 94//240 97//240 100//240
f 92//90 98//90 100//90
f 100//90 99//90 93//90
f 109//92 108//92 104//92
f 109//241 106//241 103//241
f 101//93 105//93 109//93
f 102//93 108//93 109//93
f 112//242 113//242 119//242
f 110//243 116//243 117//243
f 116//244 115//244 118//244
f 114//245 119//245 118//245
usemtl Eye.001
f 129//108 137//108 136//108
f 127//109 135//109 134//109
f 125//110 133//110 132//110
f 123//111 131//111 130//111
f 122//112 130//112 137//112
f 136//113 135//113 127//113
f 126//114 134//114 133//114
f 132//115 131//115 123//115
f 127//124 144//124 145//124
f 142//125 143//125 126//125
f 123//126 140//126 141//126
f 128//127 145//127 146//127
f 126//128 143//128 144//128
f 141//129 142//129 125//129
f 122//130 139//130 140//130
f 129//131 146//131 139//131
f 154//132 153//132 161//132
f 151//133 159//133 160//133
f 150//134 149//134 157//134
f 147//135 155//135 156//135
f 147//136 154//136 162//136
f 152//137 160//137 161//137
f 151//246 150//246 158//246
f 149//247 148//247 156//247
f 152//248 153//248 170//248
f 150//249 151//249 168//249
f 149//250 166//250 165//250
f 153//251 154//251 171//251
f 152//152 169//152 168//152
f 149//252 150//252 167//252
f 147//154 148//154 165//154
f 154//155 147//155 164//155
