# Blender v2.79 (sub 0) OBJ File: 'Minnnow_ioexperment.blend'
# www.blender.org
mtllib Minnnow_ioexperment_000009.mtl
v 0.278617 0.273001 0.164492
v 0.244603 -0.159074 0.103137
v 0.390784 0.067251 0.160531
v 0.101364 0.190820 0.722009
v 0.131820 0.051360 0.718649
v 0.109031 -0.094767 0.623445
v -0.037603 -0.049348 0.956991
v -0.064398 -0.089098 0.969471
v -0.035252 -0.063444 0.938346
v 0.268816 0.257610 -0.663878
v 0.368973 0.050659 -0.672960
v 0.224132 -0.177555 -0.687823
v 0.106308 0.123514 -1.262644
v 0.162690 0.051821 -1.264065
v 0.126247 -0.057767 -1.267415
v -0.113526 -0.089098 0.956906
v 0.020010 0.040249 -1.545177
v 0.037528 0.011828 -1.545069
v 0.025063 -0.032575 -1.547001
v -0.006478 0.026351 -1.676056
v 0.006002 0.007273 -1.676351
v -0.002096 -0.021889 -1.677294
v -0.030599 0.033492 -1.805033
v -0.023860 0.008464 -1.804298
v -0.028336 -0.029794 -1.806252
v -0.100851 0.187632 -1.938526
v -0.094296 0.035463 -1.940254
v -0.099176 -0.197136 -1.940474
v -0.137025 0.265364 -2.007586
v -0.130470 0.048424 -2.009315
v -0.135350 -0.283182 -2.009535
v -0.172637 0.273001 0.132994
v -0.130478 -0.159074 0.077137
v -0.283168 0.067251 0.113513
v -0.129301 0.190820 0.681436
v -0.156782 0.051360 0.667884
v -0.102874 -0.094767 0.586171
v -0.131039 -0.049348 0.933094
v -0.124150 -0.063444 0.915610
v -0.107143 0.257610 -0.651034
v -0.207686 0.050659 -0.653259
v -0.064197 -0.177555 -0.677972
v -0.067359 0.123514 -1.244872
v -0.122860 0.051820 -1.234843
v -0.087851 -0.057767 -1.245506
v -0.014556 0.248875 0.705064
v 0.053194 0.431722 0.145813
v 0.080016 0.380931 -0.681484
v 0.019100 0.177768 -1.257424
v -0.093051 -0.034019 0.979177
v 0.015409 -0.210664 0.534709
v 0.065052 -0.337665 -0.024140
v 0.078764 -0.222210 -0.719586
v 0.018800 -0.113104 -1.260348
v -0.089538 -0.094433 0.965441
v -0.040298 0.040249 -1.538579
v -0.057379 0.011828 -1.534687
v -0.045626 -0.032575 -1.539268
v -0.010331 0.063840 -1.543582
v -0.010301 -0.057490 -1.543310
v -0.044810 0.026351 -1.671592
v -0.057024 0.007273 -1.669011
v -0.049352 -0.021889 -1.671792
v -0.025756 0.040788 -1.674798
v -0.025829 -0.036614 -1.675577
v -0.050976 0.033492 -1.802660
v -0.057365 0.008464 -1.800396
v -0.053458 -0.029794 -1.803326
v -0.040936 0.052433 -1.805125
v -0.041055 -0.049113 -1.806144
v -0.119024 0.187632 -1.929007
v -0.124177 0.035463 -1.924603
v -0.121579 -0.197136 -1.928739
v -0.110534 0.302787 -1.934906
v -0.111010 -0.314588 -1.935815
v -0.155198 0.265364 -1.998067
v -0.160351 0.048424 -1.993663
v -0.157754 -0.283182 -1.997800
v -0.146709 0.429535 -2.003967
v -0.147185 -0.450629 -2.004875
v -0.154108 0.266998 -2.018093
v -0.142762 0.047052 -1.996433
v -0.153669 -0.284283 -2.017255
v -0.084077 0.002003 0.944089
v -0.075540 -0.109233 0.910708
v -0.021099 -0.018766 0.928013
v -0.042547 -0.089820 0.926432
v -0.015137 -0.048825 0.911611
v -0.131604 -0.018766 0.899750
v -0.112030 -0.089820 0.908661
v -0.128959 -0.048825 0.882500
v 0.197727 -0.047232 0.380277
v 0.251938 0.023063 0.350409
v 0.244621 -0.186012 0.236737
v 0.339945 -0.062406 0.184218
v 0.224832 -0.012085 0.365343
v 0.310962 -0.152154 0.197058
v 0.233951 -0.130059 0.312947
v 0.310063 -0.031364 0.271013
v 0.272007 -0.080711 0.291980
v -0.141168 -0.049677 0.342105
v -0.183765 0.025359 0.305672
v -0.251570 -0.196010 0.250121
v -0.326471 -0.064067 0.186057
v -0.162466 -0.012159 0.323888
v -0.316197 -0.153845 0.215955
v -0.210366 -0.131055 0.306120
v -0.270172 -0.025704 0.254967
v -0.240269 -0.078379 0.280543
v 0.059614 0.436122 -0.022540
v 0.058444 0.416399 0.011923
v 0.039067 0.274162 -1.062307
v 0.033622 0.222699 -1.115514
v 0.074461 0.394554 -0.814675
v 0.076199 0.450024 -0.555731
v 0.078761 0.464016 -0.291701
v 0.068298 0.393161 -0.278235
v 0.086972 0.379138 -0.550087
v 0.065603 0.328875 -0.803005
v -0.074021 -0.038183 0.903676
v -0.074528 -0.083997 0.909897
v 0.061174 0.104667 0.786076
v 0.044041 0.093067 0.808640
v 0.039778 0.065129 0.820413
v 0.050884 0.037220 0.814498
v 0.070853 0.025688 0.794360
v 0.087986 0.037288 0.771796
v 0.092249 0.065225 0.760023
v 0.081143 0.093134 0.765938
v 0.072123 0.085916 0.795559
v 0.063906 0.080353 0.806380
v 0.061862 0.066956 0.812026
v 0.067188 0.053572 0.809189
v 0.076764 0.048041 0.799532
v 0.084981 0.053604 0.788711
v 0.087025 0.067002 0.783065
v 0.081699 0.080386 0.785902
v 0.076213 0.067357 0.799084
v 0.058617 0.104120 0.783853
v 0.041484 0.092520 0.806418
v 0.037222 0.064583 0.818190
v 0.048328 0.036674 0.812276
v 0.068296 0.025141 0.792138
v 0.085430 0.036741 0.769574
v 0.089692 0.064678 0.757801
v 0.078586 0.092588 0.763716
v -0.135629 0.104667 0.735742
v -0.131432 0.093067 0.763761
v -0.133346 0.065129 0.776135
v -0.140248 0.037220 0.765614
v -0.148096 0.025688 0.738362
v -0.152293 0.037288 0.710343
v -0.150379 0.065225 0.697969
v -0.143477 0.093134 0.708490
v -0.149786 0.085916 0.738804
v -0.147774 0.080353 0.752241
v -0.148691 0.066956 0.758175
v -0.152001 0.053572 0.753129
v -0.155765 0.048041 0.740061
v -0.157777 0.053604 0.726624
v -0.156860 0.067002 0.720690
v -0.153550 0.080386 0.725735
v -0.155067 0.067357 0.739932
v -0.132319 0.104120 0.735020
v -0.128123 0.092520 0.763039
v -0.130036 0.064583 0.775413
v -0.136938 0.036674 0.764892
v -0.144787 0.025141 0.737640
v -0.148983 0.036741 0.709621
v -0.147070 0.064678 0.697247
v -0.140167 0.092588 0.707768
vn 0.5273 0.7867 0.3211
vn 0.8119 0.4351 0.3891
vn 0.7753 -0.5698 0.2724
vn 0.6009 -0.7663 0.2275
vn 0.3766 0.5875 0.7163
vn 0.4140 -0.8829 0.2215
vn 0.8258 -0.1350 0.5475
vn 0.8183 -0.3968 0.4159
vn 0.3200 -0.9356 -0.1490
vn 0.8413 -0.5405 -0.0113
vn 0.8777 0.4789 -0.0193
vn 0.5487 0.8353 -0.0335
vn 0.3331 -0.9106 -0.2445
vn 0.8173 -0.5001 -0.2862
vn 0.7383 0.5872 -0.3319
vn 0.4829 0.8085 -0.3363
vn 0.8900 -0.2851 -0.3558
vn 0.4754 0.7995 -0.3672
vn 0.4328 -0.8703 -0.2350
vn 0.7870 0.4837 -0.3829
vn 0.9422 -0.2550 -0.2174
vn 0.5938 0.7777 -0.2064
vn 0.5099 -0.8422 -0.1754
vn 0.8144 0.5362 -0.2218
vn 0.5236 -0.8502 -0.0544
vn 0.9537 0.2519 -0.1644
vn 0.9413 -0.2542 -0.2221
vn 0.8763 0.4780 -0.0594
vn 0.8787 -0.0788 -0.4709
vn 0.9393 0.0894 -0.3313
vn 0.8122 -0.5334 0.2363
vn 0.9040 0.0438 -0.4252
vn 0.8992 0.0306 -0.4365
vn 0.8843 -0.0181 -0.4666
vn 0.9268 0.0628 -0.3702
vn 0.9295 -0.1077 -0.3527
vn 0.5267 0.0498 -0.8486
vn 0.5191 -0.0572 -0.8528
vn 0.3905 -0.0532 -0.9191
vn -0.7241 0.0111 -0.6897
vn -0.4723 0.8655 0.1670
vn -0.8693 0.4470 0.2110
vn -0.8146 -0.5682 0.1160
vn -0.6361 -0.7627 0.1168
vn -0.6920 0.5244 0.4961
vn -0.6938 -0.7197 0.0264
vn -0.9545 -0.2276 -0.1926
vn -0.9195 -0.3925 -0.0201
vn -0.6857 -0.7267 -0.0424
vn -0.8321 -0.5501 -0.0700
vn -0.8747 0.4777 -0.0824
vn -0.5714 0.8182 -0.0638
vn -0.3407 -0.9227 -0.1805
vn -0.8460 -0.5184 -0.1244
vn -0.8914 0.4345 -0.1291
vn -0.5614 0.7972 -0.2219
vn -0.9436 -0.2851 -0.1681
vn -0.5399 0.7996 -0.2628
vn -0.4714 -0.8703 -0.1424
vn -0.7826 0.5713 -0.2471
vn -0.9665 -0.2565 0.0061
vn -0.6238 0.7790 -0.0635
vn -0.5799 -0.8125 -0.0601
vn -0.8581 0.5130 -0.0197
vn -0.5216 -0.8505 0.0674
vn -0.8417 0.5399 0.0071
vn -0.9671 -0.2545 0.0002
vn -0.5947 0.8008 0.0716
vn -0.8849 -0.1248 0.4488
vn -0.5350 0.3817 0.7538
vn -0.4554 -0.4078 0.7914
vn -0.8269 0.2564 0.5005
vn -0.8816 0.0435 0.4700
vn -0.8871 -0.0181 0.4613
vn -0.8374 0.0894 0.5392
vn -0.8192 -0.1077 0.5633
vn -0.9975 0.0498 -0.0503
vn -0.1567 -0.0163 -0.9875
vn -0.9779 -0.0532 -0.2023
vn -0.9771 0.0452 -0.2077
vn -0.9106 -0.4126 -0.0221
vn -0.9715 0.1760 0.1587
vn -0.2755 -0.9434 0.1846
vn -0.7170 0.5698 0.4016
vn 0.8094 -0.4126 0.4179
vn 0.7727 0.1539 0.6159
vn 0.1530 -0.9434 0.2942
vn 0.4362 0.5698 0.6965
vn 0.7945 -0.4310 0.4277
vn 0.6933 -0.2471 0.6769
vn -0.7202 0.1436 0.6788
vn -0.7425 -0.1000 0.6623
vn -0.5450 0.0951 0.8330
vn -0.9868 0.1456 0.0703
vn -0.9994 -0.0000 -0.0339
vn -0.9885 0.1318 -0.0747
vn -0.9884 -0.1472 0.0382
vn 0.2480 -0.9619 0.1155
vn -0.2722 -0.9621 -0.0156
vn -0.6208 0.1122 0.7759
vn 0.1667 0.1308 0.9773
vn 0.3888 0.8241 0.4119
vn -0.2246 0.9669 0.1210
vn 0.4573 -0.5956 0.6604
vn -0.7143 -0.5987 0.3625
vn 0.1371 0.9661 0.2186
vn -0.5477 0.8205 0.1634
vn 0.9260 0.3294 0.1845
vn 0.8262 -0.3250 0.4603
vn 0.3585 -0.0549 0.9319
vn 0.4583 0.5995 0.6562
vn 0.7128 0.5999 0.3633
vn 0.9729 -0.0537 0.2247
vn 0.5716 -0.3254 0.7532
vn 0.3115 0.3283 0.8917
vn 0.6903 0.2789 0.6676
vn 0.7570 0.2791 0.5908
vn 0.8252 0.1078 0.5545
vn 0.7200 0.0366 0.6930
vn 0.6519 0.2079 0.7293
vn 0.8128 0.2082 0.5440
vn 0.7867 0.0367 0.6162
vn 0.6642 0.1075 0.7398
vn 0.6523 -0.3767 -0.6578
vn -0.1392 -0.9125 0.3845
vn -0.6523 0.3767 0.6578
vn 0.5596 0.3789 -0.7370
vn 0.3628 -0.9116 -0.1932
vn -0.5596 -0.3789 0.7370
vn -0.3628 0.9116 0.1932
vn 0.1392 0.9125 -0.3845
vn -0.9009 0.3294 -0.2827
vn -0.9457 -0.3250 0.0071
vn -0.7619 -0.0549 0.6454
vn -0.7171 0.5995 0.3556
vn -0.7997 0.5999 -0.0236
vn -0.9614 -0.0537 -0.2700
vn -0.8631 -0.3254 0.3863
vn -0.7014 0.3283 0.6327
vn -0.9261 0.2789 0.2542
vn -0.9477 0.2791 0.1548
vn -0.9901 0.1078 0.0903
vn -0.9643 0.0366 0.2622
vn -0.9220 0.2079 0.3268
vn -0.9742 0.2082 0.0869
vn -0.9860 0.0367 0.1629
vn -0.9378 0.1075 0.3301
vn -0.2563 -0.3767 -0.8902
vn -0.0625 -0.9125 0.4042
vn 0.2564 0.3767 0.8902
vn -0.1371 0.3789 -0.9152
vn -0.2255 -0.9116 -0.3436
vn 0.1370 -0.3789 0.9152
vn 0.2255 0.9116 0.3437
vn 0.0625 0.9125 -0.4042
vn 0.4024 0.8785 0.2574
vn 0.9262 0.1945 0.3231
vn 0.8434 -0.3794 0.3805
vn 0.6460 -0.7187 0.2572
vn 0.2021 0.6239 0.7549
vn 0.5870 -0.7346 0.3402
vn 0.9298 -0.2276 0.2893
vn 0.8176 -0.3984 0.4158
vn 0.7058 -0.7084 -0.0017
vn 0.8445 -0.5354 -0.0093
vn 0.8991 0.4365 -0.0322
vn 0.5768 0.8166 -0.0220
vn 0.4345 -0.8723 -0.2242
vn 0.9278 -0.3019 -0.2191
vn 0.8543 0.4265 -0.2973
vn 0.5388 0.7790 -0.3207
vn 0.9059 -0.2391 -0.3494
vn 0.5534 0.7378 -0.3865
vn 0.5473 -0.8088 -0.2152
vn 0.7164 0.5713 -0.4004
vn 0.9423 -0.2547 -0.2173
vn 0.5788 0.7903 -0.2011
vn 0.5516 -0.8115 -0.1928
vn 0.8313 0.5116 -0.2174
vn 0.8343 -0.5495 -0.0447
vn 0.8208 0.5399 -0.1866
vn 0.9758 -0.1044 -0.1922
vn 0.5953 0.8007 -0.0670
vn 0.8935 -0.0183 -0.4487
vn 0.8739 0.4774 0.0913
vn 0.9501 -0.1074 -0.2928
vn 0.8826 0.2255 -0.4125
vn 0.8883 0.0435 -0.4572
vn 0.8922 -0.0128 -0.4514
vn 0.9201 0.0894 -0.3814
vn 0.9368 -0.0757 -0.3416
vn -0.7225 -0.0163 -0.6911
vn 0.3857 0.0452 -0.9215
vn -0.5716 0.7978 0.1916
vn -0.9776 0.1825 0.1046
vn -0.8823 -0.4311 0.1888
vn -0.6648 -0.7358 0.1290
vn -0.4616 0.6807 0.5688
vn -0.4697 -0.8828 0.0002
vn -0.9873 -0.1350 0.0838
vn -0.9434 -0.3302 -0.0318
vn -0.3366 -0.9278 -0.1607
vn -0.8480 -0.5265 -0.0615
vn -0.8948 0.4358 -0.0975
vn -0.5567 0.8279 -0.0689
vn -0.4705 -0.8736 -0.1241
vn -0.9530 -0.3021 -0.0240
vn -0.7894 0.5853 -0.1850
vn -0.5412 0.8117 -0.2196
vn -0.9585 -0.2374 -0.1581
vn -0.6233 0.7354 -0.2659
vn -0.5811 -0.8078 -0.0990
vn -0.8498 0.4813 -0.2148
vn -0.9669 -0.2550 0.0066
vn -0.6094 0.7905 -0.0619
vn -0.5360 -0.8426 -0.0529
vn -0.8435 0.5364 -0.0274
vn -0.8222 -0.5495 0.1485
vn -0.9659 0.2519 0.0592
vn -0.9938 -0.1044 0.0373
vn -0.8665 0.4780 0.1436
vn -0.8680 -0.0185 0.4962
vn -0.7957 0.0894 0.5991
vn -0.7667 -0.1071 0.6330
vn -0.8562 0.0439 0.5147
vn -0.8708 0.0306 0.4906
vn -0.8791 -0.0128 0.4765
vn -0.8320 0.0628 0.5511
vn -0.8142 -0.0757 0.5756
vn -0.9966 -0.0572 -0.0589
vn -0.1547 0.0111 -0.9879
vn -0.9123 -0.4068 -0.0471
vn -0.9895 -0.1268 0.0691
vn -0.4696 -0.8829 -0.0013
vn -0.6915 0.5265 0.4946
vn 0.8229 -0.4068 0.3967
vn 0.8213 -0.1390 0.5533
vn 0.4126 -0.8829 0.2243
vn 0.3691 0.5265 0.7659
vn 0.8437 -0.2013 0.4977
vn 0.6178 -0.4853 0.6188
vn -0.5415 -0.1614 0.8251
vn -0.9948 0.0000 0.1018
vn -0.9892 0.1354 -0.0563
vn -0.9887 -0.1489 0.0175
vn -0.9882 0.1431 0.0551
vn 0.7128 0.6000 0.3633
vn 0.6522 -0.3767 -0.6578
vn -0.6522 0.3767 0.6578
vn -0.5597 -0.3789 0.7370
vn -0.7014 0.3282 0.6327
vn -0.2564 -0.3767 -0.8902
vn 0.2563 0.3767 0.8902
vn -0.1370 0.3789 -0.9152
vn -0.2255 -0.9116 -0.3437
vn 0.1371 -0.3789 0.9152
vn 0.2255 0.9116 0.3436
usemtl BodyTop.001
s off
f 46//1 1//1 47//1
f 1//2 5//2 3//2
usemtl BodyBottom.001
f 3//3 6//3 2//3
f 2//4 51//4 52//4
usemtl BodyTop.001
f 86//5 46//5 84//5
usemtl BodyBottom.001
f 85//6 6//6 87//6
usemtl BodyTop.001
f 86//7 9//7 88//7
usemtl BodyBottom.001
f 6//8 88//8 87//8
f 12//9 52//9 53//9
f 2//10 11//10 3//10
usemtl BodyTop.001
f 3//11 10//11 1//11
f 47//12 10//12 48//12
usemtl BodyBottom.001
f 53//13 15//13 12//13
f 12//14 14//14 11//14
usemtl BodyTop.001
f 10//15 14//15 13//15
f 48//16 13//16 49//16
usemtl BodyBottom.001
f 15//17 18//17 14//17
usemtl BodyTop.001
f 13//18 59//18 49//18
usemtl BodyBottom.001
f 54//19 19//19 15//19
usemtl BodyTop.001
f 13//20 18//20 17//20
usemtl BodyBottom.001
f 19//21 21//21 18//21
usemtl BodyTop.001
f 17//22 64//22 59//22
usemtl BodyBottom.001
f 19//23 65//23 22//23
usemtl BodyTop.001
f 17//24 21//24 20//24
usemtl BodyBottom.001
f 65//25 25//25 22//25
usemtl BodyTop.001
f 20//26 24//26 23//26
usemtl BodyBottom.001
f 22//27 24//27 21//27
usemtl BodyTop.001
f 64//28 23//28 69//28
usemtl BodyBottom.001
f 25//29 27//29 24//29
usemtl BodyTop.001
f 69//30 26//30 74//30
usemtl BodyBottom.001
f 70//31 28//31 25//31
usemtl BodyTop.001
f 23//32 27//32 26//32
f 26//33 30//33 29//33
usemtl BodyBottom.001
f 28//34 30//34 27//34
usemtl BodyTop.001
f 74//35 29//35 79//35
usemtl BodyBottom.001
f 75//36 31//36 28//36
usemtl BodyTop.001
f 29//37 81//37 79//37
f 29//38 82//38 81//38
usemtl BodyBottom.001
f 31//39 80//39 83//39
f 31//40 82//40 30//40
usemtl BodyTop.001
f 46//41 32//41 35//41
f 36//42 32//42 34//42
usemtl BodyBottom.001
f 37//43 34//43 33//43
f 51//44 33//44 52//44
usemtl BodyTop.001
f 84//45 35//45 89//45
usemtl BodyBottom.001
f 85//46 37//46 51//46
usemtl BodyTop.001
f 89//47 39//47 38//47
usemtl BodyBottom.001
f 91//48 37//48 90//48
f 42//49 52//49 33//49
f 41//50 33//50 34//50
usemtl BodyTop.001
f 40//51 34//51 32//51
f 47//52 40//52 32//52
usemtl BodyBottom.001
f 45//53 53//53 42//53
f 44//54 42//54 41//54
usemtl BodyTop.001
f 40//55 44//55 41//55
f 49//56 40//56 48//56
usemtl BodyBottom.001
f 57//57 45//57 44//57
usemtl BodyTop.001
f 59//58 43//58 49//58
usemtl BodyBottom.001
f 58//59 54//59 45//59
usemtl BodyTop.001
f 43//60 57//60 44//60
usemtl BodyBottom.001
f 62//61 58//61 57//61
usemtl BodyTop.001
f 64//62 56//62 59//62
usemtl BodyBottom.001
f 58//63 65//63 60//63
usemtl BodyTop.001
f 56//64 62//64 57//64
usemtl BodyBottom.001
f 68//65 65//65 63//65
usemtl BodyTop.001
f 61//66 67//66 62//66
usemtl BodyBottom.001
f 67//67 63//67 62//67
usemtl BodyTop.001
f 64//68 66//68 61//68
usemtl BodyBottom.001
f 72//69 68//69 67//69
usemtl BodyTop.001
f 69//70 71//70 66//70
usemtl BodyBottom.001
f 73//71 70//71 68//71
usemtl BodyTop.001
f 66//72 72//72 67//72
f 71//73 77//73 72//73
usemtl BodyBottom.001
f 77//74 73//74 72//74
usemtl BodyTop.001
f 74//75 76//75 71//75
usemtl BodyBottom.001
f 78//76 75//76 73//76
usemtl BodyTop.001
f 76//77 79//77 81//77
f 76//78 82//78 77//78
usemtl BodyBottom.001
f 78//79 83//79 80//79
f 78//80 82//80 83//80
f 39//81 90//81 16//81
usemtl BodyTop.001
f 36//82 89//82 35//82
usemtl BodyBottom.001
f 16//83 85//83 55//83
usemtl BodyTop.001
f 84//84 38//84 50//84
usemtl BodyBottom.001
f 87//85 9//85 8//85
usemtl BodyTop.001
f 86//86 5//86 4//86
usemtl BodyBottom.001
f 85//87 8//87 55//87
usemtl BodyTop.001
f 7//88 84//88 50//88
usemtl Fin.001
f 100//89 95//89 99//89
f 94//89 100//89 98//89
f 92//90 100//90 96//90
f 100//90 93//90 96//90
f 109//91 104//91 106//91
f 109//92 103//92 107//92
f 101//93 109//93 107//93
f 102//93 109//93 105//93
f 112//94 119//94 114//94
f 110//95 117//95 111//95
f 116//96 118//96 117//96
f 114//97 118//97 115//97
usemtl Mouth.001
f 38//98 120//98 50//98
f 120//99 7//99 50//99
f 120//100 121//100 9//100
f 39//101 121//101 120//101
f 16//102 121//102 39//102
f 8//103 121//103 55//103
f 38//104 39//104 120//104
f 120//105 9//105 7//105
f 16//106 55//106 121//106
f 8//107 9//107 121//107
usemtl Eye.001
f 137//108 128//108 129//108
f 127//109 134//109 126//109
f 125//110 132//110 124//110
f 123//111 130//111 122//111
f 122//112 137//112 129//112
f 128//113 135//113 127//113
f 126//114 133//114 125//114
f 132//115 123//115 124//115
usemtl Pupil.001
f 131//116 138//116 130//116
f 130//117 138//117 137//117
f 136//118 138//118 135//118
f 134//119 138//119 133//119
f 132//120 138//120 131//120
f 137//121 138//121 136//121
f 135//122 138//122 134//122
f 133//123 138//123 132//123
usemtl Eye.001
f 127//124 145//124 128//124
f 142//125 126//125 125//125
f 123//126 141//126 124//126
f 145//127 129//127 128//127
f 143//128 127//128 126//128
f 124//129 142//129 125//129
f 139//130 123//130 122//130
f 129//131 139//131 122//131
f 154//132 161//132 162//132
f 151//133 160//133 152//133
f 150//134 157//134 158//134
f 147//135 156//135 148//135
f 147//136 162//136 155//136
f 152//137 161//137 153//137
f 151//138 158//138 159//138
f 149//139 156//139 157//139
usemtl Pupil.001
f 156//140 155//140 163//140
f 155//141 162//141 163//141
f 161//142 160//142 163//142
f 159//143 158//143 163//143
f 157//144 156//144 163//144
f 162//145 161//145 163//145
f 160//146 159//146 163//146
f 158//147 157//147 163//147
usemtl Eye.001
f 153//148 169//148 152//148
f 150//149 168//149 167//149
f 149//150 165//150 148//150
f 154//151 170//151 153//151
f 152//152 168//152 151//152
f 149//153 167//153 166//153
f 147//154 165//154 164//154
f 147//155 171//155 154//155
usemtl BodyTop.001
f 46//156 4//156 1//156
f 1//157 4//157 5//157
usemtl BodyBottom.001
f 3//158 5//158 6//158
f 2//159 6//159 51//159
usemtl BodyTop.001
f 86//160 4//160 46//160
usemtl BodyBottom.001
f 85//161 51//161 6//161
usemtl BodyTop.001
f 86//162 7//162 9//162
usemtl BodyBottom.001
f 6//163 5//163 88//163
f 12//164 2//164 52//164
f 2//165 12//165 11//165
usemtl BodyTop.001
f 3//166 11//166 10//166
f 47//167 1//167 10//167
usemtl BodyBottom.001
f 53//168 54//168 15//168
f 12//169 15//169 14//169
usemtl BodyTop.001
f 10//170 11//170 14//170
f 48//171 10//171 13//171
usemtl BodyBottom.001
f 15//172 19//172 18//172
usemtl BodyTop.001
f 13//173 17//173 59//173
usemtl BodyBottom.001
f 54//174 60//174 19//174
usemtl BodyTop.001
f 13//175 14//175 18//175
usemtl BodyBottom.001
f 19//176 22//176 21//176
usemtl BodyTop.001
f 17//177 20//177 64//177
usemtl BodyBottom.001
f 19//178 60//178 65//178
usemtl BodyTop.001
f 17//179 18//179 21//179
usemtl BodyBottom.001
f 65//180 70//180 25//180
usemtl BodyTop.001
f 20//181 21//181 24//181
usemtl BodyBottom.001
f 22//182 25//182 24//182
usemtl BodyTop.001
f 64//183 20//183 23//183
usemtl BodyBottom.001
f 25//184 28//184 27//184
usemtl BodyTop.001
f 69//185 23//185 26//185
usemtl BodyBottom.001
f 70//186 75//186 28//186
usemtl BodyTop.001
f 23//187 24//187 27//187
f 26//188 27//188 30//188
usemtl BodyBottom.001
f 28//189 31//189 30//189
usemtl BodyTop.001
f 74//190 26//190 29//190
usemtl BodyBottom.001
f 75//191 80//191 31//191
usemtl BodyTop.001
f 29//192 30//192 82//192
usemtl BodyBottom.001
f 31//193 83//193 82//193
usemtl BodyTop.001
f 46//194 47//194 32//194
f 36//195 35//195 32//195
usemtl BodyBottom.001
f 37//196 36//196 34//196
f 51//197 37//197 33//197
usemtl BodyTop.001
f 84//198 46//198 35//198
usemtl BodyBottom.001
f 85//199 90//199 37//199
usemtl BodyTop.001
f 89//200 91//200 39//200
usemtl BodyBottom.001
f 91//201 36//201 37//201
f 42//202 53//202 52//202
f 41//203 42//203 33//203
usemtl BodyTop.001
f 40//204 41//204 34//204
f 47//205 48//205 40//205
usemtl BodyBottom.001
f 45//206 54//206 53//206
f 44//207 45//207 42//207
usemtl BodyTop.001
f 40//208 43//208 44//208
f 49//209 43//209 40//209
usemtl BodyBottom.001
f 57//210 58//210 45//210
usemtl BodyTop.001
f 59//211 56//211 43//211
usemtl BodyBottom.001
f 58//212 60//212 54//212
usemtl BodyTop.001
f 43//213 56//213 57//213
usemtl BodyBottom.001
f 62//214 63//214 58//214
usemtl BodyTop.001
f 64//215 61//215 56//215
usemtl BodyBottom.001
f 58//216 63//216 65//216
usemtl BodyTop.001
f 56//217 61//217 62//217
usemtl BodyBottom.001
f 68//218 70//218 65//218
usemtl BodyTop.001
f 61//219 66//219 67//219
usemtl BodyBottom.001
f 67//220 68//220 63//220
usemtl BodyTop.001
f 64//221 69//221 66//221
usemtl BodyBottom.001
f 72//222 73//222 68//222
usemtl BodyTop.001
f 69//223 74//223 71//223
usemtl BodyBottom.001
f 73//224 75//224 70//224
usemtl BodyTop.001
f 66//225 71//225 72//225
f 71//226 76//226 77//226
usemtl BodyBottom.001
f 77//227 78//227 73//227
usemtl BodyTop.001
f 74//228 79//228 76//228
usemtl BodyBottom.001
f 78//229 80//229 75//229
usemtl BodyTop.001
f 76//230 81//230 82//230
usemtl BodyBottom.001
f 78//231 77//231 82//231
f 39//232 91//232 90//232
usemtl BodyTop.001
f 36//233 91//233 89//233
usemtl BodyBottom.001
f 16//234 90//234 85//234
usemtl BodyTop.001
f 84//235 89//235 38//235
usemtl BodyBottom.001
f 87//236 88//236 9//236
usemtl BodyTop.001
f 86//237 88//237 5//237
usemtl BodyBottom.001
f 85//238 87//238 8//238
usemtl BodyTop.001
f 7//239 86//239 84//239
usemtl Fin.001
f 100//240 97//240 95//240
f 94//241 97//241 100//241
f 92//90 98//90 100//90
f 100//90 99//90 93//90
f 109//92 108//92 104//92
f 109//242 106//242 103//242
f 101//93 105//93 109//93
f 102//93 108//93 109//93
f 112//243 113//243 119//243
f 110//244 116//244 117//244
f 116//245 115//245 118//245
f 114//246 119//246 118//246
usemtl Eye.001
f 137//108 136//108 128//108
f 127//109 135//109 134//109
f 125//110 133//110 132//110
f 123//111 131//111 130//111
f 122//247 130//247 137//247
f 128//113 136//113 135//113
f 126//114 134//114 133//114
f 132//115 131//115 123//115
f 127//248 144//248 145//248
f 142//125 143//125 126//125
f 123//249 140//249 141//249
f 145//127 146//127 129//127
f 143//128 144//128 127//128
f 124//250 141//250 142//250
f 139//130 140//130 123//130
f 129//131 146//131 139//131
f 154//132 153//132 161//132
f 151//133 159//133 160//133
f 150//134 149//134 157//134
f 147//135 155//135 156//135
f 147//136 154//136 162//136
f 152//137 160//137 161//137
f 151//138 150//138 158//138
f 149//251 148//251 156//251
f 153//252 170//252 169//252
f 150//149 151//149 168//149
f 149//253 166//253 165//253
f 154//254 171//254 170//254
f 152//255 169//255 168//255
f 149//256 150//256 167//256
f 147//257 148//257 165//257
f 147//155 164//155 171//155
