# Blender v2.79 (sub 0) OBJ File: 'Minnnow_ioexperment.blend'
# www.blender.org
mtllib Minnnow_ioexperment_000006.mtl
v 0.206759 0.273001 0.079667
v 0.161126 -0.159074 0.026664
v 0.315778 0.067251 0.053151
v 0.195711 0.190820 0.641393
v 0.223592 0.051360 0.628532
v 0.171713 -0.094767 0.545279
v 0.152722 -0.049348 0.904728
v 0.132130 -0.089098 0.925933
v 0.148278 -0.063444 0.886468
v 0.097253 0.257610 -0.704760
v 0.197329 0.050659 -0.716434
v 0.051885 -0.177555 -0.727590
v -0.021177 0.123514 -1.295245
v 0.035160 0.051821 -1.292583
v -0.000945 -0.057767 -1.298561
v 0.081749 -0.089098 0.931691
v -0.086178 0.040249 -1.582297
v -0.068773 0.011828 -1.580354
v -0.080964 -0.032575 -1.583581
v -0.093837 0.026351 -1.714582
v -0.081434 0.007273 -1.713161
v -0.089345 -0.021889 -1.715209
v -0.100024 0.033492 -1.845648
v -0.093450 0.008464 -1.843995
v -0.097616 -0.029794 -1.846545
v -0.136864 0.187632 -1.990852
v -0.130087 0.035463 -1.990998
v -0.134779 -0.197136 -1.992354
v -0.155858 0.265364 -2.066464
v -0.149081 0.048424 -2.066610
v -0.153773 -0.283182 -2.067966
v -0.241404 0.273001 0.140010
v -0.211403 -0.159074 0.076601
v -0.353559 0.067251 0.143244
v -0.036404 0.190820 0.676048
v -0.066826 0.051360 0.671890
v -0.041526 -0.094767 0.577115
v 0.056902 -0.049348 0.915679
v 0.057112 -0.063444 0.896887
v -0.278948 0.257610 -0.682218
v -0.379702 0.050659 -0.681858
v -0.236631 -0.177555 -0.710302
v -0.195675 0.123514 -1.290081
v -0.251756 0.051821 -1.284094
v -0.216067 -0.057767 -1.292196
v 0.080155 0.248875 0.662083
v -0.017715 0.431722 0.106928
v -0.092288 0.380931 -0.717532
v -0.108535 0.177768 -1.296346
v 0.108813 -0.034020 0.945208
v 0.054562 -0.210664 0.490657
v -0.040435 -0.337665 -0.061861
v -0.094595 -0.222210 -0.755655
v -0.108622 -0.113104 -1.299284
v 0.107203 -0.094433 0.931122
v -0.146827 0.040249 -1.582059
v -0.164216 0.011828 -1.579980
v -0.152052 -0.032575 -1.583302
v -0.116509 0.063840 -1.583891
v -0.116508 -0.057490 -1.583618
v -0.132419 0.026351 -1.715420
v -0.144872 0.007273 -1.714539
v -0.136908 -0.021889 -1.716238
v -0.113110 0.040788 -1.715981
v -0.113158 -0.036614 -1.716763
v -0.120535 0.033492 -1.846094
v -0.127174 0.008464 -1.844728
v -0.122902 -0.029794 -1.847095
v -0.110252 0.052433 -1.847158
v -0.110229 -0.049113 -1.848183
v -0.156761 0.187632 -1.985854
v -0.162802 0.035463 -1.982780
v -0.159308 -0.197136 -1.986192
v -0.147126 0.302787 -1.989601
v -0.147376 -0.314588 -1.990596
v -0.175755 0.265364 -2.061466
v -0.181797 0.048424 -2.058392
v -0.178302 -0.283182 -2.061805
v -0.166120 0.429535 -2.065213
v -0.166370 -0.450629 -2.066208
v -0.170005 0.266998 -2.080679
v -0.164048 0.047052 -2.056965
v -0.169775 -0.284283 -2.079763
v 0.104701 0.002003 0.909225
v 0.100788 -0.109233 0.874993
v 0.157823 -0.018766 0.871771
v 0.137218 -0.089820 0.877933
v 0.157551 -0.048825 0.854321
v 0.044498 -0.018766 0.884723
v 0.065962 -0.089820 0.886077
v 0.040825 -0.048825 0.867661
v 0.191106 -0.048366 0.291550
v 0.229723 0.024127 0.246541
v 0.223458 -0.193600 0.150400
v 0.291362 -0.066129 0.071257
v 0.210415 -0.012119 0.269045
v 0.276048 -0.156873 0.095562
v 0.222145 -0.132662 0.223459
v 0.276364 -0.030882 0.160266
v 0.249255 -0.081772 0.191862
v -0.145599 -0.048354 0.349763
v -0.200252 0.024116 0.326668
v -0.236739 -0.193402 0.236991
v -0.332840 -0.065970 0.196381
v -0.172926 -0.012119 0.338216
v -0.308209 -0.156717 0.211143
v -0.203385 -0.132605 0.302137
v -0.280118 -0.030856 0.269711
v -0.241752 -0.081730 0.285924
v -0.033749 0.436122 -0.060770
v -0.030641 0.416399 -0.026428
v -0.102734 0.274162 -1.100297
v -0.104316 0.222699 -1.153758
v -0.085346 0.394554 -0.850753
v -0.095592 0.450024 -0.591607
v -0.048090 0.464016 -0.330230
v -0.056804 0.393161 -0.315572
v -0.085504 0.379138 -0.585901
v -0.095024 0.328875 -0.839755
v 0.099703 -0.038183 0.867881
v 0.101444 -0.083997 0.873874
v 0.184143 0.104667 0.709838
v 0.176170 0.093067 0.737025
v 0.176381 0.065129 0.749544
v 0.184652 0.037220 0.740062
v 0.196138 0.025687 0.714132
v 0.204110 0.037287 0.686945
v 0.203900 0.065225 0.674426
v 0.195629 0.093134 0.683909
v 0.197751 0.085916 0.714800
v 0.193928 0.080353 0.727838
v 0.194029 0.066956 0.733841
v 0.197995 0.053572 0.729294
v 0.203503 0.048041 0.716859
v 0.207327 0.053604 0.703821
v 0.207226 0.067002 0.697818
v 0.203260 0.080386 0.702365
v 0.202829 0.067357 0.716636
v 0.180962 0.104120 0.708673
v 0.172990 0.092520 0.735860
v 0.173200 0.064583 0.748378
v 0.181471 0.036673 0.738896
v 0.192957 0.025141 0.712966
v 0.200930 0.036741 0.685779
v 0.200719 0.064678 0.673260
v 0.192448 0.092588 0.682743
v -0.017681 0.104667 0.732905
v -0.003780 0.093067 0.757592
v -0.001160 0.065129 0.769835
v -0.011357 0.037220 0.762463
v -0.028397 0.025687 0.739794
v -0.042299 0.037287 0.715107
v -0.044918 0.065225 0.702863
v -0.034721 0.093134 0.710235
v -0.029819 0.085916 0.740809
v -0.023152 0.080353 0.752648
v -0.021896 0.066956 0.758519
v -0.026786 0.053572 0.754984
v -0.034958 0.048041 0.744112
v -0.041625 0.053604 0.732274
v -0.042881 0.067002 0.726402
v -0.037991 0.080386 0.729937
v -0.034351 0.067357 0.743743
v -0.014845 0.104120 0.731051
v -0.000944 0.092520 0.755738
v 0.001675 0.064583 0.767982
v -0.008522 0.036673 0.760610
v -0.025562 0.025141 0.737940
v -0.039463 0.036741 0.713253
v -0.042083 0.064678 0.701010
v -0.031886 0.092588 0.708382
vn 0.5828 0.7968 0.1597
vn 0.8812 0.4471 0.1535
vn 0.8215 -0.5676 0.0536
vn 0.6460 -0.7607 0.0638
vn 0.6060 0.5921 0.5312
vn 0.4655 -0.8829 0.0614
vn 0.9667 -0.1350 0.2175
vn 0.9132 -0.3950 0.1006
vn 0.3182 -0.9308 -0.1797
vn 0.8264 -0.5512 -0.1153
vn 0.8690 0.4773 -0.1307
vn 0.5473 0.8308 -0.1007
vn 0.3231 -0.9198 -0.2229
vn 0.8252 -0.5145 -0.2333
vn 0.7587 0.5856 -0.2852
vn 0.5352 0.7922 -0.2931
vn 0.9135 -0.2851 -0.2903
vn 0.5009 0.7998 -0.3308
vn 0.4487 -0.8704 -0.2029
vn 0.8166 0.4780 -0.3236
vn 0.9625 -0.2582 -0.0829
vn 0.6134 0.7805 -0.1204
vn 0.5280 -0.8431 -0.1021
vn 0.8373 0.5365 -0.1048
vn 0.5250 -0.8509 0.0182
vn 0.9672 0.2519 -0.0319
vn 0.9627 -0.2548 -0.0907
vn 0.8762 0.4780 0.0615
vn 0.9627 -0.0878 -0.2560
vn 0.9910 0.0894 -0.0994
vn 0.7476 -0.5228 0.4095
vn 0.9785 0.0438 -0.2018
vn 0.9764 0.0306 -0.2138
vn 0.9690 -0.0181 -0.2465
vn 0.9878 0.0628 -0.1428
vn 0.9863 -0.1077 -0.1252
vn 0.7108 0.0498 -0.7017
vn 0.7043 -0.0572 -0.7076
vn 0.5949 -0.0532 -0.8020
vn -0.5424 0.0111 -0.8401
vn -0.3839 0.8548 0.3492
vn -0.7858 0.4353 0.4393
vn -0.7531 -0.5698 0.3288
vn -0.5784 -0.7677 0.2759
vn -0.4699 0.5251 0.7096
vn -0.6341 -0.7254 0.2677
vn -0.9605 -0.2276 0.1600
vn -0.8665 -0.3931 0.3077
vn -0.7064 -0.7067 0.0392
vn -0.8412 -0.5394 0.0375
vn -0.8774 0.4788 0.0311
vn -0.5776 0.8163 0.0111
vn -0.3516 -0.9144 -0.2007
vn -0.8434 -0.5063 -0.1801
vn -0.8834 0.4298 -0.1869
vn -0.5662 0.7852 -0.2508
vn -0.9289 -0.2851 -0.2363
vn -0.5194 0.7993 -0.3023
vn -0.4599 -0.8703 -0.1764
vn -0.7628 0.5714 -0.3029
vn -0.9588 -0.2530 -0.1293
vn -0.6130 0.7763 -0.1471
vn -0.5699 -0.8113 -0.1301
vn -0.8492 0.5094 -0.1393
vn -0.5270 -0.8498 -0.0051
vn -0.8347 0.5399 -0.1085
vn -0.9581 -0.2539 -0.1326
vn -0.5990 0.8007 -0.0107
vn -0.9666 -0.1219 0.2256
vn -0.6758 0.4016 0.6181
vn -0.5988 -0.4309 0.6751
vn -0.9214 0.2602 0.2887
vn -0.9672 0.0435 0.2504
vn -0.9704 -0.0181 0.2407
vn -0.9404 0.0894 0.3281
vn -0.9284 -0.1077 0.3557
vn -0.9580 0.0498 -0.2825
vn 0.0789 -0.0163 -0.9968
vn -0.9033 -0.0532 -0.4257
vn -0.9013 0.0452 -0.4308
vn -0.8588 -0.4126 0.3037
vn -0.8490 0.1703 0.5002
vn -0.1917 -0.9434 0.2707
vn -0.5270 0.5698 0.6306
vn 0.9051 -0.4126 0.1022
vn 0.9402 0.1603 0.3004
vn 0.2478 -0.9434 0.2204
vn 0.6557 0.5698 0.4955
vn 0.9088 -0.3123 0.2768
vn 0.8399 -0.1186 0.5296
vn -0.7057 -0.0770 0.7043
vn -0.6924 -0.3154 0.6489
vn -0.5192 -0.1220 0.8459
vn -0.9893 0.1456 -0.0013
vn -0.9959 -0.0000 0.0901
vn -0.9852 0.1413 0.0973
vn -0.9899 -0.1416 -0.0088
vn 0.2728 -0.9619 0.0196
vn -0.2599 -0.9621 0.0824
vn -0.3037 0.1122 0.9461
vn 0.5039 0.1308 0.8538
vn 0.5100 0.8241 0.2464
vn -0.1668 0.9669 0.1930
vn 0.6626 -0.5956 0.4542
vn -0.5383 -0.5987 0.5932
vn 0.2060 0.9661 0.1554
vn -0.4536 0.8205 0.3478
vn 0.9310 0.3294 -0.1574
vn 0.9359 -0.3250 0.1358
vn 0.6669 -0.0549 0.7431
vn 0.6620 0.5995 0.4499
vn 0.7955 0.5999 0.0855
vn 0.9892 -0.0537 -0.1366
vn 0.8024 -0.3254 0.5002
vn 0.6087 0.3282 0.7223
vn 0.8828 0.2789 0.3779
vn 0.9178 0.2791 0.2824
vn 0.9686 0.1078 0.2243
vn 0.9196 0.0366 0.3911
vn 0.8689 0.2079 0.4493
vn 0.9533 0.2082 0.2188
vn 0.9546 0.0367 0.2956
vn 0.8841 0.1075 0.4547
vn 0.3752 -0.3767 -0.8470
vn 0.0069 -0.9125 0.4089
vn -0.3752 0.3767 0.8470
vn 0.2604 0.3789 -0.8880
vn 0.2702 -0.9116 -0.3097
vn -0.2604 -0.3789 0.8880
vn -0.2701 0.9116 0.3097
vn -0.0069 0.9125 -0.4089
vn -0.9425 0.3294 0.0567
vn -0.8811 -0.3250 0.3435
vn -0.4820 -0.0549 0.8744
vn -0.5434 0.5995 0.5877
vn -0.7556 0.5999 0.2628
vn -0.9945 -0.0537 0.0901
vn -0.6689 -0.3254 0.6683
vn -0.4300 0.3283 0.8410
vn -0.7748 0.2789 0.5674
vn -0.8304 0.2791 0.4822
vn -0.8930 0.1078 0.4370
vn -0.8077 0.0366 0.5885
vn -0.7451 0.2079 0.6337
vn -0.8794 0.2082 0.4282
vn -0.8633 0.0367 0.5034
vn -0.7587 0.1075 0.6425
vn -0.5566 -0.3767 -0.7405
vn 0.0855 -0.9125 0.3999
vn 0.5566 0.3767 0.7405
vn -0.4541 0.3789 -0.8064
vn -0.3331 -0.9116 -0.2408
vn 0.4541 -0.3789 0.8064
vn 0.3331 0.9116 0.2408
vn -0.0856 0.9125 -0.3999
vn 0.4642 0.8751 0.1372
vn 0.9803 0.1916 0.0473
vn 0.9072 -0.3986 0.1343
vn 0.6831 -0.7264 0.0761
vn 0.4322 0.6305 0.6447
vn 0.6719 -0.7321 0.1124
vn 0.9719 -0.2276 -0.0608
vn 0.9186 -0.3825 0.0990
vn 0.6806 -0.7282 -0.0807
vn 0.8407 -0.5305 -0.1088
vn 0.8874 0.4373 -0.1460
vn 0.5670 0.8182 -0.0952
vn 0.4500 -0.8732 -0.1869
vn 0.9414 -0.3019 -0.1505
vn 0.8677 0.4333 -0.2434
vn 0.5081 0.8123 -0.2864
vn 0.9302 -0.2349 -0.2819
vn 0.5874 0.7319 -0.3453
vn 0.5654 -0.8064 -0.1734
vn 0.7434 0.5713 -0.3479
vn 0.9633 -0.2555 -0.0821
vn 0.6008 0.7906 -0.1178
vn 0.5704 -0.8135 -0.1132
vn 0.8516 0.5148 -0.0988
vn 0.8325 -0.5495 0.0708
vn 0.8387 0.5399 -0.0721
vn 0.9929 -0.1044 -0.0563
vn 0.5987 0.8008 0.0154
vn 0.9737 -0.0183 -0.2271
vn 0.8321 0.4725 0.2904
vn 0.9925 -0.1073 -0.0588
vn 0.9519 0.2372 -0.1937
vn 0.9707 0.0435 -0.2364
vn 0.9731 -0.0128 -0.2299
vn 0.9838 0.0894 -0.1553
vn 0.9907 -0.0757 -0.1127
vn -0.5406 -0.0163 -0.8412
vn 0.5907 0.0452 -0.8056
vn -0.5165 0.7945 0.3193
vn -0.9077 0.1868 0.3758
vn -0.8051 -0.4145 0.4242
vn -0.6113 -0.7317 0.3015
vn -0.2514 0.6722 0.6964
vn -0.4390 -0.8828 0.1669
vn -0.8927 -0.1350 0.4300
vn -0.8845 -0.3518 0.3063
vn -0.3347 -0.9334 -0.1292
vn -0.8444 -0.5343 0.0396
vn -0.8989 0.4377 0.0197
vn -0.5514 0.8342 -0.0015
vn -0.4602 -0.8727 -0.1633
vn -0.9485 -0.3018 -0.0957
vn -0.7749 0.5865 -0.2355
vn -0.5229 0.8088 -0.2692
vn -0.9432 -0.2413 -0.2283
vn -0.5953 0.7409 -0.3109
vn -0.5690 -0.8099 -0.1426
vn -0.8284 0.4866 -0.2774
vn -0.9584 -0.2542 -0.1296
vn -0.5946 0.7893 -0.1530
vn -0.5237 -0.8395 -0.1448
vn -0.8315 0.5361 -0.1457
vn -0.8348 -0.5495 0.0337
vn -0.9649 0.2519 -0.0740
vn -0.9895 -0.1044 -0.0996
vn -0.8780 0.4780 0.0233
vn -0.9616 -0.0185 0.2739
vn -0.9148 0.0894 0.3939
vn -0.8949 -0.1072 0.4332
vn -0.9543 0.0439 0.2957
vn -0.9615 0.0306 0.2730
vn -0.9662 -0.0128 0.2573
vn -0.9380 0.0628 0.3409
vn -0.9264 -0.0757 0.3689
vn -0.9551 -0.0572 -0.2907
vn 0.0810 0.0111 -0.9967
vn -0.8692 -0.4068 0.2809
vn -0.8955 -0.1318 0.4250
vn -0.4393 -0.8829 0.1660
vn -0.4700 0.5265 0.7085
vn 0.9102 -0.4068 0.0776
vn 0.9655 -0.1373 0.2215
vn 0.4654 -0.8829 0.0626
vn 0.6177 0.5265 0.5842
vn 0.9445 -0.0736 0.3202
vn 0.7818 -0.3672 0.5039
vn -0.4781 -0.3704 0.7964
vn -0.9996 -0.0000 0.0296
vn -0.9886 0.1354 0.0666
vn -0.9751 -0.1240 0.1839
vn -0.9891 0.1471 0.0080
vn 0.6087 0.3283 0.7223
vn -0.2702 0.9116 0.3097
vn -0.4301 0.3283 0.8410
vn 0.0856 -0.9125 0.3999
usemtl BodyTop.001
s off
f 46//1 1//1 47//1
f 1//2 5//2 3//2
usemtl BodyBottom.001
f 3//3 6//3 2//3
f 2//4 51//4 52//4
usemtl BodyTop.001
f 86//5 46//5 84//5
usemtl BodyBottom.001
f 85//6 6//6 87//6
usemtl BodyTop.001
f 86//7 9//7 88//7
usemtl BodyBottom.001
f 6//8 88//8 87//8
f 12//9 52//9 53//9
f 2//10 11//10 3//10
usemtl BodyTop.001
f 3//11 10//11 1//11
f 47//12 10//12 48//12
usemtl BodyBottom.001
f 53//13 15//13 12//13
f 12//14 14//14 11//14
usemtl BodyTop.001
f 10//15 14//15 13//15
f 10//16 49//16 48//16
usemtl BodyBottom.001
f 15//17 18//17 14//17
usemtl BodyTop.001
f 13//18 59//18 49//18
usemtl BodyBottom.001
f 54//19 19//19 15//19
usemtl BodyTop.001
f 13//20 18//20 17//20
usemtl BodyBottom.001
f 19//21 21//21 18//21
usemtl BodyTop.001
f 17//22 64//22 59//22
usemtl BodyBottom.001
f 19//23 65//23 22//23
usemtl BodyTop.001
f 17//24 21//24 20//24
usemtl BodyBottom.001
f 65//25 25//25 22//25
usemtl BodyTop.001
f 20//26 24//26 23//26
usemtl BodyBottom.001
f 22//27 24//27 21//27
usemtl BodyTop.001
f 64//28 23//28 69//28
usemtl BodyBottom.001
f 25//29 27//29 24//29
usemtl BodyTop.001
f 69//30 26//30 74//30
usemtl BodyBottom.001
f 70//31 28//31 25//31
usemtl BodyTop.001
f 23//32 27//32 26//32
f 26//33 30//33 29//33
usemtl BodyBottom.001
f 28//34 30//34 27//34
usemtl BodyTop.001
f 74//35 29//35 79//35
usemtl BodyBottom.001
f 75//36 31//36 28//36
usemtl BodyTop.001
f 29//37 81//37 79//37
f 29//38 82//38 81//38
usemtl BodyBottom.001
f 31//39 80//39 83//39
f 31//40 82//40 30//40
usemtl BodyTop.001
f 47//41 35//41 46//41
f 36//42 32//42 34//42
usemtl BodyBottom.001
f 37//43 34//43 33//43
f 51//44 33//44 52//44
usemtl BodyTop.001
f 84//45 35//45 89//45
usemtl BodyBottom.001
f 85//46 37//46 51//46
usemtl BodyTop.001
f 89//47 39//47 38//47
usemtl BodyBottom.001
f 91//48 37//48 90//48
f 42//49 52//49 33//49
f 41//50 33//50 34//50
usemtl BodyTop.001
f 40//51 34//51 32//51
f 47//52 40//52 32//52
usemtl BodyBottom.001
f 45//53 53//53 42//53
f 44//54 42//54 41//54
usemtl BodyTop.001
f 40//55 44//55 41//55
f 48//56 43//56 40//56
usemtl BodyBottom.001
f 57//57 45//57 44//57
usemtl BodyTop.001
f 59//58 43//58 49//58
usemtl BodyBottom.001
f 58//59 54//59 45//59
usemtl BodyTop.001
f 43//60 57//60 44//60
usemtl BodyBottom.001
f 62//61 58//61 57//61
usemtl BodyTop.001
f 59//62 61//62 56//62
usemtl BodyBottom.001
f 63//63 60//63 58//63
usemtl BodyTop.001
f 56//64 62//64 57//64
usemtl BodyBottom.001
f 68//65 65//65 63//65
usemtl BodyTop.001
f 61//66 67//66 62//66
usemtl BodyBottom.001
f 67//67 63//67 62//67
usemtl BodyTop.001
f 64//68 66//68 61//68
usemtl BodyBottom.001
f 72//69 68//69 67//69
usemtl BodyTop.001
f 69//70 71//70 66//70
usemtl BodyBottom.001
f 73//71 70//71 68//71
usemtl BodyTop.001
f 66//72 72//72 67//72
f 71//73 77//73 72//73
usemtl BodyBottom.001
f 77//74 73//74 72//74
usemtl BodyTop.001
f 74//75 76//75 71//75
usemtl BodyBottom.001
f 78//76 75//76 73//76
usemtl BodyTop.001
f 76//77 79//77 81//77
f 76//78 82//78 77//78
usemtl BodyBottom.001
f 78//79 83//79 80//79
f 78//80 82//80 83//80
f 39//81 90//81 16//81
usemtl BodyTop.001
f 36//82 89//82 35//82
usemtl BodyBottom.001
f 16//83 85//83 55//83
usemtl BodyTop.001
f 84//84 38//84 50//84
usemtl BodyBottom.001
f 87//85 9//85 8//85
usemtl BodyTop.001
f 86//86 5//86 4//86
usemtl BodyBottom.001
f 85//87 8//87 55//87
usemtl BodyTop.001
f 7//88 84//88 50//88
usemtl Fin.001
f 100//89 95//89 99//89
f 94//89 100//89 98//89
f 92//90 100//90 96//90
f 100//90 93//90 96//90
f 109//91 104//91 106//91
f 109//92 103//92 107//92
f 101//93 109//93 107//93
f 102//93 109//93 105//93
f 112//94 119//94 114//94
f 110//95 117//95 111//95
f 116//96 118//96 117//96
f 114//97 118//97 115//97
usemtl Mouth.001
f 38//98 120//98 50//98
f 120//99 7//99 50//99
f 120//100 121//100 9//100
f 39//101 121//101 120//101
f 16//102 121//102 39//102
f 8//103 121//103 55//103
f 38//104 39//104 120//104
f 120//105 9//105 7//105
f 16//106 55//106 121//106
f 8//107 9//107 121//107
usemtl Eye.001
f 129//108 136//108 128//108
f 135//109 126//109 127//109
f 133//110 124//110 125//110
f 123//111 130//111 122//111
f 122//112 137//112 129//112
f 136//113 127//113 128//113
f 126//114 133//114 125//114
f 132//115 123//115 124//115
usemtl Pupil.001
f 131//116 138//116 130//116
f 130//117 138//117 137//117
f 136//118 138//118 135//118
f 134//119 138//119 133//119
f 132//120 138//120 131//120
f 137//121 138//121 136//121
f 135//122 138//122 134//122
f 133//123 138//123 132//123
usemtl Eye.001
f 127//124 145//124 128//124
f 142//125 126//125 125//125
f 123//126 141//126 124//126
f 128//127 146//127 129//127
f 126//128 144//128 127//128
f 124//129 142//129 125//129
f 122//130 140//130 123//130
f 129//131 139//131 122//131
f 154//132 161//132 162//132
f 151//133 160//133 152//133
f 149//134 158//134 150//134
f 147//135 156//135 148//135
f 147//136 162//136 155//136
f 152//137 161//137 153//137
f 150//138 159//138 151//138
f 149//139 156//139 157//139
usemtl Pupil.001
f 156//140 155//140 163//140
f 155//141 162//141 163//141
f 161//142 160//142 163//142
f 159//143 158//143 163//143
f 157//144 156//144 163//144
f 162//145 161//145 163//145
f 160//146 159//146 163//146
f 158//147 157//147 163//147
usemtl Eye.001
f 152//148 170//148 169//148
f 150//149 168//149 167//149
f 149//150 165//150 148//150
f 154//151 170//151 153//151
f 152//152 168//152 151//152
f 149//153 167//153 166//153
f 147//154 165//154 164//154
f 154//155 164//155 171//155
usemtl BodyTop.001
f 46//156 4//156 1//156
f 1//157 4//157 5//157
usemtl BodyBottom.001
f 3//158 5//158 6//158
f 2//159 6//159 51//159
usemtl BodyTop.001
f 86//160 4//160 46//160
usemtl BodyBottom.001
f 85//161 51//161 6//161
usemtl BodyTop.001
f 86//162 7//162 9//162
usemtl BodyBottom.001
f 6//163 5//163 88//163
f 12//164 2//164 52//164
f 2//165 12//165 11//165
usemtl BodyTop.001
f 3//166 11//166 10//166
f 47//167 1//167 10//167
usemtl BodyBottom.001
f 53//168 54//168 15//168
f 12//169 15//169 14//169
usemtl BodyTop.001
f 10//170 11//170 14//170
f 10//171 13//171 49//171
usemtl BodyBottom.001
f 15//172 19//172 18//172
usemtl BodyTop.001
f 13//173 17//173 59//173
usemtl BodyBottom.001
f 54//174 60//174 19//174
usemtl BodyTop.001
f 13//175 14//175 18//175
usemtl BodyBottom.001
f 19//176 22//176 21//176
usemtl BodyTop.001
f 17//177 20//177 64//177
usemtl BodyBottom.001
f 19//178 60//178 65//178
usemtl BodyTop.001
f 17//179 18//179 21//179
usemtl BodyBottom.001
f 65//180 70//180 25//180
usemtl BodyTop.001
f 20//181 21//181 24//181
usemtl BodyBottom.001
f 22//182 25//182 24//182
usemtl BodyTop.001
f 64//183 20//183 23//183
usemtl BodyBottom.001
f 25//184 28//184 27//184
usemtl BodyTop.001
f 69//185 23//185 26//185
usemtl BodyBottom.001
f 70//186 75//186 28//186
usemtl BodyTop.001
f 23//187 24//187 27//187
f 26//188 27//188 30//188
usemtl BodyBottom.001
f 28//189 31//189 30//189
usemtl BodyTop.001
f 74//190 26//190 29//190
usemtl BodyBottom.001
f 75//191 80//191 31//191
usemtl BodyTop.001
f 29//192 30//192 82//192
usemtl BodyBottom.001
f 31//193 83//193 82//193
usemtl BodyTop.001
f 47//194 32//194 35//194
f 36//195 35//195 32//195
usemtl BodyBottom.001
f 37//196 36//196 34//196
f 51//197 37//197 33//197
usemtl BodyTop.001
f 84//198 46//198 35//198
usemtl BodyBottom.001
f 85//199 90//199 37//199
usemtl BodyTop.001
f 89//200 91//200 39//200
usemtl BodyBottom.001
f 91//201 36//201 37//201
f 42//202 53//202 52//202
f 41//203 42//203 33//203
usemtl BodyTop.001
f 40//204 41//204 34//204
f 47//205 48//205 40//205
usemtl BodyBottom.001
f 45//206 54//206 53//206
f 44//207 45//207 42//207
usemtl BodyTop.001
f 40//208 43//208 44//208
f 48//209 49//209 43//209
usemtl BodyBottom.001
f 57//210 58//210 45//210
usemtl BodyTop.001
f 59//211 56//211 43//211
usemtl BodyBottom.001
f 58//212 60//212 54//212
usemtl BodyTop.001
f 43//213 56//213 57//213
usemtl BodyBottom.001
f 62//214 63//214 58//214
usemtl BodyTop.001
f 59//215 64//215 61//215
usemtl BodyBottom.001
f 63//216 65//216 60//216
usemtl BodyTop.001
f 56//217 61//217 62//217
usemtl BodyBottom.001
f 68//218 70//218 65//218
usemtl BodyTop.001
f 61//219 66//219 67//219
usemtl BodyBottom.001
f 67//220 68//220 63//220
usemtl BodyTop.001
f 64//221 69//221 66//221
usemtl BodyBottom.001
f 72//222 73//222 68//222
usemtl BodyTop.001
f 69//223 74//223 71//223
usemtl BodyBottom.001
f 73//224 75//224 70//224
usemtl BodyTop.001
f 66//225 71//225 72//225
f 71//226 76//226 77//226
usemtl BodyBottom.001
f 77//227 78//227 73//227
usemtl BodyTop.001
f 74//228 79//228 76//228
usemtl BodyBottom.001
f 78//229 80//229 75//229
usemtl BodyTop.001
f 76//230 81//230 82//230
usemtl BodyBottom.001
f 78//231 77//231 82//231
f 39//232 91//232 90//232
usemtl BodyTop.001
f 36//233 91//233 89//233
usemtl BodyBottom.001
f 16//234 90//234 85//234
usemtl BodyTop.001
f 84//235 89//235 38//235
usemtl BodyBottom.001
f 87//236 88//236 9//236
usemtl BodyTop.001
f 86//237 88//237 5//237
usemtl BodyBottom.001
f 85//238 87//238 8//238
usemtl BodyTop.001
f 7//239 86//239 84//239
usemtl Fin.001
f 100//240 97//240 95//240
f 94//241 97//241 100//241
f 92//90 98//90 100//90
f 100//90 99//90 93//90
f 109//92 108//92 104//92
f 109//242 106//242 103//242
f 101//93 105//93 109//93
f 102//93 108//93 109//93
f 112//243 113//243 119//243
f 110//244 116//244 117//244
f 116//245 115//245 118//245
f 114//246 119//246 118//246
usemtl Eye.001
f 129//108 137//108 136//108
f 135//109 134//109 126//109
f 133//110 132//110 124//110
f 123//111 131//111 130//111
f 122//112 130//112 137//112
f 136//113 135//113 127//113
f 126//114 134//114 133//114
f 132//247 131//247 123//247
f 127//124 144//124 145//124
f 142//125 143//125 126//125
f 123//126 140//126 141//126
f 128//127 145//127 146//127
f 126//128 143//128 144//128
f 124//129 141//129 142//129
f 122//248 139//248 140//248
f 129//131 146//131 139//131
f 154//132 153//132 161//132
f 151//133 159//133 160//133
f 149//134 157//134 158//134
f 147//135 155//135 156//135
f 147//136 154//136 162//136
f 152//137 160//137 161//137
f 150//138 158//138 159//138
f 149//249 148//249 156//249
f 152//148 153//148 170//148
f 150//250 151//250 168//250
f 149//150 166//150 165//150
f 154//151 171//151 170//151
f 152//152 169//152 168//152
f 149//153 150//153 167//153
f 147//154 148//154 165//154
f 154//155 147//155 164//155
