# Blender v2.79 (sub 0) OBJ File: 'Minnnow_ioexperment.blend'
# www.blender.org
mtllib Minnnow_ioexperment_000012.mtl
v 0.220995 0.273001 0.195096
v 0.182325 -0.159074 0.136861
v 0.332433 0.067251 0.182355
v 0.148567 0.190820 0.744363
v 0.177299 0.051360 0.733505
v 0.131433 -0.094767 0.646753
v 0.105777 -0.049348 1.000063
v 0.084817 -0.089098 1.020905
v 0.101654 -0.063444 0.981728
v 0.215027 0.257610 -0.605722
v 0.315720 0.050659 -0.609694
v 0.171533 -0.177555 -0.631967
v 0.109592 0.123514 -1.208920
v 0.165854 0.051821 -1.204983
v 0.129893 -0.057767 -1.211777
v 0.034343 -0.089098 1.025780
v 0.051156 0.040249 -1.497283
v 0.068504 0.011828 -1.494899
v 0.056401 -0.032575 -1.498434
v 0.047283 0.026351 -1.629648
v 0.059640 0.007273 -1.627878
v 0.051789 -0.021889 -1.630148
v 0.044793 0.033492 -1.760837
v 0.051318 0.008464 -1.758998
v 0.047225 -0.029794 -1.761665
v 0.083226 0.187632 -1.900534
v 0.089214 0.035463 -1.897359
v 0.085778 -0.197136 -1.900830
v 0.103487 0.265364 -1.975817
v 0.109476 0.048424 -1.972641
v 0.106040 -0.283182 -1.976112
v -0.231057 0.273001 0.199214
v -0.193409 -0.159074 0.140031
v -0.342710 0.067251 0.188471
v -0.085506 0.190820 0.762489
v -0.115568 0.051360 0.756184
v -0.083604 -0.094767 0.663406
v 0.009781 -0.049348 1.009336
v 0.010319 -0.063444 0.990551
v -0.161862 0.257610 -0.612076
v -0.262364 0.050659 -0.619440
v -0.117509 -0.177555 -0.636840
v -0.064978 0.123514 -1.207709
v -0.121181 0.051821 -1.202993
v -0.085318 -0.057767 -1.210285
v 0.031793 0.248875 0.756817
v -0.005058 0.431722 0.194219
v 0.026988 0.380931 -0.632986
v 0.022281 0.177768 -1.211999
v 0.061167 -0.034019 1.039769
v 0.018406 -0.210664 0.583945
v -0.006601 -0.337665 0.023966
v 0.027650 -0.222210 -0.671180
v 0.022261 -0.113104 -1.214938
v 0.059803 -0.094433 1.025656
v -0.009475 0.040249 -1.498587
v -0.026910 0.011828 -1.496951
v -0.014666 -0.032575 -1.499962
v 0.020877 0.063840 -1.499648
v 0.020871 -0.057490 -1.499375
v 0.008740 0.026351 -1.631573
v -0.003733 0.007273 -1.631044
v 0.004274 -0.021889 -1.632517
v 0.028056 0.040788 -1.631590
v 0.028023 -0.036614 -1.632373
v 0.024303 0.033492 -1.761861
v 0.017628 0.008464 -1.760682
v 0.021966 -0.029794 -1.762927
v 0.034612 0.052433 -1.762634
v 0.034664 -0.049113 -1.763658
v 0.063415 0.187632 -1.905866
v 0.056642 0.035463 -1.906125
v 0.061356 -0.197136 -1.907403
v 0.073655 0.302787 -1.904443
v 0.073922 -0.314588 -1.905433
v 0.083677 0.265364 -1.981148
v 0.076903 0.048424 -1.981408
v 0.081618 -0.283182 -1.982685
v 0.093916 0.429535 -1.979725
v 0.094183 -0.450629 -1.980716
v 0.098061 0.266998 -1.995124
v 0.091706 0.047052 -1.971512
v 0.097815 -0.284283 -1.994211
v 0.057684 0.002003 1.003719
v 0.054372 -0.109233 0.969424
v 0.111453 -0.018766 0.967201
v 0.090744 -0.089820 0.973001
v 0.111487 -0.048825 0.949748
v -0.002081 -0.018766 0.978168
v 0.019356 -0.089820 0.979897
v -0.005454 -0.048825 0.961044
v 0.179547 -0.051587 0.392763
v 0.225327 0.027152 0.370926
v 0.281421 -0.181676 0.271267
v 0.361919 -0.043224 0.232869
v 0.202437 -0.012218 0.381845
v 0.347610 -0.136581 0.244672
v 0.244185 -0.127297 0.339890
v 0.308460 -0.016748 0.309231
v 0.276322 -0.072022 0.324560
v -0.153200 -0.040463 0.422730
v -0.219060 0.016705 0.388572
v -0.155690 -0.182754 0.275048
v -0.271496 -0.082231 0.214987
v -0.186130 -0.011879 0.405651
v -0.224359 -0.163565 0.229903
v -0.164220 -0.127651 0.352143
v -0.256687 -0.047387 0.304186
v -0.210453 -0.087519 0.328164
v 0.000825 0.436122 0.025870
v -0.000579 0.416399 0.060324
v 0.023641 0.274162 -1.015869
v 0.023270 0.222699 -1.069352
v 0.035374 0.394554 -0.765995
v 0.015530 0.450024 -0.507483
v 0.021800 0.464016 -0.243155
v 0.011246 0.393161 -0.229760
v 0.025632 0.379138 -0.501166
v 0.025449 0.328875 -0.755219
v 0.053411 -0.038183 0.962294
v 0.055047 -0.083997 0.968317
v 0.140603 0.104667 0.805753
v 0.132156 0.093067 0.832796
v 0.132148 0.065129 0.845317
v 0.140583 0.037220 0.835980
v 0.152521 0.025687 0.810256
v 0.160968 0.037287 0.783213
v 0.160977 0.065225 0.770692
v 0.152541 0.093134 0.780029
v 0.154123 0.085916 0.810952
v 0.150072 0.080353 0.823921
v 0.150068 0.066956 0.829925
v 0.154113 0.053572 0.825448
v 0.159838 0.048041 0.813111
v 0.163889 0.053604 0.800142
v 0.163893 0.067002 0.794138
v 0.159848 0.080386 0.798616
v 0.159167 0.067357 0.812877
v 0.137444 0.104120 0.804532
v 0.128996 0.092520 0.831575
v 0.128988 0.064583 0.844096
v 0.137423 0.036673 0.834759
v 0.149361 0.025141 0.809035
v 0.157808 0.036741 0.781991
v 0.157817 0.064678 0.769471
v 0.149381 0.092588 0.778807
v -0.061593 0.104667 0.825284
v -0.048126 0.093067 0.850211
v -0.045721 0.065129 0.862498
v -0.055788 0.037220 0.854949
v -0.072429 0.025687 0.831985
v -0.085896 0.037287 0.807059
v -0.088301 0.065225 0.794771
v -0.078234 0.093134 0.802321
v -0.073868 0.085916 0.832975
v -0.067409 0.080353 0.844929
v -0.066256 0.066956 0.850821
v -0.071084 0.053572 0.847201
v -0.079064 0.048041 0.836188
v -0.085522 0.053604 0.824234
v -0.086676 0.067002 0.818342
v -0.081848 0.080386 0.821962
v -0.078451 0.067357 0.835830
v -0.058726 0.104120 0.823481
v -0.045259 0.092520 0.848407
v -0.042854 0.064583 0.860695
v -0.052920 0.036673 0.853145
v -0.069561 0.025141 0.830182
v -0.083029 0.036741 0.805255
v -0.085433 0.064678 0.792968
v -0.075367 0.092588 0.800517
vn 0.5596 0.7982 0.2228
vn 0.8569 0.4484 0.2541
vn 0.8093 -0.5674 0.1523
vn 0.6329 -0.7607 0.1443
vn 0.3994 0.6689 0.6269
vn 0.4642 -0.8829 0.0713
vn 0.9627 -0.1350 0.2343
vn 0.9116 -0.3934 0.1197
vn 0.3279 -0.9344 -0.1390
vn 0.8339 -0.5519 -0.0060
vn 0.8788 0.4769 -0.0157
vn 0.5512 0.8338 -0.0298
vn 0.3422 -0.9150 -0.2136
vn 0.8355 -0.5072 -0.2113
vn 0.7657 0.5864 -0.2642
vn 0.5546 0.7838 -0.2795
vn 0.9198 -0.2851 -0.2695
vn 0.5083 0.7998 -0.3193
vn 0.4531 -0.8704 -0.1927
vn 0.8241 0.4775 -0.3049
vn 0.9644 -0.2585 -0.0554
vn 0.6163 0.7807 -0.1029
vn 0.5306 -0.8432 -0.0870
vn 0.8400 0.5366 -0.0809
vn 0.5242 -0.8510 0.0330
vn 0.9677 0.2519 -0.0046
vn 0.9649 -0.2548 -0.0636
vn 0.8741 0.4780 0.0862
vn 0.9632 -0.1198 0.2405
vn 0.9086 0.0894 0.4079
vn 0.5715 -0.4429 0.6909
vn 0.9498 0.0438 0.3097
vn 0.9568 0.0306 0.2892
vn 0.9663 -0.0181 0.2569
vn 0.9321 0.0628 0.3567
vn 0.9223 -0.1077 0.3713
vn 0.9626 0.0498 -0.2663
vn 0.9598 -0.0572 -0.2746
vn 0.9103 -0.0532 -0.4104
vn -0.0642 0.0111 -0.9979
vn -0.4218 0.8753 0.2367
vn -0.8323 0.4337 0.3452
vn -0.7874 -0.5698 0.2352
vn -0.6087 -0.7675 0.2012
vn -0.4818 0.5939 0.6443
vn -0.6345 -0.7309 0.2515
vn -0.9632 -0.2276 0.1432
vn -0.8720 -0.3945 0.2898
vn -0.7069 -0.7054 -0.0523
vn -0.8396 -0.5384 -0.0724
vn -0.8740 0.4787 -0.0836
vn -0.5745 0.8160 -0.0645
vn -0.3326 -0.9192 -0.2107
vn -0.8337 -0.5137 -0.2027
vn -0.8763 0.4331 -0.2111
vn -0.5470 0.7913 -0.2732
vn -0.9233 -0.2850 -0.2573
vn -0.5124 0.7993 -0.3141
vn -0.4557 -0.8703 -0.1868
vn -0.7557 0.5714 -0.3201
vn -0.9548 -0.2527 -0.1565
vn -0.6089 0.7760 -0.1645
vn -0.5663 -0.8111 -0.1463
vn -0.8451 0.5090 -0.1634
vn -0.5268 -0.8498 -0.0200
vn -0.8313 0.5399 -0.1320
vn -0.9540 -0.2539 -0.1595
vn -0.5985 0.8007 -0.0276
vn -0.9573 -0.0925 -0.2739
vn -0.8402 0.4684 0.2732
vn -0.7627 -0.5161 0.3898
vn -0.9473 0.2428 -0.2090
vn -0.9666 0.0435 -0.2527
vn -0.9647 -0.0181 -0.2628
vn -0.9811 0.0894 -0.1718
vn -0.9840 -0.1077 -0.1418
vn -0.6989 0.0498 -0.7135
vn 0.5546 -0.0163 -0.8319
vn -0.5813 -0.0532 -0.8119
vn -0.5771 0.0452 -0.8154
vn -0.8639 -0.4126 0.2887
vn -0.8568 0.1626 0.4894
vn -0.1964 -0.9434 0.2673
vn -0.5379 0.5698 0.6213
vn 0.9032 -0.4126 0.1180
vn 0.9345 0.1681 0.3137
vn 0.2439 -0.9434 0.2247
vn 0.6469 0.5698 0.5068
vn 0.7451 -0.2632 0.6129
vn 0.5596 -0.0971 0.8231
vn -0.8160 -0.3956 0.4216
vn -0.7110 -0.6069 0.3551
vn -0.6747 -0.4110 0.6130
vn -0.9891 0.1456 -0.0237
vn -0.9992 -0.0000 -0.0407
vn -0.9889 0.1361 -0.0594
vn -0.9884 -0.1449 -0.0448
vn 0.2725 -0.9619 0.0244
vn -0.2613 -0.9621 0.0779
vn -0.3202 0.1122 0.9407
vn 0.4889 0.1308 0.8625
vn 0.5056 0.8241 0.2553
vn -0.1701 0.9669 0.1901
vn 0.6545 -0.5956 0.4657
vn -0.5486 -0.5987 0.5836
vn 0.2032 0.9661 0.1590
vn -0.4596 0.8205 0.3398
vn 0.9336 0.3294 -0.1411
vn 0.9334 -0.3250 0.1522
vn 0.6538 -0.0549 0.7547
vn 0.6540 0.5995 0.4614
vn 0.7938 0.5999 0.0994
vn 0.9914 -0.0537 -0.1192
vn 0.7936 -0.3254 0.5142
vn 0.5960 0.3283 0.7328
vn 0.8761 0.2789 0.3933
vn 0.9127 0.2790 0.2985
vn 0.9645 0.1078 0.2412
vn 0.9126 0.0366 0.4071
vn 0.8609 0.2079 0.4644
vn 0.9493 0.2082 0.2354
vn 0.9493 0.0367 0.3123
vn 0.8760 0.1075 0.4701
vn 0.3899 -0.3767 -0.8403
vn -0.0003 -0.9125 0.4090
vn -0.3899 0.3767 0.8403
vn 0.2759 0.3789 -0.8834
vn 0.2755 -0.9116 -0.3050
vn -0.2759 -0.3789 0.8834
vn -0.2755 0.9116 0.3050
vn 0.0003 0.9125 -0.4090
vn -0.9433 0.3294 0.0402
vn -0.8870 -0.3250 0.3280
vn -0.4973 -0.0549 0.8659
vn -0.5536 0.5995 0.5781
vn -0.7601 0.5999 0.2495
vn -0.9959 -0.0537 0.0727
vn -0.6805 -0.3254 0.6565
vn -0.4447 0.3283 0.8334
vn -0.7846 0.2789 0.5537
vn -0.8387 0.2790 0.4676
vn -0.9005 0.1078 0.4213
vn -0.8178 0.0366 0.5743
vn -0.7561 0.2079 0.6206
vn -0.8867 0.2082 0.4128
vn -0.8720 0.0367 0.4882
vn -0.7698 0.1075 0.6291
vn -0.5436 -0.3767 -0.7501
vn 0.0785 -0.9125 0.4014
vn 0.5436 0.3767 0.7501
vn -0.4399 0.3789 -0.8142
vn -0.3288 -0.9116 -0.2466
vn 0.4399 -0.3789 0.8142
vn 0.3288 0.9116 0.2466
vn -0.0785 0.9125 -0.4014
vn 0.4532 0.8709 0.1901
vn 0.9698 0.1877 0.1560
vn 0.8786 -0.4155 0.2353
vn 0.6626 -0.7320 0.1585
vn 0.6075 0.5256 0.5955
vn 0.6743 -0.7272 0.1284
vn 0.9728 -0.2276 -0.0438
vn 0.9261 -0.3592 0.1154
vn 0.6844 -0.7290 0.0079
vn 0.8454 -0.5342 0.0010
vn 0.8986 0.4378 -0.0281
vn 0.5746 0.8182 -0.0200
vn 0.4540 -0.8727 -0.1796
vn 0.9444 -0.3018 -0.1302
vn 0.8756 0.4302 -0.2196
vn 0.5149 0.8133 -0.2708
vn 0.9365 -0.2345 -0.2607
vn 0.5958 0.7314 -0.3319
vn 0.5696 -0.8061 -0.1604
vn 0.7511 0.5712 -0.3310
vn 0.9652 -0.2556 -0.0545
vn 0.6039 0.7907 -0.1007
vn 0.5732 -0.8137 -0.0969
vn 0.8539 0.5150 -0.0746
vn 0.8301 -0.5495 0.0943
vn 0.8404 0.5399 -0.0484
vn 0.9941 -0.1044 -0.0282
vn 0.5981 0.8008 0.0322
vn 0.9576 -0.0184 0.2875
vn 0.6542 0.4118 0.6344
vn 0.8883 -0.1072 0.4466
vn 0.9168 0.2612 0.3021
vn 0.9628 0.0435 0.2666
vn 0.9618 -0.0128 0.2735
vn 0.9348 0.0894 0.3439
vn 0.9200 -0.0757 0.3844
vn -0.0621 -0.0163 -0.9979
vn 0.9084 0.0452 -0.4156
vn -0.5455 0.7859 0.2912
vn -0.9433 0.1910 0.2716
vn -0.8557 -0.3975 0.3313
vn -0.6494 -0.7262 0.2255
vn -0.2783 0.6328 0.7226
vn -0.4423 -0.8829 0.1577
vn -0.9001 -0.1350 0.4143
vn -0.8803 -0.3762 0.2892
vn -0.3263 -0.9297 -0.1705
vn -0.8446 -0.5308 -0.0699
vn -0.8938 0.4376 -0.0979
vn -0.5509 0.8314 -0.0724
vn -0.4565 -0.8732 -0.1707
vn -0.9462 -0.3019 -0.1162
vn -0.7687 0.5857 -0.2569
vn -0.5183 0.8124 -0.2672
vn -0.9377 -0.2416 -0.2497
vn -0.5876 0.7413 -0.3243
vn -0.5653 -0.8100 -0.1556
vn -0.8216 0.4870 -0.2962
vn -0.9544 -0.2541 -0.1568
vn -0.5901 0.7893 -0.1700
vn -0.5195 -0.8394 -0.1597
vn -0.8271 0.5360 -0.1693
vn -0.8354 -0.5495 0.0101
vn -0.9624 0.2519 -0.1012
vn -0.9863 -0.1044 -0.1275
vn -0.8784 0.4780 -0.0015
vn -0.9698 -0.0183 -0.2432
vn -0.9894 0.0894 -0.1146
vn -0.9915 -0.1073 -0.0736
vn -0.9750 0.0438 -0.2180
vn -0.9727 0.0306 -0.2301
vn -0.9691 -0.0128 -0.2462
vn -0.9852 0.0628 -0.1594
vn -0.9887 -0.0757 -0.1293
vn -0.6923 -0.0572 -0.7193
vn 0.5564 0.0111 -0.8308
vn -0.8740 -0.4068 0.2657
vn -0.8989 -0.1364 0.4165
vn -0.4421 -0.8829 0.1583
vn -0.4823 0.5265 0.7001
vn 0.9087 -0.4068 0.0935
vn 0.9637 -0.1333 0.2315
vn 0.4643 -0.8829 0.0707
vn 0.6074 0.5265 0.5949
vn 0.7349 -0.0270 0.6776
vn 0.5433 -0.3464 0.7647
vn -0.5432 -0.6250 0.5606
vn -1.0000 -0.0000 0.0069
vn -0.9888 0.1354 -0.0631
vn -0.9899 -0.1383 0.0308
vn -0.9891 0.1449 -0.0280
vn 0.2759 0.3789 -0.8833
vn -0.2759 -0.3789 0.8833
vn -0.5435 -0.3767 -0.7501
usemtl BodyTop.001
s off
f 46//1 1//1 47//1
f 1//2 5//2 3//2
usemtl BodyBottom.001
f 3//3 6//3 2//3
f 2//4 51//4 52//4
usemtl BodyTop.001
f 84//5 4//5 46//5
usemtl BodyBottom.001
f 85//6 6//6 87//6
usemtl BodyTop.001
f 86//7 9//7 88//7
usemtl BodyBottom.001
f 6//8 88//8 87//8
f 12//9 52//9 53//9
f 2//10 11//10 3//10
usemtl BodyTop.001
f 3//11 10//11 1//11
f 47//12 10//12 48//12
usemtl BodyBottom.001
f 53//13 15//13 12//13
f 12//14 14//14 11//14
usemtl BodyTop.001
f 10//15 14//15 13//15
f 10//16 49//16 48//16
usemtl BodyBottom.001
f 15//17 18//17 14//17
usemtl BodyTop.001
f 13//18 59//18 49//18
usemtl BodyBottom.001
f 54//19 19//19 15//19
usemtl BodyTop.001
f 13//20 18//20 17//20
usemtl BodyBottom.001
f 19//21 21//21 18//21
usemtl BodyTop.001
f 17//22 64//22 59//22
usemtl BodyBottom.001
f 19//23 65//23 22//23
usemtl BodyTop.001
f 17//24 21//24 20//24
usemtl BodyBottom.001
f 65//25 25//25 22//25
usemtl BodyTop.001
f 20//26 24//26 23//26
usemtl BodyBottom.001
f 22//27 24//27 21//27
usemtl BodyTop.001
f 64//28 23//28 69//28
usemtl BodyBottom.001
f 25//29 27//29 24//29
usemtl BodyTop.001
f 69//30 26//30 74//30
usemtl BodyBottom.001
f 70//31 28//31 25//31
usemtl BodyTop.001
f 23//32 27//32 26//32
f 26//33 30//33 29//33
usemtl BodyBottom.001
f 28//34 30//34 27//34
usemtl BodyTop.001
f 74//35 29//35 79//35
usemtl BodyBottom.001
f 75//36 31//36 28//36
usemtl BodyTop.001
f 29//37 81//37 79//37
f 29//38 82//38 81//38
usemtl BodyBottom.001
f 31//39 80//39 83//39
f 31//40 82//40 30//40
usemtl BodyTop.001
f 46//41 32//41 35//41
f 36//42 32//42 34//42
usemtl BodyBottom.001
f 37//43 34//43 33//43
f 51//44 33//44 52//44
usemtl BodyTop.001
f 46//45 89//45 84//45
usemtl BodyBottom.001
f 85//46 37//46 51//46
usemtl BodyTop.001
f 89//47 39//47 38//47
usemtl BodyBottom.001
f 91//48 37//48 90//48
f 42//49 52//49 33//49
f 41//50 33//50 34//50
usemtl BodyTop.001
f 40//51 34//51 32//51
f 47//52 40//52 32//52
usemtl BodyBottom.001
f 45//53 53//53 42//53
f 44//54 42//54 41//54
usemtl BodyTop.001
f 40//55 44//55 41//55
f 49//56 40//56 48//56
usemtl BodyBottom.001
f 57//57 45//57 44//57
usemtl BodyTop.001
f 59//58 43//58 49//58
usemtl BodyBottom.001
f 58//59 54//59 45//59
usemtl BodyTop.001
f 43//60 57//60 44//60
usemtl BodyBottom.001
f 62//61 58//61 57//61
usemtl BodyTop.001
f 59//62 61//62 56//62
usemtl BodyBottom.001
f 63//63 60//63 58//63
usemtl BodyTop.001
f 56//64 62//64 57//64
usemtl BodyBottom.001
f 68//65 65//65 63//65
usemtl BodyTop.001
f 61//66 67//66 62//66
usemtl BodyBottom.001
f 67//67 63//67 62//67
usemtl BodyTop.001
f 64//68 66//68 61//68
usemtl BodyBottom.001
f 72//69 68//69 67//69
usemtl BodyTop.001
f 69//70 71//70 66//70
usemtl BodyBottom.001
f 73//71 70//71 68//71
usemtl BodyTop.001
f 66//72 72//72 67//72
f 71//73 77//73 72//73
usemtl BodyBottom.001
f 77//74 73//74 72//74
usemtl BodyTop.001
f 74//75 76//75 71//75
usemtl BodyBottom.001
f 78//76 75//76 73//76
usemtl BodyTop.001
f 76//77 79//77 81//77
f 76//78 82//78 77//78
usemtl BodyBottom.001
f 78//79 83//79 80//79
f 78//80 82//80 83//80
f 39//81 90//81 16//81
usemtl BodyTop.001
f 36//82 89//82 35//82
usemtl BodyBottom.001
f 16//83 85//83 55//83
usemtl BodyTop.001
f 84//84 38//84 50//84
usemtl BodyBottom.001
f 87//85 9//85 8//85
usemtl BodyTop.001
f 86//86 5//86 4//86
usemtl BodyBottom.001
f 85//87 8//87 55//87
usemtl BodyTop.001
f 7//88 84//88 50//88
usemtl Fin.001
f 100//89 95//89 99//89
f 94//89 100//89 98//89
f 92//90 100//90 96//90
f 100//90 93//90 96//90
f 109//91 104//91 106//91
f 109//92 103//92 107//92
f 101//93 109//93 107//93
f 102//93 109//93 105//93
f 112//94 119//94 114//94
f 110//95 117//95 111//95
f 116//96 118//96 117//96
f 114//97 118//97 115//97
usemtl Mouth.001
f 38//98 120//98 50//98
f 120//99 7//99 50//99
f 120//100 121//100 9//100
f 39//101 121//101 120//101
f 16//102 121//102 39//102
f 8//103 121//103 55//103
f 38//104 39//104 120//104
f 120//105 9//105 7//105
f 16//106 55//106 121//106
f 8//107 9//107 121//107
usemtl Eye.001
f 129//108 136//108 128//108
f 127//109 134//109 126//109
f 125//110 132//110 124//110
f 123//111 130//111 122//111
f 122//112 137//112 129//112
f 136//113 127//113 128//113
f 126//114 133//114 125//114
f 132//115 123//115 124//115
usemtl Pupil.001
f 131//116 138//116 130//116
f 130//117 138//117 137//117
f 136//118 138//118 135//118
f 134//119 138//119 133//119
f 132//120 138//120 131//120
f 137//121 138//121 136//121
f 135//122 138//122 134//122
f 133//123 138//123 132//123
usemtl Eye.001
f 127//124 145//124 128//124
f 142//125 126//125 125//125
f 123//126 141//126 124//126
f 145//127 129//127 128//127
f 126//128 144//128 127//128
f 141//129 125//129 124//129
f 139//130 123//130 122//130
f 146//131 122//131 129//131
f 153//132 162//132 154//132
f 151//133 160//133 152//133
f 149//134 158//134 150//134
f 148//135 155//135 156//135
f 147//136 162//136 155//136
f 153//137 160//137 161//137
f 150//138 159//138 151//138
f 149//139 156//139 157//139
usemtl Pupil.001
f 156//140 155//140 163//140
f 155//141 162//141 163//141
f 161//142 160//142 163//142
f 159//143 158//143 163//143
f 157//144 156//144 163//144
f 162//145 161//145 163//145
f 160//146 159//146 163//146
f 158//147 157//147 163//147
usemtl Eye.001
f 152//148 170//148 169//148
f 150//149 168//149 167//149
f 148//150 166//150 165//150
f 154//151 170//151 153//151
f 151//152 169//152 168//152
f 149//153 167//153 166//153
f 147//154 165//154 164//154
f 154//155 164//155 171//155
usemtl BodyTop.001
f 46//156 4//156 1//156
f 1//157 4//157 5//157
usemtl BodyBottom.001
f 3//158 5//158 6//158
f 2//159 6//159 51//159
usemtl BodyTop.001
f 84//160 86//160 4//160
usemtl BodyBottom.001
f 85//161 51//161 6//161
usemtl BodyTop.001
f 86//162 7//162 9//162
usemtl BodyBottom.001
f 6//163 5//163 88//163
f 12//164 2//164 52//164
f 2//165 12//165 11//165
usemtl BodyTop.001
f 3//166 11//166 10//166
f 47//167 1//167 10//167
usemtl BodyBottom.001
f 53//168 54//168 15//168
f 12//169 15//169 14//169
usemtl BodyTop.001
f 10//170 11//170 14//170
f 10//171 13//171 49//171
usemtl BodyBottom.001
f 15//172 19//172 18//172
usemtl BodyTop.001
f 13//173 17//173 59//173
usemtl BodyBottom.001
f 54//174 60//174 19//174
usemtl BodyTop.001
f 13//175 14//175 18//175
usemtl BodyBottom.001
f 19//176 22//176 21//176
usemtl BodyTop.001
f 17//177 20//177 64//177
usemtl BodyBottom.001
f 19//178 60//178 65//178
usemtl BodyTop.001
f 17//179 18//179 21//179
usemtl BodyBottom.001
f 65//180 70//180 25//180
usemtl BodyTop.001
f 20//181 21//181 24//181
usemtl BodyBottom.001
f 22//182 25//182 24//182
usemtl BodyTop.001
f 64//183 20//183 23//183
usemtl BodyBottom.001
f 25//184 28//184 27//184
usemtl BodyTop.001
f 69//185 23//185 26//185
usemtl BodyBottom.001
f 70//186 75//186 28//186
usemtl BodyTop.001
f 23//187 24//187 27//187
f 26//188 27//188 30//188
usemtl BodyBottom.001
f 28//189 31//189 30//189
usemtl BodyTop.001
f 74//190 26//190 29//190
usemtl BodyBottom.001
f 75//191 80//191 31//191
usemtl BodyTop.001
f 29//192 30//192 82//192
usemtl BodyBottom.001
f 31//193 83//193 82//193
usemtl BodyTop.001
f 46//194 47//194 32//194
f 36//195 35//195 32//195
usemtl BodyBottom.001
f 37//196 36//196 34//196
f 51//197 37//197 33//197
usemtl BodyTop.001
f 46//198 35//198 89//198
usemtl BodyBottom.001
f 85//199 90//199 37//199
usemtl BodyTop.001
f 89//200 91//200 39//200
usemtl BodyBottom.001
f 91//201 36//201 37//201
f 42//202 53//202 52//202
f 41//203 42//203 33//203
usemtl BodyTop.001
f 40//204 41//204 34//204
f 47//205 48//205 40//205
usemtl BodyBottom.001
f 45//206 54//206 53//206
f 44//207 45//207 42//207
usemtl BodyTop.001
f 40//208 43//208 44//208
f 49//209 43//209 40//209
usemtl BodyBottom.001
f 57//210 58//210 45//210
usemtl BodyTop.001
f 59//211 56//211 43//211
usemtl BodyBottom.001
f 58//212 60//212 54//212
usemtl BodyTop.001
f 43//213 56//213 57//213
usemtl BodyBottom.001
f 62//214 63//214 58//214
usemtl BodyTop.001
f 59//215 64//215 61//215
usemtl BodyBottom.001
f 63//216 65//216 60//216
usemtl BodyTop.001
f 56//217 61//217 62//217
usemtl BodyBottom.001
f 68//218 70//218 65//218
usemtl BodyTop.001
f 61//219 66//219 67//219
usemtl BodyBottom.001
f 67//220 68//220 63//220
usemtl BodyTop.001
f 64//221 69//221 66//221
usemtl BodyBottom.001
f 72//222 73//222 68//222
usemtl BodyTop.001
f 69//223 74//223 71//223
usemtl BodyBottom.001
f 73//224 75//224 70//224
usemtl BodyTop.001
f 66//225 71//225 72//225
f 71//226 76//226 77//226
usemtl BodyBottom.001
f 77//227 78//227 73//227
usemtl BodyTop.001
f 74//228 79//228 76//228
usemtl BodyBottom.001
f 78//229 80//229 75//229
usemtl BodyTop.001
f 76//230 81//230 82//230
usemtl BodyBottom.001
f 78//231 77//231 82//231
f 39//232 91//232 90//232
usemtl BodyTop.001
f 36//233 91//233 89//233
usemtl BodyBottom.001
f 16//234 90//234 85//234
usemtl BodyTop.001
f 84//235 89//235 38//235
usemtl BodyBottom.001
f 87//236 88//236 9//236
usemtl BodyTop.001
f 86//237 88//237 5//237
usemtl BodyBottom.001
f 85//238 87//238 8//238
usemtl BodyTop.001
f 7//239 86//239 84//239
usemtl Fin.001
f 100//240 97//240 95//240
f 94//241 97//241 100//241
f 92//90 98//90 100//90
f 100//90 99//90 93//90
f 109//92 108//92 104//92
f 109//242 106//242 103//242
f 101//93 105//93 109//93
f 102//93 108//93 109//93
f 112//243 113//243 119//243
f 110//244 116//244 117//244
f 116//245 115//245 118//245
f 114//246 119//246 118//246
usemtl Eye.001
f 129//108 137//108 136//108
f 127//109 135//109 134//109
f 125//110 133//110 132//110
f 123//111 131//111 130//111
f 122//112 130//112 137//112
f 136//113 135//113 127//113
f 126//114 134//114 133//114
f 132//115 131//115 123//115
f 127//124 144//124 145//124
f 142//125 143//125 126//125
f 123//126 140//126 141//126
f 145//247 146//247 129//247
f 126//128 143//128 144//128
f 141//248 142//248 125//248
f 139//130 140//130 123//130
f 146//131 139//131 122//131
f 153//132 161//132 162//132
f 151//133 159//133 160//133
f 149//134 157//134 158//134
f 148//135 147//135 155//135
f 147//136 154//136 162//136
f 153//137 152//137 160//137
f 150//138 158//138 159//138
f 149//139 148//139 156//139
f 152//249 153//249 170//249
f 150//149 151//149 168//149
f 148//150 149//150 166//150
f 154//151 171//151 170//151
f 151//152 152//152 169//152
f 149//153 150//153 167//153
f 147//154 148//154 165//154
f 154//155 147//155 164//155
