# Blender v2.79 (sub 0) OBJ File: 'Minnnow_ioexperment.blend'
# www.blender.org
mtllib Minnow_000012.mtl
v 0.217390 0.273001 0.196782
v 0.178436 -0.159074 0.138775
v 0.328730 0.067251 0.183476
v 0.151276 0.190820 0.744956
v 0.179836 0.051360 0.733662
v 0.132654 -0.094767 0.647631
v 0.114336 -0.049348 1.000802
v 0.093814 -0.089098 1.022075
v 0.109832 -0.063444 0.982557
v 0.211404 0.257610 -0.602135
v 0.312121 0.050659 -0.605713
v 0.168010 -0.177555 -0.628551
v 0.110667 0.123514 -1.205402
v 0.166897 0.051821 -1.201027
v 0.130990 -0.057767 -1.208101
v 0.043452 -0.089098 1.028000
v 0.054519 0.040249 -1.494146
v 0.071843 0.011828 -1.491590
v 0.059776 -0.032575 -1.495245
v 0.052282 0.026351 -1.626483
v 0.064617 0.007273 -1.624564
v 0.056793 -0.021889 -1.626930
v 0.051373 0.033492 -1.757692
v 0.057875 0.008464 -1.755776
v 0.053815 -0.029794 -1.758492
v 0.096082 0.187632 -1.895189
v 0.101923 0.035463 -1.891748
v 0.098645 -0.197136 -1.895369
v 0.119693 0.265364 -1.969489
v 0.125534 0.048424 -1.966048
v 0.122256 -0.283182 -1.969669
v -0.234510 0.273001 0.203214
v -0.197173 -0.159074 0.143843
v -0.346186 0.067251 0.193044
v -0.082468 0.190820 0.766657
v -0.112619 0.051360 0.760813
v -0.082081 -0.094767 0.667567
v 0.018553 -0.049348 1.012070
v 0.018700 -0.063444 0.993278
v -0.165489 0.257610 -0.609963
v -0.265971 0.050659 -0.617720
v -0.121036 -0.177555 -0.634555
v -0.063908 0.123514 -1.205554
v -0.120145 0.051821 -1.201277
v -0.084226 -0.057767 -1.208288
v 0.034718 0.248875 0.759193
v -0.008602 0.431722 0.197063
v 0.023457 0.380931 -0.630136
v 0.023383 0.177768 -1.209163
v 0.070561 -0.034019 1.041427
v 0.018692 -0.210664 0.586564
v -0.011016 -0.337665 0.026867
v 0.024265 -0.222210 -0.668330
v 0.023385 -0.113104 -1.212102
v 0.068904 -0.094433 1.027346
v -0.006091 0.040249 -1.496052
v -0.023541 0.011828 -1.494588
v -0.011268 -0.032575 -1.497478
v 0.024268 0.063840 -1.496811
v 0.024259 -0.057490 -1.496538
v 0.013765 0.026351 -1.628873
v 0.001286 0.007273 -1.628494
v 0.009309 -0.021889 -1.629871
v 0.033079 0.040788 -1.628657
v 0.033050 -0.036614 -1.629440
v 0.030897 0.033492 -1.758963
v 0.024208 0.008464 -1.757866
v 0.028572 -0.029794 -1.760058
v 0.041215 0.052433 -1.759612
v 0.041278 -0.049113 -1.760636
v 0.076530 0.187632 -1.901402
v 0.069775 0.035463 -1.901964
v 0.074542 -0.197136 -1.903029
v 0.086696 0.302787 -1.899521
v 0.087006 -0.314588 -1.900499
v 0.100141 0.265364 -1.975702
v 0.093386 0.048424 -1.976264
v 0.098153 -0.283182 -1.977329
v 0.110307 0.429535 -1.973821
v 0.110617 -0.450629 -1.974799
v 0.115136 0.266998 -1.989019
v 0.107731 0.047052 -1.965716
v 0.114850 -0.284283 -1.988118
v 0.066330 0.002003 1.005458
v 0.062304 -0.109233 0.971239
v 0.119327 -0.018766 0.967829
v 0.098743 -0.089820 0.974059
v 0.118998 -0.048825 0.950379
v 0.006046 -0.018766 0.981155
v 0.027514 -0.089820 0.982439
v 0.002317 -0.048825 0.964106
v 0.178426 -0.051840 0.393318
v 0.223461 0.027390 0.371711
v 0.283162 -0.181033 0.273307
v 0.362350 -0.041716 0.235314
v 0.200944 -0.012225 0.382514
v 0.349067 -0.135206 0.247263
v 0.244542 -0.126908 0.341364
v 0.307771 -0.015669 0.311028
v 0.276156 -0.071289 0.326196
v -0.153929 -0.039867 0.427456
v -0.220777 0.016145 0.393305
v -0.150450 -0.179513 0.277290
v -0.267995 -0.081022 0.217240
v -0.187353 -0.011861 0.410380
v -0.218933 -0.161338 0.231448
v -0.161580 -0.126040 0.355197
v -0.255435 -0.047399 0.307249
v -0.208508 -0.086719 0.331223
v -0.002820 0.436122 0.028720
v -0.004224 0.416399 0.063175
v 0.023212 0.274162 -1.013028
v 0.023259 0.222699 -1.066512
v 0.032994 0.394554 -0.763070
v 0.011400 0.450024 -0.504681
v 0.018156 0.464016 -0.240304
v 0.007601 0.393161 -0.226910
v 0.021443 0.379138 -0.498314
v 0.022985 0.328875 -0.752372
v 0.061195 -0.038183 0.964131
v 0.062956 -0.083997 0.970118
v 0.145112 0.104667 0.805810
v 0.137229 0.093067 0.833023
v 0.137481 0.065129 0.845541
v 0.145720 0.037220 0.836031
v 0.157120 0.025687 0.810064
v 0.165003 0.037287 0.782850
v 0.164751 0.065225 0.770332
v 0.156512 0.093134 0.779842
v 0.158736 0.085916 0.810726
v 0.154956 0.080353 0.823776
v 0.155077 0.066956 0.829780
v 0.159028 0.053572 0.825219
v 0.164495 0.048041 0.812766
v 0.168276 0.053604 0.799716
v 0.168155 0.067002 0.793713
v 0.164203 0.080386 0.798273
v 0.163820 0.067357 0.812546
v 0.141927 0.104120 0.804654
v 0.134044 0.092520 0.831868
v 0.134297 0.064583 0.844386
v 0.142536 0.036673 0.834876
v 0.153936 0.025141 0.808908
v 0.161819 0.036741 0.781695
v 0.161567 0.064678 0.769177
v 0.153327 0.092588 0.778687
v -0.056635 0.104667 0.829544
v -0.042652 0.093067 0.854185
v -0.039992 0.065129 0.866419
v -0.050213 0.037220 0.859081
v -0.067328 0.025687 0.836468
v -0.081311 0.037287 0.811827
v -0.083971 0.065225 0.799593
v -0.073750 0.093134 0.806931
v -0.068747 0.085916 0.837488
v -0.062041 0.080353 0.849304
v -0.060765 0.066956 0.855172
v -0.065667 0.053572 0.851653
v -0.073875 0.048041 0.840808
v -0.080580 0.053604 0.828992
v -0.081856 0.067002 0.823124
v -0.076954 0.080386 0.826644
v -0.073269 0.067357 0.840438
v -0.053805 0.104120 0.827681
v -0.039822 0.092520 0.852322
v -0.037162 0.064583 0.864556
v -0.047384 0.036673 0.857218
v -0.064499 0.025141 0.834605
v -0.078482 0.036741 0.809965
v -0.081142 0.064678 0.797730
v -0.070921 0.092588 0.805068
vn 0.5613 0.7988 0.2166
vn 0.8591 0.4490 0.2455
vn 0.8109 -0.5670 0.1446
vn 0.6346 -0.7602 0.1388
vn 0.4094 0.6701 0.6192
vn 0.4656 -0.8829 0.0617
vn 0.9674 -0.1350 0.2143
vn 0.9139 -0.3933 0.1009
vn 0.3286 -0.9343 -0.1385
vn 0.8336 -0.5524 -0.0059
vn 0.8789 0.4767 -0.0158
vn 0.5515 0.8337 -0.0298
vn 0.3428 -0.9154 -0.2111
vn 0.8367 -0.5078 -0.2051
vn 0.7677 0.5863 -0.2585
vn 0.5557 0.7845 -0.2753
vn 0.9219 -0.2851 -0.2623
vn 0.5108 0.7999 -0.3152
vn 0.4546 -0.8704 -0.1891
vn 0.8267 0.4771 -0.2983
vn 0.9650 -0.2587 -0.0436
vn 0.6174 0.7809 -0.0953
vn 0.5315 -0.8432 -0.0805
vn 0.8409 0.5366 -0.0706
vn 0.5237 -0.8510 0.0393
vn 0.9677 0.2519 0.0070
vn 0.9656 -0.2549 -0.0519
vn 0.8730 0.4780 0.0967
vn 0.9511 -0.1211 0.2841
vn 0.8891 0.0894 0.4489
vn 0.5496 -0.4358 0.7128
vn 0.9346 0.0439 0.3531
vn 0.9429 0.0306 0.3317
vn 0.9538 -0.0181 0.2999
vn 0.9152 0.0628 0.3980
vn 0.9047 -0.1077 0.4122
vn 0.9736 0.0498 -0.2230
vn 0.9712 -0.0572 -0.2314
vn 0.9278 -0.0532 -0.3693
vn -0.0195 0.0111 -0.9997
vn -0.4185 0.8757 0.2407
vn -0.8294 0.4327 0.3533
vn -0.7852 -0.5697 0.2425
vn -0.6067 -0.7676 0.2064
vn -0.4677 0.5280 0.7089
vn -0.6288 -0.7313 0.2641
vn -0.9600 -0.2276 0.1632
vn -0.8658 -0.3946 0.3076
vn -0.7083 -0.7039 -0.0526
vn -0.8402 -0.5375 -0.0721
vn -0.8741 0.4786 -0.0832
vn -0.5749 0.8157 -0.0642
vn -0.3319 -0.9189 -0.2132
vn -0.8324 -0.5132 -0.2090
vn -0.8748 0.4329 -0.2177
vn -0.5457 0.7907 -0.2774
vn -0.9213 -0.2850 -0.2646
vn -0.5099 0.7992 -0.3181
vn -0.4543 -0.8703 -0.1904
vn -0.7532 0.5714 -0.3260
vn -0.9529 -0.2524 -0.1681
vn -0.6068 0.7751 -0.1761
vn -0.5634 -0.8096 -0.1644
vn -0.8432 0.5088 -0.1736
vn -0.5266 -0.8497 -0.0263
vn -0.8297 0.5399 -0.1420
vn -0.9520 -0.2538 -0.1710
vn -0.5981 0.8007 -0.0348
vn -0.9447 -0.0897 -0.3155
vn -0.8496 0.4709 0.2374
vn -0.7745 -0.5202 0.3598
vn -0.9377 0.2396 -0.2516
vn -0.9543 0.0435 -0.2957
vn -0.9520 -0.0181 -0.3057
vn -0.9724 0.0894 -0.2155
vn -0.9767 -0.1077 -0.1857
vn -0.6662 0.0498 -0.7441
vn 0.5913 -0.0163 -0.8063
vn -0.5444 -0.0532 -0.8371
vn -0.5401 0.0452 -0.8404
vn -0.8578 -0.4126 0.3066
vn -0.8464 0.1617 0.5073
vn -0.1908 -0.9434 0.2713
vn -0.5249 0.5698 0.6324
vn 0.9055 -0.4126 0.0992
vn 0.9409 0.1689 0.2937
vn 0.2485 -0.9434 0.2196
vn 0.6573 0.5698 0.4933
vn 0.7418 -0.2521 0.6215
vn 0.5521 -0.0877 0.8292
vn 0.5520 -0.0877 0.8292
vn -0.8113 -0.4244 0.4022
vn -0.6997 -0.6317 0.3336
vn -0.6725 -0.4396 0.5954
vn -0.9888 0.1456 -0.0314
vn -0.9992 -0.0000 -0.0407
vn -0.9890 0.1364 -0.0575
vn -0.9881 -0.1446 -0.0515
vn 0.2729 -0.9619 0.0187
vn -0.2596 -0.9621 0.0833
vn -0.3005 0.1122 0.9471
vn 0.5067 0.1308 0.8521
vn 0.5108 0.8241 0.2448
vn -0.1661 0.9669 0.1936
vn 0.6641 -0.5956 0.4520
vn -0.5363 -0.5987 0.5949
vn 0.2065 0.9661 0.1547
vn -0.4525 0.8205 0.3493
vn 0.9305 0.3294 -0.1605
vn 0.9364 -0.3250 0.1327
vn 0.6694 -0.0549 0.7409
vn 0.6635 0.5995 0.4477
vn 0.7957 0.5999 0.0829
vn 0.9887 -0.0537 -0.1398
vn 0.8041 -0.3254 0.4975
vn 0.6111 0.3283 0.7203
vn 0.8841 0.2789 0.3750
vn 0.9187 0.2791 0.2794
vn 0.9693 0.1078 0.2210
vn 0.9209 0.0366 0.3880
vn 0.8704 0.2079 0.4464
vn 0.9540 0.2082 0.2156
vn 0.9556 0.0367 0.2925
vn 0.8856 0.1075 0.4518
vn 0.3724 -0.3767 -0.8482
vn 0.0082 -0.9125 0.4089
vn -0.3723 0.3767 0.8482
vn 0.2575 0.3789 -0.8889
vn 0.2691 -0.9116 -0.3106
vn -0.2575 -0.3789 0.8889
vn -0.2691 0.9116 0.3106
vn -0.0083 0.9125 -0.4089
vn -0.9423 0.3294 0.0598
vn -0.8800 -0.3250 0.3464
vn -0.4791 -0.0549 0.8760
vn -0.5414 0.5995 0.5895
vn -0.7548 0.5999 0.2653
vn -0.9942 -0.0537 0.0934
vn -0.6667 -0.3254 0.6706
vn -0.4273 0.3283 0.8424
vn -0.7729 0.2789 0.5699
vn -0.8288 0.2791 0.4850
vn -0.8915 0.1078 0.4400
vn -0.8057 0.0366 0.5912
vn -0.7430 0.2079 0.6362
vn -0.8779 0.2082 0.4312
vn -0.8616 0.0367 0.5062
vn -0.7566 0.1075 0.6450
vn -0.5590 -0.3767 -0.7386
vn 0.0869 -0.9125 0.3996
vn 0.5591 0.3767 0.7386
vn -0.4567 0.3789 -0.8049
vn -0.3339 -0.9116 -0.2397
vn 0.4567 -0.3789 0.8049
vn 0.3339 0.9116 0.2397
vn -0.0869 0.9125 -0.3996
vn 0.4562 0.8703 0.1855
vn 0.9715 0.1872 0.1452
vn 0.8802 -0.4173 0.2261
vn 0.6634 -0.7326 0.1523
vn 0.6198 0.5254 0.5829
vn 0.6774 -0.7266 0.1148
vn 0.9716 -0.2276 -0.0640
vn 0.9293 -0.3566 0.0960
vn 0.6833 -0.7301 0.0083
vn 0.8455 -0.5340 0.0014
vn 0.8986 0.4378 -0.0281
vn 0.5746 0.8182 -0.0201
vn 0.4554 -0.8728 -0.1759
vn 0.9454 -0.3018 -0.1228
vn 0.8771 0.4305 -0.2131
vn 0.5170 0.8132 -0.2671
vn 0.9386 -0.2342 -0.2533
vn 0.5989 0.7310 -0.3272
vn 0.5711 -0.8060 -0.1558
vn 0.7536 0.5712 -0.3252
vn 0.9658 -0.2557 -0.0426
vn 0.6051 0.7907 -0.0933
vn 0.5742 -0.8138 -0.0899
vn 0.8547 0.5152 -0.0641
vn 0.8289 -0.5495 0.1043
vn 0.8409 0.5398 -0.0383
vn 0.9944 -0.1044 -0.0162
vn 0.5976 0.8008 0.0394
vn 0.9433 -0.0185 0.3315
vn 0.6318 0.4058 0.6604
vn 0.8669 -0.1072 0.4868
vn 0.9021 0.2607 0.3440
vn 0.9499 0.0435 0.3094
vn 0.9486 -0.0128 0.3163
vn 0.9184 0.0894 0.3853
vn 0.9019 -0.0757 0.4252
vn -0.0174 -0.0163 -0.9997
vn 0.9261 0.0452 -0.3745
vn -0.5435 0.7850 0.2972
vn -0.9402 0.1915 0.2816
vn -0.8533 -0.3953 0.3400
vn -0.6482 -0.7254 0.2315
vn -0.2822 0.6592 0.6970
vn -0.4390 -0.8829 0.1667
vn -0.8913 -0.1350 0.4329
vn -0.8732 -0.3785 0.3071
vn -0.3255 -0.9299 -0.1710
vn -0.8444 -0.5311 -0.0700
vn -0.8939 0.4376 -0.0974
vn -0.5505 0.8317 -0.0724
vn -0.4552 -0.8731 -0.1745
vn -0.9453 -0.3019 -0.1237
vn -0.7667 0.5858 -0.2627
vn -0.5162 0.8125 -0.2710
vn -0.9356 -0.2419 -0.2571
vn -0.5846 0.7417 -0.3289
vn -0.5639 -0.8102 -0.1601
vn -0.8191 0.4873 -0.3027
vn -0.9524 -0.2541 -0.1685
vn -0.5887 0.7901 -0.1707
vn -0.5193 -0.8416 -0.1486
vn -0.8249 0.5360 -0.1794
vn -0.8355 -0.5495 -0.0000
vn -0.9612 0.2519 -0.1127
vn -0.9847 -0.1044 -0.1394
vn -0.8783 0.4780 -0.0121
vn -0.9579 -0.0183 -0.2865
vn -0.9831 0.0894 -0.1596
vn -0.9871 -0.1073 -0.1190
vn -0.9642 0.0438 -0.2615
vn -0.9614 0.0306 -0.2734
vn -0.9572 -0.0128 -0.2893
vn -0.9771 0.0628 -0.2033
vn -0.9819 -0.0757 -0.1734
vn -0.6595 -0.0572 -0.7496
vn 0.5930 0.0111 -0.8051
vn -0.8683 -0.4068 0.2838
vn -0.8897 -0.1367 0.4356
vn -0.4387 -0.8829 0.1675
vn -0.4676 0.5265 0.7100
vn 0.9105 -0.4068 0.0745
vn 0.9685 -0.1328 0.2105
vn 0.4656 -0.8829 0.0611
vn 0.6196 0.5265 0.5821
vn 0.7281 -0.0158 0.6853
vn 0.5395 -0.3374 0.7715
vn -0.5346 -0.6491 0.5413
vn -1.0000 -0.0000 -0.0009
vn -0.9888 0.1354 -0.0631
vn -0.9900 -0.1373 0.0326
vn -0.9888 0.1450 -0.0347
vn -0.3724 0.3767 0.8482
vn -0.0082 0.9125 -0.4089
vn -0.4273 0.3282 0.8424
vn -0.5591 -0.3767 -0.7386
vn -0.4568 0.3789 -0.8049
usemtl BodyTop.001
s off
f 46//1 1//1 47//1
f 1//2 5//2 3//2
usemtl BodyBottom.001
f 3//3 6//3 2//3
f 2//4 51//4 52//4
usemtl BodyTop.001
f 84//5 4//5 46//5
usemtl BodyBottom.001
f 85//6 6//6 87//6
usemtl BodyTop.001
f 86//7 9//7 88//7
usemtl BodyBottom.001
f 6//8 88//8 87//8
f 12//9 52//9 53//9
f 2//10 11//10 3//10
usemtl BodyTop.001
f 3//11 10//11 1//11
f 47//12 10//12 48//12
usemtl BodyBottom.001
f 53//13 15//13 12//13
f 12//14 14//14 11//14
usemtl BodyTop.001
f 10//15 14//15 13//15
f 10//16 49//16 48//16
usemtl BodyBottom.001
f 15//17 18//17 14//17
usemtl BodyTop.001
f 13//18 59//18 49//18
usemtl BodyBottom.001
f 54//19 19//19 15//19
usemtl BodyTop.001
f 13//20 18//20 17//20
usemtl BodyBottom.001
f 19//21 21//21 18//21
usemtl BodyTop.001
f 17//22 64//22 59//22
usemtl BodyBottom.001
f 19//23 65//23 22//23
usemtl BodyTop.001
f 17//24 21//24 20//24
usemtl BodyBottom.001
f 65//25 25//25 22//25
usemtl BodyTop.001
f 20//26 24//26 23//26
usemtl BodyBottom.001
f 22//27 24//27 21//27
usemtl BodyTop.001
f 64//28 23//28 69//28
usemtl BodyBottom.001
f 25//29 27//29 24//29
usemtl BodyTop.001
f 69//30 26//30 74//30
usemtl BodyBottom.001
f 70//31 28//31 25//31
usemtl BodyTop.001
f 23//32 27//32 26//32
f 26//33 30//33 29//33
usemtl BodyBottom.001
f 28//34 30//34 27//34
usemtl BodyTop.001
f 74//35 29//35 79//35
usemtl BodyBottom.001
f 75//36 31//36 28//36
usemtl BodyTop.001
f 29//37 81//37 79//37
f 29//38 82//38 81//38
usemtl BodyBottom.001
f 31//39 80//39 83//39
f 31//40 82//40 30//40
usemtl BodyTop.001
f 46//41 32//41 35//41
f 36//42 32//42 34//42
usemtl BodyBottom.001
f 37//43 34//43 33//43
f 51//44 33//44 52//44
usemtl BodyTop.001
f 84//45 35//45 89//45
usemtl BodyBottom.001
f 85//46 37//46 51//46
usemtl BodyTop.001
f 89//47 39//47 38//47
usemtl BodyBottom.001
f 91//48 37//48 90//48
f 42//49 52//49 33//49
f 41//50 33//50 34//50
usemtl BodyTop.001
f 40//51 34//51 32//51
f 47//52 40//52 32//52
usemtl BodyBottom.001
f 45//53 53//53 42//53
f 44//54 42//54 41//54
usemtl BodyTop.001
f 40//55 44//55 41//55
f 49//56 40//56 48//56
usemtl BodyBottom.001
f 57//57 45//57 44//57
usemtl BodyTop.001
f 59//58 43//58 49//58
usemtl BodyBottom.001
f 58//59 54//59 45//59
usemtl BodyTop.001
f 43//60 57//60 44//60
usemtl BodyBottom.001
f 62//61 58//61 57//61
usemtl BodyTop.001
f 64//62 56//62 59//62
usemtl BodyBottom.001
f 58//63 65//63 60//63
usemtl BodyTop.001
f 56//64 62//64 57//64
usemtl BodyBottom.001
f 68//65 65//65 63//65
usemtl BodyTop.001
f 61//66 67//66 62//66
usemtl BodyBottom.001
f 67//67 63//67 62//67
usemtl BodyTop.001
f 64//68 66//68 61//68
usemtl BodyBottom.001
f 72//69 68//69 67//69
usemtl BodyTop.001
f 69//70 71//70 66//70
usemtl BodyBottom.001
f 73//71 70//71 68//71
usemtl BodyTop.001
f 66//72 72//72 67//72
f 71//73 77//73 72//73
usemtl BodyBottom.001
f 77//74 73//74 72//74
usemtl BodyTop.001
f 74//75 76//75 71//75
usemtl BodyBottom.001
f 78//76 75//76 73//76
usemtl BodyTop.001
f 76//77 79//77 81//77
f 76//78 82//78 77//78
usemtl BodyBottom.001
f 78//79 83//79 80//79
f 78//80 82//80 83//80
f 39//81 90//81 16//81
usemtl BodyTop.001
f 36//82 89//82 35//82
usemtl BodyBottom.001
f 16//83 85//83 55//83
usemtl BodyTop.001
f 84//84 38//84 50//84
usemtl BodyBottom.001
f 87//85 9//85 8//85
usemtl BodyTop.001
f 86//86 5//86 4//86
usemtl BodyBottom.001
f 85//87 8//87 55//87
usemtl BodyTop.001
f 7//88 84//88 50//88
usemtl Fin.001
f 100//89 95//89 99//89
f 94//89 100//89 98//89
f 92//90 100//90 96//90
f 100//91 93//91 96//91
f 109//92 104//92 106//92
f 109//93 103//93 107//93
f 101//94 109//94 107//94
f 102//94 109//94 105//94
f 112//95 119//95 114//95
f 110//96 117//96 111//96
f 116//97 118//97 117//97
f 114//98 118//98 115//98
usemtl Mouth.001
f 38//99 120//99 50//99
f 120//100 7//100 50//100
f 120//101 121//101 9//101
f 39//102 121//102 120//102
f 16//103 121//103 39//103
f 8//104 121//104 55//104
f 38//105 39//105 120//105
f 120//106 9//106 7//106
f 16//107 55//107 121//107
f 8//108 9//108 121//108
usemtl Eye.001
f 129//109 136//109 128//109
f 135//110 126//110 127//110
f 125//111 132//111 124//111
f 131//112 122//112 123//112
f 122//113 137//113 129//113
f 136//114 127//114 128//114
f 126//115 133//115 125//115
f 124//116 131//116 123//116
usemtl Pupil.001
f 131//117 138//117 130//117
f 130//118 138//118 137//118
f 136//119 138//119 135//119
f 134//120 138//120 133//120
f 132//121 138//121 131//121
f 137//122 138//122 136//122
f 135//123 138//123 134//123
f 133//124 138//124 132//124
usemtl Eye.001
f 127//125 145//125 128//125
f 142//126 126//126 125//126
f 123//127 141//127 124//127
f 145//128 129//128 128//128
f 143//129 127//129 126//129
f 141//130 125//130 124//130
f 139//131 123//131 122//131
f 129//132 139//132 122//132
f 153//133 162//133 154//133
f 151//134 160//134 152//134
f 149//135 158//135 150//135
f 147//136 156//136 148//136
f 154//137 155//137 147//137
f 153//138 160//138 161//138
f 151//139 158//139 159//139
f 149//140 156//140 157//140
usemtl Pupil.001
f 156//141 155//141 163//141
f 155//142 162//142 163//142
f 161//143 160//143 163//143
f 159//144 158//144 163//144
f 157//145 156//145 163//145
f 162//146 161//146 163//146
f 160//147 159//147 163//147
f 158//148 157//148 163//148
usemtl Eye.001
f 153//149 169//149 152//149
f 150//150 168//150 167//150
f 148//151 166//151 165//151
f 154//152 170//152 153//152
f 151//153 169//153 168//153
f 150//154 166//154 149//154
f 147//155 165//155 164//155
f 154//156 164//156 171//156
usemtl BodyTop.001
f 46//157 4//157 1//157
f 1//158 4//158 5//158
usemtl BodyBottom.001
f 3//159 5//159 6//159
f 2//160 6//160 51//160
usemtl BodyTop.001
f 84//161 86//161 4//161
usemtl BodyBottom.001
f 85//162 51//162 6//162
usemtl BodyTop.001
f 86//163 7//163 9//163
usemtl BodyBottom.001
f 6//164 5//164 88//164
f 12//165 2//165 52//165
f 2//166 12//166 11//166
usemtl BodyTop.001
f 3//167 11//167 10//167
f 47//168 1//168 10//168
usemtl BodyBottom.001
f 53//169 54//169 15//169
f 12//170 15//170 14//170
usemtl BodyTop.001
f 10//171 11//171 14//171
f 10//172 13//172 49//172
usemtl BodyBottom.001
f 15//173 19//173 18//173
usemtl BodyTop.001
f 13//174 17//174 59//174
usemtl BodyBottom.001
f 54//175 60//175 19//175
usemtl BodyTop.001
f 13//176 14//176 18//176
usemtl BodyBottom.001
f 19//177 22//177 21//177
usemtl BodyTop.001
f 17//178 20//178 64//178
usemtl BodyBottom.001
f 19//179 60//179 65//179
usemtl BodyTop.001
f 17//180 18//180 21//180
usemtl BodyBottom.001
f 65//181 70//181 25//181
usemtl BodyTop.001
f 20//182 21//182 24//182
usemtl BodyBottom.001
f 22//183 25//183 24//183
usemtl BodyTop.001
f 64//184 20//184 23//184
usemtl BodyBottom.001
f 25//185 28//185 27//185
usemtl BodyTop.001
f 69//186 23//186 26//186
usemtl BodyBottom.001
f 70//187 75//187 28//187
usemtl BodyTop.001
f 23//188 24//188 27//188
f 26//189 27//189 30//189
usemtl BodyBottom.001
f 28//190 31//190 30//190
usemtl BodyTop.001
f 74//191 26//191 29//191
usemtl BodyBottom.001
f 75//192 80//192 31//192
usemtl BodyTop.001
f 29//193 30//193 82//193
usemtl BodyBottom.001
f 31//194 83//194 82//194
usemtl BodyTop.001
f 46//195 47//195 32//195
f 36//196 35//196 32//196
usemtl BodyBottom.001
f 37//197 36//197 34//197
f 51//198 37//198 33//198
usemtl BodyTop.001
f 84//199 46//199 35//199
usemtl BodyBottom.001
f 85//200 90//200 37//200
usemtl BodyTop.001
f 89//201 91//201 39//201
usemtl BodyBottom.001
f 91//202 36//202 37//202
f 42//203 53//203 52//203
f 41//204 42//204 33//204
usemtl BodyTop.001
f 40//205 41//205 34//205
f 47//206 48//206 40//206
usemtl BodyBottom.001
f 45//207 54//207 53//207
f 44//208 45//208 42//208
usemtl BodyTop.001
f 40//209 43//209 44//209
f 49//210 43//210 40//210
usemtl BodyBottom.001
f 57//211 58//211 45//211
usemtl BodyTop.001
f 59//212 56//212 43//212
usemtl BodyBottom.001
f 58//213 60//213 54//213
usemtl BodyTop.001
f 43//214 56//214 57//214
usemtl BodyBottom.001
f 62//215 63//215 58//215
usemtl BodyTop.001
f 64//216 61//216 56//216
usemtl BodyBottom.001
f 58//217 63//217 65//217
usemtl BodyTop.001
f 56//218 61//218 62//218
usemtl BodyBottom.001
f 68//219 70//219 65//219
usemtl BodyTop.001
f 61//220 66//220 67//220
usemtl BodyBottom.001
f 67//221 68//221 63//221
usemtl BodyTop.001
f 64//222 69//222 66//222
usemtl BodyBottom.001
f 72//223 73//223 68//223
usemtl BodyTop.001
f 69//224 74//224 71//224
usemtl BodyBottom.001
f 73//225 75//225 70//225
usemtl BodyTop.001
f 66//226 71//226 72//226
f 71//227 76//227 77//227
usemtl BodyBottom.001
f 77//228 78//228 73//228
usemtl BodyTop.001
f 74//229 79//229 76//229
usemtl BodyBottom.001
f 78//230 80//230 75//230
usemtl BodyTop.001
f 76//231 81//231 82//231
usemtl BodyBottom.001
f 78//232 77//232 82//232
f 39//233 91//233 90//233
usemtl BodyTop.001
f 36//234 91//234 89//234
usemtl BodyBottom.001
f 16//235 90//235 85//235
usemtl BodyTop.001
f 84//236 89//236 38//236
usemtl BodyBottom.001
f 87//237 88//237 9//237
usemtl BodyTop.001
f 86//238 88//238 5//238
usemtl BodyBottom.001
f 85//239 87//239 8//239
usemtl BodyTop.001
f 7//240 86//240 84//240
usemtl Fin.001
f 100//241 97//241 95//241
f 94//242 97//242 100//242
f 92//90 98//90 100//90
f 100//90 99//90 93//90
f 109//93 108//93 104//93
f 109//243 106//243 103//243
f 101//94 105//94 109//94
f 102//94 108//94 109//94
f 112//244 113//244 119//244
f 110//245 116//245 117//245
f 116//246 115//246 118//246
f 114//247 119//247 118//247
usemtl Eye.001
f 129//109 137//109 136//109
f 135//110 134//110 126//110
f 125//111 133//111 132//111
f 131//112 130//112 122//112
f 122//113 130//113 137//113
f 136//114 135//114 127//114
f 126//115 134//115 133//115
f 124//116 132//116 131//116
f 127//125 144//125 145//125
f 142//126 143//126 126//126
f 123//248 140//248 141//248
f 145//128 146//128 129//128
f 143//129 144//129 127//129
f 141//130 142//130 125//130
f 139//131 140//131 123//131
f 129//249 146//249 139//249
f 153//133 161//133 162//133
f 151//134 159//134 160//134
f 149//135 157//135 158//135
f 147//136 155//136 156//136
f 154//137 162//137 155//137
f 153//138 152//138 160//138
f 151//139 150//139 158//139
f 149//250 148//250 156//250
f 153//251 170//251 169//251
f 150//150 151//150 168//150
f 148//151 149//151 166//151
f 154//252 171//252 170//252
f 151//153 152//153 169//153
f 150//154 167//154 166//154
f 147//155 148//155 165//155
f 154//156 147//156 164//156
