# Blender v2.79 (sub 0) OBJ File: 'Minnnow_ioexperment.blend'
# www.blender.org
mtllib Minnow_000004.mtl
v 0.212159 0.273001 0.084292
v 0.168327 -0.159074 0.029718
v 0.322065 0.067251 0.061484
v 0.176960 0.190820 0.645584
v 0.205224 0.051360 0.633558
v 0.155840 -0.094767 0.548756
v 0.132169 -0.049348 0.906067
v 0.111313 -0.089098 0.927014
v 0.127954 -0.063444 0.887753
v 0.120482 0.257610 -0.706411
v 0.220744 0.050659 -0.716566
v 0.075456 -0.177555 -0.729932
v 0.006332 0.123514 -1.299210
v 0.062647 0.051821 -1.296127
v 0.026588 -0.057767 -1.302375
v 0.060865 -0.089098 0.932143
v -0.056638 0.040249 -1.586941
v -0.039232 0.011828 -1.584981
v -0.051421 -0.032575 -1.588220
v -0.065160 0.026351 -1.719376
v -0.052749 0.007273 -1.718024
v -0.060667 -0.021889 -1.720028
v -0.072075 0.033492 -1.850406
v -0.065492 0.008464 -1.848789
v -0.069672 -0.029794 -1.851316
v -0.094391 0.187632 -1.997434
v -0.087632 0.035463 -1.996919
v -0.092170 -0.197136 -1.998726
v -0.105932 0.265364 -2.074537
v -0.099173 0.048424 -2.074021
v -0.103710 -0.283182 -2.075828
v -0.237991 0.273001 0.129389
v -0.205840 -0.159074 0.067037
v -0.350240 0.067251 0.128813
v -0.056181 0.190820 0.673289
v -0.086476 0.051360 0.668222
v -0.058341 -0.094767 0.574208
v 0.036220 -0.049348 0.915822
v 0.036664 -0.063444 0.897034
v -0.256095 0.257610 -0.689581
v -0.356863 0.050659 -0.690751
v -0.213347 -0.177555 -0.717025
v -0.168200 0.123514 -1.295354
v -0.224325 0.051821 -1.289786
v -0.188576 -0.057767 -1.297621
v 0.060791 0.248875 0.662815
v -0.013209 0.431722 0.103917
v -0.068882 0.380931 -0.722063
v -0.081016 0.177768 -1.300966
v 0.087758 -0.034020 0.945997
v 0.040330 -0.210664 0.490631
v -0.030188 -0.337665 -0.065620
v -0.070604 -0.222210 -0.760225
v -0.081080 -0.113104 -1.303904
v 0.086324 -0.094433 0.931891
v -0.117295 0.040249 -1.586762
v -0.134689 0.011828 -1.584700
v -0.122520 -0.032575 -1.588011
v -0.086972 0.063840 -1.588565
v -0.086971 -0.057490 -1.588292
v -0.103746 0.026351 -1.720000
v -0.116194 0.007273 -1.719050
v -0.108236 -0.021889 -1.720794
v -0.084440 0.040788 -1.720668
v -0.084475 -0.036614 -1.721450
v -0.092588 0.033492 -1.850738
v -0.099220 0.008464 -1.849335
v -0.094960 -0.029794 -1.851725
v -0.082311 0.052433 -1.851858
v -0.082294 -0.049113 -1.852884
v -0.114681 0.187632 -1.994398
v -0.120993 0.035463 -1.991926
v -0.117183 -0.197136 -1.994982
v -0.104726 0.302787 -1.997188
v -0.104878 -0.314588 -1.998203
v -0.126221 0.265364 -2.071500
v -0.132533 0.048424 -2.069028
v -0.128723 -0.283182 -2.072085
v -0.116267 0.429535 -2.074291
v -0.116419 -0.450629 -2.075305
v -0.118627 0.266998 -2.090062
v -0.115008 0.047052 -2.065879
v -0.118487 -0.284283 -2.089127
v 0.084095 0.002003 0.909965
v 0.080610 -0.109233 0.875687
v 0.137680 -0.018766 0.873177
v 0.117000 -0.089820 0.879082
v 0.137626 -0.048825 0.855725
v 0.024203 -0.018766 0.884714
v 0.045648 -0.089820 0.886336
v 0.020743 -0.048825 0.867608
v 0.187105 -0.048373 0.298114
v 0.227123 0.024134 0.254369
v 0.225075 -0.193847 0.158621
v 0.295442 -0.066352 0.081699
v 0.207114 -0.012120 0.276242
v 0.279529 -0.157085 0.105658
v 0.220888 -0.132735 0.231426
v 0.277073 -0.030936 0.170007
v 0.248981 -0.081836 0.200716
v -0.152594 -0.048285 0.341678
v -0.205391 0.024051 0.314251
v -0.229236 -0.191955 0.216988
v -0.322073 -0.064760 0.168760
v -0.178992 -0.012117 0.327965
v -0.297993 -0.155520 0.184326
v -0.203846 -0.132156 0.286502
v -0.277974 -0.030596 0.247994
v -0.240910 -0.081376 0.267248
v -0.025181 0.436122 -0.064136
v -0.022861 0.416399 -0.029731
v -0.076683 0.274162 -1.104878
v -0.077865 0.222699 -1.158350
v -0.061165 0.394554 -0.855211
v -0.073886 0.450024 -0.596164
v -0.033344 0.464016 -0.333853
v -0.042392 0.393161 -0.319399
v -0.063817 0.379138 -0.590330
v -0.070926 0.328875 -0.844286
v 0.079613 -0.038183 0.868562
v 0.081280 -0.083997 0.874576
v 0.166019 0.104667 0.711585
v 0.157708 0.093067 0.738671
v 0.157762 0.065129 0.751191
v 0.166150 0.037220 0.741812
v 0.177959 0.025687 0.716028
v 0.186270 0.037287 0.688943
v 0.186216 0.065225 0.676422
v 0.177828 0.093134 0.685801
v 0.179564 0.085916 0.716716
v 0.175579 0.080353 0.729705
v 0.175605 0.066956 0.735709
v 0.179627 0.053572 0.731212
v 0.185290 0.048041 0.718847
v 0.189276 0.053604 0.705857
v 0.189250 0.067002 0.699853
v 0.185227 0.080386 0.704351
v 0.184619 0.067357 0.718616
v 0.162853 0.104120 0.710380
v 0.154542 0.092520 0.737465
v 0.154596 0.064583 0.749985
v 0.162985 0.036673 0.740607
v 0.174793 0.025141 0.714823
v 0.183105 0.036741 0.687737
v 0.183050 0.064678 0.675217
v 0.174662 0.092588 0.684595
v -0.036077 0.104667 0.732131
v -0.022485 0.093067 0.756990
v -0.020018 0.065129 0.769265
v -0.030123 0.037220 0.761766
v -0.046879 0.025687 0.738886
v -0.060471 0.037287 0.714028
v -0.062937 0.065225 0.701753
v -0.052833 0.093134 0.709251
v -0.048313 0.085916 0.739883
v -0.041794 0.080353 0.751804
v -0.040612 0.066956 0.757691
v -0.045457 0.053572 0.754095
v -0.053493 0.048041 0.743123
v -0.060011 0.053604 0.731202
v -0.061194 0.067002 0.725315
v -0.056348 0.080386 0.728911
v -0.052881 0.067357 0.742761
v -0.033219 0.104120 0.730314
v -0.019626 0.092520 0.755172
v -0.017160 0.064583 0.767447
v -0.027264 0.036673 0.759949
v -0.044020 0.025141 0.737068
v -0.057612 0.036741 0.712210
v -0.060079 0.064678 0.699935
v -0.049975 0.092588 0.707433
vn 0.5766 0.7960 0.1841
vn 0.8745 0.4459 0.1910
vn 0.8179 -0.5682 0.0901
vn 0.6410 -0.7620 0.0927
vn 0.4223 0.6609 0.6204
vn 0.4647 -0.8829 0.0679
vn 0.9639 -0.1350 0.2295
vn 0.9120 -0.3944 0.1131
vn 0.3207 -0.9312 -0.1734
vn 0.8296 -0.5500 -0.0963
vn 0.8715 0.4778 -0.1103
vn 0.5487 0.8314 -0.0881
vn 0.3267 -0.9191 -0.2202
vn 0.8275 -0.5136 -0.2268
vn 0.7610 0.5857 -0.2790
vn 0.5391 0.7911 -0.2889
vn 0.9156 -0.2851 -0.2835
vn 0.5033 0.7997 -0.3272
vn 0.4502 -0.8704 -0.1996
vn 0.8182 0.4792 -0.3177
vn 0.9621 -0.2576 -0.0889
vn 0.6133 0.7800 -0.1244
vn 0.5276 -0.8429 -0.1054
vn 0.8367 0.5365 -0.1101
vn 0.5253 -0.8508 0.0152
vn 0.9670 0.2519 -0.0373
vn 0.9622 -0.2547 -0.0961
vn 0.8765 0.4780 0.0567
vn 0.9817 -0.0964 -0.1643
vn 0.9960 0.0894 0.0004
vn 0.7218 -0.5096 0.4683
vn 0.9935 0.0438 -0.1049
vn 0.9926 0.0306 -0.1177
vn 0.9884 -0.0181 -0.1510
vn 0.9970 0.0628 -0.0459
vn 0.9938 -0.1077 -0.0286
vn 0.7757 0.0498 -0.6291
vn 0.7699 -0.0572 -0.6356
vn 0.6702 -0.0532 -0.7403
vn -0.4580 0.0111 -0.8889
vn -0.4089 0.8722 0.2685
vn -0.8029 0.4369 0.4055
vn -0.7669 -0.5699 0.2953
vn -0.5910 -0.7670 0.2500
vn -0.4788 0.5257 0.7032
vn -0.6358 -0.7274 0.2581
vn -0.9624 -0.2276 0.1480
vn -0.8703 -0.3934 0.2962
vn -0.7040 -0.7098 0.0235
vn -0.8407 -0.5412 0.0178
vn -0.8778 0.4789 0.0104
vn -0.5770 0.8167 -0.0026
vn -0.3479 -0.9151 -0.2037
vn -0.8411 -0.5074 -0.1871
vn -0.8815 0.4303 -0.1942
vn -0.5621 0.7840 -0.2634
vn -0.9272 -0.2851 -0.2431
vn -0.5171 0.7994 -0.3059
vn -0.4585 -0.8703 -0.1798
vn -0.7605 0.5714 -0.3086
vn -0.9594 -0.2537 -0.1235
vn -0.6128 0.7764 -0.1472
vn -0.5692 -0.8106 -0.1377
vn -0.8495 0.5102 -0.1343
vn -0.5268 -0.8500 -0.0021
vn -0.8353 0.5399 -0.1039
vn -0.9588 -0.2540 -0.1272
vn -0.5990 0.8007 -0.0074
vn -0.9848 -0.1176 0.1281
vn -0.7135 0.4203 0.5607
vn -0.6334 -0.4529 0.6274
vn -0.9456 0.2614 0.1939
vn -0.9870 0.0435 0.1550
vn -0.9893 -0.0181 0.1450
vn -0.9679 0.0894 0.2350
vn -0.9586 -0.1077 0.2636
vn -0.9259 0.0498 -0.3744
vn 0.1756 -0.0163 -0.9843
vn -0.8576 -0.0532 -0.5116
vn -0.8551 0.0452 -0.5165
vn -0.8625 -0.4126 0.2930
vn -0.8547 0.1678 0.4913
vn -0.1950 -0.9434 0.2683
vn -0.5348 0.5698 0.6240
vn 0.9038 -0.4126 0.1134
vn 0.9362 0.1629 0.3116
vn 0.2450 -0.9434 0.2235
vn 0.6494 0.5698 0.5036
vn 0.8990 -0.3087 0.3108
vn 0.8202 -0.1146 0.5604
vn -0.7761 -0.0991 0.6228
vn -0.7539 -0.3362 0.5645
vn -0.6053 -0.1450 0.7827
vn -0.9893 0.1456 -0.0087
vn -0.9977 -0.0000 0.0673
vn -0.9875 0.1406 0.0708
vn -0.9897 -0.1421 -0.0182
vn 0.2726 -0.9619 0.0230
vn -0.2609 -0.9621 0.0792
vn -0.3154 0.1122 0.9423
vn 0.4932 0.1308 0.8600
vn 0.5069 0.8241 0.2528
vn -0.1692 0.9669 0.1909
vn 0.6568 -0.5956 0.4624
vn -0.5457 -0.5987 0.5864
vn 0.2040 0.9661 0.1580
vn -0.4579 0.8205 0.3421
vn 0.9329 0.3294 -0.1458
vn 0.9342 -0.3250 0.1475
vn 0.6576 -0.0549 0.7514
vn 0.6563 0.5995 0.4581
vn 0.7943 0.5999 0.0954
vn 0.9908 -0.0537 -0.1242
vn 0.7961 -0.3254 0.5102
vn 0.5997 0.3282 0.7298
vn 0.8780 0.2789 0.3889
vn 0.9142 0.2791 0.2939
vn 0.9657 0.1078 0.2363
vn 0.9147 0.0366 0.4025
vn 0.8632 0.2079 0.4601
vn 0.9505 0.2082 0.2307
vn 0.9508 0.0367 0.3075
vn 0.8784 0.1075 0.4657
vn 0.3857 -0.3767 -0.8422
vn 0.0018 -0.9125 0.4090
vn -0.3857 0.3767 0.8422
vn 0.2715 0.3789 -0.8847
vn 0.2740 -0.9116 -0.3063
vn -0.2715 -0.3789 0.8847
vn -0.2740 0.9116 0.3064
vn -0.0018 0.9125 -0.4090
vn -0.9431 0.3294 0.0450
vn -0.8854 -0.3250 0.3325
vn -0.4929 -0.0549 0.8684
vn -0.5507 0.5995 0.5808
vn -0.7589 0.5999 0.2534
vn -0.9955 -0.0537 0.0777
vn -0.6772 -0.3254 0.6600
vn -0.4405 0.3283 0.8356
vn -0.7818 0.2789 0.5576
vn -0.8364 0.2791 0.4718
vn -0.8984 0.1078 0.4258
vn -0.8149 0.0366 0.5784
vn -0.7530 0.2079 0.6244
vn -0.8846 0.2082 0.4172
vn -0.8695 0.0367 0.4926
vn -0.7667 0.1075 0.6330
vn -0.5473 -0.3767 -0.7473
vn 0.0806 -0.9125 0.4010
vn 0.5474 0.3767 0.7473
vn -0.4440 0.3789 -0.8120
vn -0.3301 -0.9116 -0.2449
vn 0.4440 -0.3789 0.8120
vn 0.3300 0.9116 0.2449
vn -0.0806 0.9125 -0.4010
vn 0.4600 0.8740 0.1568
vn 0.9776 0.1904 0.0892
vn 0.8985 -0.4037 0.1723
vn 0.6770 -0.7282 0.1065
vn 0.6102 0.5275 0.5911
vn 0.6717 -0.7307 0.1222
vn 0.9725 -0.2276 -0.0487
vn 0.9203 -0.3753 0.1108
vn 0.6847 -0.7258 -0.0660
vn 0.8425 -0.5311 -0.0901
vn 0.8904 0.4375 -0.1253
vn 0.5691 0.8182 -0.0819
vn 0.4514 -0.8732 -0.1839
vn 0.9424 -0.3019 -0.1436
vn 0.8698 0.4330 -0.2364
vn 0.5103 0.8124 -0.2820
vn 0.9320 -0.2358 -0.2751
vn 0.5884 0.7331 -0.3409
vn 0.5659 -0.8069 -0.1695
vn 0.7460 0.5713 -0.3422
vn 0.9628 -0.2554 -0.0882
vn 0.6002 0.7906 -0.1216
vn 0.5702 -0.8132 -0.1168
vn 0.8513 0.5142 -0.1041
vn 0.8329 -0.5495 0.0661
vn 0.8383 0.5399 -0.0768
vn 0.9926 -0.1044 -0.0618
vn 0.5988 0.8008 0.0120
vn 0.9913 -0.0183 -0.1305
vn 0.8074 0.4642 0.3641
vn 0.9934 -0.1073 0.0416
vn 0.9639 0.2471 -0.0990
vn 0.9891 0.0435 -0.1407
vn 0.9909 -0.0128 -0.1340
vn 0.9943 0.0894 -0.0587
vn 0.9970 -0.0757 -0.0156
vn -0.4561 -0.0163 -0.8898
vn 0.6664 0.0452 -0.7442
vn -0.5201 0.7890 0.3270
vn -0.9226 0.1882 0.3368
vn -0.8240 -0.4101 0.3909
vn -0.6254 -0.7304 0.2745
vn -0.2697 0.6685 0.6931
vn -0.4412 -0.8829 0.1610
vn -0.8980 -0.1350 0.4188
vn -0.8850 -0.3602 0.2950
vn -0.3330 -0.9331 -0.1357
vn -0.8453 -0.5339 0.0207
vn -0.8991 0.4378 -0.0016
vn -0.5517 0.8339 -0.0141
vn -0.4590 -0.8727 -0.1663
vn -0.9478 -0.3018 -0.1027
vn -0.7730 0.5864 -0.2420
vn -0.5226 0.8133 -0.2559
vn -0.9417 -0.2406 -0.2351
vn -0.5943 0.7399 -0.3152
vn -0.5685 -0.8095 -0.1465
vn -0.8270 0.4856 -0.2832
vn -0.9592 -0.2543 -0.1237
vn -0.5959 0.7902 -0.1430
vn -0.5252 -0.8419 -0.1242
vn -0.8324 0.5361 -0.1406
vn -0.8346 -0.5495 0.0384
vn -0.9653 0.2519 -0.0686
vn -0.9901 -0.1044 -0.0941
vn -0.8779 0.4780 0.0282
vn -0.9845 -0.0184 0.1742
vn -0.9496 0.0894 0.3004
vn -0.9339 -0.1072 0.3410
vn -0.9793 0.0438 0.1976
vn -0.9835 0.0306 0.1781
vn -0.9867 -0.0128 0.1620
vn -0.9667 0.0628 0.2480
vn -0.9579 -0.0757 0.2770
vn -0.9223 -0.0572 -0.3823
vn 0.1777 0.0111 -0.9840
vn -0.8727 -0.4068 0.2701
vn -0.8993 -0.1335 0.4165
vn -0.4413 -0.8829 0.1605
vn -0.4788 0.5265 0.7025
vn 0.9092 -0.4068 0.0889
vn 0.9632 -0.1362 0.2316
vn 0.4646 -0.8829 0.0684
vn 0.6104 0.5265 0.5918
vn 0.9323 -0.0698 0.3549
vn 0.7639 -0.3634 0.5332
vn -0.5559 -0.3919 0.7331
vn -0.9998 0.0000 0.0221
vn -0.9898 0.1354 0.0440
vn -0.9793 -0.1261 0.1581
vn -0.9892 0.1468 -0.0014
vn 0.5997 0.3283 0.7298
vn 0.2740 -0.9116 -0.3064
vn -0.2740 0.9116 0.3063
vn -0.4405 0.3282 0.8356
vn -0.5473 -0.3767 -0.7474
vn 0.5473 0.3767 0.7474
vn -0.3300 -0.9116 -0.2449
vn 0.3301 0.9116 0.2449
usemtl BodyTop.001
s off
f 46//1 1//1 47//1
f 1//2 5//2 3//2
usemtl BodyBottom.001
f 3//3 6//3 2//3
f 2//4 51//4 52//4
usemtl BodyTop.001
f 84//5 4//5 46//5
usemtl BodyBottom.001
f 85//6 6//6 87//6
usemtl BodyTop.001
f 86//7 9//7 88//7
usemtl BodyBottom.001
f 6//8 88//8 87//8
f 12//9 52//9 53//9
f 2//10 11//10 3//10
usemtl BodyTop.001
f 3//11 10//11 1//11
f 47//12 10//12 48//12
usemtl BodyBottom.001
f 53//13 15//13 12//13
f 12//14 14//14 11//14
usemtl BodyTop.001
f 10//15 14//15 13//15
f 10//16 49//16 48//16
usemtl BodyBottom.001
f 15//17 18//17 14//17
usemtl BodyTop.001
f 13//18 59//18 49//18
usemtl BodyBottom.001
f 54//19 19//19 15//19
usemtl BodyTop.001
f 13//20 18//20 17//20
usemtl BodyBottom.001
f 19//21 21//21 18//21
usemtl BodyTop.001
f 17//22 64//22 59//22
usemtl BodyBottom.001
f 19//23 65//23 22//23
usemtl BodyTop.001
f 17//24 21//24 20//24
usemtl BodyBottom.001
f 65//25 25//25 22//25
usemtl BodyTop.001
f 20//26 24//26 23//26
usemtl BodyBottom.001
f 22//27 24//27 21//27
usemtl BodyTop.001
f 64//28 23//28 69//28
usemtl BodyBottom.001
f 25//29 27//29 24//29
usemtl BodyTop.001
f 69//30 26//30 74//30
usemtl BodyBottom.001
f 70//31 28//31 25//31
usemtl BodyTop.001
f 23//32 27//32 26//32
f 26//33 30//33 29//33
usemtl BodyBottom.001
f 28//34 30//34 27//34
usemtl BodyTop.001
f 74//35 29//35 79//35
usemtl BodyBottom.001
f 75//36 31//36 28//36
usemtl BodyTop.001
f 29//37 81//37 79//37
f 29//38 82//38 81//38
usemtl BodyBottom.001
f 31//39 80//39 83//39
f 31//40 82//40 30//40
usemtl BodyTop.001
f 46//41 32//41 35//41
f 36//42 32//42 34//42
usemtl BodyBottom.001
f 37//43 34//43 33//43
f 51//44 33//44 52//44
usemtl BodyTop.001
f 84//45 35//45 89//45
usemtl BodyBottom.001
f 85//46 37//46 51//46
usemtl BodyTop.001
f 89//47 39//47 38//47
usemtl BodyBottom.001
f 91//48 37//48 90//48
f 42//49 52//49 33//49
f 41//50 33//50 34//50
usemtl BodyTop.001
f 40//51 34//51 32//51
f 47//52 40//52 32//52
usemtl BodyBottom.001
f 45//53 53//53 42//53
f 44//54 42//54 41//54
usemtl BodyTop.001
f 40//55 44//55 41//55
f 49//56 40//56 48//56
usemtl BodyBottom.001
f 57//57 45//57 44//57
usemtl BodyTop.001
f 59//58 43//58 49//58
usemtl BodyBottom.001
f 58//59 54//59 45//59
usemtl BodyTop.001
f 43//60 57//60 44//60
usemtl BodyBottom.001
f 62//61 58//61 57//61
usemtl BodyTop.001
f 64//62 56//62 59//62
usemtl BodyBottom.001
f 58//63 65//63 60//63
usemtl BodyTop.001
f 56//64 62//64 57//64
usemtl BodyBottom.001
f 68//65 65//65 63//65
usemtl BodyTop.001
f 61//66 67//66 62//66
usemtl BodyBottom.001
f 67//67 63//67 62//67
usemtl BodyTop.001
f 64//68 66//68 61//68
usemtl BodyBottom.001
f 72//69 68//69 67//69
usemtl BodyTop.001
f 69//70 71//70 66//70
usemtl BodyBottom.001
f 73//71 70//71 68//71
usemtl BodyTop.001
f 66//72 72//72 67//72
f 71//73 77//73 72//73
usemtl BodyBottom.001
f 77//74 73//74 72//74
usemtl BodyTop.001
f 74//75 76//75 71//75
usemtl BodyBottom.001
f 78//76 75//76 73//76
usemtl BodyTop.001
f 76//77 79//77 81//77
f 76//78 82//78 77//78
usemtl BodyBottom.001
f 78//79 83//79 80//79
f 78//80 82//80 83//80
f 39//81 90//81 16//81
usemtl BodyTop.001
f 36//82 89//82 35//82
usemtl BodyBottom.001
f 16//83 85//83 55//83
usemtl BodyTop.001
f 84//84 38//84 50//84
usemtl BodyBottom.001
f 87//85 9//85 8//85
usemtl BodyTop.001
f 86//86 5//86 4//86
usemtl BodyBottom.001
f 85//87 8//87 55//87
usemtl BodyTop.001
f 7//88 84//88 50//88
usemtl Fin.001
f 100//89 95//89 99//89
f 94//89 100//89 98//89
f 92//90 100//90 96//90
f 100//90 93//90 96//90
f 109//91 104//91 106//91
f 109//92 103//92 107//92
f 101//93 109//93 107//93
f 102//93 109//93 105//93
f 112//94 119//94 114//94
f 110//95 117//95 111//95
f 116//96 118//96 117//96
f 114//97 118//97 115//97
usemtl Mouth.001
f 38//98 120//98 50//98
f 120//99 7//99 50//99
f 120//100 121//100 9//100
f 39//101 121//101 120//101
f 16//102 121//102 39//102
f 8//103 121//103 55//103
f 38//104 39//104 120//104
f 120//105 9//105 7//105
f 16//106 55//106 121//106
f 8//107 9//107 121//107
usemtl Eye.001
f 129//108 136//108 128//108
f 135//109 126//109 127//109
f 125//110 132//110 124//110
f 131//111 122//111 123//111
f 122//112 137//112 129//112
f 136//113 127//113 128//113
f 126//114 133//114 125//114
f 124//115 131//115 123//115
usemtl Pupil.001
f 131//116 138//116 130//116
f 130//117 138//117 137//117
f 136//118 138//118 135//118
f 134//119 138//119 133//119
f 132//120 138//120 131//120
f 137//121 138//121 136//121
f 135//122 138//122 134//122
f 133//123 138//123 132//123
usemtl Eye.001
f 127//124 145//124 128//124
f 142//125 126//125 125//125
f 123//126 141//126 124//126
f 145//127 129//127 128//127
f 143//128 127//128 126//128
f 141//129 125//129 124//129
f 139//130 123//130 122//130
f 129//131 139//131 122//131
f 153//132 162//132 154//132
f 151//133 160//133 152//133
f 149//134 158//134 150//134
f 147//135 156//135 148//135
f 154//136 155//136 147//136
f 153//137 160//137 161//137
f 151//138 158//138 159//138
f 149//139 156//139 157//139
usemtl Pupil.001
f 156//140 155//140 163//140
f 155//141 162//141 163//141
f 161//142 160//142 163//142
f 159//143 158//143 163//143
f 157//144 156//144 163//144
f 162//145 161//145 163//145
f 160//146 159//146 163//146
f 158//147 157//147 163//147
usemtl Eye.001
f 153//148 169//148 152//148
f 150//149 168//149 167//149
f 148//150 166//150 165//150
f 154//151 170//151 153//151
f 151//152 169//152 168//152
f 150//153 166//153 149//153
f 147//154 165//154 164//154
f 154//155 164//155 171//155
usemtl BodyTop.001
f 46//156 4//156 1//156
f 1//157 4//157 5//157
usemtl BodyBottom.001
f 3//158 5//158 6//158
f 2//159 6//159 51//159
usemtl BodyTop.001
f 84//160 86//160 4//160
usemtl BodyBottom.001
f 85//161 51//161 6//161
usemtl BodyTop.001
f 86//162 7//162 9//162
usemtl BodyBottom.001
f 6//163 5//163 88//163
f 12//164 2//164 52//164
f 2//165 12//165 11//165
usemtl BodyTop.001
f 3//166 11//166 10//166
f 47//167 1//167 10//167
usemtl BodyBottom.001
f 53//168 54//168 15//168
f 12//169 15//169 14//169
usemtl BodyTop.001
f 10//170 11//170 14//170
f 10//171 13//171 49//171
usemtl BodyBottom.001
f 15//172 19//172 18//172
usemtl BodyTop.001
f 13//173 17//173 59//173
usemtl BodyBottom.001
f 54//174 60//174 19//174
usemtl BodyTop.001
f 13//175 14//175 18//175
usemtl BodyBottom.001
f 19//176 22//176 21//176
usemtl BodyTop.001
f 17//177 20//177 64//177
usemtl BodyBottom.001
f 19//178 60//178 65//178
usemtl BodyTop.001
f 17//179 18//179 21//179
usemtl BodyBottom.001
f 65//180 70//180 25//180
usemtl BodyTop.001
f 20//181 21//181 24//181
usemtl BodyBottom.001
f 22//182 25//182 24//182
usemtl BodyTop.001
f 64//183 20//183 23//183
usemtl BodyBottom.001
f 25//184 28//184 27//184
usemtl BodyTop.001
f 69//185 23//185 26//185
usemtl BodyBottom.001
f 70//186 75//186 28//186
usemtl BodyTop.001
f 23//187 24//187 27//187
f 26//188 27//188 30//188
usemtl BodyBottom.001
f 28//189 31//189 30//189
usemtl BodyTop.001
f 74//190 26//190 29//190
usemtl BodyBottom.001
f 75//191 80//191 31//191
usemtl BodyTop.001
f 29//192 30//192 82//192
usemtl BodyBottom.001
f 31//193 83//193 82//193
usemtl BodyTop.001
f 46//194 47//194 32//194
f 36//195 35//195 32//195
usemtl BodyBottom.001
f 37//196 36//196 34//196
f 51//197 37//197 33//197
usemtl BodyTop.001
f 84//198 46//198 35//198
usemtl BodyBottom.001
f 85//199 90//199 37//199
usemtl BodyTop.001
f 89//200 91//200 39//200
usemtl BodyBottom.001
f 91//201 36//201 37//201
f 42//202 53//202 52//202
f 41//203 42//203 33//203
usemtl BodyTop.001
f 40//204 41//204 34//204
f 47//205 48//205 40//205
usemtl BodyBottom.001
f 45//206 54//206 53//206
f 44//207 45//207 42//207
usemtl BodyTop.001
f 40//208 43//208 44//208
f 49//209 43//209 40//209
usemtl BodyBottom.001
f 57//210 58//210 45//210
usemtl BodyTop.001
f 59//211 56//211 43//211
usemtl BodyBottom.001
f 58//212 60//212 54//212
usemtl BodyTop.001
f 43//213 56//213 57//213
usemtl BodyBottom.001
f 62//214 63//214 58//214
usemtl BodyTop.001
f 64//215 61//215 56//215
usemtl BodyBottom.001
f 58//216 63//216 65//216
usemtl BodyTop.001
f 56//217 61//217 62//217
usemtl BodyBottom.001
f 68//218 70//218 65//218
usemtl BodyTop.001
f 61//219 66//219 67//219
usemtl BodyBottom.001
f 67//220 68//220 63//220
usemtl BodyTop.001
f 64//221 69//221 66//221
usemtl BodyBottom.001
f 72//222 73//222 68//222
usemtl BodyTop.001
f 69//223 74//223 71//223
usemtl BodyBottom.001
f 73//224 75//224 70//224
usemtl BodyTop.001
f 66//225 71//225 72//225
f 71//226 76//226 77//226
usemtl BodyBottom.001
f 77//227 78//227 73//227
usemtl BodyTop.001
f 74//228 79//228 76//228
usemtl BodyBottom.001
f 78//229 80//229 75//229
usemtl BodyTop.001
f 76//230 81//230 82//230
usemtl BodyBottom.001
f 78//231 77//231 82//231
f 39//232 91//232 90//232
usemtl BodyTop.001
f 36//233 91//233 89//233
usemtl BodyBottom.001
f 16//234 90//234 85//234
usemtl BodyTop.001
f 84//235 89//235 38//235
usemtl BodyBottom.001
f 87//236 88//236 9//236
usemtl BodyTop.001
f 86//237 88//237 5//237
usemtl BodyBottom.001
f 85//238 87//238 8//238
usemtl BodyTop.001
f 7//239 86//239 84//239
usemtl Fin.001
f 100//240 97//240 95//240
f 94//241 97//241 100//241
f 92//90 98//90 100//90
f 100//90 99//90 93//90
f 109//92 108//92 104//92
f 109//242 106//242 103//242
f 101//93 105//93 109//93
f 102//93 108//93 109//93
f 112//243 113//243 119//243
f 110//244 116//244 117//244
f 116//245 115//245 118//245
f 114//246 119//246 118//246
usemtl Eye.001
f 129//108 137//108 136//108
f 135//109 134//109 126//109
f 125//110 133//110 132//110
f 131//111 130//111 122//111
f 122//112 130//112 137//112
f 136//113 135//113 127//113
f 126//114 134//114 133//114
f 124//247 132//247 131//247
f 127//124 144//124 145//124
f 142//125 143//125 126//125
f 123//126 140//126 141//126
f 145//127 146//127 129//127
f 143//248 144//248 127//248
f 141//129 142//129 125//129
f 139//249 140//249 123//249
f 129//131 146//131 139//131
f 153//132 161//132 162//132
f 151//133 159//133 160//133
f 149//134 157//134 158//134
f 147//135 155//135 156//135
f 154//136 162//136 155//136
f 153//137 152//137 160//137
f 151//138 150//138 158//138
f 149//250 148//250 156//250
f 153//251 170//251 169//251
f 150//149 151//149 168//149
f 148//252 149//252 166//252
f 154//151 171//151 170//151
f 151//253 152//253 169//253
f 150//153 167//153 166//153
f 147//254 148//254 165//254
f 154//155 147//155 164//155
