# Blender v2.79 (sub 0) OBJ File: 'Minnnow_ioexperment.blend'
# www.blender.org
mtllib Minnow_000017.mtl
v 0.224955 0.273001 0.189518
v 0.186619 -0.159074 0.130838
v 0.336618 0.067251 0.177517
v 0.122102 0.190820 0.745877
v 0.151475 0.051360 0.736881
v 0.111256 -0.094767 0.647355
v 0.057527 -0.049348 0.999172
v 0.034976 -0.089098 1.018283
v 0.054873 -0.063444 0.980568
v 0.191294 0.257610 -0.615732
v 0.291962 0.050659 -0.620884
v 0.147484 -0.177555 -0.641472
v 0.093026 0.123514 -1.215689
v 0.149238 0.051821 -1.211085
v 0.113360 -0.057767 -1.218306
v -0.015725 -0.089098 1.019132
v 0.037587 0.040249 -1.505481
v 0.054971 0.011828 -1.503311
v 0.042820 -0.032575 -1.506697
v 0.028386 0.026351 -1.638341
v 0.040801 0.007273 -1.637026
v 0.032885 -0.021889 -1.639005
v 0.021084 0.033492 -1.769351
v 0.027672 0.008464 -1.767753
v 0.023485 -0.029794 -1.770268
v 0.028157 0.187632 -1.915823
v 0.034686 0.035463 -1.914000
v 0.030587 -0.197136 -1.916657
v 0.031864 0.265364 -1.993696
v 0.038393 0.048424 -1.991873
v 0.034295 -0.283182 -1.994530
v -0.227681 0.273001 0.190519
v -0.189597 -0.159074 0.131632
v -0.339396 0.067251 0.179007
v -0.112688 0.190820 0.748969
v -0.142288 0.051360 0.740750
v -0.104440 -0.094767 0.650196
v -0.038903 -0.049348 1.000788
v -0.036875 -0.063444 0.982105
v -0.185751 0.257610 -0.617672
v -0.286361 0.050659 -0.623859
v -0.141678 -0.177555 -0.642960
v -0.081546 0.123514 -1.216554
v -0.137801 0.051821 -1.212507
v -0.101853 -0.057767 -1.219372
v 0.004752 0.248875 0.750825
v -0.001369 0.431722 0.187080
v 0.002895 0.380931 -0.640798
v 0.005758 0.177768 -1.219807
v 0.009902 -0.034020 1.035208
v 0.002468 -0.210664 0.577423
v -0.001745 -0.337665 0.016607
v 0.003092 -0.222210 -0.679009
v 0.005773 -0.113104 -1.222746
v 0.009664 -0.094433 1.021031
v -0.023079 0.040249 -1.506033
v -0.040500 0.011828 -1.504180
v -0.028289 -0.032575 -1.507344
v 0.007269 0.063840 -1.507471
v 0.007267 -0.057490 -1.507197
v -0.010201 0.026351 -1.638853
v -0.022646 0.007273 -1.637866
v -0.014685 -0.021889 -1.639635
v 0.009105 0.040788 -1.639578
v 0.009105 -0.036614 -1.640360
v 0.000571 0.033492 -1.769623
v -0.006057 0.008464 -1.768200
v -0.001804 -0.029794 -1.770603
v 0.010845 0.052433 -1.770773
v 0.010858 -0.049113 -1.771799
v 0.007665 0.187632 -1.916798
v 0.000992 0.035463 -1.915604
v 0.005325 -0.197136 -1.917859
v 0.017972 0.302787 -1.917596
v 0.018021 -0.314588 -1.918620
v 0.011372 0.265364 -1.994671
v 0.004699 0.048424 -1.993477
v 0.009032 -0.283182 -1.995732
v 0.021679 0.429535 -1.995468
v 0.021728 -0.450629 -1.996493
v 0.022438 0.266998 -2.011397
v 0.021275 0.047052 -1.986973
v 0.022393 -0.284283 -2.010453
v 0.009295 0.002003 0.998996
v 0.008718 -0.109233 0.964546
v 0.065796 -0.018766 0.966865
v 0.044691 -0.089820 0.971002
v 0.067216 -0.048825 0.949470
v -0.048251 -0.018766 0.968776
v -0.027019 -0.089820 0.972204
v -0.050253 -0.048825 0.951439
v 0.172852 -0.048859 0.403271
v 0.218284 0.024590 0.367028
v 0.234003 -0.192275 0.270023
v 0.313891 -0.063125 0.206294
v 0.195568 -0.012134 0.385150
v 0.295590 -0.154300 0.226586
v 0.217713 -0.132062 0.341869
v 0.281501 -0.028941 0.290983
v 0.249607 -0.080502 0.316426
v -0.169742 -0.047436 0.407965
v -0.218201 0.023254 0.370190
v -0.215745 -0.193352 0.271382
v -0.300954 -0.069052 0.204958
v -0.193971 -0.012091 0.389077
v -0.277718 -0.159035 0.225518
v -0.206472 -0.132824 0.344203
v -0.274509 -0.033574 0.291167
v -0.240490 -0.083199 0.317685
v -0.000619 0.436122 0.018584
v -0.000803 0.416399 0.053066
v 0.004787 0.274162 -1.023674
v 0.005051 0.222699 -1.077157
v 0.013548 0.394554 -0.773678
v -0.007746 0.450024 -0.515205
v 0.010821 0.464016 -0.251015
v 0.000747 0.393161 -0.237255
v 0.002224 0.379138 -0.508939
v 0.003495 0.328875 -0.763021
v 0.008326 -0.038183 0.957362
v 0.009479 -0.083997 0.963496
v 0.107681 0.104667 0.808244
v 0.097112 0.093067 0.834530
v 0.096109 0.065129 0.847011
v 0.105259 0.037220 0.838374
v 0.119203 0.025687 0.813679
v 0.129773 0.037287 0.787393
v 0.130776 0.065225 0.774912
v 0.121625 0.093134 0.783549
v 0.120745 0.085916 0.814500
v 0.115676 0.080353 0.827106
v 0.115195 0.066956 0.833091
v 0.119583 0.053572 0.828949
v 0.126270 0.048041 0.817107
v 0.131339 0.053604 0.804501
v 0.131820 0.067002 0.798516
v 0.127432 0.080386 0.802658
v 0.125621 0.067357 0.816820
v 0.104629 0.104120 0.806775
v 0.094059 0.092520 0.833062
v 0.093056 0.064583 0.845542
v 0.102207 0.036673 0.836905
v 0.116151 0.025141 0.812211
v 0.126720 0.036741 0.785924
v 0.127723 0.064678 0.773444
v 0.118573 0.092588 0.782081
v -0.095428 0.104667 0.811648
v -0.083984 0.093067 0.837566
v -0.082563 0.065129 0.850005
v -0.091998 0.037220 0.841680
v -0.106761 0.025687 0.817466
v -0.118206 0.037287 0.791549
v -0.119627 0.065225 0.779109
v -0.110192 0.093134 0.787434
v -0.108275 0.085916 0.818339
v -0.102786 0.080353 0.830768
v -0.102105 0.066956 0.836733
v -0.106630 0.053572 0.832741
v -0.113710 0.048041 0.821129
v -0.119198 0.053604 0.808700
v -0.119879 0.067002 0.802734
v -0.115355 0.080386 0.806727
v -0.113070 0.067357 0.820821
v -0.092426 0.104120 0.810078
v -0.080982 0.092520 0.835995
v -0.079561 0.064583 0.848435
v -0.088996 0.036673 0.840110
v -0.103760 0.025141 0.815896
v -0.115204 0.036741 0.789979
v -0.116625 0.064678 0.777539
v -0.107190 0.092588 0.785864
vn 0.5539 0.7937 0.2514
vn 0.8474 0.4428 0.2931
vn 0.8005 -0.5692 0.1877
vn 0.6225 -0.7643 0.1684
vn 0.3569 0.6655 0.6555
vn 0.4572 -0.8829 0.1075
vn 0.9411 -0.1350 0.3101
vn 0.8992 -0.3938 0.1910
vn 0.3280 -0.9323 -0.1525
vn 0.8364 -0.5470 -0.0354
vn 0.8769 0.4786 -0.0458
vn 0.5515 0.8328 -0.0482
vn 0.3384 -0.9172 -0.2105
vn 0.8355 -0.5106 -0.2030
vn 0.7685 0.5860 -0.2569
vn 0.5520 0.7877 -0.2736
vn 0.9229 -0.2851 -0.2587
vn 0.5119 0.7996 -0.3140
vn 0.4554 -0.8703 -0.1874
vn 0.8247 0.4818 -0.2962
vn 0.9621 -0.2562 -0.0932
vn 0.6143 0.7787 -0.1273
vn 0.5278 -0.8425 -0.1077
vn 0.8363 0.5363 -0.1140
vn 0.5259 -0.8505 0.0136
vn 0.9669 0.2519 -0.0402
vn 0.9620 -0.2544 -0.0989
vn 0.8767 0.4780 0.0541
vn 0.9935 -0.1105 0.0272
vn 0.9758 0.0894 0.1998
vn 0.6611 -0.4779 0.5784
vn 0.9946 0.0438 0.0941
vn 0.9965 0.0306 0.0780
vn 0.9988 -0.0181 0.0445
vn 0.9868 0.0628 0.1492
vn 0.9803 -0.1077 0.1656
vn 0.8835 0.0498 -0.4659
vn 0.8790 -0.0572 -0.4734
vn 0.8016 -0.0532 -0.5955
vn -0.2760 0.0111 -0.9611
vn -0.4352 0.8735 0.2182
vn -0.8431 0.4405 0.3083
vn -0.7968 -0.5696 0.2015
vn -0.6186 -0.7653 0.1780
vn -0.5364 0.5267 0.6594
vn -0.6536 -0.7295 0.2017
vn -0.9715 -0.2276 0.0662
vn -0.8923 -0.3940 0.2206
vn -0.6971 -0.7165 -0.0260
vn -0.8373 -0.5450 -0.0440
vn -0.8762 0.4788 -0.0546
vn -0.5741 0.8175 -0.0454
vn -0.3362 -0.9172 -0.2138
vn -0.8334 -0.5107 -0.2113
vn -0.8747 0.4318 -0.2199
vn -0.5492 0.7877 -0.2791
vn -0.9203 -0.2851 -0.2679
vn -0.5087 0.7995 -0.3193
vn -0.4535 -0.8703 -0.1920
vn -0.7518 0.5713 -0.3291
vn -0.9594 -0.2553 -0.1194
vn -0.6116 0.7779 -0.1442
vn -0.5682 -0.8117 -0.1351
vn -0.8490 0.5119 -0.1308
vn -0.5263 -0.8503 -0.0004
vn -0.8356 0.5399 -0.1014
vn -0.9591 -0.2543 -0.1244
vn -0.5990 0.8007 -0.0056
vn -0.9921 -0.1061 -0.0669
vn -0.7808 0.4499 0.4335
vn -0.6978 -0.4897 0.5227
vn -0.9667 0.2560 0.0007
vn -0.9982 0.0435 -0.0403
vn -0.9986 -0.0181 -0.0506
vn -0.9951 0.0894 0.0418
vn -0.9916 -0.1077 0.0717
vn -0.8352 0.0498 -0.5477
vn 0.3640 -0.0163 -0.9312
vn -0.7414 -0.0532 -0.6690
vn -0.7380 0.0452 -0.6732
vn -0.8841 -0.4126 0.2191
vn -0.8929 0.1648 0.4189
vn -0.2170 -0.9434 0.2508
vn -0.5856 0.5698 0.5766
vn 0.8910 -0.4126 0.1894
vn 0.9065 0.1659 0.3883
vn 0.2253 -0.9434 0.2434
vn 0.6046 0.5698 0.5566
vn 0.8432 -0.3023 0.4445
vn 0.7240 -0.1120 0.6807
vn -0.8809 -0.1230 0.4570
vn -0.8404 -0.3593 0.4057
vn -0.7439 -0.1638 0.6479
vn -0.9887 0.1456 -0.0355
vn -1.0000 -0.0000 -0.0053
vn -0.9903 0.1384 -0.0125
vn -0.9884 -0.1435 -0.0506
vn 0.2697 -0.9619 0.0460
vn -0.2666 -0.9621 0.0569
vn -0.3939 0.1122 0.9123
vn 0.4188 0.1308 0.8986
vn 0.4837 0.8241 0.2947
vn -0.1847 0.9669 0.1760
vn 0.6154 -0.5956 0.5162
vn -0.5932 -0.5987 0.5382
vn 0.1899 0.9661 0.1746
vn -0.4852 0.8205 0.3022
vn 0.9419 0.3294 -0.0665
vn 0.9184 -0.3250 0.2258
vn 0.5918 -0.0549 0.8042
vn 0.6153 0.5995 0.5119
vn 0.7834 0.5999 0.1622
vn 0.9977 -0.0537 -0.0401
vn 0.7502 -0.3254 0.5756
vn 0.5359 0.3283 0.7779
vn 0.8421 0.2789 0.4617
vn 0.8861 0.2791 0.3700
vn 0.9423 0.1078 0.3170
vn 0.8774 0.0366 0.4783
vn 0.8213 0.2079 0.5313
vn 0.9276 0.2082 0.3101
vn 0.9215 0.0367 0.3867
vn 0.8359 0.1075 0.5382
vn 0.4555 -0.3767 -0.8066
vn -0.0328 -0.9125 0.4077
vn -0.4555 0.3767 0.8066
vn 0.3453 0.3789 -0.8586
vn 0.2989 -0.9116 -0.2821
vn -0.3452 -0.3789 0.8586
vn -0.2989 0.9116 0.2821
vn 0.0328 0.9125 -0.4077
vn -0.9436 0.3294 -0.0349
vn -0.9103 -0.3250 0.2565
vn -0.5645 -0.0549 0.8236
vn -0.5978 0.5995 0.5323
vn -0.7776 0.5999 0.1884
vn -0.9985 -0.0537 -0.0066
vn -0.7305 -0.3254 0.6004
vn -0.5095 0.3283 0.7954
vn -0.8261 0.2789 0.4896
vn -0.8732 0.2791 0.3995
vn -0.9311 0.1078 0.3484
vn -0.8609 0.0366 0.5075
vn -0.8030 0.2079 0.5586
vn -0.9167 0.2082 0.3410
vn -0.9080 0.0367 0.4174
vn -0.8174 0.1075 0.5660
vn -0.4823 -0.3767 -0.7909
vn 0.0464 -0.9125 0.4063
vn 0.4822 0.3767 0.7909
vn -0.3738 0.3789 -0.8466
vn -0.3082 -0.9116 -0.2719
vn 0.3738 -0.3789 0.8466
vn 0.3082 0.9116 0.2719
vn -0.0464 0.9125 -0.4063
vn 0.4406 0.8727 0.2104
vn 0.9602 0.1890 0.2054
vn 0.8698 -0.4087 0.2763
vn 0.6575 -0.7299 0.1868
vn 0.5582 0.5263 0.6414
vn 0.6605 -0.7288 0.1803
vn 0.9732 -0.2276 0.0336
vn 0.9112 -0.3663 0.1885
vn 0.6936 -0.7201 -0.0179
vn 0.8458 -0.5327 -0.0301
vn 0.8971 0.4379 -0.0593
vn 0.5740 0.8179 -0.0396
vn 0.4561 -0.8729 -0.1729
vn 0.9459 -0.3019 -0.1186
vn 0.8769 0.4318 -0.2112
vn 0.5179 0.8129 -0.2665
vn 0.9385 -0.2377 -0.2503
vn 0.5940 0.7359 -0.3251
vn 0.5684 -0.8080 -0.1550
vn 0.7550 0.5713 -0.3217
vn 0.9625 -0.2549 -0.0929
vn 0.5998 0.7904 -0.1242
vn 0.5709 -0.8123 -0.1195
vn 0.8517 0.5128 -0.1077
vn 0.8331 -0.5495 0.0634
vn 0.8380 0.5399 -0.0792
vn 0.9924 -0.1044 -0.0648
vn 0.5989 0.8007 0.0103
vn 0.9974 -0.0184 0.0694
vn 0.7457 0.4407 0.4997
vn 0.9646 -0.1072 0.2409
vn 0.9613 0.2590 0.0939
vn 0.9976 0.0435 0.0547
vn 0.9980 -0.0128 0.0617
vn 0.9866 0.0894 0.1362
vn 0.9809 -0.0757 0.1790
vn -0.2739 -0.0163 -0.9616
vn 0.7987 0.0452 -0.6001
vn -0.5513 0.7918 0.2628
vn -0.9558 0.1896 0.2247
vn -0.8661 -0.4055 0.2924
vn -0.6554 -0.7289 0.1980
vn -0.3387 0.6639 0.6667
vn -0.4533 -0.8829 0.1226
vn -0.9302 -0.1350 0.3414
vn -0.9031 -0.3695 0.2188
vn -0.3266 -0.9320 -0.1570
vn -0.8454 -0.5327 -0.0396
vn -0.8965 0.4379 -0.0683
vn -0.5510 0.8328 -0.0539
vn -0.4544 -0.8730 -0.1774
vn -0.9447 -0.3019 -0.1280
vn -0.7659 0.5860 -0.2645
vn -0.5153 0.8128 -0.2717
vn -0.9356 -0.2388 -0.2599
vn -0.5889 0.7373 -0.3310
vn -0.5659 -0.8086 -0.1611
vn -0.8207 0.4832 -0.3048
vn -0.9596 -0.2547 -0.1193
vn -0.5963 0.7904 -0.1405
vn -0.5251 -0.8423 -0.1220
vn -0.8329 0.5362 -0.1369
vn -0.8345 -0.5495 0.0411
vn -0.9655 0.2519 -0.0658
vn -0.9904 -0.1044 -0.0911
vn -0.8778 0.4780 0.0308
vn -0.9995 -0.0183 -0.0275
vn -0.9905 0.0894 0.1043
vn -0.9835 -0.1073 0.1460
vn -0.9990 0.0438 -0.0023
vn -0.9994 0.0306 -0.0170
vn -0.9994 -0.0128 -0.0334
vn -0.9965 0.0628 0.0548
vn -0.9935 -0.0757 0.0850
vn -0.8301 -0.0572 -0.5547
vn 0.3660 0.0111 -0.9305
vn -0.8924 -0.4068 0.1954
vn -0.9299 -0.1353 0.3419
vn -0.4533 -0.8829 0.1227
vn -0.5364 0.5265 0.6596
vn 0.8984 -0.4068 0.1654
vn 0.9413 -0.1347 0.3096
vn 0.4572 -0.8829 0.1074
vn 0.5582 0.5265 0.6413
vn 0.8662 -0.0636 0.4956
vn 0.6758 -0.3611 0.6425
vn -0.6783 -0.4090 0.6105
vn -1.0000 -0.0000 -0.0050
vn -0.9904 0.1354 -0.0280
vn -0.9883 -0.1322 0.0765
vn -0.9887 0.1459 -0.0338
vn 0.9184 -0.3250 0.2259
vn 0.3452 0.3789 -0.8586
vn -0.3453 -0.3789 0.8586
vn -0.5095 0.3282 0.7954
vn -0.4822 -0.3767 -0.7909
vn 0.4823 0.3767 0.7909
usemtl BodyTop.001
s off
f 46//1 1//1 47//1
f 1//2 5//2 3//2
usemtl BodyBottom.001
f 3//3 6//3 2//3
f 2//4 51//4 52//4
usemtl BodyTop.001
f 84//5 4//5 46//5
usemtl BodyBottom.001
f 85//6 6//6 87//6
usemtl BodyTop.001
f 86//7 9//7 88//7
usemtl BodyBottom.001
f 6//8 88//8 87//8
f 12//9 52//9 53//9
f 2//10 11//10 3//10
usemtl BodyTop.001
f 3//11 10//11 1//11
f 47//12 10//12 48//12
usemtl BodyBottom.001
f 53//13 15//13 12//13
f 12//14 14//14 11//14
usemtl BodyTop.001
f 10//15 14//15 13//15
f 10//16 49//16 48//16
usemtl BodyBottom.001
f 15//17 18//17 14//17
usemtl BodyTop.001
f 13//18 59//18 49//18
usemtl BodyBottom.001
f 54//19 19//19 15//19
usemtl BodyTop.001
f 13//20 18//20 17//20
usemtl BodyBottom.001
f 19//21 21//21 18//21
usemtl BodyTop.001
f 17//22 64//22 59//22
usemtl BodyBottom.001
f 19//23 65//23 22//23
usemtl BodyTop.001
f 17//24 21//24 20//24
usemtl BodyBottom.001
f 65//25 25//25 22//25
usemtl BodyTop.001
f 20//26 24//26 23//26
usemtl BodyBottom.001
f 22//27 24//27 21//27
usemtl BodyTop.001
f 64//28 23//28 69//28
usemtl BodyBottom.001
f 25//29 27//29 24//29
usemtl BodyTop.001
f 69//30 26//30 74//30
usemtl BodyBottom.001
f 70//31 28//31 25//31
usemtl BodyTop.001
f 23//32 27//32 26//32
f 26//33 30//33 29//33
usemtl BodyBottom.001
f 28//34 30//34 27//34
usemtl BodyTop.001
f 74//35 29//35 79//35
usemtl BodyBottom.001
f 75//36 31//36 28//36
usemtl BodyTop.001
f 29//37 81//37 79//37
f 29//38 82//38 81//38
usemtl BodyBottom.001
f 31//39 80//39 83//39
f 31//40 82//40 30//40
usemtl BodyTop.001
f 46//41 32//41 35//41
f 36//42 32//42 34//42
usemtl BodyBottom.001
f 37//43 34//43 33//43
f 51//44 33//44 52//44
usemtl BodyTop.001
f 84//45 35//45 89//45
usemtl BodyBottom.001
f 85//46 37//46 51//46
usemtl BodyTop.001
f 89//47 39//47 38//47
usemtl BodyBottom.001
f 91//48 37//48 90//48
f 42//49 52//49 33//49
f 41//50 33//50 34//50
usemtl BodyTop.001
f 40//51 34//51 32//51
f 47//52 40//52 32//52
usemtl BodyBottom.001
f 45//53 53//53 42//53
f 44//54 42//54 41//54
usemtl BodyTop.001
f 40//55 44//55 41//55
f 49//56 40//56 48//56
usemtl BodyBottom.001
f 57//57 45//57 44//57
usemtl BodyTop.001
f 59//58 43//58 49//58
usemtl BodyBottom.001
f 58//59 54//59 45//59
usemtl BodyTop.001
f 43//60 57//60 44//60
usemtl BodyBottom.001
f 62//61 58//61 57//61
usemtl BodyTop.001
f 64//62 56//62 59//62
usemtl BodyBottom.001
f 58//63 65//63 60//63
usemtl BodyTop.001
f 56//64 62//64 57//64
usemtl BodyBottom.001
f 68//65 65//65 63//65
usemtl BodyTop.001
f 61//66 67//66 62//66
usemtl BodyBottom.001
f 67//67 63//67 62//67
usemtl BodyTop.001
f 64//68 66//68 61//68
usemtl BodyBottom.001
f 72//69 68//69 67//69
usemtl BodyTop.001
f 69//70 71//70 66//70
usemtl BodyBottom.001
f 73//71 70//71 68//71
usemtl BodyTop.001
f 66//72 72//72 67//72
f 71//73 77//73 72//73
usemtl BodyBottom.001
f 77//74 73//74 72//74
usemtl BodyTop.001
f 74//75 76//75 71//75
usemtl BodyBottom.001
f 78//76 75//76 73//76
usemtl BodyTop.001
f 76//77 79//77 81//77
f 76//78 82//78 77//78
usemtl BodyBottom.001
f 78//79 83//79 80//79
f 78//80 82//80 83//80
f 39//81 90//81 16//81
usemtl BodyTop.001
f 36//82 89//82 35//82
usemtl BodyBottom.001
f 16//83 85//83 55//83
usemtl BodyTop.001
f 84//84 38//84 50//84
usemtl BodyBottom.001
f 87//85 9//85 8//85
usemtl BodyTop.001
f 86//86 5//86 4//86
usemtl BodyBottom.001
f 85//87 8//87 55//87
usemtl BodyTop.001
f 7//88 84//88 50//88
usemtl Fin.001
f 100//89 95//89 99//89
f 94//89 100//89 98//89
f 92//90 100//90 96//90
f 100//90 93//90 96//90
f 109//91 104//91 106//91
f 109//92 103//92 107//92
f 101//93 109//93 107//93
f 102//93 109//93 105//93
f 112//94 119//94 114//94
f 110//95 117//95 111//95
f 116//96 118//96 117//96
f 114//97 118//97 115//97
usemtl Mouth.001
f 38//98 120//98 50//98
f 120//99 7//99 50//99
f 120//100 121//100 9//100
f 39//101 121//101 120//101
f 16//102 121//102 39//102
f 8//103 121//103 55//103
f 38//104 39//104 120//104
f 120//105 9//105 7//105
f 16//106 55//106 121//106
f 8//107 9//107 121//107
usemtl Eye.001
f 129//108 136//108 128//108
f 135//109 126//109 127//109
f 125//110 132//110 124//110
f 131//111 122//111 123//111
f 122//112 137//112 129//112
f 136//113 127//113 128//113
f 126//114 133//114 125//114
f 124//115 131//115 123//115
usemtl Pupil.001
f 131//116 138//116 130//116
f 130//117 138//117 137//117
f 136//118 138//118 135//118
f 134//119 138//119 133//119
f 132//120 138//120 131//120
f 137//121 138//121 136//121
f 135//122 138//122 134//122
f 133//123 138//123 132//123
usemtl Eye.001
f 127//124 145//124 128//124
f 142//125 126//125 125//125
f 123//126 141//126 124//126
f 145//127 129//127 128//127
f 143//128 127//128 126//128
f 141//129 125//129 124//129
f 139//130 123//130 122//130
f 129//131 139//131 122//131
f 153//132 162//132 154//132
f 151//133 160//133 152//133
f 149//134 158//134 150//134
f 147//135 156//135 148//135
f 154//136 155//136 147//136
f 153//137 160//137 161//137
f 151//138 158//138 159//138
f 149//139 156//139 157//139
usemtl Pupil.001
f 156//140 155//140 163//140
f 155//141 162//141 163//141
f 161//142 160//142 163//142
f 159//143 158//143 163//143
f 157//144 156//144 163//144
f 162//145 161//145 163//145
f 160//146 159//146 163//146
f 158//147 157//147 163//147
usemtl Eye.001
f 153//148 169//148 152//148
f 150//149 168//149 167//149
f 148//150 166//150 165//150
f 154//151 170//151 153//151
f 151//152 169//152 168//152
f 150//153 166//153 149//153
f 147//154 165//154 164//154
f 154//155 164//155 171//155
usemtl BodyTop.001
f 46//156 4//156 1//156
f 1//157 4//157 5//157
usemtl BodyBottom.001
f 3//158 5//158 6//158
f 2//159 6//159 51//159
usemtl BodyTop.001
f 84//160 86//160 4//160
usemtl BodyBottom.001
f 85//161 51//161 6//161
usemtl BodyTop.001
f 86//162 7//162 9//162
usemtl BodyBottom.001
f 6//163 5//163 88//163
f 12//164 2//164 52//164
f 2//165 12//165 11//165
usemtl BodyTop.001
f 3//166 11//166 10//166
f 47//167 1//167 10//167
usemtl BodyBottom.001
f 53//168 54//168 15//168
f 12//169 15//169 14//169
usemtl BodyTop.001
f 10//170 11//170 14//170
f 10//171 13//171 49//171
usemtl BodyBottom.001
f 15//172 19//172 18//172
usemtl BodyTop.001
f 13//173 17//173 59//173
usemtl BodyBottom.001
f 54//174 60//174 19//174
usemtl BodyTop.001
f 13//175 14//175 18//175
usemtl BodyBottom.001
f 19//176 22//176 21//176
usemtl BodyTop.001
f 17//177 20//177 64//177
usemtl BodyBottom.001
f 19//178 60//178 65//178
usemtl BodyTop.001
f 17//179 18//179 21//179
usemtl BodyBottom.001
f 65//180 70//180 25//180
usemtl BodyTop.001
f 20//181 21//181 24//181
usemtl BodyBottom.001
f 22//182 25//182 24//182
usemtl BodyTop.001
f 64//183 20//183 23//183
usemtl BodyBottom.001
f 25//184 28//184 27//184
usemtl BodyTop.001
f 69//185 23//185 26//185
usemtl BodyBottom.001
f 70//186 75//186 28//186
usemtl BodyTop.001
f 23//187 24//187 27//187
f 26//188 27//188 30//188
usemtl BodyBottom.001
f 28//189 31//189 30//189
usemtl BodyTop.001
f 74//190 26//190 29//190
usemtl BodyBottom.001
f 75//191 80//191 31//191
usemtl BodyTop.001
f 29//192 30//192 82//192
usemtl BodyBottom.001
f 31//193 83//193 82//193
usemtl BodyTop.001
f 46//194 47//194 32//194
f 36//195 35//195 32//195
usemtl BodyBottom.001
f 37//196 36//196 34//196
f 51//197 37//197 33//197
usemtl BodyTop.001
f 84//198 46//198 35//198
usemtl BodyBottom.001
f 85//199 90//199 37//199
usemtl BodyTop.001
f 89//200 91//200 39//200
usemtl BodyBottom.001
f 91//201 36//201 37//201
f 42//202 53//202 52//202
f 41//203 42//203 33//203
usemtl BodyTop.001
f 40//204 41//204 34//204
f 47//205 48//205 40//205
usemtl BodyBottom.001
f 45//206 54//206 53//206
f 44//207 45//207 42//207
usemtl BodyTop.001
f 40//208 43//208 44//208
f 49//209 43//209 40//209
usemtl BodyBottom.001
f 57//210 58//210 45//210
usemtl BodyTop.001
f 59//211 56//211 43//211
usemtl BodyBottom.001
f 58//212 60//212 54//212
usemtl BodyTop.001
f 43//213 56//213 57//213
usemtl BodyBottom.001
f 62//214 63//214 58//214
usemtl BodyTop.001
f 64//215 61//215 56//215
usemtl BodyBottom.001
f 58//216 63//216 65//216
usemtl BodyTop.001
f 56//217 61//217 62//217
usemtl BodyBottom.001
f 68//218 70//218 65//218
usemtl BodyTop.001
f 61//219 66//219 67//219
usemtl BodyBottom.001
f 67//220 68//220 63//220
usemtl BodyTop.001
f 64//221 69//221 66//221
usemtl BodyBottom.001
f 72//222 73//222 68//222
usemtl BodyTop.001
f 69//223 74//223 71//223
usemtl BodyBottom.001
f 73//224 75//224 70//224
usemtl BodyTop.001
f 66//225 71//225 72//225
f 71//226 76//226 77//226
usemtl BodyBottom.001
f 77//227 78//227 73//227
usemtl BodyTop.001
f 74//228 79//228 76//228
usemtl BodyBottom.001
f 78//229 80//229 75//229
usemtl BodyTop.001
f 76//230 81//230 82//230
usemtl BodyBottom.001
f 78//231 77//231 82//231
f 39//232 91//232 90//232
usemtl BodyTop.001
f 36//233 91//233 89//233
usemtl BodyBottom.001
f 16//234 90//234 85//234
usemtl BodyTop.001
f 84//235 89//235 38//235
usemtl BodyBottom.001
f 87//236 88//236 9//236
usemtl BodyTop.001
f 86//237 88//237 5//237
usemtl BodyBottom.001
f 85//238 87//238 8//238
usemtl BodyTop.001
f 7//239 86//239 84//239
usemtl Fin.001
f 100//240 97//240 95//240
f 94//241 97//241 100//241
f 92//90 98//90 100//90
f 100//90 99//90 93//90
f 109//92 108//92 104//92
f 109//242 106//242 103//242
f 101//93 105//93 109//93
f 102//93 108//93 109//93
f 112//243 113//243 119//243
f 110//244 116//244 117//244
f 116//245 115//245 118//245
f 114//246 119//246 118//246
usemtl Eye.001
f 129//108 137//108 136//108
f 135//247 134//247 126//247
f 125//110 133//110 132//110
f 131//111 130//111 122//111
f 122//112 130//112 137//112
f 136//113 135//113 127//113
f 126//114 134//114 133//114
f 124//115 132//115 131//115
f 127//124 144//124 145//124
f 142//125 143//125 126//125
f 123//126 140//126 141//126
f 145//248 146//248 129//248
f 143//128 144//128 127//128
f 141//249 142//249 125//249
f 139//130 140//130 123//130
f 129//131 146//131 139//131
f 153//132 161//132 162//132
f 151//133 159//133 160//133
f 149//134 157//134 158//134
f 147//135 155//135 156//135
f 154//136 162//136 155//136
f 153//137 152//137 160//137
f 151//138 150//138 158//138
f 149//250 148//250 156//250
f 153//251 170//251 169//251
f 150//149 151//149 168//149
f 148//252 149//252 166//252
f 154//151 171//151 170//151
f 151//152 152//152 169//152
f 150//153 167//153 166//153
f 147//154 148//154 165//154
f 154//155 147//155 164//155
