# Blender v2.79 (sub 0) OBJ File: 'Minnnow_ioexperment.blend'
# www.blender.org
mtllib Minnow_000006.mtl
v 0.206739 0.273001 0.080481
v 0.161100 -0.159074 0.027484
v 0.315756 0.067251 0.053952
v 0.195693 0.190820 0.642326
v 0.223583 0.051360 0.629488
v 0.171775 -0.094767 0.546195
v 0.152107 -0.049348 0.905725
v 0.131473 -0.089098 0.926891
v 0.147698 -0.063444 0.887457
v 0.097171 0.257610 -0.703923
v 0.197246 0.050659 -0.715602
v 0.051802 -0.177555 -0.726751
v -0.021272 0.123514 -1.294399
v 0.035065 0.051821 -1.291739
v -0.001041 -0.057767 -1.297716
v 0.081082 -0.089098 0.932552
v -0.086281 0.040249 -1.581449
v -0.068876 0.011828 -1.579506
v -0.081066 -0.032575 -1.582733
v -0.093936 0.026351 -1.713733
v -0.081533 0.007273 -1.712312
v -0.089444 -0.021889 -1.714361
v -0.100121 0.033492 -1.844800
v -0.093547 0.008464 -1.843147
v -0.097712 -0.029794 -1.845697
v -0.137631 0.187632 -1.989882
v -0.130855 0.035463 -1.990059
v -0.135553 -0.197136 -1.991394
v -0.156969 0.265364 -2.065407
v -0.150193 0.048424 -2.065583
v -0.154891 -0.283182 -2.066919
v -0.241416 0.273001 0.140877
v -0.211422 -0.159074 0.077465
v -0.353570 0.067251 0.144125
v -0.036443 0.190820 0.676788
v -0.066860 0.051360 0.672606
v -0.041483 -0.094767 0.577855
v 0.056266 -0.049348 0.916492
v 0.056512 -0.063444 0.897700
v -0.279028 0.257610 -0.681361
v -0.379782 0.050659 -0.680996
v -0.236712 -0.177555 -0.709447
v -0.195770 0.123514 -1.289232
v -0.251851 0.051821 -1.283243
v -0.216162 -0.057767 -1.291346
v 0.080125 0.248875 0.662920
v -0.017730 0.431722 0.107769
v -0.092370 0.380931 -0.716685
v -0.108630 0.177768 -1.295499
v 0.108120 -0.034019 0.946121
v 0.054673 -0.210664 0.491479
v -0.040471 -0.337665 -0.061017
v -0.094679 -0.222210 -0.754808
v -0.108717 -0.113104 -1.298437
v 0.106537 -0.094433 0.932031
v -0.146929 0.040249 -1.581211
v -0.164319 0.011828 -1.579132
v -0.152154 -0.032575 -1.582454
v -0.116612 0.063840 -1.583043
v -0.116611 -0.057490 -1.582770
v -0.132518 0.026351 -1.714573
v -0.144971 0.007273 -1.713692
v -0.137007 -0.021889 -1.715391
v -0.113209 0.040788 -1.715133
v -0.113257 -0.036614 -1.715915
v -0.120631 0.033492 -1.845247
v -0.127271 0.008464 -1.843881
v -0.122998 -0.029794 -1.846247
v -0.110348 0.052433 -1.846310
v -0.110325 -0.049113 -1.847335
v -0.157506 0.187632 -1.984794
v -0.163533 0.035463 -1.981691
v -0.160054 -0.197136 -1.985120
v -0.147888 0.302787 -1.988585
v -0.148142 -0.314588 -1.989578
v -0.176843 0.265364 -2.060319
v -0.182871 0.048424 -2.057216
v -0.179392 -0.283182 -2.060645
v -0.167225 0.429535 -2.064109
v -0.167480 -0.450629 -2.065103
v -0.171181 0.266998 -2.079558
v -0.165116 0.047052 -2.055870
v -0.170947 -0.284283 -2.078642
v 0.104077 0.002003 0.910130
v 0.100230 -0.109233 0.875890
v 0.157271 -0.018766 0.872779
v 0.136654 -0.089820 0.878901
v 0.157033 -0.048825 0.855328
v 0.043921 -0.018766 0.885512
v 0.065383 -0.089820 0.886907
v 0.040281 -0.048825 0.868443
v 0.191096 -0.048365 0.292337
v 0.229754 0.024126 0.247361
v 0.223423 -0.193568 0.151151
v 0.291399 -0.066101 0.072065
v 0.210425 -0.012119 0.269849
v 0.276042 -0.156846 0.096337
v 0.222117 -0.132653 0.224228
v 0.276394 -0.030875 0.161081
v 0.249255 -0.081764 0.192654
v -0.145583 -0.048365 0.350609
v -0.200225 0.024126 0.327552
v -0.237399 -0.193568 0.238588
v -0.333480 -0.066101 0.198046
v -0.172904 -0.012119 0.339081
v -0.308921 -0.156846 0.212941
v -0.203688 -0.132653 0.303439
v -0.280406 -0.030875 0.271067
v -0.242047 -0.081764 0.287253
v -0.033779 0.436122 -0.059928
v -0.030669 0.416399 -0.025586
v -0.102824 0.274162 -1.099449
v -0.104408 0.222699 -1.152910
v -0.085430 0.394554 -0.849906
v -0.095668 0.450024 -0.590760
v -0.048141 0.464016 -0.329387
v -0.056855 0.393161 -0.314728
v -0.085580 0.379138 -0.585054
v -0.095109 0.328875 -0.838908
v 0.099158 -0.038183 0.868776
v 0.100889 -0.083997 0.874773
v 0.183903 0.104667 0.710897
v 0.175878 0.093067 0.738069
v 0.176065 0.065129 0.750588
v 0.184354 0.037220 0.741121
v 0.195890 0.025687 0.715214
v 0.203915 0.037287 0.688042
v 0.203728 0.065225 0.675523
v 0.195439 0.093134 0.684990
v 0.197502 0.085916 0.715885
v 0.193654 0.080353 0.728915
v 0.193743 0.066956 0.734919
v 0.197718 0.053572 0.730379
v 0.203250 0.048041 0.717955
v 0.207099 0.053604 0.704924
v 0.207009 0.067002 0.698921
v 0.203034 0.080386 0.703461
v 0.202576 0.067357 0.717731
v 0.180725 0.104120 0.709725
v 0.172700 0.092520 0.736896
v 0.172886 0.064583 0.749416
v 0.181175 0.036673 0.739949
v 0.192711 0.025141 0.714042
v 0.200737 0.036741 0.686870
v 0.200550 0.064678 0.674351
v 0.192261 0.092588 0.683818
v -0.017965 0.104667 0.733574
v -0.004111 0.093067 0.758288
v -0.001515 0.065129 0.770536
v -0.011698 0.037220 0.763144
v -0.028694 0.025687 0.740442
v -0.042548 0.037287 0.715729
v -0.045144 0.065225 0.703480
v -0.034961 0.093134 0.710872
v -0.030118 0.085916 0.741454
v -0.023474 0.080353 0.753306
v -0.022229 0.066956 0.759180
v -0.027113 0.053572 0.755635
v -0.035263 0.048041 0.744748
v -0.041907 0.053604 0.732897
v -0.043152 0.067002 0.727023
v -0.038269 0.080386 0.730567
v -0.034656 0.067357 0.744380
v -0.015126 0.104120 0.731726
v -0.001272 0.092520 0.756440
v 0.001324 0.064583 0.768688
v -0.008859 0.036673 0.761296
v -0.025855 0.025141 0.738594
v -0.039709 0.036741 0.713881
v -0.042305 0.064678 0.701632
v -0.032122 0.092588 0.709024
vn 0.5828 0.7968 0.1597
vn 0.8812 0.4471 0.1535
vn 0.8215 -0.5676 0.0535
vn 0.6460 -0.7607 0.0636
vn 0.4391 0.6566 0.6132
vn 0.4654 -0.8829 0.0623
vn 0.9663 -0.1350 0.2193
vn 0.9130 -0.3950 0.1022
vn 0.3182 -0.9308 -0.1798
vn 0.8264 -0.5512 -0.1154
vn 0.8690 0.4773 -0.1307
vn 0.5473 0.8308 -0.1007
vn 0.3231 -0.9198 -0.2229
vn 0.8251 -0.5145 -0.2333
vn 0.7587 0.5856 -0.2852
vn 0.5352 0.7922 -0.2931
vn 0.9135 -0.2851 -0.2903
vn 0.5009 0.7998 -0.3308
vn 0.4487 -0.8704 -0.2029
vn 0.8166 0.4780 -0.3236
vn 0.9625 -0.2582 -0.0829
vn 0.6134 0.7805 -0.1204
vn 0.5280 -0.8431 -0.1021
vn 0.8373 0.5365 -0.1048
vn 0.5250 -0.8509 0.0182
vn 0.9672 0.2519 -0.0319
vn 0.9627 -0.2548 -0.0907
vn 0.8762 0.4780 0.0615
vn 0.9616 -0.0874 -0.2602
vn 0.9905 0.0894 -0.1041
vn 0.7488 -0.5234 0.4066
vn 0.9775 0.0438 -0.2062
vn 0.9754 0.0306 -0.2182
vn 0.9678 -0.0181 -0.2509
vn 0.9871 0.0628 -0.1473
vn 0.9857 -0.1077 -0.1297
vn 0.7076 0.0498 -0.7049
vn 0.7011 -0.0572 -0.7108
vn 0.5913 -0.0532 -0.8047
vn -0.5462 0.0111 -0.8376
vn -0.3996 0.8708 0.2864
vn -0.7858 0.4353 0.4394
vn -0.7530 -0.5698 0.3290
vn -0.5783 -0.7677 0.2761
vn -0.4713 0.5250 0.7087
vn -0.6347 -0.7253 0.2666
vn -0.9608 -0.2276 0.1582
vn -0.8671 -0.3930 0.3061
vn -0.7064 -0.7067 0.0393
vn -0.8412 -0.5394 0.0376
vn -0.8774 0.4788 0.0312
vn -0.5776 0.8163 0.0111
vn -0.3516 -0.9144 -0.2007
vn -0.8434 -0.5063 -0.1801
vn -0.8834 0.4298 -0.1868
vn -0.5661 0.7827 -0.2588
vn -0.9289 -0.2851 -0.2363
vn -0.5194 0.7993 -0.3023
vn -0.4599 -0.8703 -0.1764
vn -0.7628 0.5714 -0.3029
vn -0.9588 -0.2530 -0.1293
vn -0.6127 0.7757 -0.1512
vn -0.5691 -0.8100 -0.1413
vn -0.8492 0.5094 -0.1393
vn -0.5270 -0.8498 -0.0051
vn -0.8347 0.5399 -0.1085
vn -0.9581 -0.2539 -0.1326
vn -0.5990 0.8007 -0.0107
vn -0.9655 -0.1221 0.2301
vn -0.6739 0.4007 0.6207
vn -0.5971 -0.4298 0.6773
vn -0.9200 0.2601 0.2930
vn -0.9660 0.0435 0.2548
vn -0.9693 -0.0181 0.2451
vn -0.9389 0.0894 0.3324
vn -0.9267 -0.1077 0.3599
vn -0.9593 0.0498 -0.2781
vn 0.0743 -0.0163 -0.9971
vn -0.9052 -0.0532 -0.4216
vn -0.9033 0.0452 -0.4267
vn -0.8593 -0.4126 0.3021
vn -0.8500 0.1704 0.4984
vn -0.1922 -0.9434 0.2703
vn -0.5282 0.5698 0.6296
vn 0.9050 -0.4126 0.1039
vn 0.9397 0.1601 0.3023
vn 0.2474 -0.9434 0.2209
vn 0.6547 0.5698 0.4967
vn 0.9086 -0.3127 0.2769
vn 0.8397 -0.1191 0.5298
vn -0.7029 -0.0741 0.7074
vn -0.6902 -0.3127 0.6525
vn -0.5159 -0.1191 0.8483
vn -0.9893 0.1456 -0.0013
vn -0.9959 -0.0000 0.0902
vn -0.9852 0.1413 0.0974
vn -0.9899 -0.1416 -0.0088
vn 0.2728 -0.9619 0.0202
vn -0.2600 -0.9621 0.0819
vn -0.3055 0.1122 0.9456
vn 0.5022 0.1308 0.8548
vn 0.5095 0.8241 0.2474
vn -0.1671 0.9669 0.1927
vn 0.6617 -0.5956 0.4554
vn -0.5394 -0.5987 0.5921
vn 0.2057 0.9661 0.1558
vn -0.4543 0.8205 0.3469
vn 0.9313 0.3294 -0.1556
vn 0.9357 -0.3250 0.1376
vn 0.6655 -0.0549 0.7444
vn 0.6611 0.5995 0.4512
vn 0.7953 0.5999 0.0871
vn 0.9894 -0.0537 -0.1347
vn 0.8015 -0.3254 0.5017
vn 0.6073 0.3283 0.7235
vn 0.8821 0.2789 0.3796
vn 0.9173 0.2791 0.2842
vn 0.9681 0.1078 0.2261
vn 0.9189 0.0366 0.3929
vn 0.8680 0.2079 0.4509
vn 0.9529 0.2082 0.2206
vn 0.9540 0.0367 0.2975
vn 0.8832 0.1075 0.4564
vn 0.3768 -0.3767 -0.8462
vn 0.0061 -0.9125 0.4089
vn -0.3768 0.3767 0.8463
vn 0.2621 0.3789 -0.8875
vn 0.2708 -0.9116 -0.3092
vn -0.2621 -0.3789 0.8875
vn -0.2707 0.9116 0.3092
vn -0.0061 0.9125 -0.4089
vn -0.9426 0.3294 0.0549
vn -0.8818 -0.3250 0.3418
vn -0.4837 -0.0549 0.8735
vn -0.5445 0.5995 0.5866
vn -0.7562 0.5999 0.2613
vn -0.9947 -0.0537 0.0882
vn -0.6702 -0.3254 0.6671
vn -0.4317 0.3283 0.8402
vn -0.7759 0.2789 0.5659
vn -0.8313 0.2791 0.4806
vn -0.8938 0.1078 0.4353
vn -0.8088 0.0366 0.5869
vn -0.7463 0.2079 0.6323
vn -0.8802 0.2082 0.4266
vn -0.8642 0.0367 0.5017
vn -0.7600 0.1075 0.6410
vn -0.5552 -0.3767 -0.7415
vn 0.0848 -0.9125 0.4001
vn 0.5552 0.3767 0.7415
vn -0.4525 0.3789 -0.8072
vn -0.3326 -0.9116 -0.2414
vn 0.4525 -0.3789 0.8073
vn 0.3326 0.9116 0.2414
vn -0.0848 0.9125 -0.4001
vn 0.4641 0.8751 0.1371
vn 0.9803 0.1917 0.0473
vn 0.9074 -0.3983 0.1343
vn 0.6833 -0.7262 0.0760
vn 0.6163 0.5288 0.5836
vn 0.6716 -0.7322 0.1136
vn 0.9720 -0.2276 -0.0589
vn 0.9183 -0.3830 0.1007
vn 0.6806 -0.7282 -0.0808
vn 0.8407 -0.5305 -0.1088
vn 0.8874 0.4373 -0.1461
vn 0.5670 0.8182 -0.0952
vn 0.4500 -0.8732 -0.1869
vn 0.9414 -0.3019 -0.1505
vn 0.8677 0.4333 -0.2434
vn 0.5081 0.8123 -0.2864
vn 0.9302 -0.2349 -0.2819
vn 0.5874 0.7319 -0.3453
vn 0.5654 -0.8064 -0.1734
vn 0.7434 0.5713 -0.3479
vn 0.9633 -0.2555 -0.0821
vn 0.6008 0.7906 -0.1178
vn 0.5704 -0.8135 -0.1132
vn 0.8516 0.5148 -0.0988
vn 0.8325 -0.5495 0.0708
vn 0.8387 0.5399 -0.0721
vn 0.9929 -0.1044 -0.0562
vn 0.5987 0.8008 0.0154
vn 0.9726 -0.0183 -0.2316
vn 0.8332 0.4728 0.2869
vn 0.9922 -0.1073 -0.0635
vn 0.9512 0.2367 -0.1980
vn 0.9696 0.0435 -0.2408
vn 0.9721 -0.0128 -0.2343
vn 0.9831 0.0894 -0.1597
vn 0.9902 -0.0757 -0.1172
vn -0.5444 -0.0163 -0.8387
vn 0.5871 0.0452 -0.8083
vn -0.5074 0.7879 0.3489
vn -0.9077 0.1867 0.3758
vn -0.8049 -0.4149 0.4242
vn -0.6111 -0.7318 0.3016
vn -0.2521 0.6724 0.6959
vn -0.4393 -0.8828 0.1660
vn -0.8935 -0.1350 0.4282
vn -0.8853 -0.3513 0.3046
vn -0.3347 -0.9334 -0.1292
vn -0.8444 -0.5343 0.0397
vn -0.8989 0.4377 0.0198
vn -0.5514 0.8342 -0.0015
vn -0.4602 -0.8727 -0.1633
vn -0.9486 -0.3018 -0.0956
vn -0.7749 0.5865 -0.2355
vn -0.5245 0.8135 -0.2513
vn -0.9432 -0.2413 -0.2283
vn -0.5953 0.7409 -0.3109
vn -0.5690 -0.8099 -0.1426
vn -0.8284 0.4866 -0.2773
vn -0.9584 -0.2542 -0.1296
vn -0.5951 0.7902 -0.1467
vn -0.5247 -0.8417 -0.1274
vn -0.8315 0.5361 -0.1457
vn -0.8348 -0.5495 0.0336
vn -0.9649 0.2519 -0.0740
vn -0.9895 -0.1044 -0.0996
vn -0.8780 0.4780 0.0233
vn -0.9603 -0.0185 0.2785
vn -0.9130 0.0894 0.3981
vn -0.8929 -0.1072 0.4374
vn -0.9529 0.0439 0.3002
vn -0.9603 0.0306 0.2774
vn -0.9651 -0.0128 0.2617
vn -0.9364 0.0628 0.3452
vn -0.9247 -0.0757 0.3731
vn -0.9564 -0.0572 -0.2864
vn 0.0765 0.0111 -0.9970
vn -0.8698 -0.4068 0.2792
vn -0.8965 -0.1317 0.4231
vn -0.4396 -0.8829 0.1652
vn -0.4713 0.5265 0.7076
vn 0.9101 -0.4068 0.0793
vn 0.9650 -0.1374 0.2234
vn 0.4653 -0.8829 0.0635
vn 0.6166 0.5265 0.5853
vn 0.9444 -0.0741 0.3204
vn 0.7816 -0.3677 0.5040
vn -0.4754 -0.3677 0.7993
vn -0.9996 0.0000 0.0296
vn -0.9885 0.1354 0.0667
vn -0.9751 -0.1240 0.1839
vn -0.9891 0.1471 0.0080
vn -0.3768 0.3767 0.8462
vn 0.2707 -0.9116 -0.3092
vn -0.2622 -0.3789 0.8875
vn -0.2708 0.9116 0.3092
vn -0.4317 0.3282 0.8402
vn -0.4526 0.3789 -0.8072
usemtl BodyTop.001
s off
f 46//1 1//1 47//1
f 1//2 5//2 3//2
usemtl BodyBottom.001
f 3//3 6//3 2//3
f 2//4 51//4 52//4
usemtl BodyTop.001
f 84//5 4//5 46//5
usemtl BodyBottom.001
f 85//6 6//6 87//6
usemtl BodyTop.001
f 86//7 9//7 88//7
usemtl BodyBottom.001
f 6//8 88//8 87//8
f 12//9 52//9 53//9
f 2//10 11//10 3//10
usemtl BodyTop.001
f 3//11 10//11 1//11
f 47//12 10//12 48//12
usemtl BodyBottom.001
f 53//13 15//13 12//13
f 12//14 14//14 11//14
usemtl BodyTop.001
f 10//15 14//15 13//15
f 10//16 49//16 48//16
usemtl BodyBottom.001
f 15//17 18//17 14//17
usemtl BodyTop.001
f 13//18 59//18 49//18
usemtl BodyBottom.001
f 54//19 19//19 15//19
usemtl BodyTop.001
f 13//20 18//20 17//20
usemtl BodyBottom.001
f 19//21 21//21 18//21
usemtl BodyTop.001
f 17//22 64//22 59//22
usemtl BodyBottom.001
f 19//23 65//23 22//23
usemtl BodyTop.001
f 17//24 21//24 20//24
usemtl BodyBottom.001
f 65//25 25//25 22//25
usemtl BodyTop.001
f 20//26 24//26 23//26
usemtl BodyBottom.001
f 22//27 24//27 21//27
usemtl BodyTop.001
f 64//28 23//28 69//28
usemtl BodyBottom.001
f 25//29 27//29 24//29
usemtl BodyTop.001
f 69//30 26//30 74//30
usemtl BodyBottom.001
f 70//31 28//31 25//31
usemtl BodyTop.001
f 23//32 27//32 26//32
f 26//33 30//33 29//33
usemtl BodyBottom.001
f 28//34 30//34 27//34
usemtl BodyTop.001
f 74//35 29//35 79//35
usemtl BodyBottom.001
f 75//36 31//36 28//36
usemtl BodyTop.001
f 29//37 81//37 79//37
f 29//38 82//38 81//38
usemtl BodyBottom.001
f 31//39 80//39 83//39
f 31//40 82//40 30//40
usemtl BodyTop.001
f 46//41 32//41 35//41
f 36//42 32//42 34//42
usemtl BodyBottom.001
f 37//43 34//43 33//43
f 51//44 33//44 52//44
usemtl BodyTop.001
f 84//45 35//45 89//45
usemtl BodyBottom.001
f 85//46 37//46 51//46
usemtl BodyTop.001
f 89//47 39//47 38//47
usemtl BodyBottom.001
f 91//48 37//48 90//48
f 42//49 52//49 33//49
f 41//50 33//50 34//50
usemtl BodyTop.001
f 40//51 34//51 32//51
f 47//52 40//52 32//52
usemtl BodyBottom.001
f 45//53 53//53 42//53
f 44//54 42//54 41//54
usemtl BodyTop.001
f 40//55 44//55 41//55
f 49//56 40//56 48//56
usemtl BodyBottom.001
f 57//57 45//57 44//57
usemtl BodyTop.001
f 59//58 43//58 49//58
usemtl BodyBottom.001
f 58//59 54//59 45//59
usemtl BodyTop.001
f 43//60 57//60 44//60
usemtl BodyBottom.001
f 62//61 58//61 57//61
usemtl BodyTop.001
f 64//62 56//62 59//62
usemtl BodyBottom.001
f 58//63 65//63 60//63
usemtl BodyTop.001
f 56//64 62//64 57//64
usemtl BodyBottom.001
f 68//65 65//65 63//65
usemtl BodyTop.001
f 61//66 67//66 62//66
usemtl BodyBottom.001
f 67//67 63//67 62//67
usemtl BodyTop.001
f 64//68 66//68 61//68
usemtl BodyBottom.001
f 72//69 68//69 67//69
usemtl BodyTop.001
f 69//70 71//70 66//70
usemtl BodyBottom.001
f 73//71 70//71 68//71
usemtl BodyTop.001
f 66//72 72//72 67//72
f 71//73 77//73 72//73
usemtl BodyBottom.001
f 77//74 73//74 72//74
usemtl BodyTop.001
f 74//75 76//75 71//75
usemtl BodyBottom.001
f 78//76 75//76 73//76
usemtl BodyTop.001
f 76//77 79//77 81//77
f 76//78 82//78 77//78
usemtl BodyBottom.001
f 78//79 83//79 80//79
f 78//80 82//80 83//80
f 39//81 90//81 16//81
usemtl BodyTop.001
f 36//82 89//82 35//82
usemtl BodyBottom.001
f 16//83 85//83 55//83
usemtl BodyTop.001
f 84//84 38//84 50//84
usemtl BodyBottom.001
f 87//85 9//85 8//85
usemtl BodyTop.001
f 86//86 5//86 4//86
usemtl BodyBottom.001
f 85//87 8//87 55//87
usemtl BodyTop.001
f 7//88 84//88 50//88
usemtl Fin.001
f 100//89 95//89 99//89
f 94//89 100//89 98//89
f 92//90 100//90 96//90
f 100//90 93//90 96//90
f 109//91 104//91 106//91
f 109//92 103//92 107//92
f 101//93 109//93 107//93
f 102//93 109//93 105//93
f 112//94 119//94 114//94
f 110//95 117//95 111//95
f 116//96 118//96 117//96
f 114//97 118//97 115//97
usemtl Mouth.001
f 38//98 120//98 50//98
f 120//99 7//99 50//99
f 120//100 121//100 9//100
f 39//101 121//101 120//101
f 16//102 121//102 39//102
f 8//103 121//103 55//103
f 38//104 39//104 120//104
f 120//105 9//105 7//105
f 16//106 55//106 121//106
f 8//107 9//107 121//107
usemtl Eye.001
f 129//108 136//108 128//108
f 135//109 126//109 127//109
f 125//110 132//110 124//110
f 131//111 122//111 123//111
f 122//112 137//112 129//112
f 136//113 127//113 128//113
f 126//114 133//114 125//114
f 124//115 131//115 123//115
usemtl Pupil.001
f 131//116 138//116 130//116
f 130//117 138//117 137//117
f 136//118 138//118 135//118
f 134//119 138//119 133//119
f 132//120 138//120 131//120
f 137//121 138//121 136//121
f 135//122 138//122 134//122
f 133//123 138//123 132//123
usemtl Eye.001
f 127//124 145//124 128//124
f 142//125 126//125 125//125
f 123//126 141//126 124//126
f 145//127 129//127 128//127
f 143//128 127//128 126//128
f 141//129 125//129 124//129
f 139//130 123//130 122//130
f 129//131 139//131 122//131
f 153//132 162//132 154//132
f 151//133 160//133 152//133
f 149//134 158//134 150//134
f 147//135 156//135 148//135
f 154//136 155//136 147//136
f 153//137 160//137 161//137
f 151//138 158//138 159//138
f 149//139 156//139 157//139
usemtl Pupil.001
f 156//140 155//140 163//140
f 155//141 162//141 163//141
f 161//142 160//142 163//142
f 159//143 158//143 163//143
f 157//144 156//144 163//144
f 162//145 161//145 163//145
f 160//146 159//146 163//146
f 158//147 157//147 163//147
usemtl Eye.001
f 153//148 169//148 152//148
f 150//149 168//149 167//149
f 148//150 166//150 165//150
f 154//151 170//151 153//151
f 151//152 169//152 168//152
f 150//153 166//153 149//153
f 147//154 165//154 164//154
f 154//155 164//155 171//155
usemtl BodyTop.001
f 46//156 4//156 1//156
f 1//157 4//157 5//157
usemtl BodyBottom.001
f 3//158 5//158 6//158
f 2//159 6//159 51//159
usemtl BodyTop.001
f 84//160 86//160 4//160
usemtl BodyBottom.001
f 85//161 51//161 6//161
usemtl BodyTop.001
f 86//162 7//162 9//162
usemtl BodyBottom.001
f 6//163 5//163 88//163
f 12//164 2//164 52//164
f 2//165 12//165 11//165
usemtl BodyTop.001
f 3//166 11//166 10//166
f 47//167 1//167 10//167
usemtl BodyBottom.001
f 53//168 54//168 15//168
f 12//169 15//169 14//169
usemtl BodyTop.001
f 10//170 11//170 14//170
f 10//171 13//171 49//171
usemtl BodyBottom.001
f 15//172 19//172 18//172
usemtl BodyTop.001
f 13//173 17//173 59//173
usemtl BodyBottom.001
f 54//174 60//174 19//174
usemtl BodyTop.001
f 13//175 14//175 18//175
usemtl BodyBottom.001
f 19//176 22//176 21//176
usemtl BodyTop.001
f 17//177 20//177 64//177
usemtl BodyBottom.001
f 19//178 60//178 65//178
usemtl BodyTop.001
f 17//179 18//179 21//179
usemtl BodyBottom.001
f 65//180 70//180 25//180
usemtl BodyTop.001
f 20//181 21//181 24//181
usemtl BodyBottom.001
f 22//182 25//182 24//182
usemtl BodyTop.001
f 64//183 20//183 23//183
usemtl BodyBottom.001
f 25//184 28//184 27//184
usemtl BodyTop.001
f 69//185 23//185 26//185
usemtl BodyBottom.001
f 70//186 75//186 28//186
usemtl BodyTop.001
f 23//187 24//187 27//187
f 26//188 27//188 30//188
usemtl BodyBottom.001
f 28//189 31//189 30//189
usemtl BodyTop.001
f 74//190 26//190 29//190
usemtl BodyBottom.001
f 75//191 80//191 31//191
usemtl BodyTop.001
f 29//192 30//192 82//192
usemtl BodyBottom.001
f 31//193 83//193 82//193
usemtl BodyTop.001
f 46//194 47//194 32//194
f 36//195 35//195 32//195
usemtl BodyBottom.001
f 37//196 36//196 34//196
f 51//197 37//197 33//197
usemtl BodyTop.001
f 84//198 46//198 35//198
usemtl BodyBottom.001
f 85//199 90//199 37//199
usemtl BodyTop.001
f 89//200 91//200 39//200
usemtl BodyBottom.001
f 91//201 36//201 37//201
f 42//202 53//202 52//202
f 41//203 42//203 33//203
usemtl BodyTop.001
f 40//204 41//204 34//204
f 47//205 48//205 40//205
usemtl BodyBottom.001
f 45//206 54//206 53//206
f 44//207 45//207 42//207
usemtl BodyTop.001
f 40//208 43//208 44//208
f 49//209 43//209 40//209
usemtl BodyBottom.001
f 57//210 58//210 45//210
usemtl BodyTop.001
f 59//211 56//211 43//211
usemtl BodyBottom.001
f 58//212 60//212 54//212
usemtl BodyTop.001
f 43//213 56//213 57//213
usemtl BodyBottom.001
f 62//214 63//214 58//214
usemtl BodyTop.001
f 64//215 61//215 56//215
usemtl BodyBottom.001
f 58//216 63//216 65//216
usemtl BodyTop.001
f 56//217 61//217 62//217
usemtl BodyBottom.001
f 68//218 70//218 65//218
usemtl BodyTop.001
f 61//219 66//219 67//219
usemtl BodyBottom.001
f 67//220 68//220 63//220
usemtl BodyTop.001
f 64//221 69//221 66//221
usemtl BodyBottom.001
f 72//222 73//222 68//222
usemtl BodyTop.001
f 69//223 74//223 71//223
usemtl BodyBottom.001
f 73//224 75//224 70//224
usemtl BodyTop.001
f 66//225 71//225 72//225
f 71//226 76//226 77//226
usemtl BodyBottom.001
f 77//227 78//227 73//227
usemtl BodyTop.001
f 74//228 79//228 76//228
usemtl BodyBottom.001
f 78//229 80//229 75//229
usemtl BodyTop.001
f 76//230 81//230 82//230
usemtl BodyBottom.001
f 78//231 77//231 82//231
f 39//232 91//232 90//232
usemtl BodyTop.001
f 36//233 91//233 89//233
usemtl BodyBottom.001
f 16//234 90//234 85//234
usemtl BodyTop.001
f 84//235 89//235 38//235
usemtl BodyBottom.001
f 87//236 88//236 9//236
usemtl BodyTop.001
f 86//237 88//237 5//237
usemtl BodyBottom.001
f 85//238 87//238 8//238
usemtl BodyTop.001
f 7//239 86//239 84//239
usemtl Fin.001
f 100//240 97//240 95//240
f 94//241 97//241 100//241
f 92//90 98//90 100//90
f 100//90 99//90 93//90
f 109//92 108//92 104//92
f 109//242 106//242 103//242
f 101//93 105//93 109//93
f 102//93 108//93 109//93
f 112//243 113//243 119//243
f 110//244 116//244 117//244
f 116//245 115//245 118//245
f 114//246 119//246 118//246
usemtl Eye.001
f 129//108 137//108 136//108
f 135//109 134//109 126//109
f 125//110 133//110 132//110
f 131//111 130//111 122//111
f 122//112 130//112 137//112
f 136//113 135//113 127//113
f 126//114 134//114 133//114
f 124//115 132//115 131//115
f 127//124 144//124 145//124
f 142//125 143//125 126//125
f 123//247 140//247 141//247
f 145//127 146//127 129//127
f 143//248 144//248 127//248
f 141//249 142//249 125//249
f 139//250 140//250 123//250
f 129//131 146//131 139//131
f 153//132 161//132 162//132
f 151//133 159//133 160//133
f 149//134 157//134 158//134
f 147//135 155//135 156//135
f 154//136 162//136 155//136
f 153//137 152//137 160//137
f 151//138 150//138 158//138
f 149//251 148//251 156//251
f 153//148 170//148 169//148
f 150//149 151//149 168//149
f 148//150 149//150 166//150
f 154//252 171//252 170//252
f 151//152 152//152 169//152
f 150//153 167//153 166//153
f 147//154 148//154 165//154
f 154//155 147//155 164//155
