# Blender v2.79 (sub 0) OBJ File: 'Minnnow_ioexperment.blend'
# www.blender.org
mtllib Minnow_000007.mtl
v 0.222601 0.273001 0.100031
v 0.179209 -0.159074 0.045075
v 0.332709 0.067251 0.078123
v 0.176843 0.190820 0.665570
v 0.205564 0.051360 0.654763
v 0.159863 -0.094767 0.568026
v 0.109759 -0.049348 0.926054
v 0.087399 -0.089098 0.945387
v 0.106921 -0.063444 0.907477
v 0.132990 0.257610 -0.694556
v 0.233167 0.050659 -0.705706
v 0.087724 -0.177555 -0.717634
v 0.005231 0.123514 -1.287004
v 0.061602 0.051821 -1.285194
v 0.025410 -0.057767 -1.290626
v 0.036709 -0.089098 0.946739
v -0.064227 0.040249 -1.573248
v -0.046781 0.011828 -1.571685
v -0.059041 -0.032575 -1.574645
v -0.075811 0.026351 -1.705457
v -0.063373 0.007273 -1.704392
v -0.071335 -0.021889 -1.706213
v -0.085752 0.033492 -1.836293
v -0.079133 0.008464 -1.834828
v -0.083371 -0.029794 -1.837258
v -0.133333 0.187632 -1.978845
v -0.126585 0.035463 -1.979490
v -0.131364 -0.197136 -1.980496
v -0.157850 0.265364 -2.052851
v -0.151102 0.048424 -2.053495
v -0.155881 -0.283182 -2.054502
v -0.227980 0.273001 0.141425
v -0.195313 -0.159074 0.079344
v -0.340239 0.067251 0.139926
v -0.057041 0.190820 0.683350
v -0.087066 0.051360 0.677008
v -0.055001 -0.094767 0.584359
v 0.013350 -0.049348 0.928625
v 0.015194 -0.063444 0.909923
v -0.243480 0.257610 -0.673992
v -0.344275 0.050659 -0.674164
v -0.200997 -0.177555 -0.701864
v -0.169169 0.123514 -1.279207
v -0.225154 0.051821 -1.272373
v -0.189591 -0.057767 -1.281013
v 0.060159 0.248875 0.677848
v -0.002958 0.431722 0.117802
v -0.056559 0.380931 -0.708334
v -0.082134 0.177768 -1.286787
v 0.062494 -0.034019 0.962560
v 0.047028 -0.210664 0.505115
v -0.018544 -0.337665 -0.051898
v -0.058650 -0.222210 -0.746485
v -0.082265 -0.113104 -1.289723
v 0.062116 -0.094433 0.948386
v -0.124865 0.040249 -1.571683
v -0.142208 0.011828 -1.569223
v -0.130117 -0.032575 -1.572811
v -0.094590 0.063840 -1.574178
v -0.094583 -0.057490 -1.573905
v -0.114401 0.026351 -1.705190
v -0.126824 0.007273 -1.703953
v -0.118909 -0.021889 -1.705880
v -0.095116 0.040788 -1.706304
v -0.095169 -0.036614 -1.707085
v -0.106267 0.033492 -1.836151
v -0.112864 0.008464 -1.834595
v -0.108661 -0.029794 -1.837083
v -0.096018 0.052433 -1.837508
v -0.096025 -0.049113 -1.838534
v -0.152807 0.187632 -1.972394
v -0.158605 0.035463 -1.968882
v -0.155372 -0.197136 -1.972543
v -0.143475 0.302787 -1.976840
v -0.143797 -0.314588 -1.977814
v -0.177324 0.265364 -2.046399
v -0.183123 0.048424 -2.042887
v -0.179890 -0.283182 -2.046549
v -0.167992 0.429535 -2.050846
v -0.168314 -0.450629 -2.051820
v -0.173007 0.266998 -2.065984
v -0.165317 0.047052 -2.042773
v -0.172709 -0.284283 -2.065087
v 0.061528 0.002003 0.926355
v 0.060610 -0.109233 0.891913
v 0.117708 -0.018766 0.893666
v 0.096645 -0.089820 0.898012
v 0.118956 -0.048825 0.876259
v 0.003686 -0.018766 0.896707
v 0.024951 -0.089820 0.899924
v 0.001513 -0.048825 0.879390
v 0.193710 -0.048158 0.314303
v 0.235951 0.023932 0.271983
v 0.228731 -0.192371 0.172744
v 0.303007 -0.065609 0.098328
v 0.214830 -0.012113 0.293143
v 0.284510 -0.156250 0.120728
v 0.225681 -0.132330 0.246490
v 0.284988 -0.031115 0.187072
v 0.255334 -0.081723 0.216781
v -0.145726 -0.048705 0.352505
v -0.198128 0.024446 0.326520
v -0.243876 -0.195879 0.248730
v -0.336019 -0.067251 0.203039
v -0.171927 -0.012130 0.339512
v -0.314410 -0.157968 0.222092
v -0.207281 -0.133102 0.310151
v -0.280854 -0.030397 0.273668
v -0.244068 -0.081750 0.291910
v -0.014349 0.436122 -0.050298
v -0.012127 0.416399 -0.015886
v -0.073373 0.274162 -1.090847
v -0.075762 0.222699 -1.144278
v -0.052219 0.394554 -0.841594
v -0.059965 0.450024 -0.582349
v -0.021749 0.464016 -0.320037
v -0.030838 0.393161 -0.305608
v -0.049727 0.379138 -0.576656
v -0.061731 0.328875 -0.830451
v 0.060148 -0.038183 0.884733
v 0.061361 -0.083997 0.890855
v 0.158021 0.104667 0.734639
v 0.147713 0.093067 0.761029
v 0.146833 0.065129 0.773518
v 0.155898 0.037220 0.764791
v 0.169597 0.025687 0.739960
v 0.179905 0.037287 0.713570
v 0.180785 0.065225 0.701080
v 0.171720 0.093134 0.709807
v 0.171146 0.085916 0.740766
v 0.166203 0.080353 0.753421
v 0.165781 0.066956 0.759411
v 0.170128 0.053572 0.755225
v 0.176697 0.048041 0.743317
v 0.181641 0.053604 0.730662
v 0.182063 0.067002 0.724672
v 0.177716 0.080386 0.728857
v 0.176045 0.067357 0.743037
v 0.154954 0.104120 0.733200
v 0.144646 0.092520 0.759590
v 0.143766 0.064583 0.772080
v 0.152831 0.036674 0.763353
v 0.166530 0.025141 0.738522
v 0.176838 0.036741 0.712132
v 0.177718 0.064678 0.699642
v 0.168653 0.092588 0.708369
v -0.045044 0.104667 0.740053
v -0.033344 0.093067 0.765856
v -0.031800 0.065129 0.778281
v -0.041317 0.037220 0.770050
v -0.056320 0.025687 0.745984
v -0.068020 0.037287 0.720181
v -0.069564 0.065225 0.707756
v -0.060047 0.093134 0.715987
v -0.057824 0.085916 0.746871
v -0.052213 0.080353 0.759245
v -0.051473 0.066956 0.765204
v -0.056036 0.053572 0.761256
v -0.063231 0.048041 0.749715
v -0.068842 0.053604 0.737341
v -0.069583 0.067002 0.731382
v -0.065019 0.080386 0.735330
v -0.062595 0.067357 0.749400
v -0.042058 0.104120 0.738454
v -0.030358 0.092520 0.764257
v -0.028814 0.064583 0.776682
v -0.038331 0.036673 0.768450
v -0.053333 0.025141 0.744384
v -0.065034 0.036741 0.718581
v -0.066578 0.064678 0.706156
v -0.057061 0.092588 0.714387
vn 0.5747 0.7949 0.1947
vn 0.8719 0.4448 0.2045
vn 0.8166 -0.5685 0.1001
vn 0.6400 -0.7621 0.0984
vn 0.3932 0.6534 0.6469
vn 0.4585 -0.8829 0.1011
vn 0.9441 -0.1350 0.3008
vn 0.9009 -0.3956 0.1785
vn 0.3185 -0.9320 -0.1733
vn 0.8303 -0.5494 -0.0938
vn 0.8718 0.4780 -0.1076
vn 0.5477 0.8322 -0.0867
vn 0.3249 -0.9181 -0.2273
vn 0.8234 -0.5120 -0.2448
vn 0.7546 0.5859 -0.2954
vn 0.5353 0.7892 -0.3009
vn 0.9090 -0.2851 -0.3041
vn 0.4958 0.7997 -0.3385
vn 0.4455 -0.8704 -0.2097
vn 0.8108 0.4792 -0.3361
vn 0.9598 -0.2576 -0.1112
vn 0.6103 0.7800 -0.1385
vn 0.5251 -0.8429 -0.1175
vn 0.8339 0.5365 -0.1295
vn 0.5255 -0.8508 0.0031
vn 0.9659 0.2519 -0.0596
vn 0.9598 -0.2547 -0.1183
vn 0.8776 0.4780 0.0364
vn 0.9421 -0.0837 -0.3247
vn 0.9808 0.0894 -0.1734
vn 0.7697 -0.5279 0.3589
vn 0.9609 0.0438 -0.2734
vn 0.9580 0.0306 -0.2852
vn 0.9482 -0.0181 -0.3173
vn 0.9745 0.0628 -0.2152
vn 0.9743 -0.1077 -0.1976
vn 0.6571 0.0498 -0.7522
vn 0.6502 -0.0572 -0.7576
vn 0.5342 -0.0532 -0.8437
vn -0.6029 0.0111 -0.7978
vn -0.4182 0.8692 0.2637
vn -0.8081 0.4380 0.3939
vn -0.7702 -0.5699 0.2865
vn -0.5932 -0.7670 0.2447
vn -0.5299 0.5247 0.6663
vn -0.6566 -0.7236 0.2128
vn -0.9708 -0.2276 0.0758
vn -0.8900 -0.3928 0.2316
vn -0.7024 -0.7114 0.0219
vn -0.8402 -0.5421 0.0152
vn -0.8778 0.4789 0.0076
vn -0.5767 0.8169 -0.0045
vn -0.3490 -0.9163 -0.1964
vn -0.8438 -0.5093 -0.1690
vn -0.8850 0.4312 -0.1754
vn -0.5648 0.7861 -0.2511
vn -0.9324 -0.2851 -0.2221
vn -0.5239 0.7994 -0.2942
vn -0.4625 -0.8703 -0.1694
vn -0.7672 0.5714 -0.2914
vn -0.9620 -0.2538 -0.1013
vn -0.6160 0.7764 -0.1330
vn -0.5722 -0.8106 -0.1245
vn -0.8524 0.5102 -0.1146
vn -0.5267 -0.8500 0.0101
vn -0.8375 0.5399 -0.0846
vn -0.9615 -0.2540 -0.1051
vn -0.5990 0.8007 0.0065
vn -0.9467 -0.1234 0.2977
vn -0.6381 0.3927 0.6623
vn -0.5611 -0.4205 0.7130
vn -0.8973 0.2588 0.3577
vn -0.9461 0.0435 0.3210
vn -0.9501 -0.0181 0.3116
vn -0.9137 0.0894 0.3965
vn -0.8996 -0.1077 0.4232
vn -0.9762 0.0498 -0.2111
vn 0.0052 -0.0163 -0.9999
vn -0.9322 -0.0532 -0.3579
vn -0.9306 0.0452 -0.3631
vn -0.8819 -0.4126 0.2279
vn -0.8898 0.1724 0.4226
vn -0.2145 -0.9434 0.2530
vn -0.5798 0.5698 0.5824
vn 0.8928 -0.4126 0.1805
vn 0.9108 0.1580 0.3813
vn 0.2277 -0.9434 0.2412
vn 0.6101 0.5698 0.5506
vn 0.8882 -0.3376 0.3116
vn 0.8130 -0.1454 0.5638
vn -0.6961 -0.0151 0.7178
vn -0.6923 -0.2564 0.6745
vn -0.5090 -0.0596 0.8587
vn -0.9893 0.1456 0.0136
vn -0.9979 -0.0000 0.0645
vn -0.9883 0.1393 0.0617
vn -0.9897 -0.1429 0.0010
vn 0.2701 -0.9619 0.0433
vn -0.2661 -0.9621 0.0595
vn -0.3849 0.1122 0.9161
vn 0.4277 0.1308 0.8944
vn 0.4866 0.8241 0.2899
vn -0.1829 0.9669 0.1778
vn 0.6205 -0.5956 0.5101
vn -0.5879 -0.5987 0.5441
vn 0.1917 0.9661 0.1727
vn -0.4822 0.8205 0.3070
vn 0.9412 0.3294 -0.0758
vn 0.9206 -0.3250 0.2167
vn 0.5997 -0.0549 0.7983
vn 0.6203 0.5995 0.5058
vn 0.7850 0.5999 0.1544
vn 0.9973 -0.0537 -0.0500
vn 0.7559 -0.3254 0.5681
vn 0.5436 0.3283 0.7725
vn 0.8466 0.2789 0.4533
vn 0.8897 0.2791 0.3612
vn 0.9454 0.1078 0.3077
vn 0.8821 0.0366 0.4696
vn 0.8265 0.2079 0.5232
vn 0.9307 0.2082 0.3009
vn 0.9253 0.0367 0.3776
vn 0.8412 0.1075 0.5299
vn 0.4475 -0.3767 -0.8111
vn -0.0288 -0.9125 0.4080
vn -0.4475 0.3767 0.8111
vn 0.3367 0.3789 -0.8620
vn 0.2961 -0.9116 -0.2851
vn -0.3367 -0.3789 0.8620
vn -0.2961 0.9116 0.2851
vn 0.0287 0.9125 -0.4080
vn -0.9439 0.3294 -0.0255
vn -0.9077 -0.3250 0.2655
vn -0.5563 -0.0549 0.8292
vn -0.5925 0.5995 0.5382
vn -0.7756 0.5999 0.1960
vn -0.9985 -0.0537 0.0032
vn -0.7245 -0.3254 0.6076
vn -0.5016 0.3283 0.8004
vn -0.8212 0.2789 0.4978
vn -0.8692 0.2791 0.4081
vn -0.9276 0.1078 0.3576
vn -0.8558 0.0366 0.5160
vn -0.7974 0.2079 0.5665
vn -0.9133 0.2082 0.3501
vn -0.9038 0.0367 0.4263
vn -0.8118 0.1075 0.5740
vn -0.4901 -0.3767 -0.7861
vn 0.0504 -0.9125 0.4059
vn 0.4901 0.3767 0.7861
vn -0.3822 0.3789 -0.8428
vn -0.3109 -0.9116 -0.2689
vn 0.3822 -0.3789 0.8428
vn 0.3109 0.9116 0.2689
vn -0.0504 0.9125 -0.4058
vn 0.4532 0.8762 0.1640
vn 0.9754 0.1926 0.1069
vn 0.9002 -0.3929 0.1877
vn 0.6801 -0.7241 0.1142
vn 0.5643 0.5298 0.6331
vn 0.6587 -0.7331 0.1691
vn 0.9735 -0.2276 0.0240
vn 0.9042 -0.3884 0.1779
vn 0.6861 -0.7246 -0.0647
vn 0.8421 -0.5321 -0.0881
vn 0.8907 0.4378 -0.1224
vn 0.5694 0.8181 -0.0801
vn 0.4470 -0.8730 -0.1948
vn 0.9389 -0.3019 -0.1652
vn 0.8648 0.4324 -0.2552
vn 0.5039 0.8127 -0.2926
vn 0.9256 -0.2358 -0.2961
vn 0.5805 0.7332 -0.3541
vn 0.5618 -0.8069 -0.1823
vn 0.7381 0.5713 -0.3590
vn 0.9605 -0.2554 -0.1105
vn 0.5972 0.7906 -0.1354
vn 0.5673 -0.8132 -0.1300
vn 0.8487 0.5142 -0.1238
vn 0.8342 -0.5495 0.0468
vn 0.8363 0.5399 -0.0961
vn 0.9909 -0.1044 -0.0847
vn 0.5990 0.8008 -0.0018
vn 0.9543 -0.0183 -0.2983
vn 0.8493 0.4751 0.2303
vn 0.9852 -0.1073 -0.1333
vn 0.9362 0.2321 -0.2638
vn 0.9506 0.0435 -0.3073
vn 0.9535 -0.0128 -0.3010
vn 0.9697 0.0894 -0.2274
vn 0.9797 -0.0757 -0.1854
vn -0.6011 -0.0163 -0.7990
vn 0.5298 0.0452 -0.8469
vn -0.5242 0.7904 0.3171
vn -0.9287 0.1854 0.3211
vn -0.8256 -0.4200 0.3768
vn -0.6254 -0.7332 0.2671
vn -0.3029 0.6753 0.6725
vn -0.4518 -0.8828 0.1283
vn -0.9267 -0.1350 0.3506
vn -0.9107 -0.3444 0.2281
vn -0.3350 -0.9324 -0.1356
vn -0.8457 -0.5333 0.0188
vn -0.8990 0.4379 -0.0045
vn -0.5526 0.8333 -0.0154
vn -0.4626 -0.8729 -0.1552
vn -0.9499 -0.3019 -0.0811
vn -0.7782 0.5862 -0.2254
vn -0.5282 0.8130 -0.2450
vn -0.9468 -0.2405 -0.2137
vn -0.6014 0.7398 -0.3017
vn -0.5717 -0.8095 -0.1336
vn -0.8332 0.4856 -0.2645
vn -0.9618 -0.2544 -0.1014
vn -0.5990 0.7902 -0.1292
vn -0.5279 -0.8419 -0.1121
vn -0.8354 0.5361 -0.1213
vn -0.8335 -0.5495 0.0577
vn -0.9666 0.2519 -0.0463
vn -0.9920 -0.1044 -0.0712
vn -0.8770 0.4780 0.0485
vn -0.9380 -0.0185 0.3463
vn -0.8828 0.0894 0.4612
vn -0.8599 -0.1071 0.4991
vn -0.9292 0.0439 0.3670
vn -0.9388 0.0306 0.3432
vn -0.9446 -0.0128 0.3279
vn -0.9103 0.0628 0.4092
vn -0.8966 -0.0757 0.4362
vn -0.9739 -0.0572 -0.2195
vn 0.0073 0.0111 -0.9999
vn -0.8904 -0.4068 0.2042
vn -0.9304 -0.1302 0.3428
vn -0.4521 -0.8829 0.1272
vn -0.5298 0.5265 0.6649
vn 0.9000 -0.4068 0.1565
vn 0.9420 -0.1380 0.3059
vn 0.4582 -0.8829 0.1029
vn 0.5645 0.5265 0.6357
vn 0.9277 -0.1004 0.3597
vn 0.7503 -0.3922 0.5322
vn -0.4777 -0.3116 0.8214
vn -0.9990 -0.0000 0.0447
vn -0.9899 0.1354 0.0412
vn -0.9802 -0.1295 0.1497
vn -0.9891 0.1463 0.0178
vn -0.0287 -0.9125 0.4080
vn -0.5925 0.5995 0.5381
vn -0.7757 0.5999 0.1960
vn -0.4900 -0.3767 -0.7861
vn 0.0504 -0.9125 0.4058
vn 0.4900 0.3767 0.7861
vn -0.3108 -0.9116 -0.2689
vn 0.3821 -0.3789 0.8429
vn -0.0504 0.9125 -0.4059
usemtl BodyTop.001
s off
f 46//1 1//1 47//1
f 1//2 5//2 3//2
usemtl BodyBottom.001
f 3//3 6//3 2//3
f 2//4 51//4 52//4
usemtl BodyTop.001
f 84//5 4//5 46//5
usemtl BodyBottom.001
f 85//6 6//6 87//6
usemtl BodyTop.001
f 86//7 9//7 88//7
usemtl BodyBottom.001
f 6//8 88//8 87//8
f 12//9 52//9 53//9
f 2//10 11//10 3//10
usemtl BodyTop.001
f 3//11 10//11 1//11
f 47//12 10//12 48//12
usemtl BodyBottom.001
f 53//13 15//13 12//13
f 12//14 14//14 11//14
usemtl BodyTop.001
f 10//15 14//15 13//15
f 10//16 49//16 48//16
usemtl BodyBottom.001
f 15//17 18//17 14//17
usemtl BodyTop.001
f 13//18 59//18 49//18
usemtl BodyBottom.001
f 54//19 19//19 15//19
usemtl BodyTop.001
f 13//20 18//20 17//20
usemtl BodyBottom.001
f 19//21 21//21 18//21
usemtl BodyTop.001
f 17//22 64//22 59//22
usemtl BodyBottom.001
f 19//23 65//23 22//23
usemtl BodyTop.001
f 17//24 21//24 20//24
usemtl BodyBottom.001
f 65//25 25//25 22//25
usemtl BodyTop.001
f 20//26 24//26 23//26
usemtl BodyBottom.001
f 22//27 24//27 21//27
usemtl BodyTop.001
f 64//28 23//28 69//28
usemtl BodyBottom.001
f 25//29 27//29 24//29
usemtl BodyTop.001
f 69//30 26//30 74//30
usemtl BodyBottom.001
f 70//31 28//31 25//31
usemtl BodyTop.001
f 23//32 27//32 26//32
f 26//33 30//33 29//33
usemtl BodyBottom.001
f 28//34 30//34 27//34
usemtl BodyTop.001
f 74//35 29//35 79//35
usemtl BodyBottom.001
f 75//36 31//36 28//36
usemtl BodyTop.001
f 29//37 81//37 79//37
f 29//38 82//38 81//38
usemtl BodyBottom.001
f 31//39 80//39 83//39
f 31//40 82//40 30//40
usemtl BodyTop.001
f 46//41 32//41 35//41
f 36//42 32//42 34//42
usemtl BodyBottom.001
f 37//43 34//43 33//43
f 51//44 33//44 52//44
usemtl BodyTop.001
f 84//45 35//45 89//45
usemtl BodyBottom.001
f 85//46 37//46 51//46
usemtl BodyTop.001
f 89//47 39//47 38//47
usemtl BodyBottom.001
f 91//48 37//48 90//48
f 42//49 52//49 33//49
f 41//50 33//50 34//50
usemtl BodyTop.001
f 40//51 34//51 32//51
f 47//52 40//52 32//52
usemtl BodyBottom.001
f 45//53 53//53 42//53
f 44//54 42//54 41//54
usemtl BodyTop.001
f 40//55 44//55 41//55
f 49//56 40//56 48//56
usemtl BodyBottom.001
f 57//57 45//57 44//57
usemtl BodyTop.001
f 59//58 43//58 49//58
usemtl BodyBottom.001
f 58//59 54//59 45//59
usemtl BodyTop.001
f 43//60 57//60 44//60
usemtl BodyBottom.001
f 62//61 58//61 57//61
usemtl BodyTop.001
f 64//62 56//62 59//62
usemtl BodyBottom.001
f 58//63 65//63 60//63
usemtl BodyTop.001
f 56//64 62//64 57//64
usemtl BodyBottom.001
f 68//65 65//65 63//65
usemtl BodyTop.001
f 61//66 67//66 62//66
usemtl BodyBottom.001
f 67//67 63//67 62//67
usemtl BodyTop.001
f 64//68 66//68 61//68
usemtl BodyBottom.001
f 72//69 68//69 67//69
usemtl BodyTop.001
f 69//70 71//70 66//70
usemtl BodyBottom.001
f 73//71 70//71 68//71
usemtl BodyTop.001
f 66//72 72//72 67//72
f 71//73 77//73 72//73
usemtl BodyBottom.001
f 77//74 73//74 72//74
usemtl BodyTop.001
f 74//75 76//75 71//75
usemtl BodyBottom.001
f 78//76 75//76 73//76
usemtl BodyTop.001
f 76//77 79//77 81//77
f 76//78 82//78 77//78
usemtl BodyBottom.001
f 78//79 83//79 80//79
f 78//80 82//80 83//80
f 39//81 90//81 16//81
usemtl BodyTop.001
f 36//82 89//82 35//82
usemtl BodyBottom.001
f 16//83 85//83 55//83
usemtl BodyTop.001
f 84//84 38//84 50//84
usemtl BodyBottom.001
f 87//85 9//85 8//85
usemtl BodyTop.001
f 86//86 5//86 4//86
usemtl BodyBottom.001
f 85//87 8//87 55//87
usemtl BodyTop.001
f 7//88 84//88 50//88
usemtl Fin.001
f 100//89 95//89 99//89
f 94//89 100//89 98//89
f 92//90 100//90 96//90
f 100//90 93//90 96//90
f 109//91 104//91 106//91
f 109//92 103//92 107//92
f 101//93 109//93 107//93
f 102//93 109//93 105//93
f 112//94 119//94 114//94
f 110//95 117//95 111//95
f 116//96 118//96 117//96
f 114//97 118//97 115//97
usemtl Mouth.001
f 38//98 120//98 50//98
f 120//99 7//99 50//99
f 120//100 121//100 9//100
f 39//101 121//101 120//101
f 16//102 121//102 39//102
f 8//103 121//103 55//103
f 38//104 39//104 120//104
f 120//105 9//105 7//105
f 16//106 55//106 121//106
f 8//107 9//107 121//107
usemtl Eye.001
f 129//108 136//108 128//108
f 135//109 126//109 127//109
f 125//110 132//110 124//110
f 131//111 122//111 123//111
f 122//112 137//112 129//112
f 136//113 127//113 128//113
f 126//114 133//114 125//114
f 124//115 131//115 123//115
usemtl Pupil.001
f 131//116 138//116 130//116
f 130//117 138//117 137//117
f 136//118 138//118 135//118
f 134//119 138//119 133//119
f 132//120 138//120 131//120
f 137//121 138//121 136//121
f 135//122 138//122 134//122
f 133//123 138//123 132//123
usemtl Eye.001
f 127//124 145//124 128//124
f 142//125 126//125 125//125
f 123//126 141//126 124//126
f 145//127 129//127 128//127
f 143//128 127//128 126//128
f 141//129 125//129 124//129
f 139//130 123//130 122//130
f 129//131 139//131 122//131
f 153//132 162//132 154//132
f 151//133 160//133 152//133
f 149//134 158//134 150//134
f 147//135 156//135 148//135
f 154//136 155//136 147//136
f 153//137 160//137 161//137
f 151//138 158//138 159//138
f 149//139 156//139 157//139
usemtl Pupil.001
f 156//140 155//140 163//140
f 155//141 162//141 163//141
f 161//142 160//142 163//142
f 159//143 158//143 163//143
f 157//144 156//144 163//144
f 162//145 161//145 163//145
f 160//146 159//146 163//146
f 158//147 157//147 163//147
usemtl Eye.001
f 153//148 169//148 152//148
f 150//149 168//149 167//149
f 148//150 166//150 165//150
f 154//151 170//151 153//151
f 151//152 169//152 168//152
f 150//153 166//153 149//153
f 147//154 165//154 164//154
f 154//155 164//155 171//155
usemtl BodyTop.001
f 46//156 4//156 1//156
f 1//157 4//157 5//157
usemtl BodyBottom.001
f 3//158 5//158 6//158
f 2//159 6//159 51//159
usemtl BodyTop.001
f 84//160 86//160 4//160
usemtl BodyBottom.001
f 85//161 51//161 6//161
usemtl BodyTop.001
f 86//162 7//162 9//162
usemtl BodyBottom.001
f 6//163 5//163 88//163
f 12//164 2//164 52//164
f 2//165 12//165 11//165
usemtl BodyTop.001
f 3//166 11//166 10//166
f 47//167 1//167 10//167
usemtl BodyBottom.001
f 53//168 54//168 15//168
f 12//169 15//169 14//169
usemtl BodyTop.001
f 10//170 11//170 14//170
f 10//171 13//171 49//171
usemtl BodyBottom.001
f 15//172 19//172 18//172
usemtl BodyTop.001
f 13//173 17//173 59//173
usemtl BodyBottom.001
f 54//174 60//174 19//174
usemtl BodyTop.001
f 13//175 14//175 18//175
usemtl BodyBottom.001
f 19//176 22//176 21//176
usemtl BodyTop.001
f 17//177 20//177 64//177
usemtl BodyBottom.001
f 19//178 60//178 65//178
usemtl BodyTop.001
f 17//179 18//179 21//179
usemtl BodyBottom.001
f 65//180 70//180 25//180
usemtl BodyTop.001
f 20//181 21//181 24//181
usemtl BodyBottom.001
f 22//182 25//182 24//182
usemtl BodyTop.001
f 64//183 20//183 23//183
usemtl BodyBottom.001
f 25//184 28//184 27//184
usemtl BodyTop.001
f 69//185 23//185 26//185
usemtl BodyBottom.001
f 70//186 75//186 28//186
usemtl BodyTop.001
f 23//187 24//187 27//187
f 26//188 27//188 30//188
usemtl BodyBottom.001
f 28//189 31//189 30//189
usemtl BodyTop.001
f 74//190 26//190 29//190
usemtl BodyBottom.001
f 75//191 80//191 31//191
usemtl BodyTop.001
f 29//192 30//192 82//192
usemtl BodyBottom.001
f 31//193 83//193 82//193
usemtl BodyTop.001
f 46//194 47//194 32//194
f 36//195 35//195 32//195
usemtl BodyBottom.001
f 37//196 36//196 34//196
f 51//197 37//197 33//197
usemtl BodyTop.001
f 84//198 46//198 35//198
usemtl BodyBottom.001
f 85//199 90//199 37//199
usemtl BodyTop.001
f 89//200 91//200 39//200
usemtl BodyBottom.001
f 91//201 36//201 37//201
f 42//202 53//202 52//202
f 41//203 42//203 33//203
usemtl BodyTop.001
f 40//204 41//204 34//204
f 47//205 48//205 40//205
usemtl BodyBottom.001
f 45//206 54//206 53//206
f 44//207 45//207 42//207
usemtl BodyTop.001
f 40//208 43//208 44//208
f 49//209 43//209 40//209
usemtl BodyBottom.001
f 57//210 58//210 45//210
usemtl BodyTop.001
f 59//211 56//211 43//211
usemtl BodyBottom.001
f 58//212 60//212 54//212
usemtl BodyTop.001
f 43//213 56//213 57//213
usemtl BodyBottom.001
f 62//214 63//214 58//214
usemtl BodyTop.001
f 64//215 61//215 56//215
usemtl BodyBottom.001
f 58//216 63//216 65//216
usemtl BodyTop.001
f 56//217 61//217 62//217
usemtl BodyBottom.001
f 68//218 70//218 65//218
usemtl BodyTop.001
f 61//219 66//219 67//219
usemtl BodyBottom.001
f 67//220 68//220 63//220
usemtl BodyTop.001
f 64//221 69//221 66//221
usemtl BodyBottom.001
f 72//222 73//222 68//222
usemtl BodyTop.001
f 69//223 74//223 71//223
usemtl BodyBottom.001
f 73//224 75//224 70//224
usemtl BodyTop.001
f 66//225 71//225 72//225
f 71//226 76//226 77//226
usemtl BodyBottom.001
f 77//227 78//227 73//227
usemtl BodyTop.001
f 74//228 79//228 76//228
usemtl BodyBottom.001
f 78//229 80//229 75//229
usemtl BodyTop.001
f 76//230 81//230 82//230
usemtl BodyBottom.001
f 78//231 77//231 82//231
f 39//232 91//232 90//232
usemtl BodyTop.001
f 36//233 91//233 89//233
usemtl BodyBottom.001
f 16//234 90//234 85//234
usemtl BodyTop.001
f 84//235 89//235 38//235
usemtl BodyBottom.001
f 87//236 88//236 9//236
usemtl BodyTop.001
f 86//237 88//237 5//237
usemtl BodyBottom.001
f 85//238 87//238 8//238
usemtl BodyTop.001
f 7//239 86//239 84//239
usemtl Fin.001
f 100//240 97//240 95//240
f 94//241 97//241 100//241
f 92//90 98//90 100//90
f 100//90 99//90 93//90
f 109//92 108//92 104//92
f 109//242 106//242 103//242
f 101//93 105//93 109//93
f 102//93 108//93 109//93
f 112//243 113//243 119//243
f 110//244 116//244 117//244
f 116//245 115//245 118//245
f 114//246 119//246 118//246
usemtl Eye.001
f 129//108 137//108 136//108
f 135//109 134//109 126//109
f 125//110 133//110 132//110
f 131//111 130//111 122//111
f 122//112 130//112 137//112
f 136//113 135//113 127//113
f 126//114 134//114 133//114
f 124//115 132//115 131//115
f 127//124 144//124 145//124
f 142//247 143//247 126//247
f 123//126 140//126 141//126
f 145//127 146//127 129//127
f 143//128 144//128 127//128
f 141//129 142//129 125//129
f 139//130 140//130 123//130
f 129//131 146//131 139//131
f 153//132 161//132 162//132
f 151//133 159//133 160//133
f 149//134 157//134 158//134
f 147//248 155//248 156//248
f 154//249 162//249 155//249
f 153//137 152//137 160//137
f 151//138 150//138 158//138
f 149//139 148//139 156//139
f 153//250 170//250 169//250
f 150//251 151//251 168//251
f 148//252 149//252 166//252
f 154//151 171//151 170//151
f 151//253 152//253 169//253
f 150//254 167//254 166//254
f 147//154 148//154 165//154
f 154//255 147//255 164//255
