# Blender v2.79 (sub 0) OBJ File: 'Minnnow_ioexperment.blend'
# www.blender.org
mtllib Minnow_000005.mtl
v 0.208157 0.273001 0.077699
v 0.162975 -0.159074 0.024291
v 0.317415 0.067251 0.052120
v 0.191295 0.190820 0.638972
v 0.219234 0.051360 0.626222
v 0.167687 -0.094767 0.542738
v 0.150098 -0.049348 0.901371
v 0.129594 -0.089098 0.922663
v 0.145577 -0.063444 0.883130
v 0.103147 0.257610 -0.708359
v 0.203273 0.050659 -0.719648
v 0.057864 -0.177555 -0.731365
v -0.014207 0.123514 -1.299433
v 0.042125 0.051821 -1.296665
v 0.006030 -0.057767 -1.302711
v 0.079238 -0.089098 0.928633
v -0.078697 0.040249 -1.586658
v -0.061291 0.011828 -1.584711
v -0.073481 -0.032575 -1.587941
v -0.086576 0.026351 -1.718981
v -0.074171 0.007273 -1.717578
v -0.082084 -0.021889 -1.719615
v -0.092950 0.033492 -1.850039
v -0.086373 0.008464 -1.848395
v -0.090543 -0.029794 -1.850939
v -0.123787 0.187632 -1.996181
v -0.117009 0.035463 -1.996052
v -0.121643 -0.197136 -1.997597
v -0.139705 0.265364 -2.072500
v -0.132928 0.048424 -2.072371
v -0.137561 -0.283182 -2.073916
v -0.240564 0.273001 0.134182
v -0.210014 -0.159074 0.071034
v -0.352757 0.067251 0.136450
v -0.041014 0.190820 0.672677
v -0.071425 0.051360 0.668393
v -0.045729 -0.094767 0.573702
v 0.054325 -0.049348 0.912726
v 0.054455 -0.063444 0.893934
v -0.273159 0.257610 -0.687262
v -0.373919 0.050659 -0.687290
v -0.230732 -0.177555 -0.715185
v -0.188715 0.123514 -1.294599
v -0.244807 0.051821 -1.288718
v -0.209103 -0.057767 -1.296753
v 0.075629 0.248875 0.659190
v -0.016570 0.431722 0.103027
v -0.086354 0.380931 -0.721860
v -0.101563 0.177768 -1.300699
v 0.106360 -0.034020 0.942036
v 0.050736 -0.210664 0.487621
v -0.037837 -0.337665 -0.065973
v -0.088513 -0.222210 -0.759995
v -0.101644 -0.113104 -1.303638
v 0.104690 -0.094433 0.927956
v -0.139348 0.040249 -1.586435
v -0.156738 0.011828 -1.584359
v -0.144573 -0.032575 -1.587679
v -0.109029 0.063840 -1.588260
v -0.109028 -0.057490 -1.587986
v -0.125159 0.026351 -1.719765
v -0.137611 0.007273 -1.718866
v -0.129649 -0.021889 -1.720577
v -0.105851 0.040788 -1.720353
v -0.105896 -0.036614 -1.721135
v -0.113461 0.033492 -1.850456
v -0.120098 0.008464 -1.849080
v -0.115829 -0.029794 -1.851453
v -0.103179 0.052433 -1.851534
v -0.103158 -0.049113 -1.852560
v -0.143870 0.187632 -1.991992
v -0.150031 0.035463 -1.989164
v -0.146401 -0.197136 -1.992433
v -0.134091 0.302787 -1.995346
v -0.134300 -0.314588 -1.996350
v -0.159789 0.265364 -2.068311
v -0.165949 0.048424 -2.065483
v -0.162320 -0.283182 -2.068752
v -0.150010 0.429535 -2.071665
v -0.150219 -0.450629 -2.072669
v -0.153266 0.266998 -2.087276
v -0.148273 0.047052 -2.063339
v -0.153073 -0.284283 -2.086350
v 0.102095 0.002003 0.906071
v 0.098038 -0.109233 0.871855
v 0.155059 -0.018766 0.868393
v 0.134480 -0.089820 0.874642
v 0.154713 -0.048825 0.850944
v 0.041790 -0.018766 0.881823
v 0.063259 -0.089820 0.883087
v 0.038045 -0.048825 0.864777
v 0.190223 -0.048371 0.290185
v 0.229027 0.024132 0.245354
v 0.224023 -0.193777 0.149552
v 0.292256 -0.066288 0.070723
v 0.209625 -0.012120 0.267769
v 0.276960 -0.157024 0.095066
v 0.221993 -0.132715 0.222490
v 0.276475 -0.030920 0.159548
v 0.249234 -0.081817 0.191019
v -0.147355 -0.048298 0.344673
v -0.201632 0.024063 0.320377
v -0.232515 -0.192403 0.226164
v -0.327954 -0.065165 0.183443
v -0.174493 -0.012117 0.332525
v -0.303172 -0.155918 0.197911
v -0.202401 -0.132302 0.293497
v -0.278605 -0.030707 0.259385
v -0.240503 -0.081504 0.276441
v -0.031575 0.436122 -0.064771
v -0.028667 0.416399 -0.030411
v -0.096133 0.274162 -1.104639
v -0.097614 0.222699 -1.158103
v -0.079216 0.394554 -0.855063
v -0.090088 0.450024 -0.595939
v -0.044350 0.464016 -0.334310
v -0.053150 0.393161 -0.319703
v -0.080005 0.379138 -0.590201
v -0.088916 0.328875 -0.844083
v 0.096923 -0.038183 0.864748
v 0.098690 -0.083997 0.870734
v 0.180695 0.104667 0.706350
v 0.172837 0.093067 0.733571
v 0.173101 0.065129 0.746089
v 0.181331 0.037220 0.736571
v 0.192708 0.025687 0.710593
v 0.200566 0.037287 0.683373
v 0.200302 0.065225 0.670855
v 0.192072 0.093134 0.680373
v 0.194324 0.085916 0.711254
v 0.190556 0.080353 0.724308
v 0.190682 0.066956 0.730311
v 0.194629 0.053572 0.725747
v 0.200085 0.048041 0.713289
v 0.203853 0.053604 0.700235
v 0.203727 0.067002 0.694232
v 0.199780 0.080386 0.698797
v 0.199410 0.067357 0.713069
v 0.177510 0.104120 0.705198
v 0.169652 0.092520 0.732418
v 0.169915 0.064583 0.744936
v 0.178146 0.036673 0.735419
v 0.189522 0.025141 0.709441
v 0.197380 0.036741 0.682221
v 0.197117 0.064678 0.669703
v 0.188886 0.092588 0.679220
v -0.021030 0.104667 0.730269
v -0.007024 0.093067 0.754897
v -0.004353 0.065129 0.767129
v -0.014581 0.037220 0.759800
v -0.031717 0.025687 0.737203
v -0.045722 0.037287 0.712575
v -0.048393 0.065225 0.700342
v -0.038165 0.093134 0.707672
v -0.033134 0.085916 0.738224
v -0.026418 0.080353 0.750034
v -0.025137 0.066956 0.755901
v -0.030042 0.053572 0.752386
v -0.038259 0.048041 0.741549
v -0.044976 0.053604 0.729739
v -0.046257 0.067002 0.723872
v -0.041352 0.080386 0.727387
v -0.037654 0.067357 0.741178
v -0.018202 0.104120 0.728403
v -0.004196 0.092520 0.753031
v -0.001525 0.064583 0.765264
v -0.011753 0.036673 0.757935
v -0.028889 0.025141 0.735337
v -0.042895 0.036741 0.710709
v -0.045566 0.064678 0.698477
v -0.035338 0.092588 0.705806
vn 0.5813 0.7967 0.1655
vn 0.8797 0.4469 0.1628
vn 0.8208 -0.5678 0.0630
vn 0.6447 -0.7611 0.0714
vn 0.4376 0.6588 0.6119
vn 0.4658 -0.8829 0.0598
vn 0.9676 -0.1350 0.2134
vn 0.9136 -0.3947 0.0973
vn 0.3188 -0.9309 -0.1781
vn 0.8272 -0.5509 -0.1105
vn 0.8697 0.4774 -0.1255
vn 0.5477 0.8310 -0.0975
vn 0.3240 -0.9196 -0.2222
vn 0.8258 -0.5142 -0.2317
vn 0.7593 0.5857 -0.2836
vn 0.5362 0.7920 -0.2921
vn 0.9140 -0.2851 -0.2886
vn 0.5015 0.7998 -0.3299
vn 0.4490 -0.8704 -0.2020
vn 0.8170 0.4783 -0.3221
vn 0.9624 -0.2581 -0.0844
vn 0.6134 0.7804 -0.1214
vn 0.5279 -0.8430 -0.1029
vn 0.8372 0.5365 -0.1062
vn 0.5251 -0.8509 0.0174
vn 0.9672 0.2519 -0.0333
vn 0.9626 -0.2547 -0.0921
vn 0.8763 0.4780 0.0603
vn 0.9716 -0.0914 -0.2183
vn 0.9943 0.0894 -0.0581
vn 0.7370 -0.5177 0.4345
vn 0.9858 0.0438 -0.1619
vn 0.9843 0.0306 -0.1741
vn 0.9782 -0.0181 -0.2071
vn 0.9927 0.0628 -0.1027
vn 0.9905 -0.1077 -0.0852
vn 0.7386 0.0498 -0.6723
vn 0.7324 -0.0572 -0.6785
vn 0.6269 -0.0532 -0.7773
vn -0.5080 0.0111 -0.8613
vn -0.4012 0.8716 0.2817
vn -0.7902 0.4357 0.4310
vn -0.7568 -0.5699 0.3202
vn -0.5819 -0.7675 0.2692
vn -0.4669 0.5253 0.7113
vn -0.6322 -0.7264 0.2696
vn -0.9598 -0.2276 0.1641
vn -0.8652 -0.3932 0.3111
vn -0.7058 -0.7075 0.0352
vn -0.8411 -0.5399 0.0325
vn -0.8775 0.4788 0.0259
vn -0.5774 0.8164 0.0076
vn -0.3506 -0.9146 -0.2014
vn -0.8428 -0.5066 -0.1819
vn -0.8829 0.4299 -0.1887
vn -0.5651 0.7830 -0.2600
vn -0.9285 -0.2851 -0.2380
vn -0.5188 0.7993 -0.3032
vn -0.4595 -0.8703 -0.1773
vn -0.7622 0.5714 -0.3043
vn -0.9589 -0.2532 -0.1278
vn -0.6127 0.7759 -0.1501
vn -0.5691 -0.8102 -0.1404
vn -0.8493 0.5096 -0.1380
vn -0.5270 -0.8499 -0.0043
vn -0.8349 0.5399 -0.1073
vn -0.9583 -0.2539 -0.1312
vn -0.5990 0.8007 -0.0099
vn -0.9753 -0.1203 0.1852
vn -0.6919 0.4095 0.5946
vn -0.6137 -0.4401 0.6555
vn -0.9325 0.2610 0.2496
vn -0.9765 0.0435 0.2111
vn -0.9794 -0.0181 0.2012
vn -0.9529 0.0894 0.2898
vn -0.9420 -0.1077 0.3179
vn -0.9458 0.0498 -0.3210
vn 0.1191 -0.0163 -0.9927
vn -0.8853 -0.0532 -0.4619
vn -0.8832 0.0452 -0.4669
vn -0.8575 -0.4126 0.3074
vn -0.8466 0.1691 0.5046
vn -0.1905 -0.9434 0.2715
vn -0.5243 0.5698 0.6328
vn 0.9056 -0.4126 0.0983
vn 0.9414 0.1615 0.2962
vn 0.2487 -0.9434 0.2194
vn 0.6577 0.5698 0.4927
vn 0.9073 -0.3097 0.2845
vn 0.8359 -0.1157 0.5365
vn -0.7334 -0.0929 0.6734
vn -0.7159 -0.3304 0.6151
vn -0.5526 -0.1386 0.8218
vn -0.9893 0.1456 -0.0032
vn -0.9964 0.0000 0.0843
vn -0.9858 0.1411 0.0906
vn -0.9898 -0.1417 -0.0112
vn 0.2729 -0.9619 0.0185
vn -0.2595 -0.9621 0.0835
vn -0.2997 0.1122 0.9474
vn 0.5075 0.1308 0.8517
vn 0.5110 0.8241 0.2443
vn -0.1659 0.9669 0.1937
vn 0.6645 -0.5956 0.4514
vn -0.5358 -0.5987 0.5954
vn 0.2066 0.9661 0.1545
vn -0.4521 0.8205 0.3497
vn 0.9303 0.3294 -0.1613
vn 0.9365 -0.3250 0.1319
vn 0.6700 -0.0549 0.7403
vn 0.6639 0.5995 0.4471
vn 0.7958 0.5999 0.0822
vn 0.9886 -0.0537 -0.1407
vn 0.8045 -0.3254 0.4968
vn 0.6118 0.3283 0.7197
vn 0.8844 0.2789 0.3742
vn 0.9190 0.2791 0.2786
vn 0.9695 0.1078 0.2202
vn 0.9213 0.0366 0.3872
vn 0.8708 0.2079 0.4456
vn 0.9542 0.2082 0.2148
vn 0.9558 0.0367 0.2916
vn 0.8860 0.1075 0.4510
vn 0.3716 -0.3767 -0.8485
vn 0.0086 -0.9125 0.4089
vn -0.3716 0.3767 0.8486
vn 0.2566 0.3789 -0.8891
vn 0.2689 -0.9116 -0.3109
vn -0.2566 -0.3789 0.8891
vn -0.2688 0.9116 0.3109
vn -0.0086 0.9125 -0.4089
vn -0.9422 0.3294 0.0607
vn -0.8797 -0.3250 0.3472
vn -0.4783 -0.0549 0.8765
vn -0.5409 0.5995 0.5900
vn -0.7545 0.5999 0.2660
vn -0.9941 -0.0537 0.0943
vn -0.6661 -0.3254 0.6712
vn -0.4265 0.3283 0.8428
vn -0.7724 0.2789 0.5706
vn -0.8284 0.2791 0.4857
vn -0.8911 0.1078 0.4408
vn -0.8052 0.0366 0.5919
vn -0.7424 0.2079 0.6369
vn -0.8775 0.2082 0.4320
vn -0.8611 0.0367 0.5070
vn -0.7560 0.1075 0.6457
vn -0.5597 -0.3767 -0.7381
vn 0.0872 -0.9125 0.3996
vn 0.5597 0.3767 0.7381
vn -0.4575 0.3789 -0.8045
vn -0.3341 -0.9116 -0.2394
vn 0.4575 -0.3789 0.8045
vn 0.3341 0.9116 0.2394
vn -0.0873 0.9125 -0.3996
vn 0.4638 0.8745 0.1420
vn 0.9799 0.1911 0.0574
vn 0.9047 -0.4012 0.1436
vn 0.6812 -0.7273 0.0840
vn 0.6199 0.5281 0.5803
vn 0.6729 -0.7315 0.1103
vn 0.9716 -0.2276 -0.0649
vn 0.9204 -0.3791 0.0953
vn 0.6817 -0.7276 -0.0770
vn 0.8412 -0.5306 -0.1040
vn 0.8882 0.4374 -0.1408
vn 0.5675 0.8182 -0.0918
vn 0.4504 -0.8732 -0.1861
vn 0.9417 -0.3019 -0.1487
vn 0.8683 0.4333 -0.2416
vn 0.5087 0.8123 -0.2853
vn 0.9307 -0.2351 -0.2802
vn 0.5877 0.7322 -0.3442
vn 0.5655 -0.8065 -0.1724
vn 0.7441 0.5713 -0.3465
vn 0.9632 -0.2555 -0.0837
vn 0.6007 0.7906 -0.1188
vn 0.5703 -0.8135 -0.1141
vn 0.8515 0.5146 -0.1002
vn 0.8326 -0.5495 0.0696
vn 0.8386 0.5398 -0.0733
vn 0.9929 -0.1044 -0.0577
vn 0.5988 0.8008 0.0145
vn 0.9821 -0.0183 -0.1874
vn 0.8223 0.4695 0.3217
vn 0.9941 -0.1073 -0.0172
vn 0.9580 0.2416 -0.1546
vn 0.9795 0.0435 -0.1969
vn 0.9816 -0.0128 -0.1903
vn 0.9893 0.0894 -0.1153
vn 0.9945 -0.0757 -0.0725
vn -0.5061 -0.0163 -0.8623
vn 0.6229 0.0452 -0.7810
vn -0.5106 0.7881 0.3437
vn -0.9114 0.1875 0.3663
vn -0.8104 -0.4123 0.4163
vn -0.6154 -0.7311 0.2947
vn -0.2530 0.6704 0.6975
vn -0.4384 -0.8829 0.1685
vn -0.8909 -0.1350 0.4337
vn -0.8817 -0.3559 0.3099
vn -0.3343 -0.9333 -0.1309
vn -0.8446 -0.5342 0.0348
vn -0.8990 0.4377 0.0143
vn -0.5515 0.8341 -0.0047
vn -0.4599 -0.8727 -0.1640
vn -0.9484 -0.3018 -0.0974
vn -0.7745 0.5865 -0.2372
vn -0.5240 0.8134 -0.2525
vn -0.9428 -0.2411 -0.2300
vn -0.5951 0.7406 -0.3120
vn -0.5689 -0.8098 -0.1436
vn -0.8281 0.4863 -0.2788
vn -0.9586 -0.2542 -0.1281
vn -0.5953 0.7902 -0.1457
vn -0.5248 -0.8417 -0.1266
vn -0.8317 0.5361 -0.1444
vn -0.8348 -0.5495 0.0349
vn -0.9650 0.2519 -0.0726
vn -0.9897 -0.1044 -0.0982
vn -0.8780 0.4780 0.0245
vn -0.9724 -0.0184 0.2328
vn -0.9304 0.0894 0.3555
vn -0.9122 -0.1072 0.3954
vn -0.9659 0.0438 0.2553
vn -0.9718 0.0306 0.2339
vn -0.9759 -0.0128 0.2180
vn -0.9510 0.0628 0.3027
vn -0.9405 -0.0757 0.3311
vn -0.9426 -0.0572 -0.3291
vn 0.1213 0.0111 -0.9926
vn -0.8681 -0.4068 0.2846
vn -0.8930 -0.1327 0.4301
vn -0.4386 -0.8829 0.1679
vn -0.4670 0.5265 0.7104
vn 0.9105 -0.4068 0.0737
vn 0.9666 -0.1368 0.2165
vn 0.4657 -0.8829 0.0606
vn 0.6202 0.5265 0.5815
vn 0.9421 -0.0709 0.3278
vn 0.7787 -0.3645 0.5107
vn -0.5074 -0.3859 0.7705
vn -0.9996 0.0000 0.0277
vn -0.9889 0.1354 0.0609
vn -0.9762 -0.1245 0.1773
vn -0.9891 0.1470 0.0056
vn -0.3716 0.3767 0.8485
vn 0.2567 0.3789 -0.8891
vn 0.2688 -0.9116 -0.3109
vn -0.2567 -0.3789 0.8891
vn 0.0873 -0.9125 0.3996
vn -0.4575 0.3789 -0.8044
vn -0.0872 0.9125 -0.3996
usemtl BodyTop.001
s off
f 46//1 1//1 47//1
f 1//2 5//2 3//2
usemtl BodyBottom.001
f 3//3 6//3 2//3
f 2//4 51//4 52//4
usemtl BodyTop.001
f 84//5 4//5 46//5
usemtl BodyBottom.001
f 85//6 6//6 87//6
usemtl BodyTop.001
f 86//7 9//7 88//7
usemtl BodyBottom.001
f 6//8 88//8 87//8
f 12//9 52//9 53//9
f 2//10 11//10 3//10
usemtl BodyTop.001
f 3//11 10//11 1//11
f 47//12 10//12 48//12
usemtl BodyBottom.001
f 53//13 15//13 12//13
f 12//14 14//14 11//14
usemtl BodyTop.001
f 10//15 14//15 13//15
f 10//16 49//16 48//16
usemtl BodyBottom.001
f 15//17 18//17 14//17
usemtl BodyTop.001
f 13//18 59//18 49//18
usemtl BodyBottom.001
f 54//19 19//19 15//19
usemtl BodyTop.001
f 13//20 18//20 17//20
usemtl BodyBottom.001
f 19//21 21//21 18//21
usemtl BodyTop.001
f 17//22 64//22 59//22
usemtl BodyBottom.001
f 19//23 65//23 22//23
usemtl BodyTop.001
f 17//24 21//24 20//24
usemtl BodyBottom.001
f 65//25 25//25 22//25
usemtl BodyTop.001
f 20//26 24//26 23//26
usemtl BodyBottom.001
f 22//27 24//27 21//27
usemtl BodyTop.001
f 64//28 23//28 69//28
usemtl BodyBottom.001
f 25//29 27//29 24//29
usemtl BodyTop.001
f 69//30 26//30 74//30
usemtl BodyBottom.001
f 70//31 28//31 25//31
usemtl BodyTop.001
f 23//32 27//32 26//32
f 26//33 30//33 29//33
usemtl BodyBottom.001
f 28//34 30//34 27//34
usemtl BodyTop.001
f 74//35 29//35 79//35
usemtl BodyBottom.001
f 75//36 31//36 28//36
usemtl BodyTop.001
f 29//37 81//37 79//37
f 29//38 82//38 81//38
usemtl BodyBottom.001
f 31//39 80//39 83//39
f 31//40 82//40 30//40
usemtl BodyTop.001
f 46//41 32//41 35//41
f 36//42 32//42 34//42
usemtl BodyBottom.001
f 37//43 34//43 33//43
f 51//44 33//44 52//44
usemtl BodyTop.001
f 84//45 35//45 89//45
usemtl BodyBottom.001
f 85//46 37//46 51//46
usemtl BodyTop.001
f 89//47 39//47 38//47
usemtl BodyBottom.001
f 91//48 37//48 90//48
f 42//49 52//49 33//49
f 41//50 33//50 34//50
usemtl BodyTop.001
f 40//51 34//51 32//51
f 47//52 40//52 32//52
usemtl BodyBottom.001
f 45//53 53//53 42//53
f 44//54 42//54 41//54
usemtl BodyTop.001
f 40//55 44//55 41//55
f 49//56 40//56 48//56
usemtl BodyBottom.001
f 57//57 45//57 44//57
usemtl BodyTop.001
f 59//58 43//58 49//58
usemtl BodyBottom.001
f 58//59 54//59 45//59
usemtl BodyTop.001
f 43//60 57//60 44//60
usemtl BodyBottom.001
f 62//61 58//61 57//61
usemtl BodyTop.001
f 64//62 56//62 59//62
usemtl BodyBottom.001
f 58//63 65//63 60//63
usemtl BodyTop.001
f 56//64 62//64 57//64
usemtl BodyBottom.001
f 68//65 65//65 63//65
usemtl BodyTop.001
f 61//66 67//66 62//66
usemtl BodyBottom.001
f 67//67 63//67 62//67
usemtl BodyTop.001
f 64//68 66//68 61//68
usemtl BodyBottom.001
f 72//69 68//69 67//69
usemtl BodyTop.001
f 69//70 71//70 66//70
usemtl BodyBottom.001
f 73//71 70//71 68//71
usemtl BodyTop.001
f 66//72 72//72 67//72
f 71//73 77//73 72//73
usemtl BodyBottom.001
f 77//74 73//74 72//74
usemtl BodyTop.001
f 74//75 76//75 71//75
usemtl BodyBottom.001
f 78//76 75//76 73//76
usemtl BodyTop.001
f 76//77 79//77 81//77
f 76//78 82//78 77//78
usemtl BodyBottom.001
f 78//79 83//79 80//79
f 78//80 82//80 83//80
f 39//81 90//81 16//81
usemtl BodyTop.001
f 36//82 89//82 35//82
usemtl BodyBottom.001
f 16//83 85//83 55//83
usemtl BodyTop.001
f 84//84 38//84 50//84
usemtl BodyBottom.001
f 87//85 9//85 8//85
usemtl BodyTop.001
f 86//86 5//86 4//86
usemtl BodyBottom.001
f 85//87 8//87 55//87
usemtl BodyTop.001
f 7//88 84//88 50//88
usemtl Fin.001
f 100//89 95//89 99//89
f 94//89 100//89 98//89
f 92//90 100//90 96//90
f 100//90 93//90 96//90
f 109//91 104//91 106//91
f 109//92 103//92 107//92
f 101//93 109//93 107//93
f 102//93 109//93 105//93
f 112//94 119//94 114//94
f 110//95 117//95 111//95
f 116//96 118//96 117//96
f 114//97 118//97 115//97
usemtl Mouth.001
f 38//98 120//98 50//98
f 120//99 7//99 50//99
f 120//100 121//100 9//100
f 39//101 121//101 120//101
f 16//102 121//102 39//102
f 8//103 121//103 55//103
f 38//104 39//104 120//104
f 120//105 9//105 7//105
f 16//106 55//106 121//106
f 8//107 9//107 121//107
usemtl Eye.001
f 129//108 136//108 128//108
f 135//109 126//109 127//109
f 125//110 132//110 124//110
f 131//111 122//111 123//111
f 122//112 137//112 129//112
f 136//113 127//113 128//113
f 126//114 133//114 125//114
f 124//115 131//115 123//115
usemtl Pupil.001
f 131//116 138//116 130//116
f 130//117 138//117 137//117
f 136//118 138//118 135//118
f 134//119 138//119 133//119
f 132//120 138//120 131//120
f 137//121 138//121 136//121
f 135//122 138//122 134//122
f 133//123 138//123 132//123
usemtl Eye.001
f 127//124 145//124 128//124
f 142//125 126//125 125//125
f 123//126 141//126 124//126
f 145//127 129//127 128//127
f 143//128 127//128 126//128
f 141//129 125//129 124//129
f 139//130 123//130 122//130
f 129//131 139//131 122//131
f 153//132 162//132 154//132
f 151//133 160//133 152//133
f 149//134 158//134 150//134
f 147//135 156//135 148//135
f 154//136 155//136 147//136
f 153//137 160//137 161//137
f 151//138 158//138 159//138
f 149//139 156//139 157//139
usemtl Pupil.001
f 156//140 155//140 163//140
f 155//141 162//141 163//141
f 161//142 160//142 163//142
f 159//143 158//143 163//143
f 157//144 156//144 163//144
f 162//145 161//145 163//145
f 160//146 159//146 163//146
f 158//147 157//147 163//147
usemtl Eye.001
f 153//148 169//148 152//148
f 150//149 168//149 167//149
f 148//150 166//150 165//150
f 154//151 170//151 153//151
f 151//152 169//152 168//152
f 150//153 166//153 149//153
f 147//154 165//154 164//154
f 154//155 164//155 171//155
usemtl BodyTop.001
f 46//156 4//156 1//156
f 1//157 4//157 5//157
usemtl BodyBottom.001
f 3//158 5//158 6//158
f 2//159 6//159 51//159
usemtl BodyTop.001
f 84//160 86//160 4//160
usemtl BodyBottom.001
f 85//161 51//161 6//161
usemtl BodyTop.001
f 86//162 7//162 9//162
usemtl BodyBottom.001
f 6//163 5//163 88//163
f 12//164 2//164 52//164
f 2//165 12//165 11//165
usemtl BodyTop.001
f 3//166 11//166 10//166
f 47//167 1//167 10//167
usemtl BodyBottom.001
f 53//168 54//168 15//168
f 12//169 15//169 14//169
usemtl BodyTop.001
f 10//170 11//170 14//170
f 10//171 13//171 49//171
usemtl BodyBottom.001
f 15//172 19//172 18//172
usemtl BodyTop.001
f 13//173 17//173 59//173
usemtl BodyBottom.001
f 54//174 60//174 19//174
usemtl BodyTop.001
f 13//175 14//175 18//175
usemtl BodyBottom.001
f 19//176 22//176 21//176
usemtl BodyTop.001
f 17//177 20//177 64//177
usemtl BodyBottom.001
f 19//178 60//178 65//178
usemtl BodyTop.001
f 17//179 18//179 21//179
usemtl BodyBottom.001
f 65//180 70//180 25//180
usemtl BodyTop.001
f 20//181 21//181 24//181
usemtl BodyBottom.001
f 22//182 25//182 24//182
usemtl BodyTop.001
f 64//183 20//183 23//183
usemtl BodyBottom.001
f 25//184 28//184 27//184
usemtl BodyTop.001
f 69//185 23//185 26//185
usemtl BodyBottom.001
f 70//186 75//186 28//186
usemtl BodyTop.001
f 23//187 24//187 27//187
f 26//188 27//188 30//188
usemtl BodyBottom.001
f 28//189 31//189 30//189
usemtl BodyTop.001
f 74//190 26//190 29//190
usemtl BodyBottom.001
f 75//191 80//191 31//191
usemtl BodyTop.001
f 29//192 30//192 82//192
usemtl BodyBottom.001
f 31//193 83//193 82//193
usemtl BodyTop.001
f 46//194 47//194 32//194
f 36//195 35//195 32//195
usemtl BodyBottom.001
f 37//196 36//196 34//196
f 51//197 37//197 33//197
usemtl BodyTop.001
f 84//198 46//198 35//198
usemtl BodyBottom.001
f 85//199 90//199 37//199
usemtl BodyTop.001
f 89//200 91//200 39//200
usemtl BodyBottom.001
f 91//201 36//201 37//201
f 42//202 53//202 52//202
f 41//203 42//203 33//203
usemtl BodyTop.001
f 40//204 41//204 34//204
f 47//205 48//205 40//205
usemtl BodyBottom.001
f 45//206 54//206 53//206
f 44//207 45//207 42//207
usemtl BodyTop.001
f 40//208 43//208 44//208
f 49//209 43//209 40//209
usemtl BodyBottom.001
f 57//210 58//210 45//210
usemtl BodyTop.001
f 59//211 56//211 43//211
usemtl BodyBottom.001
f 58//212 60//212 54//212
usemtl BodyTop.001
f 43//213 56//213 57//213
usemtl BodyBottom.001
f 62//214 63//214 58//214
usemtl BodyTop.001
f 64//215 61//215 56//215
usemtl BodyBottom.001
f 58//216 63//216 65//216
usemtl BodyTop.001
f 56//217 61//217 62//217
usemtl BodyBottom.001
f 68//218 70//218 65//218
usemtl BodyTop.001
f 61//219 66//219 67//219
usemtl BodyBottom.001
f 67//220 68//220 63//220
usemtl BodyTop.001
f 64//221 69//221 66//221
usemtl BodyBottom.001
f 72//222 73//222 68//222
usemtl BodyTop.001
f 69//223 74//223 71//223
usemtl BodyBottom.001
f 73//224 75//224 70//224
usemtl BodyTop.001
f 66//225 71//225 72//225
f 71//226 76//226 77//226
usemtl BodyBottom.001
f 77//227 78//227 73//227
usemtl BodyTop.001
f 74//228 79//228 76//228
usemtl BodyBottom.001
f 78//229 80//229 75//229
usemtl BodyTop.001
f 76//230 81//230 82//230
usemtl BodyBottom.001
f 78//231 77//231 82//231
f 39//232 91//232 90//232
usemtl BodyTop.001
f 36//233 91//233 89//233
usemtl BodyBottom.001
f 16//234 90//234 85//234
usemtl BodyTop.001
f 84//235 89//235 38//235
usemtl BodyBottom.001
f 87//236 88//236 9//236
usemtl BodyTop.001
f 86//237 88//237 5//237
usemtl BodyBottom.001
f 85//238 87//238 8//238
usemtl BodyTop.001
f 7//239 86//239 84//239
usemtl Fin.001
f 100//240 97//240 95//240
f 94//241 97//241 100//241
f 92//90 98//90 100//90
f 100//90 99//90 93//90
f 109//92 108//92 104//92
f 109//242 106//242 103//242
f 101//93 105//93 109//93
f 102//93 108//93 109//93
f 112//243 113//243 119//243
f 110//244 116//244 117//244
f 116//245 115//245 118//245
f 114//246 119//246 118//246
usemtl Eye.001
f 129//108 137//108 136//108
f 135//109 134//109 126//109
f 125//110 133//110 132//110
f 131//111 130//111 122//111
f 122//112 130//112 137//112
f 136//113 135//113 127//113
f 126//114 134//114 133//114
f 124//115 132//115 131//115
f 127//124 144//124 145//124
f 142//125 143//125 126//125
f 123//247 140//247 141//247
f 145//248 146//248 129//248
f 143//249 144//249 127//249
f 141//250 142//250 125//250
f 139//130 140//130 123//130
f 129//131 146//131 139//131
f 153//132 161//132 162//132
f 151//133 159//133 160//133
f 149//134 157//134 158//134
f 147//135 155//135 156//135
f 154//136 162//136 155//136
f 153//137 152//137 160//137
f 151//138 150//138 158//138
f 149//139 148//139 156//139
f 153//148 170//148 169//148
f 150//251 151//251 168//251
f 148//150 149//150 166//150
f 154//252 171//252 170//252
f 151//152 152//152 169//152
f 150//153 167//153 166//153
f 147//154 148//154 165//154
f 154//253 147//253 164//253
