# Blender v2.79 (sub 0) OBJ File: 'Minnnow_ioexperment.blend'
# www.blender.org
mtllib Minnow_000010.mtl
v 0.275145 0.273001 0.185532
v 0.241155 -0.159074 0.124164
v 0.387339 0.067251 0.181624
v 0.102602 0.190820 0.741851
v 0.133024 0.051360 0.738035
v 0.108807 -0.094767 0.643121
v -0.029370 -0.049348 0.979138
v -0.055847 -0.089098 0.992278
v -0.027481 -0.063444 0.960440
v 0.270680 0.257610 -0.641468
v 0.370897 0.050659 -0.649865
v 0.226161 -0.177555 -0.665717
v 0.112296 0.123514 -1.241329
v 0.168686 0.051821 -1.242362
v 0.132267 -0.057767 -1.245964
v -0.105271 -0.089098 0.980935
v 0.028002 0.040249 -1.524375
v 0.045519 0.011828 -1.524101
v 0.033072 -0.032575 -1.526151
v 0.003164 0.026351 -1.655492
v 0.015648 0.007273 -1.655634
v 0.007560 -0.021889 -1.656676
v -0.019386 0.033492 -1.784752
v -0.012657 0.008464 -1.783935
v -0.017109 -0.029794 -1.785944
v -0.078810 0.187632 -1.922647
v -0.072141 0.035463 -1.923861
v -0.076988 -0.197136 -1.924460
v -0.109500 0.265364 -1.994314
v -0.102831 0.048424 -1.995527
v -0.107678 -0.283182 -1.996126
v -0.176190 0.273001 0.153820
v -0.133991 -0.159074 0.097955
v -0.286735 0.067251 0.134282
v -0.128786 0.190820 0.704686
v -0.156483 0.051360 0.691536
v -0.103763 -0.094767 0.608979
v -0.123369 -0.049348 0.957564
v -0.116916 -0.063444 0.939914
v -0.105359 0.257610 -0.631195
v -0.205885 0.050659 -0.634107
v -0.062230 -0.177555 -0.657838
v -0.061490 0.123514 -1.224752
v -0.117059 0.051821 -1.215106
v -0.081977 -0.057767 -1.225527
v -0.013631 0.248875 0.726621
v 0.049684 0.431722 0.166745
v 0.082004 0.380931 -0.660364
v 0.025053 0.177768 -1.236709
v -0.084251 -0.034019 1.002691
v 0.013817 -0.210664 0.555732
v 0.061623 -0.337665 -0.003239
v 0.081013 -0.222210 -0.698473
v 0.024774 -0.113104 -1.239635
v -0.081079 -0.094433 0.988872
v -0.032367 0.040249 -1.518352
v -0.049484 0.011828 -1.514622
v -0.037688 -0.032575 -1.519091
v -0.002353 0.063840 -1.523069
v -0.002326 -0.057490 -1.522796
v -0.035219 0.026351 -1.651494
v -0.047464 0.007273 -1.649061
v -0.039759 -0.021889 -1.651749
v -0.016128 0.040788 -1.654468
v -0.016198 -0.036614 -1.655247
v -0.039791 0.033492 -1.782627
v -0.046207 0.008464 -1.780441
v -0.042264 -0.029794 -1.783324
v -0.029722 0.052433 -1.784969
v -0.029828 -0.049113 -1.785990
v -0.097669 0.187632 -1.914572
v -0.103149 0.035463 -1.910582
v -0.100238 -0.197136 -1.914504
v -0.088746 0.302787 -1.919792
v -0.089150 -0.314588 -1.920735
v -0.128359 0.265364 -1.986238
v -0.133839 0.048424 -1.982249
v -0.130927 -0.283182 -1.986170
v -0.119436 0.429535 -1.991459
v -0.119840 -0.450629 -1.992402
v -0.125713 0.266998 -2.006118
v -0.116088 0.047052 -1.983641
v -0.125341 -0.284283 -2.005249
v -0.076149 0.002003 0.967392
v -0.068442 -0.109233 0.933810
v -0.013588 -0.018766 0.949759
v -0.035070 -0.089820 0.948710
v -0.008035 -0.048825 0.933214
v -0.124761 -0.018766 0.924244
v -0.104972 -0.089820 0.932667
v -0.122544 -0.048825 0.906933
v 0.195175 -0.047550 0.398406
v 0.250346 0.023361 0.371946
v 0.249881 -0.184546 0.255920
v 0.346893 -0.059857 0.209394
v 0.222760 -0.012095 0.385176
v 0.317870 -0.149897 0.219882
v 0.235155 -0.129458 0.332085
v 0.312615 -0.029898 0.294936
v 0.273885 -0.079678 0.313510
v -0.142119 -0.048871 0.364365
v -0.187335 0.024602 0.327903
v -0.241324 -0.198762 0.265603
v -0.320831 -0.069568 0.201488
v -0.164727 -0.012135 0.346134
v -0.306862 -0.159309 0.229966
v -0.205605 -0.132963 0.324317
v -0.269089 -0.029806 0.273123
v -0.237347 -0.081384 0.298720
v 0.057124 0.436122 -0.001573
v 0.055719 0.416399 0.032881
v 0.043678 0.274162 -1.041460
v 0.038599 0.222699 -1.094703
v 0.077367 0.394554 -0.793590
v 0.077326 0.450024 -0.534639
v 0.078099 0.464016 -0.270598
v 0.067544 0.393161 -0.257204
v 0.088060 0.379138 -0.528923
v 0.068429 0.328875 -0.781982
v -0.067098 -0.038183 0.926742
v -0.067451 -0.083997 0.932973
v 0.065141 0.104667 0.805827
v 0.048572 0.093067 0.828808
v 0.044603 0.065129 0.840683
v 0.055559 0.037220 0.834495
v 0.075022 0.025687 0.813869
v 0.091591 0.037287 0.790887
v 0.095560 0.065225 0.779012
v 0.084604 0.093134 0.785200
v 0.076321 0.085916 0.815036
v 0.068376 0.080353 0.826057
v 0.066472 0.066956 0.831751
v 0.071726 0.053572 0.828784
v 0.081060 0.048041 0.818892
v 0.089006 0.053604 0.807871
v 0.090909 0.067002 0.802176
v 0.085655 0.080386 0.805144
v 0.080498 0.067357 0.818458
v 0.062530 0.104120 0.803668
v 0.045961 0.092520 0.826650
v 0.041992 0.064583 0.838525
v 0.052948 0.036673 0.832337
v 0.072411 0.025141 0.811710
v 0.088980 0.036741 0.788728
v 0.092949 0.064678 0.776854
v 0.081993 0.092588 0.783042
v -0.132849 0.104667 0.760386
v -0.127959 0.093067 0.788293
v -0.129566 0.065129 0.800710
v -0.136727 0.037220 0.790364
v -0.145248 0.025687 0.763315
v -0.150137 0.037287 0.735408
v -0.148531 0.065225 0.722991
v -0.141370 0.093134 0.733337
v -0.146926 0.085916 0.763798
v -0.144581 0.080353 0.777181
v -0.145351 0.066956 0.783136
v -0.148786 0.053572 0.778174
v -0.152872 0.048041 0.765202
v -0.155217 0.053604 0.751820
v -0.154447 0.067002 0.745865
v -0.151012 0.080386 0.750826
v -0.152177 0.067357 0.765057
v -0.129558 0.104120 0.759582
v -0.124669 0.092520 0.787489
v -0.126275 0.064583 0.799906
v -0.133436 0.036673 0.789560
v -0.141957 0.025141 0.762511
v -0.146847 0.036741 0.734604
v -0.145240 0.064678 0.722187
v -0.138079 0.092588 0.732533
vn 0.5282 0.7878 0.3170
vn 0.8136 0.4363 0.3843
vn 0.7766 -0.5698 0.2687
vn 0.6020 -0.7660 0.2255
vn 0.2293 0.6492 0.7252
vn 0.4191 -0.8829 0.2116
vn 0.8392 -0.1350 0.5269
vn 0.8282 -0.3963 0.3963
vn 0.3209 -0.9357 -0.1464
vn 0.8407 -0.5415 -0.0058
vn 0.8778 0.4789 -0.0137
vn 0.5490 0.8353 -0.0298
vn 0.3348 -0.9106 -0.2422
vn 0.8193 -0.5001 -0.2806
vn 0.7405 0.5872 -0.3268
vn 0.5398 0.7758 -0.3268
vn 0.8924 -0.2851 -0.3497
vn 0.4779 0.7995 -0.3638
vn 0.4344 -0.8703 -0.2320
vn 0.7900 0.4832 -0.3774
vn 0.9447 -0.2553 -0.2057
vn 0.5960 0.7779 -0.1990
vn 0.5119 -0.8423 -0.1690
vn 0.8171 0.5362 -0.2116
vn 0.5241 -0.8503 -0.0480
vn 0.9556 0.2519 -0.1528
vn 0.9439 -0.2543 -0.2106
vn 0.8770 0.4780 -0.0487
vn 0.9110 -0.0848 -0.4036
vn 0.9627 0.0894 -0.2555
vn 0.7988 -0.5266 0.2909
vn 0.9343 0.0438 -0.3537
vn 0.9304 0.0306 -0.3652
vn 0.9179 -0.0181 -0.3964
vn 0.9528 0.0628 -0.2969
vn 0.9541 -0.1077 -0.2793
vn 0.5911 0.0498 -0.8050
vn 0.5838 -0.0572 -0.8099
vn 0.4609 -0.0532 -0.8859
vn -0.6682 0.0111 -0.7439
vn -0.4692 0.8666 0.1697
vn -0.8686 0.4462 0.2157
vn -0.8139 -0.5685 0.1197
vn -0.6351 -0.7632 0.1191
vn -0.6795 0.5244 0.5131
vn -0.6914 -0.7212 0.0431
vn -0.9590 -0.2276 -0.1689
vn -0.9197 -0.3926 0.0026
vn -0.6868 -0.7253 -0.0475
vn -0.8321 -0.5494 -0.0757
vn -0.8740 0.4779 -0.0882
vn -0.5710 0.8181 -0.0676
vn -0.3395 -0.9227 -0.1829
vn -0.8451 -0.5184 -0.1302
vn -0.8905 0.4345 -0.1353
vn -0.5599 0.7972 -0.2257
vn -0.9425 -0.2851 -0.1746
vn -0.5381 0.7996 -0.2666
vn -0.4704 -0.8703 -0.1457
vn -0.7809 0.5713 -0.2525
vn -0.9666 -0.2562 -0.0058
vn -0.6233 0.7787 -0.0713
vn -0.5794 -0.8123 -0.0673
vn -0.8580 0.5128 -0.0303
vn -0.5225 -0.8505 0.0610
vn -0.8418 0.5399 -0.0032
vn -0.9670 -0.2544 -0.0116
vn -0.5955 0.8007 0.0644
vn -0.9183 -0.1230 0.3763
vn -0.5771 0.3952 0.7147
vn -0.4949 -0.4234 0.7588
vn -0.8639 0.2592 0.4318
vn -0.9155 0.0435 0.3999
vn -0.9203 -0.0181 0.3908
vn -0.8768 0.0894 0.4724
vn -0.8606 -0.1077 0.4978
vn -0.9906 0.0498 -0.1277
vn -0.0794 -0.0163 -0.9967
vn -0.9592 -0.0532 -0.2778
vn -0.9580 0.0452 -0.2831
vn -0.9109 -0.4126 0.0005
vn -0.9672 0.1747 0.1845
vn -0.2708 -0.9434 0.1914
vn -0.7068 0.5698 0.4192
vn 0.8195 -0.4126 0.3977
vn 0.7873 0.1554 0.5967
vn 0.1603 -0.9434 0.2904
vn 0.4533 0.5698 0.6855
vn 0.7753 -0.4310 0.4616
vn 0.6609 -0.2502 0.7075
vn -0.7501 0.0911 0.6551
vn -0.7589 -0.1529 0.6330
vn -0.5781 0.0485 0.8145
vn -0.9873 0.1456 0.0635
vn -0.9992 -0.0000 -0.0407
vn -0.9879 0.1318 -0.0814
vn -0.9886 -0.1472 0.0314
vn 0.2507 -0.9619 0.1094
vn -0.2725 -0.9621 -0.0088
vn -0.6013 0.1122 0.7911
vn 0.1909 0.1308 0.9729
vn 0.3989 0.8241 0.4022
vn -0.2215 0.9669 0.1265
vn 0.4736 -0.5956 0.6488
vn -0.7051 -0.5987 0.3801
vn 0.1425 0.9661 0.2151
vn -0.5435 0.8205 0.1769
vn 0.9303 0.3294 0.1615
vn 0.8373 -0.3250 0.4397
vn 0.3815 -0.0549 0.9228
vn 0.4744 0.5995 0.6446
vn 0.7216 0.5999 0.3455
vn 0.9782 -0.0537 0.2005
vn 0.5901 -0.3254 0.7388
vn 0.3335 0.3283 0.8837
vn 0.7067 0.2789 0.6503
vn 0.7714 0.2791 0.5719
vn 0.8386 0.1078 0.5339
vn 0.7370 0.0366 0.6749
vn 0.6697 0.2079 0.7129
vn 0.8261 0.2082 0.5237
vn 0.8017 0.0367 0.5966
vn 0.6823 0.1075 0.7231
vn 0.6357 -0.3767 -0.6737
vn -0.1296 -0.9125 0.3879
vn -0.6357 0.3767 0.6737
vn 0.5412 0.3789 -0.7507
vn 0.3579 -0.9116 -0.2021
vn -0.5412 -0.3789 0.7507
vn -0.3579 0.9116 0.2021
vn 0.1296 0.9125 -0.3879
vn -0.9076 0.3294 -0.2603
vn -0.9452 -0.3250 0.0305
vn -0.7457 -0.0549 0.6641
vn -0.7080 0.5995 0.3732
vn -0.8000 0.5999 -0.0038
vn -0.9678 -0.0537 -0.2461
vn -0.8532 -0.3254 0.4075
vn -0.6855 0.3283 0.6499
vn -0.9195 0.2789 0.2771
vn -0.9436 0.2791 0.1783
vn -0.9875 0.1078 0.1148
vn -0.9575 0.0366 0.2860
vn -0.9136 0.2079 0.3495
vn -0.9718 0.2082 0.1111
vn -0.9816 0.0367 0.1873
vn -0.9293 0.1075 0.3532
vn -0.2783 -0.3767 -0.8835
vn -0.0525 -0.9125 0.4056
vn 0.2784 0.3767 0.8835
vn -0.1597 0.3789 -0.9116
vn -0.2339 -0.9116 -0.3380
vn 0.1597 -0.3789 0.9116
vn 0.2339 0.9116 0.3380
vn 0.0525 0.9125 -0.4056
vn 0.4050 0.8779 0.2553
vn 0.9285 0.1939 0.3166
vn 0.8441 -0.3834 0.3749
vn 0.6454 -0.7204 0.2539
vn 0.3886 0.5314 0.7528
vn 0.5954 -0.7341 0.3265
vn 0.9367 -0.2276 0.2662
vn 0.8289 -0.3948 0.3964
vn 0.7041 -0.7101 0.0032
vn 0.8446 -0.5354 -0.0035
vn 0.8993 0.4366 -0.0265
vn 0.5766 0.8168 -0.0183
vn 0.4360 -0.8723 -0.2212
vn 0.9293 -0.3019 -0.2127
vn 0.8563 0.4265 -0.2914
vn 0.4899 0.8143 -0.3114
vn 0.9084 -0.2388 -0.3431
vn 0.5566 0.7374 -0.3827
vn 0.5491 -0.8086 -0.2114
vn 0.7191 0.5713 -0.3955
vn 0.9449 -0.2547 -0.2055
vn 0.5812 0.7904 -0.1939
vn 0.5537 -0.8117 -0.1859
vn 0.8337 0.5119 -0.2071
vn 0.8348 -0.5495 -0.0345
vn 0.8230 0.5399 -0.1766
vn 0.9781 -0.1044 -0.1803
vn 0.5960 0.8007 -0.0597
vn 0.9256 -0.0183 -0.3780
vn 0.8662 0.4744 0.1571
vn 0.9705 -0.1073 -0.2158
vn 0.9103 0.2336 -0.3419
vn 0.9212 0.0435 -0.3866
vn 0.9247 -0.0128 -0.3806
vn 0.9470 0.0894 -0.3086
vn 0.9605 -0.0757 -0.2676
vn -0.6665 -0.0163 -0.7453
vn 0.4562 0.0452 -0.8887
vn -0.5713 0.7971 0.1957
vn -0.9767 0.1835 0.1114
vn -0.8826 -0.4281 0.1941
vn -0.6649 -0.7352 0.1318
vn -0.4524 0.6788 0.5785
vn -0.4695 -0.8828 0.0117
vn -0.9849 -0.1350 0.1082
vn -0.9420 -0.3355 -0.0076
vn -0.3356 -0.9277 -0.1634
vn -0.8475 -0.5265 -0.0676
vn -0.8941 0.4358 -0.1035
vn -0.5562 0.8279 -0.0726
vn -0.4697 -0.8736 -0.1273
vn -0.9528 -0.3021 -0.0306
vn -0.7882 0.5853 -0.1905
vn -0.5397 0.8117 -0.2233
vn -0.9573 -0.2377 -0.1648
vn -0.6209 0.7359 -0.2703
vn -0.5801 -0.8080 -0.1032
vn -0.8480 0.4818 -0.2208
vn -0.9669 -0.2550 -0.0054
vn -0.6086 0.7904 -0.0695
vn -0.5354 -0.8425 -0.0595
vn -0.8432 0.5363 -0.0379
vn -0.8239 -0.5495 0.1384
vn -0.9666 0.2519 0.0474
vn -0.9942 -0.1044 0.0252
vn -0.8682 0.4780 0.1331
vn -0.9056 -0.0185 0.4238
vn -0.8408 0.0894 0.5340
vn -0.8148 -0.1071 0.5698
vn -0.8950 0.0439 0.4439
vn -0.9064 0.0306 0.4214
vn -0.9135 -0.0128 0.4066
vn -0.8724 0.0628 0.4847
vn -0.8565 -0.0757 0.5105
vn -0.9890 -0.0572 -0.1363
vn -0.0773 0.0111 -0.9969
vn -0.9132 -0.4068 -0.0245
vn -0.9871 -0.1281 0.0960
vn -0.4695 -0.8829 0.0103
vn -0.6790 0.5265 0.5116
vn 0.8325 -0.4068 0.3762
vn 0.8351 -0.1387 0.5323
vn 0.4180 -0.8829 0.2140
vn 0.3880 0.5265 0.7565
vn 0.8196 -0.2017 0.5363
vn 0.5898 -0.4883 0.6433
vn -0.5607 -0.2072 0.8017
vn -0.9955 0.0000 0.0950
vn -0.9888 0.1354 -0.0631
vn -0.9888 -0.1489 0.0108
vn -0.9885 0.1431 0.0483
vn 0.6358 -0.3767 -0.6737
vn -0.1297 -0.9125 0.3879
vn -0.6358 0.3767 0.6737
vn 0.1297 0.9125 -0.3879
vn -0.6855 0.3282 0.6499
vn -0.0524 -0.9125 0.4056
vn 0.2783 0.3767 0.8835
vn 0.1597 -0.3789 0.9115
vn 0.2339 0.9116 0.3379
usemtl BodyTop.001
s off
f 46//1 1//1 47//1
f 1//2 5//2 3//2
usemtl BodyBottom.001
f 3//3 6//3 2//3
f 2//4 51//4 52//4
usemtl BodyTop.001
f 84//5 4//5 46//5
usemtl BodyBottom.001
f 85//6 6//6 87//6
usemtl BodyTop.001
f 86//7 9//7 88//7
usemtl BodyBottom.001
f 6//8 88//8 87//8
f 12//9 52//9 53//9
f 2//10 11//10 3//10
usemtl BodyTop.001
f 3//11 10//11 1//11
f 47//12 10//12 48//12
usemtl BodyBottom.001
f 53//13 15//13 12//13
f 12//14 14//14 11//14
usemtl BodyTop.001
f 10//15 14//15 13//15
f 10//16 49//16 48//16
usemtl BodyBottom.001
f 15//17 18//17 14//17
usemtl BodyTop.001
f 13//18 59//18 49//18
usemtl BodyBottom.001
f 54//19 19//19 15//19
usemtl BodyTop.001
f 13//20 18//20 17//20
usemtl BodyBottom.001
f 19//21 21//21 18//21
usemtl BodyTop.001
f 17//22 64//22 59//22
usemtl BodyBottom.001
f 19//23 65//23 22//23
usemtl BodyTop.001
f 17//24 21//24 20//24
usemtl BodyBottom.001
f 65//25 25//25 22//25
usemtl BodyTop.001
f 20//26 24//26 23//26
usemtl BodyBottom.001
f 22//27 24//27 21//27
usemtl BodyTop.001
f 64//28 23//28 69//28
usemtl BodyBottom.001
f 25//29 27//29 24//29
usemtl BodyTop.001
f 69//30 26//30 74//30
usemtl BodyBottom.001
f 70//31 28//31 25//31
usemtl BodyTop.001
f 23//32 27//32 26//32
f 26//33 30//33 29//33
usemtl BodyBottom.001
f 28//34 30//34 27//34
usemtl BodyTop.001
f 74//35 29//35 79//35
usemtl BodyBottom.001
f 75//36 31//36 28//36
usemtl BodyTop.001
f 29//37 81//37 79//37
f 29//38 82//38 81//38
usemtl BodyBottom.001
f 31//39 80//39 83//39
f 31//40 82//40 30//40
usemtl BodyTop.001
f 46//41 32//41 35//41
f 36//42 32//42 34//42
usemtl BodyBottom.001
f 37//43 34//43 33//43
f 51//44 33//44 52//44
usemtl BodyTop.001
f 84//45 35//45 89//45
usemtl BodyBottom.001
f 85//46 37//46 51//46
usemtl BodyTop.001
f 89//47 39//47 38//47
usemtl BodyBottom.001
f 91//48 37//48 90//48
f 42//49 52//49 33//49
f 41//50 33//50 34//50
usemtl BodyTop.001
f 40//51 34//51 32//51
f 47//52 40//52 32//52
usemtl BodyBottom.001
f 45//53 53//53 42//53
f 44//54 42//54 41//54
usemtl BodyTop.001
f 40//55 44//55 41//55
f 49//56 40//56 48//56
usemtl BodyBottom.001
f 57//57 45//57 44//57
usemtl BodyTop.001
f 59//58 43//58 49//58
usemtl BodyBottom.001
f 58//59 54//59 45//59
usemtl BodyTop.001
f 43//60 57//60 44//60
usemtl BodyBottom.001
f 62//61 58//61 57//61
usemtl BodyTop.001
f 64//62 56//62 59//62
usemtl BodyBottom.001
f 58//63 65//63 60//63
usemtl BodyTop.001
f 56//64 62//64 57//64
usemtl BodyBottom.001
f 68//65 65//65 63//65
usemtl BodyTop.001
f 61//66 67//66 62//66
usemtl BodyBottom.001
f 67//67 63//67 62//67
usemtl BodyTop.001
f 64//68 66//68 61//68
usemtl BodyBottom.001
f 72//69 68//69 67//69
usemtl BodyTop.001
f 69//70 71//70 66//70
usemtl BodyBottom.001
f 73//71 70//71 68//71
usemtl BodyTop.001
f 66//72 72//72 67//72
f 71//73 77//73 72//73
usemtl BodyBottom.001
f 77//74 73//74 72//74
usemtl BodyTop.001
f 74//75 76//75 71//75
usemtl BodyBottom.001
f 78//76 75//76 73//76
usemtl BodyTop.001
f 76//77 79//77 81//77
f 76//78 82//78 77//78
usemtl BodyBottom.001
f 78//79 83//79 80//79
f 78//80 82//80 83//80
f 39//81 90//81 16//81
usemtl BodyTop.001
f 36//82 89//82 35//82
usemtl BodyBottom.001
f 16//83 85//83 55//83
usemtl BodyTop.001
f 84//84 38//84 50//84
usemtl BodyBottom.001
f 87//85 9//85 8//85
usemtl BodyTop.001
f 86//86 5//86 4//86
usemtl BodyBottom.001
f 85//87 8//87 55//87
usemtl BodyTop.001
f 7//88 84//88 50//88
usemtl Fin.001
f 100//89 95//89 99//89
f 94//89 100//89 98//89
f 92//90 100//90 96//90
f 100//90 93//90 96//90
f 109//91 104//91 106//91
f 109//92 103//92 107//92
f 101//93 109//93 107//93
f 102//93 109//93 105//93
f 112//94 119//94 114//94
f 110//95 117//95 111//95
f 116//96 118//96 117//96
f 114//97 118//97 115//97
usemtl Mouth.001
f 38//98 120//98 50//98
f 120//99 7//99 50//99
f 120//100 121//100 9//100
f 39//101 121//101 120//101
f 16//102 121//102 39//102
f 8//103 121//103 55//103
f 38//104 39//104 120//104
f 120//105 9//105 7//105
f 16//106 55//106 121//106
f 8//107 9//107 121//107
usemtl Eye.001
f 129//108 136//108 128//108
f 135//109 126//109 127//109
f 125//110 132//110 124//110
f 131//111 122//111 123//111
f 122//112 137//112 129//112
f 136//113 127//113 128//113
f 126//114 133//114 125//114
f 124//115 131//115 123//115
usemtl Pupil.001
f 131//116 138//116 130//116
f 130//117 138//117 137//117
f 136//118 138//118 135//118
f 134//119 138//119 133//119
f 132//120 138//120 131//120
f 137//121 138//121 136//121
f 135//122 138//122 134//122
f 133//123 138//123 132//123
usemtl Eye.001
f 127//124 145//124 128//124
f 142//125 126//125 125//125
f 123//126 141//126 124//126
f 145//127 129//127 128//127
f 143//128 127//128 126//128
f 141//129 125//129 124//129
f 139//130 123//130 122//130
f 129//131 139//131 122//131
f 153//132 162//132 154//132
f 151//133 160//133 152//133
f 149//134 158//134 150//134
f 147//135 156//135 148//135
f 154//136 155//136 147//136
f 153//137 160//137 161//137
f 151//138 158//138 159//138
f 149//139 156//139 157//139
usemtl Pupil.001
f 156//140 155//140 163//140
f 155//141 162//141 163//141
f 161//142 160//142 163//142
f 159//143 158//143 163//143
f 157//144 156//144 163//144
f 162//145 161//145 163//145
f 160//146 159//146 163//146
f 158//147 157//147 163//147
usemtl Eye.001
f 153//148 169//148 152//148
f 150//149 168//149 167//149
f 148//150 166//150 165//150
f 154//151 170//151 153//151
f 151//152 169//152 168//152
f 150//153 166//153 149//153
f 147//154 165//154 164//154
f 154//155 164//155 171//155
usemtl BodyTop.001
f 46//156 4//156 1//156
f 1//157 4//157 5//157
usemtl BodyBottom.001
f 3//158 5//158 6//158
f 2//159 6//159 51//159
usemtl BodyTop.001
f 84//160 86//160 4//160
usemtl BodyBottom.001
f 85//161 51//161 6//161
usemtl BodyTop.001
f 86//162 7//162 9//162
usemtl BodyBottom.001
f 6//163 5//163 88//163
f 12//164 2//164 52//164
f 2//165 12//165 11//165
usemtl BodyTop.001
f 3//166 11//166 10//166
f 47//167 1//167 10//167
usemtl BodyBottom.001
f 53//168 54//168 15//168
f 12//169 15//169 14//169
usemtl BodyTop.001
f 10//170 11//170 14//170
f 10//171 13//171 49//171
usemtl BodyBottom.001
f 15//172 19//172 18//172
usemtl BodyTop.001
f 13//173 17//173 59//173
usemtl BodyBottom.001
f 54//174 60//174 19//174
usemtl BodyTop.001
f 13//175 14//175 18//175
usemtl BodyBottom.001
f 19//176 22//176 21//176
usemtl BodyTop.001
f 17//177 20//177 64//177
usemtl BodyBottom.001
f 19//178 60//178 65//178
usemtl BodyTop.001
f 17//179 18//179 21//179
usemtl BodyBottom.001
f 65//180 70//180 25//180
usemtl BodyTop.001
f 20//181 21//181 24//181
usemtl BodyBottom.001
f 22//182 25//182 24//182
usemtl BodyTop.001
f 64//183 20//183 23//183
usemtl BodyBottom.001
f 25//184 28//184 27//184
usemtl BodyTop.001
f 69//185 23//185 26//185
usemtl BodyBottom.001
f 70//186 75//186 28//186
usemtl BodyTop.001
f 23//187 24//187 27//187
f 26//188 27//188 30//188
usemtl BodyBottom.001
f 28//189 31//189 30//189
usemtl BodyTop.001
f 74//190 26//190 29//190
usemtl BodyBottom.001
f 75//191 80//191 31//191
usemtl BodyTop.001
f 29//192 30//192 82//192
usemtl BodyBottom.001
f 31//193 83//193 82//193
usemtl BodyTop.001
f 46//194 47//194 32//194
f 36//195 35//195 32//195
usemtl BodyBottom.001
f 37//196 36//196 34//196
f 51//197 37//197 33//197
usemtl BodyTop.001
f 84//198 46//198 35//198
usemtl BodyBottom.001
f 85//199 90//199 37//199
usemtl BodyTop.001
f 89//200 91//200 39//200
usemtl BodyBottom.001
f 91//201 36//201 37//201
f 42//202 53//202 52//202
f 41//203 42//203 33//203
usemtl BodyTop.001
f 40//204 41//204 34//204
f 47//205 48//205 40//205
usemtl BodyBottom.001
f 45//206 54//206 53//206
f 44//207 45//207 42//207
usemtl BodyTop.001
f 40//208 43//208 44//208
f 49//209 43//209 40//209
usemtl BodyBottom.001
f 57//210 58//210 45//210
usemtl BodyTop.001
f 59//211 56//211 43//211
usemtl BodyBottom.001
f 58//212 60//212 54//212
usemtl BodyTop.001
f 43//213 56//213 57//213
usemtl BodyBottom.001
f 62//214 63//214 58//214
usemtl BodyTop.001
f 64//215 61//215 56//215
usemtl BodyBottom.001
f 58//216 63//216 65//216
usemtl BodyTop.001
f 56//217 61//217 62//217
usemtl BodyBottom.001
f 68//218 70//218 65//218
usemtl BodyTop.001
f 61//219 66//219 67//219
usemtl BodyBottom.001
f 67//220 68//220 63//220
usemtl BodyTop.001
f 64//221 69//221 66//221
usemtl BodyBottom.001
f 72//222 73//222 68//222
usemtl BodyTop.001
f 69//223 74//223 71//223
usemtl BodyBottom.001
f 73//224 75//224 70//224
usemtl BodyTop.001
f 66//225 71//225 72//225
f 71//226 76//226 77//226
usemtl BodyBottom.001
f 77//227 78//227 73//227
usemtl BodyTop.001
f 74//228 79//228 76//228
usemtl BodyBottom.001
f 78//229 80//229 75//229
usemtl BodyTop.001
f 76//230 81//230 82//230
usemtl BodyBottom.001
f 78//231 77//231 82//231
f 39//232 91//232 90//232
usemtl BodyTop.001
f 36//233 91//233 89//233
usemtl BodyBottom.001
f 16//234 90//234 85//234
usemtl BodyTop.001
f 84//235 89//235 38//235
usemtl BodyBottom.001
f 87//236 88//236 9//236
usemtl BodyTop.001
f 86//237 88//237 5//237
usemtl BodyBottom.001
f 85//238 87//238 8//238
usemtl BodyTop.001
f 7//239 86//239 84//239
usemtl Fin.001
f 100//240 97//240 95//240
f 94//241 97//241 100//241
f 92//90 98//90 100//90
f 100//90 99//90 93//90
f 109//92 108//92 104//92
f 109//242 106//242 103//242
f 101//93 105//93 109//93
f 102//93 108//93 109//93
f 112//243 113//243 119//243
f 110//244 116//244 117//244
f 116//245 115//245 118//245
f 114//246 119//246 118//246
usemtl Eye.001
f 129//108 137//108 136//108
f 135//109 134//109 126//109
f 125//110 133//110 132//110
f 131//111 130//111 122//111
f 122//112 130//112 137//112
f 136//113 135//113 127//113
f 126//114 134//114 133//114
f 124//115 132//115 131//115
f 127//247 144//247 145//247
f 142//248 143//248 126//248
f 123//249 140//249 141//249
f 145//127 146//127 129//127
f 143//128 144//128 127//128
f 141//129 142//129 125//129
f 139//130 140//130 123//130
f 129//250 146//250 139//250
f 153//132 161//132 162//132
f 151//133 159//133 160//133
f 149//134 157//134 158//134
f 147//135 155//135 156//135
f 154//136 162//136 155//136
f 153//137 152//137 160//137
f 151//138 150//138 158//138
f 149//251 148//251 156//251
f 153//148 170//148 169//148
f 150//252 151//252 168//252
f 148//253 149//253 166//253
f 154//151 171//151 170//151
f 151//152 152//152 169//152
f 150//254 167//254 166//254
f 147//255 148//255 165//255
f 154//155 147//155 164//155
