# Blender v2.79 (sub 0) OBJ File: 'Minnnow_ioexperment.blend'
# www.blender.org
mtllib Minnow_000016.mtl
v 0.222658 0.273001 0.201993
v 0.184121 -0.159074 0.143496
v 0.334257 0.067251 0.189590
v 0.129823 0.190820 0.756428
v 0.158993 0.051360 0.746794
v 0.116834 -0.094767 0.658169
v 0.072884 -0.049348 1.010698
v 0.050872 -0.089098 1.030427
v 0.069716 -0.063444 0.992175
v 0.195859 0.257610 -0.600851
v 0.296566 0.050659 -0.605198
v 0.152256 -0.177555 -0.626940
v 0.101882 0.123514 -1.201653
v 0.158060 0.051821 -1.196646
v 0.122235 -0.057767 -1.204124
v 0.000213 -0.089098 1.032681
v 0.048642 0.040249 -1.491622
v 0.065993 0.011828 -1.489209
v 0.053891 -0.032575 -1.492765
v 0.042342 0.026351 -1.624435
v 0.054727 0.007273 -1.622861
v 0.046850 -0.021889 -1.625006
v 0.037776 0.033492 -1.755569
v 0.044329 0.008464 -1.753834
v 0.040195 -0.029794 -1.756436
v 0.056307 0.187632 -1.900460
v 0.062675 0.035463 -1.898136
v 0.058795 -0.197136 -1.901102
v 0.066044 0.265364 -1.977810
v 0.072412 0.048424 -1.975487
v 0.068532 -0.283182 -1.978453
v -0.229890 0.273001 0.204652
v -0.192024 -0.159074 0.145604
v -0.341627 0.067251 0.193546
v -0.104836 0.190820 0.764632
v -0.134607 0.051360 0.757059
v -0.098741 -0.094767 0.665706
v -0.023464 -0.049348 1.014986
v -0.021954 -0.063444 0.996254
v -0.181157 0.257610 -0.605802
v -0.281715 0.050659 -0.612793
v -0.136884 -0.177555 -0.630737
v -0.072679 0.123514 -1.203766
v -0.128961 0.051821 -1.200121
v -0.092966 -0.057767 -1.206729
v 0.012613 0.248875 0.763929
v -0.003633 0.431722 0.200384
v 0.007667 0.380931 -0.627421
v 0.014646 0.177768 -1.206394
v 0.026276 -0.034019 1.048040
v 0.006554 -0.210664 0.590625
v -0.004632 -0.337665 0.029944
v 0.008170 -0.222210 -0.665629
v 0.014682 -0.113104 -1.209333
v 0.025646 -0.094433 1.033876
v -0.012007 0.040249 -1.493024
v -0.029451 0.011828 -1.491415
v -0.017198 -0.032575 -1.494408
v 0.018357 0.063840 -1.494036
v 0.018351 -0.057490 -1.493763
v 0.003774 0.026351 -1.625751
v -0.008689 0.007273 -1.625025
v -0.000697 -0.021889 -1.626626
v 0.023090 0.040788 -1.626074
v 0.023089 -0.036614 -1.626856
v 0.017273 0.033492 -1.756269
v 0.010617 0.008464 -1.754985
v 0.014919 -0.029794 -1.757298
v 0.027569 0.052433 -1.757204
v 0.027604 -0.049113 -1.758230
v 0.035952 0.187632 -1.903022
v 0.029207 0.035463 -1.902349
v 0.033702 -0.197136 -1.904261
v 0.046290 0.302787 -1.903017
v 0.046418 -0.314588 -1.904035
v 0.045689 0.265364 -1.980373
v 0.038944 0.048424 -1.979700
v 0.043438 -0.283182 -1.981612
v 0.056027 0.429535 -1.980368
v 0.056155 -0.450629 -1.981386
v 0.058019 0.266998 -1.996190
v 0.054965 0.047052 -1.971930
v 0.057901 -0.284283 -1.995252
v 0.024666 0.002003 1.011859
v 0.023134 -0.109233 0.977438
v 0.080255 -0.018766 0.978174
v 0.059272 -0.089820 0.982895
v 0.081192 -0.048825 0.960747
v -0.033695 -0.018766 0.983246
v -0.012376 -0.089820 0.986083
v -0.036177 -0.048825 0.965971
v 0.173985 -0.049667 0.411422
v 0.219593 0.025349 0.378791
v 0.246846 -0.189856 0.280650
v 0.327041 -0.057948 0.223271
v 0.196789 -0.012159 0.395106
v 0.309938 -0.149799 0.241450
v 0.224654 -0.130951 0.351998
v 0.288688 -0.025628 0.306183
v 0.256671 -0.078289 0.329090
v -0.165730 -0.045736 0.423927
v -0.219367 0.021657 0.387137
v -0.198433 -0.191751 0.283667
v -0.292748 -0.073248 0.218976
v -0.192549 -0.012039 0.405532
v -0.262520 -0.161509 0.237840
v -0.194805 -0.132339 0.357895
v -0.270112 -0.037718 0.306241
v -0.232458 -0.085028 0.332068
v -0.001641 0.436122 0.031904
v -0.002129 0.416399 0.066384
v 0.012272 0.274162 -1.010273
v 0.012919 0.222699 -1.063754
v 0.019246 0.394554 -0.760222
v -0.003953 0.450024 -0.501914
v 0.012177 0.464016 -0.237583
v 0.001982 0.393161 -0.223913
v 0.005973 0.379138 -0.495571
v 0.009117 0.328875 -0.749636
v 0.022544 -0.038183 0.970268
v 0.023866 -0.083997 0.976367
v 0.117728 0.104667 0.818454
v 0.107891 0.093067 0.845023
v 0.107234 0.065129 0.857526
v 0.116142 0.037220 0.848639
v 0.129396 0.025687 0.823568
v 0.139233 0.037287 0.796998
v 0.139890 0.065225 0.784495
v 0.130983 0.093134 0.793382
v 0.130960 0.085916 0.824346
v 0.126243 0.080353 0.837087
v 0.125928 0.066956 0.843083
v 0.130200 0.053572 0.838822
v 0.136556 0.048041 0.826798
v 0.141273 0.053604 0.814057
v 0.141588 0.067002 0.808061
v 0.137316 0.080386 0.812322
v 0.135899 0.067357 0.826530
v 0.114636 0.104120 0.817070
v 0.104799 0.092520 0.843640
v 0.104142 0.064583 0.856143
v 0.113050 0.036673 0.847256
v 0.126304 0.025141 0.822184
v 0.136141 0.036741 0.795615
v 0.136798 0.064678 0.783111
v 0.127890 0.092588 0.791999
v -0.085209 0.104667 0.827485
v -0.073051 0.093067 0.853076
v -0.071286 0.065129 0.865471
v -0.080947 0.037220 0.857411
v -0.096377 0.025687 0.833616
v -0.108535 0.037287 0.808025
v -0.110300 0.065225 0.795629
v -0.100638 0.093134 0.803690
v -0.097865 0.085916 0.834529
v -0.092034 0.080353 0.846802
v -0.091188 0.066956 0.852746
v -0.095821 0.053572 0.848880
v -0.103221 0.048041 0.837469
v -0.109051 0.053604 0.825197
v -0.109898 0.067002 0.819253
v -0.105264 0.080386 0.823118
v -0.102590 0.067357 0.837143
v -0.082252 0.104120 0.825833
v -0.070094 0.092520 0.851423
v -0.068328 0.064583 0.863819
v -0.077990 0.036673 0.855758
v -0.093419 0.025141 0.831963
v -0.105578 0.036741 0.806372
v -0.107343 0.064678 0.793977
v -0.097681 0.092588 0.802037
vn 0.5560 0.7952 0.2420
vn 0.8508 0.4446 0.2803
vn 0.8034 -0.5688 0.1761
vn 0.6257 -0.7634 0.1604
vn 0.3716 0.6668 0.6459
vn 0.4599 -0.8829 0.0950
vn 0.9493 -0.1350 0.2839
vn 0.9041 -0.3936 0.1663
vn 0.3290 -0.9326 -0.1487
vn 0.8356 -0.5486 -0.0282
vn 0.8774 0.4782 -0.0385
vn 0.5519 0.8328 -0.0436
vn 0.3401 -0.9171 -0.2080
vn 0.8370 -0.5105 -0.1970
vn 0.7703 0.5861 -0.2513
vn 0.5541 0.7875 -0.2697
vn 0.9248 -0.2851 -0.2520
vn 0.5142 0.7997 -0.3101
vn 0.4567 -0.8704 -0.1841
vn 0.8276 0.4806 -0.2900
vn 0.9637 -0.2569 -0.0725
vn 0.6162 0.7793 -0.1140
vn 0.5297 -0.8427 -0.0963
vn 0.8385 0.5364 -0.0959
vn 0.5252 -0.8506 0.0246
vn 0.9675 0.2519 -0.0200
vn 0.9638 -0.2545 -0.0788
vn 0.8754 0.4780 0.0723
vn 0.9880 -0.1139 0.1043
vn 0.9569 0.0894 0.2763
vn 0.6286 -0.4675 0.6215
vn 0.9840 0.0438 0.1725
vn 0.9874 0.0306 0.1551
vn 0.9924 -0.0181 0.1219
vn 0.9723 0.0628 0.2253
vn 0.9645 -0.1077 0.2412
vn 0.9169 0.0498 -0.3959
vn 0.9131 -0.0572 -0.4038
vn 0.8454 -0.0532 -0.5315
vn -0.2006 0.0111 -0.9796
vn -0.4307 0.8741 0.2245
vn -0.8395 0.4386 0.3208
vn -0.7938 -0.5698 0.2128
vn -0.6154 -0.7660 0.1858
vn -0.5179 0.5270 0.6738
vn -0.6473 -0.7301 0.2192
vn -0.9693 -0.2276 0.0931
vn -0.8858 -0.3942 0.2449
vn -0.7000 -0.7133 -0.0327
vn -0.8381 -0.5432 -0.0511
vn -0.8757 0.4789 -0.0618
vn -0.5742 0.8172 -0.0500
vn -0.3344 -0.9173 -0.2163
vn -0.8318 -0.5108 -0.2173
vn -0.8731 0.4319 -0.2262
vn -0.5470 0.7879 -0.2831
vn -0.9183 -0.2851 -0.2746
vn -0.5064 0.7994 -0.3232
vn -0.4521 -0.8703 -0.1953
vn -0.7495 0.5714 -0.3345
vn -0.9569 -0.2546 -0.1400
vn -0.6091 0.7773 -0.1575
vn -0.5659 -0.8112 -0.1474
vn -0.8465 0.5111 -0.1490
vn -0.5264 -0.8501 -0.0115
vn -0.8333 0.5399 -0.1188
vn -0.9563 -0.2542 -0.1444
vn -0.5988 0.8007 -0.0181
vn -0.9845 -0.1021 -0.1429
vn -0.8058 0.4566 0.3771
vn -0.7247 -0.4988 0.4753
vn -0.9646 0.2527 -0.0754
vn -0.9921 0.0435 -0.1176
vn -0.9916 -0.0181 -0.1279
vn -0.9954 0.0894 -0.0355
vn -0.9942 -0.1077 -0.0054
vn -0.7902 0.0498 -0.6108
vn 0.4352 -0.0163 -0.9002
vn -0.6873 -0.0532 -0.7244
vn -0.6836 0.0452 -0.7285
vn -0.8777 -0.4126 0.2435
vn -0.8810 0.1640 0.4439
vn -0.2100 -0.9434 0.2567
vn -0.5694 0.5698 0.5926
vn 0.8959 -0.4126 0.1646
vn 0.9169 0.1667 0.3626
vn 0.2319 -0.9434 0.2371
vn 0.6198 0.5698 0.5397
vn 0.8223 -0.2860 0.4919
vn 0.6840 -0.1017 0.7223
vn -0.8725 -0.2040 0.4439
vn -0.8126 -0.4350 0.3879
vn -0.7346 -0.2378 0.6354
vn -0.9884 0.1456 -0.0425
vn -0.9999 -0.0000 -0.0142
vn -0.9902 0.1383 -0.0217
vn -0.9880 -0.1435 -0.0579
vn 0.2708 -0.9619 0.0385
vn -0.2650 -0.9621 0.0642
vn -0.3685 0.1122 0.9228
vn 0.4435 0.1308 0.8867
vn 0.4917 0.8241 0.2812
vn -0.1797 0.9669 0.1810
vn 0.6295 -0.5956 0.4990
vn -0.5781 -0.5987 0.5544
vn 0.1947 0.9661 0.1693
vn -0.4766 0.8205 0.3155
vn 0.9397 0.3294 -0.0925
vn 0.9243 -0.3250 0.2003
vn 0.6138 -0.0549 0.7875
vn 0.6292 0.5995 0.4947
vn 0.7876 0.5999 0.1404
vn 0.9963 -0.0537 -0.0677
vn 0.7659 -0.3254 0.5546
vn 0.5572 0.3283 0.7627
vn 0.8545 0.2789 0.4382
vn 0.8960 0.2791 0.3453
vn 0.9507 0.1078 0.2908
vn 0.8903 0.0366 0.4538
vn 0.8357 0.2079 0.5084
vn 0.9359 0.2082 0.2843
vn 0.9318 0.0367 0.3610
vn 0.8505 0.1075 0.5149
vn 0.4330 -0.3767 -0.8189
vn -0.0215 -0.9125 0.4084
vn -0.4330 0.3767 0.8189
vn 0.3213 0.3789 -0.8679
vn 0.2910 -0.9116 -0.2903
vn -0.3213 -0.3789 0.8679
vn -0.2910 0.9116 0.2903
vn 0.0215 0.9125 -0.4084
vn -0.9442 0.3294 -0.0087
vn -0.9028 -0.3250 0.2816
vn -0.5414 -0.0549 0.8389
vn -0.5828 0.5995 0.5486
vn -0.7720 0.5999 0.2098
vn -0.9983 -0.0537 0.0210
vn -0.7136 -0.3254 0.6204
vn -0.4873 0.3283 0.8092
vn -0.8122 0.2789 0.5123
vn -0.8618 0.2791 0.4236
vn -0.9211 0.1078 0.3741
vn -0.8465 0.0366 0.5311
vn -0.7872 0.2079 0.5806
vn -0.9069 0.2082 0.3663
vn -0.8961 0.0367 0.4424
vn -0.8014 0.1075 0.5884
vn -0.5040 -0.3767 -0.7772
vn 0.0577 -0.9125 0.4049
vn 0.5040 0.3767 0.7772
vn -0.3972 0.3789 -0.8359
vn -0.3156 -0.9116 -0.2633
vn 0.3971 -0.3789 0.8359
vn 0.3156 0.9116 0.2633
vn -0.0576 0.9125 -0.4049
vn 0.4450 0.8721 0.2038
vn 0.9637 0.1885 0.1893
vn 0.8728 -0.4112 0.2628
vn 0.6592 -0.7307 0.1775
vn 0.5758 0.5260 0.6259
vn 0.6658 -0.7282 0.1624
vn 0.9737 -0.2276 0.0067
vn 0.9171 -0.3636 0.1632
vn 0.6908 -0.7230 -0.0112
vn 0.8459 -0.5328 -0.0222
vn 0.8976 0.4379 -0.0517
vn 0.5740 0.8181 -0.0348
vn 0.4574 -0.8729 -0.1697
vn 0.9468 -0.3019 -0.1119
vn 0.8784 0.4318 -0.2049
vn 0.5198 0.8129 -0.2627
vn 0.9406 -0.2369 -0.2434
vn 0.5978 0.7347 -0.3207
vn 0.5703 -0.8075 -0.1505
vn 0.7573 0.5713 -0.3164
vn 0.9642 -0.2551 -0.0720
vn 0.6023 0.7905 -0.1113
vn 0.5727 -0.8127 -0.1071
vn 0.8535 0.5134 -0.0894
vn 0.8316 -0.5495 0.0809
vn 0.8395 0.5399 -0.0617
vn 0.9936 -0.1044 -0.0440
vn 0.5986 0.8008 0.0228
vn 0.9888 -0.0184 0.1484
vn 0.7137 0.4323 0.5511
vn 0.9424 -0.1072 0.3168
vn 0.9504 0.2606 0.1696
vn 0.9903 0.0435 0.1319
vn 0.9902 -0.0128 0.1389
vn 0.9731 0.0894 0.2123
vn 0.9641 -0.0757 0.2545
vn -0.1985 -0.0163 -0.9800
vn 0.8428 0.0452 -0.5363
vn -0.5492 0.7901 0.2722
vn -0.9519 0.1901 0.2405
vn -0.8628 -0.4028 0.3056
vn -0.6535 -0.7280 0.2072
vn -0.3235 0.6626 0.6755
vn -0.4498 -0.8829 0.1349
vn -0.9203 -0.1350 0.3671
vn -0.8957 -0.3721 0.2436
vn -0.3255 -0.9318 -0.1607
vn -0.8451 -0.5326 -0.0473
vn -0.8959 0.4379 -0.0756
vn -0.5506 0.8327 -0.0586
vn -0.4531 -0.8730 -0.1806
vn -0.9438 -0.3019 -0.1347
vn -0.7640 0.5860 -0.2700
vn -0.5133 0.8128 -0.2754
vn -0.9335 -0.2396 -0.2668
vn -0.5850 0.7385 -0.3353
vn -0.5640 -0.8090 -0.1655
vn -0.8178 0.4843 -0.3109
vn -0.5932 0.7903 -0.1533
vn -0.5226 -0.8421 -0.1333
vn -0.8298 0.5362 -0.1548
vn -0.8352 -0.5495 0.0236
vn -0.9639 0.2519 -0.0859
vn -0.9882 -0.1044 -0.1118
vn -0.8783 0.4780 0.0125
vn -0.9942 -0.0183 -0.1062
vn -0.9957 0.0894 0.0256
vn -0.9919 -0.1073 0.0673
vn -0.9958 0.0438 -0.0808
vn -0.9951 0.0306 -0.0945
vn -0.9938 -0.0128 -0.1108
vn -0.9978 0.0628 -0.0226
vn -0.9971 -0.0757 0.0076
vn -0.7845 -0.0572 -0.6175
vn 0.4371 0.0111 -0.8993
vn -0.8866 -0.4068 0.2200
vn -0.9198 -0.1357 0.3683
vn -0.4497 -0.8829 0.1352
vn -0.5179 0.5265 0.6742
vn 0.9027 -0.4068 0.1404
vn 0.9498 -0.1342 0.2826
vn 0.4600 -0.8829 0.0947
vn 0.5758 0.5265 0.6255
vn 0.8359 -0.0474 0.5468
vn 0.6448 -0.3515 0.6787
vn -0.6490 -0.4760 0.5934
vn -0.9999 -0.0000 -0.0121
vn -0.9901 0.1354 -0.0368
vn -0.9889 -0.1325 0.0674
vn -0.9885 0.1458 -0.0411
vn 0.4329 -0.3767 -0.8190
vn 0.3214 0.3789 -0.8678
vn 0.5040 0.3767 0.7773
vn -0.3971 0.3789 -0.8359
vn -0.0577 0.9125 -0.4049
usemtl BodyTop.001
s off
f 46//1 1//1 47//1
f 1//2 5//2 3//2
usemtl BodyBottom.001
f 3//3 6//3 2//3
f 2//4 51//4 52//4
usemtl BodyTop.001
f 84//5 4//5 46//5
usemtl BodyBottom.001
f 85//6 6//6 87//6
usemtl BodyTop.001
f 86//7 9//7 88//7
usemtl BodyBottom.001
f 6//8 88//8 87//8
f 12//9 52//9 53//9
f 2//10 11//10 3//10
usemtl BodyTop.001
f 3//11 10//11 1//11
f 47//12 10//12 48//12
usemtl BodyBottom.001
f 53//13 15//13 12//13
f 12//14 14//14 11//14
usemtl BodyTop.001
f 10//15 14//15 13//15
f 10//16 49//16 48//16
usemtl BodyBottom.001
f 15//17 18//17 14//17
usemtl BodyTop.001
f 13//18 59//18 49//18
usemtl BodyBottom.001
f 54//19 19//19 15//19
usemtl BodyTop.001
f 13//20 18//20 17//20
usemtl BodyBottom.001
f 19//21 21//21 18//21
usemtl BodyTop.001
f 17//22 64//22 59//22
usemtl BodyBottom.001
f 19//23 65//23 22//23
usemtl BodyTop.001
f 17//24 21//24 20//24
usemtl BodyBottom.001
f 65//25 25//25 22//25
usemtl BodyTop.001
f 20//26 24//26 23//26
usemtl BodyBottom.001
f 22//27 24//27 21//27
usemtl BodyTop.001
f 64//28 23//28 69//28
usemtl BodyBottom.001
f 25//29 27//29 24//29
usemtl BodyTop.001
f 69//30 26//30 74//30
usemtl BodyBottom.001
f 70//31 28//31 25//31
usemtl BodyTop.001
f 23//32 27//32 26//32
f 26//33 30//33 29//33
usemtl BodyBottom.001
f 28//34 30//34 27//34
usemtl BodyTop.001
f 74//35 29//35 79//35
usemtl BodyBottom.001
f 75//36 31//36 28//36
usemtl BodyTop.001
f 29//37 81//37 79//37
f 29//38 82//38 81//38
usemtl BodyBottom.001
f 31//39 80//39 83//39
f 31//40 82//40 30//40
usemtl BodyTop.001
f 46//41 32//41 35//41
f 36//42 32//42 34//42
usemtl BodyBottom.001
f 37//43 34//43 33//43
f 51//44 33//44 52//44
usemtl BodyTop.001
f 84//45 35//45 89//45
usemtl BodyBottom.001
f 85//46 37//46 51//46
usemtl BodyTop.001
f 89//47 39//47 38//47
usemtl BodyBottom.001
f 91//48 37//48 90//48
f 42//49 52//49 33//49
f 41//50 33//50 34//50
usemtl BodyTop.001
f 40//51 34//51 32//51
f 47//52 40//52 32//52
usemtl BodyBottom.001
f 45//53 53//53 42//53
f 44//54 42//54 41//54
usemtl BodyTop.001
f 40//55 44//55 41//55
f 49//56 40//56 48//56
usemtl BodyBottom.001
f 57//57 45//57 44//57
usemtl BodyTop.001
f 59//58 43//58 49//58
usemtl BodyBottom.001
f 58//59 54//59 45//59
usemtl BodyTop.001
f 43//60 57//60 44//60
usemtl BodyBottom.001
f 62//61 58//61 57//61
usemtl BodyTop.001
f 64//62 56//62 59//62
usemtl BodyBottom.001
f 58//63 65//63 60//63
usemtl BodyTop.001
f 56//64 62//64 57//64
usemtl BodyBottom.001
f 68//65 65//65 63//65
usemtl BodyTop.001
f 61//66 67//66 62//66
usemtl BodyBottom.001
f 67//67 63//67 62//67
usemtl BodyTop.001
f 64//68 66//68 61//68
usemtl BodyBottom.001
f 72//69 68//69 67//69
usemtl BodyTop.001
f 69//70 71//70 66//70
usemtl BodyBottom.001
f 73//71 70//71 68//71
usemtl BodyTop.001
f 66//72 72//72 67//72
f 71//73 77//73 72//73
usemtl BodyBottom.001
f 77//74 73//74 72//74
usemtl BodyTop.001
f 74//75 76//75 71//75
usemtl BodyBottom.001
f 78//76 75//76 73//76
usemtl BodyTop.001
f 76//77 79//77 81//77
f 76//78 82//78 77//78
usemtl BodyBottom.001
f 78//79 83//79 80//79
f 78//80 82//80 83//80
f 39//81 90//81 16//81
usemtl BodyTop.001
f 36//82 89//82 35//82
usemtl BodyBottom.001
f 16//83 85//83 55//83
usemtl BodyTop.001
f 84//84 38//84 50//84
usemtl BodyBottom.001
f 87//85 9//85 8//85
usemtl BodyTop.001
f 86//86 5//86 4//86
usemtl BodyBottom.001
f 85//87 8//87 55//87
usemtl BodyTop.001
f 7//88 84//88 50//88
usemtl Fin.001
f 100//89 95//89 99//89
f 94//89 100//89 98//89
f 92//90 100//90 96//90
f 100//90 93//90 96//90
f 109//91 104//91 106//91
f 109//92 103//92 107//92
f 101//93 109//93 107//93
f 102//93 109//93 105//93
f 112//94 119//94 114//94
f 110//95 117//95 111//95
f 116//96 118//96 117//96
f 114//97 118//97 115//97
usemtl Mouth.001
f 38//98 120//98 50//98
f 120//99 7//99 50//99
f 120//100 121//100 9//100
f 39//101 121//101 120//101
f 16//102 121//102 39//102
f 8//103 121//103 55//103
f 38//104 39//104 120//104
f 120//105 9//105 7//105
f 16//106 55//106 121//106
f 8//107 9//107 121//107
usemtl Eye.001
f 129//108 136//108 128//108
f 135//109 126//109 127//109
f 125//110 132//110 124//110
f 131//111 122//111 123//111
f 122//112 137//112 129//112
f 136//113 127//113 128//113
f 126//114 133//114 125//114
f 124//115 131//115 123//115
usemtl Pupil.001
f 131//116 138//116 130//116
f 130//117 138//117 137//117
f 136//118 138//118 135//118
f 134//119 138//119 133//119
f 132//120 138//120 131//120
f 137//121 138//121 136//121
f 135//122 138//122 134//122
f 133//123 138//123 132//123
usemtl Eye.001
f 127//124 145//124 128//124
f 142//125 126//125 125//125
f 123//126 141//126 124//126
f 145//127 129//127 128//127
f 143//128 127//128 126//128
f 141//129 125//129 124//129
f 139//130 123//130 122//130
f 129//131 139//131 122//131
f 153//132 162//132 154//132
f 151//133 160//133 152//133
f 149//134 158//134 150//134
f 147//135 156//135 148//135
f 154//136 155//136 147//136
f 153//137 160//137 161//137
f 151//138 158//138 159//138
f 149//139 156//139 157//139
usemtl Pupil.001
f 156//140 155//140 163//140
f 155//141 162//141 163//141
f 161//142 160//142 163//142
f 159//143 158//143 163//143
f 157//144 156//144 163//144
f 162//145 161//145 163//145
f 160//146 159//146 163//146
f 158//147 157//147 163//147
usemtl Eye.001
f 153//148 169//148 152//148
f 150//149 168//149 167//149
f 148//150 166//150 165//150
f 154//151 170//151 153//151
f 151//152 169//152 168//152
f 150//153 166//153 149//153
f 147//154 165//154 164//154
f 154//155 164//155 171//155
usemtl BodyTop.001
f 46//156 4//156 1//156
f 1//157 4//157 5//157
usemtl BodyBottom.001
f 3//158 5//158 6//158
f 2//159 6//159 51//159
usemtl BodyTop.001
f 84//160 86//160 4//160
usemtl BodyBottom.001
f 85//161 51//161 6//161
usemtl BodyTop.001
f 86//162 7//162 9//162
usemtl BodyBottom.001
f 6//163 5//163 88//163
f 12//164 2//164 52//164
f 2//165 12//165 11//165
usemtl BodyTop.001
f 3//166 11//166 10//166
f 47//167 1//167 10//167
usemtl BodyBottom.001
f 53//168 54//168 15//168
f 12//169 15//169 14//169
usemtl BodyTop.001
f 10//170 11//170 14//170
f 10//171 13//171 49//171
usemtl BodyBottom.001
f 15//172 19//172 18//172
usemtl BodyTop.001
f 13//173 17//173 59//173
usemtl BodyBottom.001
f 54//174 60//174 19//174
usemtl BodyTop.001
f 13//175 14//175 18//175
usemtl BodyBottom.001
f 19//176 22//176 21//176
usemtl BodyTop.001
f 17//177 20//177 64//177
usemtl BodyBottom.001
f 19//178 60//178 65//178
usemtl BodyTop.001
f 17//179 18//179 21//179
usemtl BodyBottom.001
f 65//180 70//180 25//180
usemtl BodyTop.001
f 20//181 21//181 24//181
usemtl BodyBottom.001
f 22//182 25//182 24//182
usemtl BodyTop.001
f 64//183 20//183 23//183
usemtl BodyBottom.001
f 25//184 28//184 27//184
usemtl BodyTop.001
f 69//185 23//185 26//185
usemtl BodyBottom.001
f 70//186 75//186 28//186
usemtl BodyTop.001
f 23//187 24//187 27//187
f 26//188 27//188 30//188
usemtl BodyBottom.001
f 28//189 31//189 30//189
usemtl BodyTop.001
f 74//190 26//190 29//190
usemtl BodyBottom.001
f 75//191 80//191 31//191
usemtl BodyTop.001
f 29//192 30//192 82//192
usemtl BodyBottom.001
f 31//193 83//193 82//193
usemtl BodyTop.001
f 46//194 47//194 32//194
f 36//195 35//195 32//195
usemtl BodyBottom.001
f 37//196 36//196 34//196
f 51//197 37//197 33//197
usemtl BodyTop.001
f 84//198 46//198 35//198
usemtl BodyBottom.001
f 85//199 90//199 37//199
usemtl BodyTop.001
f 89//200 91//200 39//200
usemtl BodyBottom.001
f 91//201 36//201 37//201
f 42//202 53//202 52//202
f 41//203 42//203 33//203
usemtl BodyTop.001
f 40//204 41//204 34//204
f 47//205 48//205 40//205
usemtl BodyBottom.001
f 45//206 54//206 53//206
f 44//207 45//207 42//207
usemtl BodyTop.001
f 40//208 43//208 44//208
f 49//209 43//209 40//209
usemtl BodyBottom.001
f 57//210 58//210 45//210
usemtl BodyTop.001
f 59//211 56//211 43//211
usemtl BodyBottom.001
f 58//212 60//212 54//212
usemtl BodyTop.001
f 43//213 56//213 57//213
usemtl BodyBottom.001
f 62//61 63//61 58//61
usemtl BodyTop.001
f 64//214 61//214 56//214
usemtl BodyBottom.001
f 58//215 63//215 65//215
usemtl BodyTop.001
f 56//216 61//216 62//216
usemtl BodyBottom.001
f 68//217 70//217 65//217
usemtl BodyTop.001
f 61//218 66//218 67//218
usemtl BodyBottom.001
f 67//219 68//219 63//219
usemtl BodyTop.001
f 64//220 69//220 66//220
usemtl BodyBottom.001
f 72//221 73//221 68//221
usemtl BodyTop.001
f 69//222 74//222 71//222
usemtl BodyBottom.001
f 73//223 75//223 70//223
usemtl BodyTop.001
f 66//224 71//224 72//224
f 71//225 76//225 77//225
usemtl BodyBottom.001
f 77//226 78//226 73//226
usemtl BodyTop.001
f 74//227 79//227 76//227
usemtl BodyBottom.001
f 78//228 80//228 75//228
usemtl BodyTop.001
f 76//229 81//229 82//229
usemtl BodyBottom.001
f 78//230 77//230 82//230
f 39//231 91//231 90//231
usemtl BodyTop.001
f 36//232 91//232 89//232
usemtl BodyBottom.001
f 16//233 90//233 85//233
usemtl BodyTop.001
f 84//234 89//234 38//234
usemtl BodyBottom.001
f 87//235 88//235 9//235
usemtl BodyTop.001
f 86//236 88//236 5//236
usemtl BodyBottom.001
f 85//237 87//237 8//237
usemtl BodyTop.001
f 7//238 86//238 84//238
usemtl Fin.001
f 100//239 97//239 95//239
f 94//240 97//240 100//240
f 92//90 98//90 100//90
f 100//90 99//90 93//90
f 109//92 108//92 104//92
f 109//241 106//241 103//241
f 101//93 105//93 109//93
f 102//93 108//93 109//93
f 112//242 113//242 119//242
f 110//243 116//243 117//243
f 116//244 115//244 118//244
f 114//245 119//245 118//245
usemtl Eye.001
f 129//108 137//108 136//108
f 135//109 134//109 126//109
f 125//110 133//110 132//110
f 131//111 130//111 122//111
f 122//112 130//112 137//112
f 136//113 135//113 127//113
f 126//114 134//114 133//114
f 124//115 132//115 131//115
f 127//246 144//246 145//246
f 142//125 143//125 126//125
f 123//126 140//126 141//126
f 145//247 146//247 129//247
f 143//128 144//128 127//128
f 141//129 142//129 125//129
f 139//130 140//130 123//130
f 129//131 146//131 139//131
f 153//132 161//132 162//132
f 151//133 159//133 160//133
f 149//134 157//134 158//134
f 147//135 155//135 156//135
f 154//136 162//136 155//136
f 153//137 152//137 160//137
f 151//138 150//138 158//138
f 149//139 148//139 156//139
f 153//148 170//148 169//148
f 150//149 151//149 168//149
f 148//248 149//248 166//248
f 154//249 171//249 170//249
f 151//152 152//152 169//152
f 150//153 167//153 166//153
f 147//154 148//154 165//154
f 154//250 147//250 164//250
