# Blender v2.79 (sub 0) OBJ File: 'Minnnow_ioexperment.blend'
# www.blender.org
mtllib Minnow_000001.mtl
v 0.225534 0.273001 0.141120
v 0.186968 -0.159074 0.082573
v 0.337153 0.067251 0.128686
v 0.121117 0.190820 0.699032
v 0.150541 0.051360 0.690203
v 0.110830 -0.094767 0.600450
v 0.053585 -0.049348 0.952176
v 0.030845 -0.089098 0.971062
v 0.051116 -0.063444 0.933546
v 0.184401 0.257610 -0.664742
v 0.285026 0.050659 -0.670685
v 0.140390 -0.177555 -0.690138
v 0.082371 0.123514 -1.263775
v 0.138611 0.051821 -1.259524
v 0.102688 -0.057767 -1.266519
v -0.019862 -0.089098 0.971407
v 0.025054 0.040249 -1.553303
v 0.042457 0.011828 -1.551294
v 0.030275 -0.032575 -1.554568
v 0.014169 0.026351 -1.686131
v 0.026599 0.007273 -1.684968
v 0.018661 -0.021889 -1.686850
v 0.005262 0.033492 -1.817041
v 0.011868 0.008464 -1.815525
v 0.007651 -0.029794 -1.817988
v 0.004117 0.187632 -1.964118
v 0.010737 0.035463 -1.962658
v 0.006498 -0.197136 -1.965085
v 0.003523 0.265364 -2.042077
v 0.010143 0.048424 -2.040617
v 0.005904 -0.283182 -2.043044
v -0.227106 0.273001 0.143867
v -0.189252 -0.159074 0.084846
v -0.338868 0.067251 0.132787
v -0.113688 0.190820 0.700793
v -0.143241 0.051360 0.692405
v -0.104879 -0.094767 0.602067
v -0.042857 -0.049348 0.952833
v -0.040642 -0.063444 0.934171
v -0.192646 0.257610 -0.663721
v -0.293302 0.050659 -0.669118
v -0.148774 -0.177555 -0.689354
v -0.092203 0.123514 -1.263542
v -0.148431 0.051821 -1.259141
v -0.112528 -0.057767 -1.266232
v 0.003740 0.248875 0.703314
v -0.000804 0.431722 0.139555
v -0.004188 0.380931 -0.688329
v -0.004921 0.177768 -1.267344
v 0.005604 -0.034019 0.987737
v 0.002440 -0.210664 0.529902
v -0.001838 -0.337665 -0.030920
v -0.004292 -0.222210 -0.726539
v -0.004925 -0.113104 -1.270283
v 0.005507 -0.094433 0.973559
v -0.035615 0.040249 -1.553293
v -0.053018 0.011828 -1.551278
v -0.040837 -0.032575 -1.554556
v -0.005281 0.063840 -1.555012
v -0.005281 -0.057490 -1.554738
v -0.024422 0.026351 -1.686170
v -0.036854 0.007273 -1.685031
v -0.028914 -0.021889 -1.686897
v -0.005126 0.040788 -1.687131
v -0.005128 -0.036614 -1.687913
v -0.015254 0.033492 -1.817062
v -0.021863 0.008464 -1.815558
v -0.017641 -0.029794 -1.818013
v -0.004995 0.052433 -1.818338
v -0.004994 -0.049113 -1.819364
v -0.016397 0.187632 -1.963962
v -0.022994 0.035463 -1.962401
v -0.018793 -0.197136 -1.964892
v -0.006150 0.302787 -1.965326
v -0.006158 -0.314588 -1.966352
v -0.016992 0.265364 -2.041921
v -0.023588 0.048424 -2.040360
v -0.019387 -0.283182 -2.042851
v -0.006744 0.429535 -2.043286
v -0.006752 -0.450629 -2.044311
v -0.006866 0.266998 -2.059232
v -0.006679 0.047052 -2.034781
v -0.006859 -0.284283 -2.058286
v 0.005357 0.002003 0.951520
v 0.005123 -0.109233 0.917066
v 0.062175 -0.018766 0.919953
v 0.041030 -0.089820 0.923880
v 0.063768 -0.048825 0.902573
v -0.051885 -0.018766 0.920730
v -0.030688 -0.089820 0.924368
v -0.053715 -0.048825 0.903373
v 0.173208 -0.048366 0.357406
v 0.218108 0.024127 0.318662
v 0.226237 -0.193596 0.222651
v 0.305190 -0.066126 0.154525
v 0.195658 -0.012119 0.338034
v 0.286418 -0.156870 0.176270
v 0.214048 -0.132661 0.294701
v 0.277089 -0.030881 0.240304
v 0.245569 -0.081771 0.267502
v -0.171071 -0.048360 0.360075
v -0.216808 0.024122 0.322302
v -0.226214 -0.193409 0.225975
v -0.306636 -0.065957 0.159555
v -0.193939 -0.012119 0.341188
v -0.287292 -0.156708 0.180761
v -0.212859 -0.132605 0.297927
v -0.277073 -0.030839 0.244894
v -0.244966 -0.081722 0.271411
v -0.001532 0.436122 -0.028943
v -0.001391 0.416399 0.005540
v -0.004659 0.274162 -1.071208
v -0.004731 0.222699 -1.124693
v 0.005675 0.394554 -0.821273
v -0.013885 0.450024 -0.562660
v 0.007365 0.464016 -0.298637
v -0.002578 0.393161 -0.284783
v -0.003881 0.379138 -0.556468
v -0.004311 0.328875 -0.810552
v 0.004803 -0.038183 0.909879
v 0.005894 -0.083997 0.916024
v 0.105636 0.104667 0.761756
v 0.094806 0.093067 0.787937
v 0.093679 0.065129 0.800406
v 0.102915 0.037220 0.791861
v 0.117104 0.025687 0.767306
v 0.127934 0.037287 0.741126
v 0.129061 0.065225 0.728656
v 0.119825 0.093134 0.737202
v 0.118637 0.085916 0.768143
v 0.113443 0.080353 0.780698
v 0.112903 0.066956 0.786678
v 0.117332 0.053572 0.782579
v 0.124136 0.048041 0.770804
v 0.129330 0.053604 0.758249
v 0.129871 0.067002 0.752269
v 0.125441 0.080386 0.756367
v 0.123490 0.067357 0.770511
v 0.102598 0.104120 0.760257
v 0.091768 0.092520 0.786438
v 0.090641 0.064583 0.798907
v 0.099877 0.036673 0.790362
v 0.114066 0.025141 0.765807
v 0.124896 0.036741 0.739627
v 0.126023 0.064678 0.727157
v 0.116787 0.092588 0.735703
v -0.097497 0.104667 0.763140
v -0.086311 0.093067 0.789170
v -0.085014 0.065129 0.801623
v -0.094366 0.037220 0.793204
v -0.108888 0.025687 0.768845
v -0.120074 0.037287 0.742815
v -0.121371 0.065225 0.730362
v -0.112019 0.093134 0.738781
v -0.110409 0.085916 0.769702
v -0.105045 0.080353 0.782185
v -0.104423 0.066956 0.788158
v -0.108908 0.053572 0.784120
v -0.115872 0.048041 0.772439
v -0.121236 0.053604 0.759956
v -0.121858 0.067002 0.753983
v -0.117374 0.080386 0.758021
v -0.115229 0.067357 0.772137
v -0.094480 0.104120 0.761600
v -0.083294 0.092520 0.787630
v -0.081997 0.064583 0.800083
v -0.091348 0.036673 0.791664
v -0.105870 0.025141 0.767305
v -0.117056 0.036741 0.741275
v -0.118353 0.064678 0.728822
v -0.109002 0.092588 0.737240
vn 0.5543 0.7930 0.2527
vn 0.8474 0.4420 0.2941
vn 0.8002 -0.5694 0.1883
vn 0.6220 -0.7647 0.1684
vn 0.3527 0.6646 0.6587
vn 0.4561 -0.8829 0.1119
vn 0.9379 -0.1350 0.3194
vn 0.8972 -0.3939 0.1997
vn 0.3269 -0.9321 -0.1559
vn 0.8365 -0.5463 -0.0432
vn 0.8763 0.4787 -0.0539
vn 0.5512 0.8327 -0.0533
vn 0.3366 -0.9173 -0.2127
vn 0.8340 -0.5108 -0.2084
vn 0.7668 0.5860 -0.2618
vn 0.5499 0.7879 -0.2772
vn 0.9213 -0.2851 -0.2645
vn 0.5099 0.7996 -0.3173
vn 0.4542 -0.8703 -0.1903
vn 0.8225 0.4823 -0.3015
vn 0.9610 -0.2559 -0.1053
vn 0.6130 0.7784 -0.1351
vn 0.5266 -0.8424 -0.1143
vn 0.8348 0.5363 -0.1245
vn 0.5261 -0.8504 0.0071
vn 0.9663 0.2519 -0.0520
vn 0.9608 -0.2544 -0.1107
vn 0.8773 0.4780 0.0433
vn 0.9938 -0.1078 -0.0274
vn 0.9855 0.0894 0.1445
vn 0.6821 -0.4854 0.5469
vn 0.9983 0.0438 0.0381
vn 0.9993 0.0306 0.0229
vn 0.9998 -0.0181 -0.0106
vn 0.9935 0.0628 0.0946
vn 0.9879 -0.1077 0.1113
vn 0.8564 0.0498 -0.5139
vn 0.8515 -0.0572 -0.5212
vn 0.7675 -0.0532 -0.6388
vn -0.3286 0.0111 -0.9444
vn -0.4363 0.8731 0.2177
vn -0.8431 0.4414 0.3072
vn -0.7971 -0.5695 0.2008
vn -0.6190 -0.7650 0.1779
vn -0.5429 0.5265 0.6543
vn -0.6559 -0.7291 0.1956
vn -0.9721 -0.2276 0.0566
vn -0.8944 -0.3939 0.2119
vn -0.6959 -0.7178 -0.0193
vn -0.8372 -0.5457 -0.0363
vn -0.8767 0.4787 -0.0465
vn -0.5743 0.8177 -0.0401
vn -0.3379 -0.9171 -0.2117
vn -0.8349 -0.5105 -0.2060
vn -0.8762 0.4317 -0.2143
vn -0.5513 0.7875 -0.2756
vn -0.9220 -0.2851 -0.2621
vn -0.5108 0.7995 -0.3160
vn -0.4547 -0.8703 -0.1891
vn -0.7539 0.5713 -0.3244
vn -0.9608 -0.2556 -0.1074
vn -0.6130 0.7782 -0.1365
vn -0.5696 -0.8119 -0.1279
vn -0.8504 0.5122 -0.1202
vn -0.5262 -0.8504 0.0060
vn -0.8368 0.5399 -0.0912
vn -0.9605 -0.2543 -0.1126
vn -0.5990 0.8007 0.0017
vn -0.9940 -0.1089 -0.0124
vn -0.7615 0.4442 0.4721
vn -0.6777 -0.4825 0.5550
vn -0.9646 0.2580 0.0549
vn -0.9989 0.0435 0.0148
vn -0.9998 -0.0181 0.0046
vn -0.9913 0.0894 0.0967
vn -0.9861 -0.1077 0.1263
vn -0.8641 0.0498 -0.5008
vn 0.3121 -0.0163 -0.9499
vn -0.7772 -0.0532 -0.6270
vn -0.7741 0.0452 -0.6315
vn -0.8863 -0.4126 0.2103
vn -0.8971 0.1655 0.4097
vn -0.2195 -0.9434 0.2487
vn -0.5913 0.5698 0.5707
vn 0.8891 -0.4126 0.1982
vn 0.9026 0.1653 0.3976
vn 0.2228 -0.9434 0.2456
vn 0.5990 0.5698 0.5626
vn 0.8573 -0.3123 0.4092
vn 0.7515 -0.1186 0.6490
vn -0.8777 -0.0765 0.4731
vn -0.8492 -0.3150 0.4238
vn -0.7395 -0.1216 0.6621
vn -0.9889 0.1456 -0.0292
vn -1.0000 -0.0000 0.0041
vn -0.9904 0.1385 -0.0024
vn -0.9887 -0.1434 -0.0440
vn 0.2692 -0.9619 0.0487
vn -0.2672 -0.9621 0.0542
vn -0.4030 0.1122 0.9083
vn 0.4098 0.1308 0.9027
vn 0.4808 0.8241 0.2995
vn -0.1864 0.9669 0.1741
vn 0.6103 -0.5956 0.5223
vn -0.5986 -0.5987 0.5323
vn 0.1882 0.9661 0.1765
vn -0.4881 0.8205 0.2973
vn 0.9425 0.3294 -0.0571
vn 0.9161 -0.3250 0.2350
vn 0.5837 -0.0549 0.8101
vn 0.6101 0.5995 0.5180
vn 0.7818 0.5999 0.1700
vn 0.9981 -0.0537 -0.0302
vn 0.7444 -0.3254 0.5830
vn 0.5281 0.3283 0.7832
vn 0.8374 0.2789 0.4700
vn 0.8824 0.2791 0.3788
vn 0.9391 0.1078 0.3264
vn 0.8726 0.0366 0.4870
vn 0.8159 0.2079 0.5395
vn 0.9245 0.2082 0.3193
vn 0.9176 0.0367 0.3959
vn 0.8305 0.1075 0.5465
vn 0.4635 -0.3767 -0.8020
vn -0.0368 -0.9125 0.4073
vn -0.4635 0.3767 0.8021
vn 0.3538 0.3789 -0.8552
vn 0.3017 -0.9116 -0.2791
vn -0.3538 -0.3789 0.8552
vn -0.3017 0.9116 0.2791
vn 0.0368 0.9125 -0.4073
vn -0.9432 0.3294 -0.0442
vn -0.9128 -0.3250 0.2474
vn -0.5726 -0.0549 0.8180
vn -0.6030 0.5995 0.5263
vn -0.7794 0.5999 0.1806
vn -0.9984 -0.0537 -0.0166
vn -0.7364 -0.3254 0.5931
vn -0.5174 0.3283 0.7903
vn -0.8309 0.2789 0.4814
vn -0.8771 0.2791 0.3908
vn -0.9345 0.1078 0.3392
vn -0.8659 0.0366 0.4989
vn -0.8085 0.2079 0.5505
vn -0.9201 0.2082 0.3319
vn -0.9121 0.0367 0.4083
vn -0.8230 0.1075 0.5578
vn -0.4743 -0.3767 -0.7957
vn 0.0424 -0.9125 0.4068
vn 0.4744 0.3767 0.7957
vn -0.3654 0.3789 -0.8503
vn -0.3055 -0.9116 -0.2750
vn 0.3654 -0.3789 0.8503
vn 0.3055 0.9116 0.2750
vn -0.0424 0.9125 -0.4068
vn 0.4395 0.8731 0.2109
vn 0.9597 0.1894 0.2075
vn 0.8702 -0.4070 0.2777
vn 0.6580 -0.7294 0.1873
vn 0.5518 0.5265 0.6467
vn 0.6584 -0.7292 0.1865
vn 0.9728 -0.2276 0.0433
vn 0.9085 -0.3682 0.1975
vn 0.6948 -0.7188 -0.0247
vn 0.8455 -0.5326 -0.0382
vn 0.8965 0.4378 -0.0675
vn 0.5738 0.8178 -0.0449
vn 0.4550 -0.8730 -0.1757
vn 0.9452 -0.3019 -0.1246
vn 0.8755 0.4319 -0.2168
vn 0.5162 0.8128 -0.2699
vn 0.9368 -0.2381 -0.2563
vn 0.5912 0.7364 -0.3288
vn 0.5671 -0.8082 -0.1587
vn 0.7530 0.5713 -0.3265
vn 0.9613 -0.2549 -0.1050
vn 0.5983 0.7904 -0.1317
vn 0.5696 -0.8121 -0.1266
vn 0.8505 0.5125 -0.1184
vn 0.8338 -0.5495 0.0531
vn 0.8370 0.5399 -0.0895
vn 0.9916 -0.1044 -0.0770
vn 0.5990 0.8007 0.0029
vn 0.9997 -0.0184 0.0130
vn 0.7662 0.4465 0.4620
vn 0.9767 -0.1072 0.1860
vn 0.9655 0.2573 0.0398
vn 0.9991 0.0435 -0.0004
vn 0.9999 -0.0128 0.0065
vn 0.9927 0.0894 0.0815
vn 0.9893 -0.0757 0.1246
vn -0.3266 -0.0163 -0.9450
vn 0.7643 0.0452 -0.6432
vn -0.5509 0.7926 0.2615
vn -0.9563 0.1893 0.2227
vn -0.8657 -0.4072 0.2911
vn -0.6549 -0.7294 0.1975
vn -0.3430 0.6649 0.6636
vn -0.4545 -0.8829 0.1182
vn -0.9335 -0.1350 0.3322
vn -0.9060 -0.3676 0.2099
vn -0.3276 -0.9322 -0.1536
vn -0.8457 -0.5328 -0.0315
vn -0.8970 0.4379 -0.0600
vn -0.5514 0.8328 -0.0488
vn -0.4555 -0.8729 -0.1746
vn -0.9455 -0.3019 -0.1221
vn -0.7676 0.5861 -0.2596
vn -0.5170 0.8129 -0.2683
vn -0.9374 -0.2384 -0.2539
vn -0.5916 0.7368 -0.3273
vn -0.5673 -0.8084 -0.1573
vn -0.8230 0.4827 -0.2994
vn -0.9610 -0.2548 -0.1072
vn -0.5980 0.7904 -0.1330
vn -0.5264 -0.8424 -0.1154
vn -0.8345 0.5363 -0.1264
vn -0.8339 -0.5495 0.0514
vn -0.9662 0.2519 -0.0539
vn -0.9914 -0.1044 -0.0789
vn -0.8774 0.4780 0.0415
vn -0.9994 -0.0184 0.0288
vn -0.9831 0.0894 0.1600
vn -0.9736 -0.1072 0.2014
vn -0.9976 0.0438 0.0537
vn -0.9988 0.0306 0.0382
vn -0.9997 -0.0128 0.0218
vn -0.9920 0.0628 0.1097
vn -0.9873 -0.0757 0.1397
vn -0.8594 -0.0572 -0.5081
vn 0.3141 0.0111 -0.9493
vn -0.8943 -0.4068 0.1865
vn -0.9335 -0.1349 0.3321
vn -0.5429 0.5265 0.6542
vn 0.8967 -0.4068 0.1743
vn 0.9379 -0.1350 0.3195
vn 0.4561 -0.8829 0.1120
vn 0.5518 0.5265 0.6468
vn 0.8862 -0.0737 0.4575
vn 0.6980 -0.3672 0.6148
vn -0.6861 -0.3700 0.6264
vn -1.0000 -0.0000 0.0013
vn -0.9906 0.1354 -0.0187
vn -0.9875 -0.1318 0.0865
vn -0.9889 0.1459 -0.0272
vn 0.5838 -0.0549 0.8101
vn 0.4634 -0.3767 -0.8021
vn 0.3538 0.3789 -0.8551
vn -0.3538 -0.3789 0.8551
vn -0.3054 -0.9116 -0.2750
usemtl BodyTop.001
s off
f 46//1 1//1 47//1
f 1//2 5//2 3//2
usemtl BodyBottom.001
f 3//3 6//3 2//3
f 2//4 51//4 52//4
usemtl BodyTop.001
f 84//5 4//5 46//5
usemtl BodyBottom.001
f 85//6 6//6 87//6
usemtl BodyTop.001
f 86//7 9//7 88//7
usemtl BodyBottom.001
f 6//8 88//8 87//8
f 12//9 52//9 53//9
f 2//10 11//10 3//10
usemtl BodyTop.001
f 3//11 10//11 1//11
f 47//12 10//12 48//12
usemtl BodyBottom.001
f 53//13 15//13 12//13
f 12//14 14//14 11//14
usemtl BodyTop.001
f 10//15 14//15 13//15
f 10//16 49//16 48//16
usemtl BodyBottom.001
f 15//17 18//17 14//17
usemtl BodyTop.001
f 13//18 59//18 49//18
usemtl BodyBottom.001
f 54//19 19//19 15//19
usemtl BodyTop.001
f 13//20 18//20 17//20
usemtl BodyBottom.001
f 19//21 21//21 18//21
usemtl BodyTop.001
f 17//22 64//22 59//22
usemtl BodyBottom.001
f 19//23 65//23 22//23
usemtl BodyTop.001
f 17//24 21//24 20//24
usemtl BodyBottom.001
f 65//25 25//25 22//25
usemtl BodyTop.001
f 20//26 24//26 23//26
usemtl BodyBottom.001
f 22//27 24//27 21//27
usemtl BodyTop.001
f 64//28 23//28 69//28
usemtl BodyBottom.001
f 25//29 27//29 24//29
usemtl BodyTop.001
f 69//30 26//30 74//30
usemtl BodyBottom.001
f 70//31 28//31 25//31
usemtl BodyTop.001
f 23//32 27//32 26//32
f 26//33 30//33 29//33
usemtl BodyBottom.001
f 28//34 30//34 27//34
usemtl BodyTop.001
f 74//35 29//35 79//35
usemtl BodyBottom.001
f 75//36 31//36 28//36
usemtl BodyTop.001
f 29//37 81//37 79//37
f 29//38 82//38 81//38
usemtl BodyBottom.001
f 31//39 80//39 83//39
f 31//40 82//40 30//40
usemtl BodyTop.001
f 46//41 32//41 35//41
f 36//42 32//42 34//42
usemtl BodyBottom.001
f 37//43 34//43 33//43
f 51//44 33//44 52//44
usemtl BodyTop.001
f 84//45 35//45 89//45
usemtl BodyBottom.001
f 85//46 37//46 51//46
usemtl BodyTop.001
f 89//47 39//47 38//47
usemtl BodyBottom.001
f 91//48 37//48 90//48
f 42//49 52//49 33//49
f 41//50 33//50 34//50
usemtl BodyTop.001
f 40//51 34//51 32//51
f 47//52 40//52 32//52
usemtl BodyBottom.001
f 45//53 53//53 42//53
f 44//54 42//54 41//54
usemtl BodyTop.001
f 40//55 44//55 41//55
f 49//56 40//56 48//56
usemtl BodyBottom.001
f 57//57 45//57 44//57
usemtl BodyTop.001
f 59//58 43//58 49//58
usemtl BodyBottom.001
f 58//59 54//59 45//59
usemtl BodyTop.001
f 43//60 57//60 44//60
usemtl BodyBottom.001
f 62//61 58//61 57//61
usemtl BodyTop.001
f 64//62 56//62 59//62
usemtl BodyBottom.001
f 58//63 65//63 60//63
usemtl BodyTop.001
f 56//64 62//64 57//64
usemtl BodyBottom.001
f 68//65 65//65 63//65
usemtl BodyTop.001
f 61//66 67//66 62//66
usemtl BodyBottom.001
f 67//67 63//67 62//67
usemtl BodyTop.001
f 64//68 66//68 61//68
usemtl BodyBottom.001
f 72//69 68//69 67//69
usemtl BodyTop.001
f 69//70 71//70 66//70
usemtl BodyBottom.001
f 73//71 70//71 68//71
usemtl BodyTop.001
f 66//72 72//72 67//72
f 71//73 77//73 72//73
usemtl BodyBottom.001
f 77//74 73//74 72//74
usemtl BodyTop.001
f 74//75 76//75 71//75
usemtl BodyBottom.001
f 78//76 75//76 73//76
usemtl BodyTop.001
f 76//77 79//77 81//77
f 76//78 82//78 77//78
usemtl BodyBottom.001
f 78//79 83//79 80//79
f 78//80 82//80 83//80
f 39//81 90//81 16//81
usemtl BodyTop.001
f 36//82 89//82 35//82
usemtl BodyBottom.001
f 16//83 85//83 55//83
usemtl BodyTop.001
f 84//84 38//84 50//84
usemtl BodyBottom.001
f 87//85 9//85 8//85
usemtl BodyTop.001
f 86//86 5//86 4//86
usemtl BodyBottom.001
f 85//87 8//87 55//87
usemtl BodyTop.001
f 7//88 84//88 50//88
usemtl Fin.001
f 100//89 95//89 99//89
f 94//89 100//89 98//89
f 92//90 100//90 96//90
f 100//90 93//90 96//90
f 109//91 104//91 106//91
f 109//92 103//92 107//92
f 101//93 109//93 107//93
f 102//93 109//93 105//93
f 112//94 119//94 114//94
f 110//95 117//95 111//95
f 116//96 118//96 117//96
f 114//97 118//97 115//97
usemtl Mouth.001
f 38//98 120//98 50//98
f 120//99 7//99 50//99
f 120//100 121//100 9//100
f 39//101 121//101 120//101
f 16//102 121//102 39//102
f 8//103 121//103 55//103
f 38//104 39//104 120//104
f 120//105 9//105 7//105
f 16//106 55//106 121//106
f 8//107 9//107 121//107
usemtl Eye.001
f 129//108 136//108 128//108
f 135//109 126//109 127//109
f 125//110 132//110 124//110
f 131//111 122//111 123//111
f 122//112 137//112 129//112
f 136//113 127//113 128//113
f 126//114 133//114 125//114
f 124//115 131//115 123//115
usemtl Pupil.001
f 131//116 138//116 130//116
f 130//117 138//117 137//117
f 136//118 138//118 135//118
f 134//119 138//119 133//119
f 132//120 138//120 131//120
f 137//121 138//121 136//121
f 135//122 138//122 134//122
f 133//123 138//123 132//123
usemtl Eye.001
f 127//124 145//124 128//124
f 142//125 126//125 125//125
f 123//126 141//126 124//126
f 145//127 129//127 128//127
f 143//128 127//128 126//128
f 141//129 125//129 124//129
f 139//130 123//130 122//130
f 129//131 139//131 122//131
f 153//132 162//132 154//132
f 151//133 160//133 152//133
f 149//134 158//134 150//134
f 147//135 156//135 148//135
f 154//136 155//136 147//136
f 153//137 160//137 161//137
f 151//138 158//138 159//138
f 149//139 156//139 157//139
usemtl Pupil.001
f 156//140 155//140 163//140
f 155//141 162//141 163//141
f 161//142 160//142 163//142
f 159//143 158//143 163//143
f 157//144 156//144 163//144
f 162//145 161//145 163//145
f 160//146 159//146 163//146
f 158//147 157//147 163//147
usemtl Eye.001
f 153//148 169//148 152//148
f 150//149 168//149 167//149
f 148//150 166//150 165//150
f 154//151 170//151 153//151
f 151//152 169//152 168//152
f 150//153 166//153 149//153
f 147//154 165//154 164//154
f 154//155 164//155 171//155
usemtl BodyTop.001
f 46//156 4//156 1//156
f 1//157 4//157 5//157
usemtl BodyBottom.001
f 3//158 5//158 6//158
f 2//159 6//159 51//159
usemtl BodyTop.001
f 84//160 86//160 4//160
usemtl BodyBottom.001
f 85//161 51//161 6//161
usemtl BodyTop.001
f 86//162 7//162 9//162
usemtl BodyBottom.001
f 6//163 5//163 88//163
f 12//164 2//164 52//164
f 2//165 12//165 11//165
usemtl BodyTop.001
f 3//166 11//166 10//166
f 47//167 1//167 10//167
usemtl BodyBottom.001
f 53//168 54//168 15//168
f 12//169 15//169 14//169
usemtl BodyTop.001
f 10//170 11//170 14//170
f 10//171 13//171 49//171
usemtl BodyBottom.001
f 15//172 19//172 18//172
usemtl BodyTop.001
f 13//173 17//173 59//173
usemtl BodyBottom.001
f 54//174 60//174 19//174
usemtl BodyTop.001
f 13//175 14//175 18//175
usemtl BodyBottom.001
f 19//176 22//176 21//176
usemtl BodyTop.001
f 17//177 20//177 64//177
usemtl BodyBottom.001
f 19//178 60//178 65//178
usemtl BodyTop.001
f 17//179 18//179 21//179
usemtl BodyBottom.001
f 65//180 70//180 25//180
usemtl BodyTop.001
f 20//181 21//181 24//181
usemtl BodyBottom.001
f 22//182 25//182 24//182
usemtl BodyTop.001
f 64//183 20//183 23//183
usemtl BodyBottom.001
f 25//184 28//184 27//184
usemtl BodyTop.001
f 69//185 23//185 26//185
usemtl BodyBottom.001
f 70//186 75//186 28//186
usemtl BodyTop.001
f 23//187 24//187 27//187
f 26//188 27//188 30//188
usemtl BodyBottom.001
f 28//189 31//189 30//189
usemtl BodyTop.001
f 74//190 26//190 29//190
usemtl BodyBottom.001
f 75//191 80//191 31//191
usemtl BodyTop.001
f 29//192 30//192 82//192
usemtl BodyBottom.001
f 31//193 83//193 82//193
usemtl BodyTop.001
f 46//194 47//194 32//194
f 36//195 35//195 32//195
usemtl BodyBottom.001
f 37//196 36//196 34//196
f 51//197 37//197 33//197
usemtl BodyTop.001
f 84//198 46//198 35//198
usemtl BodyBottom.001
f 85//199 90//199 37//199
usemtl BodyTop.001
f 89//200 91//200 39//200
usemtl BodyBottom.001
f 91//201 36//201 37//201
f 42//202 53//202 52//202
f 41//203 42//203 33//203
usemtl BodyTop.001
f 40//204 41//204 34//204
f 47//205 48//205 40//205
usemtl BodyBottom.001
f 45//206 54//206 53//206
f 44//207 45//207 42//207
usemtl BodyTop.001
f 40//208 43//208 44//208
f 49//209 43//209 40//209
usemtl BodyBottom.001
f 57//210 58//210 45//210
usemtl BodyTop.001
f 59//211 56//211 43//211
usemtl BodyBottom.001
f 58//212 60//212 54//212
usemtl BodyTop.001
f 43//213 56//213 57//213
usemtl BodyBottom.001
f 62//214 63//214 58//214
usemtl BodyTop.001
f 64//215 61//215 56//215
usemtl BodyBottom.001
f 58//216 63//216 65//216
usemtl BodyTop.001
f 56//217 61//217 62//217
usemtl BodyBottom.001
f 68//218 70//218 65//218
usemtl BodyTop.001
f 61//219 66//219 67//219
usemtl BodyBottom.001
f 67//220 68//220 63//220
usemtl BodyTop.001
f 64//221 69//221 66//221
usemtl BodyBottom.001
f 72//222 73//222 68//222
usemtl BodyTop.001
f 69//223 74//223 71//223
usemtl BodyBottom.001
f 73//224 75//224 70//224
usemtl BodyTop.001
f 66//225 71//225 72//225
f 71//226 76//226 77//226
usemtl BodyBottom.001
f 77//227 78//227 73//227
usemtl BodyTop.001
f 74//228 79//228 76//228
usemtl BodyBottom.001
f 78//229 80//229 75//229
usemtl BodyTop.001
f 76//230 81//230 82//230
usemtl BodyBottom.001
f 78//231 77//231 82//231
f 39//232 91//232 90//232
usemtl BodyTop.001
f 36//233 91//233 89//233
usemtl BodyBottom.001
f 16//199 90//199 85//199
usemtl BodyTop.001
f 84//234 89//234 38//234
usemtl BodyBottom.001
f 87//235 88//235 9//235
usemtl BodyTop.001
f 86//236 88//236 5//236
usemtl BodyBottom.001
f 85//237 87//237 8//237
usemtl BodyTop.001
f 7//238 86//238 84//238
usemtl Fin.001
f 100//239 97//239 95//239
f 94//240 97//240 100//240
f 92//90 98//90 100//90
f 100//90 99//90 93//90
f 109//92 108//92 104//92
f 109//241 106//241 103//241
f 101//93 105//93 109//93
f 102//93 108//93 109//93
f 112//242 113//242 119//242
f 110//243 116//243 117//243
f 116//244 115//244 118//244
f 114//245 119//245 118//245
usemtl Eye.001
f 129//108 137//108 136//108
f 135//109 134//109 126//109
f 125//246 133//246 132//246
f 131//111 130//111 122//111
f 122//112 130//112 137//112
f 136//113 135//113 127//113
f 126//114 134//114 133//114
f 124//115 132//115 131//115
f 127//247 144//247 145//247
f 142//125 143//125 126//125
f 123//126 140//126 141//126
f 145//248 146//248 129//248
f 143//128 144//128 127//128
f 141//249 142//249 125//249
f 139//130 140//130 123//130
f 129//131 146//131 139//131
f 153//132 161//132 162//132
f 151//133 159//133 160//133
f 149//134 157//134 158//134
f 147//135 155//135 156//135
f 154//136 162//136 155//136
f 153//137 152//137 160//137
f 151//138 150//138 158//138
f 149//139 148//139 156//139
f 153//148 170//148 169//148
f 150//149 151//149 168//149
f 148//150 149//150 166//150
f 154//151 171//151 170//151
f 151//250 152//250 169//250
f 150//153 167//153 166//153
f 147//154 148//154 165//154
f 154//155 147//155 164//155
