# Blender v2.79 (sub 0) OBJ File: 'Minnnow_ioexperment.blend'
# www.blender.org
mtllib Minnow_000003.mtl
v 0.217555 0.273001 0.098962
v 0.175695 -0.159074 0.042798
v 0.328246 0.067251 0.080115
v 0.155900 0.190820 0.659798
v 0.184638 0.051360 0.648944
v 0.138780 -0.094767 0.562174
v 0.103164 -0.049348 0.917656
v 0.081622 -0.089098 0.937896
v 0.099562 -0.063444 0.899212
v 0.145060 0.257610 -0.697941
v 0.245488 0.050659 -0.706480
v 0.100413 -0.177555 -0.722188
v 0.035524 0.123514 -1.293161
v 0.091813 0.051821 -1.289629
v 0.055805 -0.057767 -1.296165
v 0.031030 -0.089098 0.941339
v -0.025276 0.040249 -1.581598
v -0.007870 0.011828 -1.579618
v -0.020057 -0.032575 -1.582871
v -0.034704 0.026351 -1.714187
v -0.022286 0.007273 -1.712907
v -0.030211 -0.021889 -1.714864
v -0.042383 0.033492 -1.845174
v -0.035790 0.008464 -1.843596
v -0.039985 -0.029794 -1.846098
v -0.055633 0.187632 -1.992595
v -0.048918 0.035463 -1.991673
v -0.053338 -0.197136 -1.993750
v -0.062499 0.265364 -2.070254
v -0.055783 0.048424 -2.069331
v -0.060204 -0.283182 -2.071409
v -0.234072 0.273001 0.127833
v -0.199690 -0.159074 0.066689
v -0.346263 0.067251 0.123219
v -0.078205 0.190820 0.677888
v -0.108269 0.051360 0.671578
v -0.076286 -0.094767 0.578793
v 0.006943 -0.049348 0.924205
v 0.008014 -0.063444 0.905442
v -0.231796 0.257610 -0.687179
v -0.332547 0.050659 -0.689974
v -0.188605 -0.177555 -0.713935
v -0.139033 0.123514 -1.290698
v -0.195200 0.051821 -1.285578
v -0.159390 -0.057767 -1.293128
v 0.039110 0.248875 0.672235
v -0.008446 0.431722 0.110465
v -0.044055 0.380931 -0.716645
v -0.051806 0.177768 -1.295614
v 0.057446 -0.034019 0.956082
v 0.025750 -0.210664 0.499339
v -0.019316 -0.337665 -0.059629
v -0.045156 -0.222210 -0.754835
v -0.051848 -0.113104 -1.298553
v 0.056484 -0.094433 0.941936
v -0.085940 0.040249 -1.581484
v -0.103338 0.011828 -1.579440
v -0.091164 -0.032575 -1.582738
v -0.055611 0.063840 -1.583254
v -0.055611 -0.057490 -1.582981
v -0.073293 0.026351 -1.714586
v -0.085735 0.007273 -1.713564
v -0.077784 -0.021889 -1.715355
v -0.053990 0.040788 -1.715367
v -0.054013 -0.036614 -1.716149
v -0.062897 0.033492 -1.845387
v -0.069520 0.008464 -1.843946
v -0.065275 -0.029794 -1.846361
v -0.052626 0.052433 -1.846567
v -0.052616 -0.049113 -1.847593
v -0.076069 0.187632 -1.990789
v -0.082519 0.035463 -1.988702
v -0.078531 -0.197136 -1.991523
v -0.065964 0.302787 -1.992973
v -0.066055 -0.314588 -1.993995
v -0.082934 0.265364 -2.068447
v -0.089384 0.048424 -2.066361
v -0.085397 -0.283182 -2.069182
v -0.072830 0.429535 -2.070632
v -0.072920 -0.450629 -2.071654
v -0.074234 0.266998 -2.086516
v -0.072081 0.047052 -2.062160
v -0.074151 -0.284283 -2.085575
v 0.054987 0.002003 0.919948
v 0.052647 -0.109233 0.885573
v 0.109770 -0.018766 0.884968
v 0.088904 -0.089820 0.890179
v 0.110298 -0.048825 0.867523
v -0.004030 -0.018766 0.892713
v 0.017350 -0.089820 0.895049
v -0.006917 -0.048825 0.875501
v 0.182157 -0.048371 0.314165
v 0.224055 0.024132 0.272211
v 0.225968 -0.193797 0.176344
v 0.299642 -0.066308 0.102573
v 0.203106 -0.012120 0.293188
v 0.282662 -0.157043 0.125779
v 0.218709 -0.132721 0.248936
v 0.277535 -0.030926 0.190033
v 0.248122 -0.081823 0.219485
v -0.159888 -0.048311 0.342118
v -0.210230 0.024075 0.310521
v -0.227356 -0.192230 0.212510
v -0.315876 -0.064948 0.156951
v -0.185059 -0.012118 0.326319
v -0.293332 -0.155718 0.174618
v -0.207097 -0.132241 0.283528
v -0.277777 -0.030611 0.239167
v -0.242437 -0.081426 0.261348
v -0.016104 0.436122 -0.057852
v -0.014621 0.416399 -0.023401
v -0.049039 0.274162 -1.099498
v -0.049793 0.222699 -1.152977
v -0.035512 0.394554 -0.849715
v -0.050863 0.450024 -0.590807
v -0.017716 0.464016 -0.327688
v -0.027113 0.393161 -0.313457
v -0.040817 0.379138 -0.584836
v -0.045360 0.328875 -0.838868
v 0.051889 -0.038183 0.878419
v 0.053354 -0.083997 0.884485
v 0.143483 0.104667 0.724411
v 0.134272 0.093067 0.751204
v 0.133909 0.065129 0.763720
v 0.142606 0.037220 0.754626
v 0.155268 0.025687 0.729250
v 0.164478 0.037287 0.702457
v 0.164841 0.065225 0.689942
v 0.156145 0.093134 0.699035
v 0.156849 0.085916 0.729991
v 0.152433 0.080353 0.742840
v 0.152258 0.066956 0.748842
v 0.156429 0.053572 0.744481
v 0.162501 0.048041 0.732311
v 0.166918 0.053604 0.719463
v 0.167092 0.067002 0.713461
v 0.162922 0.080386 0.717822
v 0.161838 0.067357 0.732058
v 0.140359 0.104120 0.723101
v 0.131149 0.092520 0.749894
v 0.130785 0.064583 0.762409
v 0.139482 0.036673 0.753315
v 0.152144 0.025141 0.727940
v 0.161354 0.036741 0.701147
v 0.161717 0.064678 0.688631
v 0.153021 0.092588 0.697725
v -0.059186 0.104667 0.738205
v -0.046431 0.093067 0.763503
v -0.044375 0.065129 0.775854
v -0.054224 0.037220 0.768022
v -0.070207 0.025687 0.744596
v -0.082963 0.037287 0.719298
v -0.085018 0.065225 0.706947
v -0.075170 0.093134 0.714779
v -0.071674 0.085916 0.745544
v -0.065557 0.080353 0.757676
v -0.064571 0.066956 0.763599
v -0.069294 0.053572 0.759843
v -0.076959 0.048041 0.748609
v -0.083076 0.053604 0.736477
v -0.084062 0.067002 0.730554
v -0.079339 0.080386 0.734310
v -0.076336 0.067357 0.748268
v -0.056269 0.104120 0.736483
v -0.043513 0.092520 0.761781
v -0.041458 0.064583 0.774132
v -0.051306 0.036673 0.766301
v -0.067290 0.025141 0.742874
v -0.080045 0.036741 0.717576
v -0.082101 0.064678 0.705225
v -0.072252 0.092588 0.713057
vn 0.5690 0.7949 0.2106
vn 0.8655 0.4445 0.2309
vn 0.8125 -0.5688 0.1282
vn 0.6346 -0.7631 0.1222
vn 0.3970 0.6627 0.6350
vn 0.4621 -0.8829 0.0836
vn 0.9557 -0.1350 0.2615
vn 0.9077 -0.3941 0.1440
vn 0.3231 -0.9315 -0.1667
vn 0.8326 -0.5487 -0.0760
vn 0.8738 0.4782 -0.0887
vn 0.5499 0.8319 -0.0748
vn 0.3305 -0.9184 -0.2174
vn 0.8301 -0.5125 -0.2198
vn 0.7633 0.5858 -0.2724
vn 0.5432 0.7899 -0.2845
vn 0.9178 -0.2851 -0.2762
vn 0.5059 0.7997 -0.3234
vn 0.4517 -0.8704 -0.1960
vn 0.8199 0.4804 -0.3115
vn 0.9617 -0.2570 -0.0952
vn 0.6132 0.7794 -0.1285
vn 0.5272 -0.8427 -0.1088
vn 0.8360 0.5364 -0.1157
vn 0.5256 -0.8506 0.0121
vn 0.9668 0.2519 -0.0429
vn 0.9617 -0.2545 -0.1017
vn 0.8768 0.4780 0.0515
vn 0.9892 -0.1015 -0.1062
vn 0.9940 0.0894 0.0623
vn 0.7051 -0.4999 0.5028
vn 0.9981 0.0438 -0.0439
vn 0.9979 0.0306 -0.0575
vn 0.9957 -0.0181 -0.0910
vn 0.9979 0.0628 0.0143
vn 0.9937 -0.1077 0.0314
vn 0.8123 0.0498 -0.5811
vn 0.8068 -0.0572 -0.5880
vn 0.7136 -0.0532 -0.6985
vn -0.4035 0.0111 -0.9149
vn -0.4198 0.8727 0.2494
vn -0.8196 0.4387 0.3684
vn -0.7798 -0.5698 0.2595
vn -0.6027 -0.7662 0.2227
vn -0.5019 0.5260 0.6865
vn -0.6434 -0.7283 0.2361
vn -0.9668 -0.2276 0.1159
vn -0.8798 -0.3936 0.2666
vn -0.7011 -0.7130 0.0069
vn -0.8397 -0.5430 -0.0031
vn -0.8778 0.4789 -0.0115
vn -0.5762 0.8172 -0.0170
vn -0.3441 -0.9159 -0.2068
vn -0.8388 -0.5086 -0.1944
vn -0.8795 0.4309 -0.2020
vn -0.5580 0.7854 -0.2681
vn -0.9252 -0.2851 -0.2504
vn -0.5147 0.7994 -0.3098
vn -0.4571 -0.8703 -0.1834
vn -0.7580 0.5714 -0.3147
vn -0.9599 -0.2545 -0.1173
vn -0.6128 0.7771 -0.1431
vn -0.5693 -0.8111 -0.1340
vn -0.8499 0.5110 -0.1289
vn -0.5266 -0.8501 0.0010
vn -0.8359 0.5399 -0.0990
vn -0.9595 -0.2541 -0.1216
vn -0.5990 0.8007 -0.0039
vn -0.9911 -0.1143 0.0677
vn -0.7349 0.4311 0.5236
vn -0.6531 -0.4660 0.5969
vn -0.9560 0.2607 0.1345
vn -0.9945 0.0435 0.0952
vn -0.9962 -0.0181 0.0850
vn -0.9803 0.0894 0.1761
vn -0.9728 -0.1077 0.2053
vn -0.9016 0.0498 -0.4296
vn 0.2347 -0.0163 -0.9719
vn -0.8251 -0.0532 -0.5625
vn -0.8224 0.0452 -0.5672
vn -0.8718 -0.4126 0.2641
vn -0.8705 0.1667 0.4632
vn -0.2039 -0.9434 0.2616
vn -0.5553 0.5698 0.6058
vn 0.8995 -0.4126 0.1435
vn 0.9252 0.1640 0.3422
vn 0.2374 -0.9434 0.2316
vn 0.6323 0.5698 0.5250
vn 0.8847 -0.3094 0.3488
vn 0.7954 -0.1154 0.5950
vn -0.8212 -0.0944 0.5628
vn -0.7954 -0.3318 0.5072
vn -0.6631 -0.1403 0.7352
vn -0.9892 0.1456 -0.0166
vn -0.9991 -0.0000 0.0430
vn -0.9893 0.1398 0.0427
vn -0.9894 -0.1426 -0.0281
vn 0.2717 -0.9619 0.0321
vn -0.2634 -0.9621 0.0704
vn -0.3467 0.1122 0.9312
vn 0.4642 0.1308 0.8760
vn 0.4982 0.8241 0.2696
vn -0.1754 0.9669 0.1852
vn 0.6411 -0.5956 0.4840
vn -0.5649 -0.5987 0.5679
vn 0.1986 0.9661 0.1647
vn -0.4691 0.8205 0.3266
vn 0.9372 0.3294 -0.1146
vn 0.9287 -0.3250 0.1786
vn 0.6321 -0.0549 0.7729
vn 0.6407 0.5995 0.4798
vn 0.7907 0.5999 0.1219
vn 0.9944 -0.0537 -0.0911
vn 0.7787 -0.3254 0.5364
vn 0.5750 0.3283 0.7494
vn 0.8646 0.2789 0.4180
vn 0.9039 0.2790 0.3242
vn 0.9573 0.1078 0.2684
vn 0.9007 0.0366 0.4328
vn 0.8474 0.2079 0.4886
vn 0.9423 0.2082 0.2623
vn 0.9401 0.0367 0.3391
vn 0.8624 0.1075 0.4948
vn 0.4136 -0.3767 -0.8289
vn -0.0119 -0.9125 0.4088
vn -0.4136 0.3767 0.8289
vn 0.3008 0.3789 -0.8752
vn 0.2841 -0.9116 -0.2970
vn -0.3009 -0.3789 0.8752
vn -0.2841 0.9116 0.2970
vn 0.0119 0.9125 -0.4088
vn -0.9441 0.3294 0.0135
vn -0.8960 -0.3250 0.3027
vn -0.5216 -0.0549 0.8514
vn -0.5697 0.5995 0.5622
vn -0.7669 0.5999 0.2279
vn -0.9976 -0.0537 0.0445
vn -0.6988 -0.3254 0.6370
vn -0.4681 0.3283 0.8204
vn -0.8000 0.2789 0.5313
vn -0.8516 0.2791 0.4437
vn -0.9121 0.1078 0.3956
vn -0.8338 0.0366 0.5509
vn -0.7734 0.2079 0.5989
vn -0.8981 0.2082 0.3875
vn -0.8854 0.0367 0.4633
vn -0.7874 0.1075 0.6070
vn -0.5221 -0.3767 -0.7652
vn 0.0671 -0.9125 0.4034
vn 0.5221 0.3767 0.7652
vn -0.4167 0.3789 -0.8263
vn -0.3217 -0.9116 -0.2558
vn 0.4166 -0.3789 0.8264
vn 0.3217 0.9116 0.2558
vn -0.0671 0.9125 -0.4034
vn 0.4532 0.8735 0.1778
vn 0.9725 0.1899 0.1347
vn 0.8889 -0.4055 0.2131
vn 0.6707 -0.7288 0.1379
vn 0.5902 0.5270 0.6115
vn 0.6678 -0.7300 0.1452
vn 0.9736 -0.2276 -0.0162
vn 0.9174 -0.3719 0.1415
vn 0.6888 -0.7232 -0.0503
vn 0.8440 -0.5317 -0.0702
vn 0.8932 0.4377 -0.1032
vn 0.5711 0.8181 -0.0678
vn 0.4528 -0.8731 -0.1808
vn 0.9435 -0.3019 -0.1363
vn 0.8720 0.4326 -0.2289
vn 0.5126 0.8126 -0.2774
vn 0.9339 -0.2367 -0.2679
vn 0.5895 0.7344 -0.3363
vn 0.5663 -0.8074 -0.1654
vn 0.7487 0.5713 -0.3362
vn 0.9622 -0.2552 -0.0947
vn 0.5995 0.7905 -0.1255
vn 0.5700 -0.8128 -0.1206
vn 0.8510 0.5136 -0.1096
vn 0.8332 -0.5495 0.0611
vn 0.8378 0.5399 -0.0817
vn 0.9922 -0.1044 -0.0676
vn 0.5989 0.8008 0.0085
vn 0.9974 -0.0183 -0.0694
vn 0.7905 0.4575 0.4073
vn 0.9888 -0.1073 0.1038
vn 0.9669 0.2522 -0.0397
vn 0.9958 0.0435 -0.0808
vn 0.9972 -0.0128 -0.0739
vn 0.9960 0.0894 0.0014
vn 0.9961 -0.0757 0.0446
vn -0.4015 -0.0163 -0.9157
vn 0.7101 0.0452 -0.7027
vn -0.5328 0.7904 0.3024
vn -0.9371 0.1887 0.2937
vn -0.8415 -0.4086 0.3534
vn -0.6380 -0.7299 0.2454
vn -0.2970 0.6668 0.6835
vn -0.4464 -0.8829 0.1460
vn -0.9115 -0.1350 0.3886
vn -0.8930 -0.3638 0.2651
vn -0.3310 -0.9328 -0.1426
vn -0.8458 -0.5335 0.0006
vn -0.8987 0.4379 -0.0241
vn -0.5518 0.8335 -0.0274
vn -0.4577 -0.8728 -0.1695
vn -0.9470 -0.3019 -0.1102
vn -0.7710 0.5863 -0.2488
vn -0.5205 0.8131 -0.2607
vn -0.9401 -0.2398 -0.2423
vn -0.5933 0.7387 -0.3199
vn -0.5680 -0.8091 -0.1507
vn -0.8255 0.4845 -0.2895
vn -0.9599 -0.2545 -0.1174
vn -0.5967 0.7903 -0.1392
vn -0.5257 -0.8421 -0.1209
vn -0.8332 0.5362 -0.1352
vn -0.8344 -0.5495 0.0434
vn -0.9657 0.2519 -0.0630
vn -0.9906 -0.1044 -0.0883
vn -0.8777 0.4780 0.0333
vn -0.9935 -0.0184 0.1119
vn -0.9664 0.0894 0.2409
vn -0.9534 -0.1072 0.2819
vn -0.9897 0.0438 0.1361
vn -0.9925 0.0306 0.1184
vn -0.9947 -0.0128 0.1021
vn -0.9799 0.0628 0.1892
vn -0.9729 -0.0757 0.2186
vn -0.8975 -0.0572 -0.4373
vn 0.2367 0.0111 -0.9715
vn -0.8812 -0.4068 0.2408
vn -0.9121 -0.1342 0.3874
vn -0.4464 -0.8829 0.1457
vn -0.5019 0.5265 0.6862
vn 0.9057 -0.4068 0.1192
vn 0.9553 -0.1357 0.2627
vn 0.4621 -0.8829 0.0839
vn 0.5903 0.5265 0.6118
vn 0.9162 -0.0706 0.3944
vn 0.7402 -0.3642 0.5652
vn -0.6109 -0.3874 0.6904
vn -0.9999 0.0000 0.0141
vn -0.9906 0.1354 0.0199
vn -0.9831 -0.1283 0.1307
vn -0.9892 0.1465 -0.0113
vn 0.6322 -0.0549 0.7729
vn -0.4166 0.3789 -0.8263
vn 0.4166 -0.3789 0.8263
vn -0.0672 0.9125 -0.4034
usemtl BodyTop.001
s off
f 46//1 1//1 47//1
f 1//2 5//2 3//2
usemtl BodyBottom.001
f 3//3 6//3 2//3
f 2//4 51//4 52//4
usemtl BodyTop.001
f 84//5 4//5 46//5
usemtl BodyBottom.001
f 85//6 6//6 87//6
usemtl BodyTop.001
f 86//7 9//7 88//7
usemtl BodyBottom.001
f 6//8 88//8 87//8
f 12//9 52//9 53//9
f 2//10 11//10 3//10
usemtl BodyTop.001
f 3//11 10//11 1//11
f 47//12 10//12 48//12
usemtl BodyBottom.001
f 53//13 15//13 12//13
f 12//14 14//14 11//14
usemtl BodyTop.001
f 10//15 14//15 13//15
f 10//16 49//16 48//16
usemtl BodyBottom.001
f 15//17 18//17 14//17
usemtl BodyTop.001
f 13//18 59//18 49//18
usemtl BodyBottom.001
f 54//19 19//19 15//19
usemtl BodyTop.001
f 13//20 18//20 17//20
usemtl BodyBottom.001
f 19//21 21//21 18//21
usemtl BodyTop.001
f 17//22 64//22 59//22
usemtl BodyBottom.001
f 19//23 65//23 22//23
usemtl BodyTop.001
f 17//24 21//24 20//24
usemtl BodyBottom.001
f 65//25 25//25 22//25
usemtl BodyTop.001
f 20//26 24//26 23//26
usemtl BodyBottom.001
f 22//27 24//27 21//27
usemtl BodyTop.001
f 64//28 23//28 69//28
usemtl BodyBottom.001
f 25//29 27//29 24//29
usemtl BodyTop.001
f 69//30 26//30 74//30
usemtl BodyBottom.001
f 70//31 28//31 25//31
usemtl BodyTop.001
f 23//32 27//32 26//32
f 26//33 30//33 29//33
usemtl BodyBottom.001
f 28//34 30//34 27//34
usemtl BodyTop.001
f 74//35 29//35 79//35
usemtl BodyBottom.001
f 75//36 31//36 28//36
usemtl BodyTop.001
f 29//37 81//37 79//37
f 29//38 82//38 81//38
usemtl BodyBottom.001
f 31//39 80//39 83//39
f 31//40 82//40 30//40
usemtl BodyTop.001
f 46//41 32//41 35//41
f 36//42 32//42 34//42
usemtl BodyBottom.001
f 37//43 34//43 33//43
f 51//44 33//44 52//44
usemtl BodyTop.001
f 84//45 35//45 89//45
usemtl BodyBottom.001
f 85//46 37//46 51//46
usemtl BodyTop.001
f 89//47 39//47 38//47
usemtl BodyBottom.001
f 91//48 37//48 90//48
f 42//49 52//49 33//49
f 41//50 33//50 34//50
usemtl BodyTop.001
f 40//51 34//51 32//51
f 47//52 40//52 32//52
usemtl BodyBottom.001
f 45//53 53//53 42//53
f 44//54 42//54 41//54
usemtl BodyTop.001
f 40//55 44//55 41//55
f 49//56 40//56 48//56
usemtl BodyBottom.001
f 57//57 45//57 44//57
usemtl BodyTop.001
f 59//58 43//58 49//58
usemtl BodyBottom.001
f 58//59 54//59 45//59
usemtl BodyTop.001
f 43//60 57//60 44//60
usemtl BodyBottom.001
f 62//61 58//61 57//61
usemtl BodyTop.001
f 64//62 56//62 59//62
usemtl BodyBottom.001
f 58//63 65//63 60//63
usemtl BodyTop.001
f 56//64 62//64 57//64
usemtl BodyBottom.001
f 68//65 65//65 63//65
usemtl BodyTop.001
f 61//66 67//66 62//66
usemtl BodyBottom.001
f 67//67 63//67 62//67
usemtl BodyTop.001
f 64//68 66//68 61//68
usemtl BodyBottom.001
f 72//69 68//69 67//69
usemtl BodyTop.001
f 69//70 71//70 66//70
usemtl BodyBottom.001
f 73//71 70//71 68//71
usemtl BodyTop.001
f 66//72 72//72 67//72
f 71//73 77//73 72//73
usemtl BodyBottom.001
f 77//74 73//74 72//74
usemtl BodyTop.001
f 74//75 76//75 71//75
usemtl BodyBottom.001
f 78//76 75//76 73//76
usemtl BodyTop.001
f 76//77 79//77 81//77
f 76//78 82//78 77//78
usemtl BodyBottom.001
f 78//79 83//79 80//79
f 78//80 82//80 83//80
f 39//81 90//81 16//81
usemtl BodyTop.001
f 36//82 89//82 35//82
usemtl BodyBottom.001
f 16//83 85//83 55//83
usemtl BodyTop.001
f 84//84 38//84 50//84
usemtl BodyBottom.001
f 87//85 9//85 8//85
usemtl BodyTop.001
f 86//86 5//86 4//86
usemtl BodyBottom.001
f 85//87 8//87 55//87
usemtl BodyTop.001
f 7//88 84//88 50//88
usemtl Fin.001
f 100//89 95//89 99//89
f 94//89 100//89 98//89
f 92//90 100//90 96//90
f 100//90 93//90 96//90
f 109//91 104//91 106//91
f 109//92 103//92 107//92
f 101//93 109//93 107//93
f 102//93 109//93 105//93
f 112//94 119//94 114//94
f 110//95 117//95 111//95
f 116//96 118//96 117//96
f 114//97 118//97 115//97
usemtl Mouth.001
f 38//98 120//98 50//98
f 120//99 7//99 50//99
f 120//100 121//100 9//100
f 39//101 121//101 120//101
f 16//102 121//102 39//102
f 8//103 121//103 55//103
f 38//104 39//104 120//104
f 120//105 9//105 7//105
f 16//106 55//106 121//106
f 8//107 9//107 121//107
usemtl Eye.001
f 129//108 136//108 128//108
f 135//109 126//109 127//109
f 125//110 132//110 124//110
f 131//111 122//111 123//111
f 122//112 137//112 129//112
f 136//113 127//113 128//113
f 126//114 133//114 125//114
f 124//115 131//115 123//115
usemtl Pupil.001
f 131//116 138//116 130//116
f 130//117 138//117 137//117
f 136//118 138//118 135//118
f 134//119 138//119 133//119
f 132//120 138//120 131//120
f 137//121 138//121 136//121
f 135//122 138//122 134//122
f 133//123 138//123 132//123
usemtl Eye.001
f 127//124 145//124 128//124
f 142//125 126//125 125//125
f 123//126 141//126 124//126
f 145//127 129//127 128//127
f 143//128 127//128 126//128
f 141//129 125//129 124//129
f 139//130 123//130 122//130
f 129//131 139//131 122//131
f 153//132 162//132 154//132
f 151//133 160//133 152//133
f 149//134 158//134 150//134
f 147//135 156//135 148//135
f 154//136 155//136 147//136
f 153//137 160//137 161//137
f 151//138 158//138 159//138
f 149//139 156//139 157//139
usemtl Pupil.001
f 156//140 155//140 163//140
f 155//141 162//141 163//141
f 161//142 160//142 163//142
f 159//143 158//143 163//143
f 157//144 156//144 163//144
f 162//145 161//145 163//145
f 160//146 159//146 163//146
f 158//147 157//147 163//147
usemtl Eye.001
f 153//148 169//148 152//148
f 150//149 168//149 167//149
f 148//150 166//150 165//150
f 154//151 170//151 153//151
f 151//152 169//152 168//152
f 150//153 166//153 149//153
f 147//154 165//154 164//154
f 154//155 164//155 171//155
usemtl BodyTop.001
f 46//156 4//156 1//156
f 1//157 4//157 5//157
usemtl BodyBottom.001
f 3//158 5//158 6//158
f 2//159 6//159 51//159
usemtl BodyTop.001
f 84//160 86//160 4//160
usemtl BodyBottom.001
f 85//161 51//161 6//161
usemtl BodyTop.001
f 86//162 7//162 9//162
usemtl BodyBottom.001
f 6//163 5//163 88//163
f 12//164 2//164 52//164
f 2//165 12//165 11//165
usemtl BodyTop.001
f 3//166 11//166 10//166
f 47//167 1//167 10//167
usemtl BodyBottom.001
f 53//168 54//168 15//168
f 12//169 15//169 14//169
usemtl BodyTop.001
f 10//170 11//170 14//170
f 10//171 13//171 49//171
usemtl BodyBottom.001
f 15//172 19//172 18//172
usemtl BodyTop.001
f 13//173 17//173 59//173
usemtl BodyBottom.001
f 54//174 60//174 19//174
usemtl BodyTop.001
f 13//175 14//175 18//175
usemtl BodyBottom.001
f 19//176 22//176 21//176
usemtl BodyTop.001
f 17//177 20//177 64//177
usemtl BodyBottom.001
f 19//178 60//178 65//178
usemtl BodyTop.001
f 17//179 18//179 21//179
usemtl BodyBottom.001
f 65//180 70//180 25//180
usemtl BodyTop.001
f 20//181 21//181 24//181
usemtl BodyBottom.001
f 22//182 25//182 24//182
usemtl BodyTop.001
f 64//183 20//183 23//183
usemtl BodyBottom.001
f 25//184 28//184 27//184
usemtl BodyTop.001
f 69//185 23//185 26//185
usemtl BodyBottom.001
f 70//186 75//186 28//186
usemtl BodyTop.001
f 23//187 24//187 27//187
f 26//188 27//188 30//188
usemtl BodyBottom.001
f 28//189 31//189 30//189
usemtl BodyTop.001
f 74//190 26//190 29//190
usemtl BodyBottom.001
f 75//191 80//191 31//191
usemtl BodyTop.001
f 29//192 30//192 82//192
usemtl BodyBottom.001
f 31//193 83//193 82//193
usemtl BodyTop.001
f 46//194 47//194 32//194
f 36//195 35//195 32//195
usemtl BodyBottom.001
f 37//196 36//196 34//196
f 51//197 37//197 33//197
usemtl BodyTop.001
f 84//198 46//198 35//198
usemtl BodyBottom.001
f 85//199 90//199 37//199
usemtl BodyTop.001
f 89//200 91//200 39//200
usemtl BodyBottom.001
f 91//201 36//201 37//201
f 42//202 53//202 52//202
f 41//203 42//203 33//203
usemtl BodyTop.001
f 40//204 41//204 34//204
f 47//205 48//205 40//205
usemtl BodyBottom.001
f 45//206 54//206 53//206
f 44//207 45//207 42//207
usemtl BodyTop.001
f 40//208 43//208 44//208
f 49//209 43//209 40//209
usemtl BodyBottom.001
f 57//210 58//210 45//210
usemtl BodyTop.001
f 59//211 56//211 43//211
usemtl BodyBottom.001
f 58//212 60//212 54//212
usemtl BodyTop.001
f 43//213 56//213 57//213
usemtl BodyBottom.001
f 62//214 63//214 58//214
usemtl BodyTop.001
f 64//215 61//215 56//215
usemtl BodyBottom.001
f 58//216 63//216 65//216
usemtl BodyTop.001
f 56//217 61//217 62//217
usemtl BodyBottom.001
f 68//218 70//218 65//218
usemtl BodyTop.001
f 61//219 66//219 67//219
usemtl BodyBottom.001
f 67//220 68//220 63//220
usemtl BodyTop.001
f 64//221 69//221 66//221
usemtl BodyBottom.001
f 72//222 73//222 68//222
usemtl BodyTop.001
f 69//223 74//223 71//223
usemtl BodyBottom.001
f 73//224 75//224 70//224
usemtl BodyTop.001
f 66//225 71//225 72//225
f 71//226 76//226 77//226
usemtl BodyBottom.001
f 77//227 78//227 73//227
usemtl BodyTop.001
f 74//228 79//228 76//228
usemtl BodyBottom.001
f 78//229 80//229 75//229
usemtl BodyTop.001
f 76//230 81//230 82//230
usemtl BodyBottom.001
f 78//231 77//231 82//231
f 39//232 91//232 90//232
usemtl BodyTop.001
f 36//233 91//233 89//233
usemtl BodyBottom.001
f 16//234 90//234 85//234
usemtl BodyTop.001
f 84//235 89//235 38//235
usemtl BodyBottom.001
f 87//236 88//236 9//236
usemtl BodyTop.001
f 86//237 88//237 5//237
usemtl BodyBottom.001
f 85//238 87//238 8//238
usemtl BodyTop.001
f 7//239 86//239 84//239
usemtl Fin.001
f 100//240 97//240 95//240
f 94//241 97//241 100//241
f 92//90 98//90 100//90
f 100//90 99//90 93//90
f 109//92 108//92 104//92
f 109//242 106//242 103//242
f 101//93 105//93 109//93
f 102//93 108//93 109//93
f 112//243 113//243 119//243
f 110//244 116//244 117//244
f 116//245 115//245 118//245
f 114//246 119//246 118//246
usemtl Eye.001
f 129//108 137//108 136//108
f 135//109 134//109 126//109
f 125//247 133//247 132//247
f 131//111 130//111 122//111
f 122//112 130//112 137//112
f 136//113 135//113 127//113
f 126//114 134//114 133//114
f 124//115 132//115 131//115
f 127//124 144//124 145//124
f 142//125 143//125 126//125
f 123//126 140//126 141//126
f 145//127 146//127 129//127
f 143//128 144//128 127//128
f 141//129 142//129 125//129
f 139//130 140//130 123//130
f 129//131 146//131 139//131
f 153//132 161//132 162//132
f 151//133 159//133 160//133
f 149//134 157//134 158//134
f 147//135 155//135 156//135
f 154//136 162//136 155//136
f 153//137 152//137 160//137
f 151//138 150//138 158//138
f 149//139 148//139 156//139
f 153//148 170//148 169//148
f 150//149 151//149 168//149
f 148//150 149//150 166//150
f 154//248 171//248 170//248
f 151//152 152//152 169//152
f 150//249 167//249 166//249
f 147//154 148//154 165//154
f 154//250 147//250 164//250
