# Blender v2.79 (sub 0) OBJ File: 'Minnnow_ioexperment.blend'
# www.blender.org
mtllib Minnow_000002.mtl
v 0.222479 0.273001 0.118850
v 0.182593 -0.159074 0.061219
v 0.333780 0.067251 0.103875
v 0.134984 0.190820 0.678264
v 0.164151 0.051360 0.668618
v 0.121953 -0.094767 0.580007
v 0.073493 -0.049348 0.933369
v 0.051232 -0.089098 0.952815
v 0.070561 -0.063444 0.914806
v 0.168872 0.257610 -0.683619
v 0.269429 0.050659 -0.690587
v 0.124605 -0.177555 -0.708563
v 0.063865 0.123514 -1.281156
v 0.120126 0.051821 -1.277189
v 0.084168 -0.057767 -1.284003
v 0.000549 -0.089098 0.954425
v 0.005174 0.040249 -1.570259
v 0.022578 0.011828 -1.568262
v 0.010394 -0.032575 -1.571527
v -0.005133 0.026351 -1.702994
v 0.007292 0.007273 -1.701784
v -0.000641 -0.021889 -1.703696
v -0.013553 0.033492 -1.833936
v -0.006952 0.008464 -1.832395
v -0.011161 -0.029794 -1.834874
v -0.019227 0.187632 -1.981258
v -0.012567 0.035463 -1.979999
v -0.016877 -0.197136 -1.982296
v -0.022172 0.265364 -2.059164
v -0.015511 0.048424 -2.057904
v -0.019821 -0.283182 -2.060202
v -0.229961 0.273001 0.131928
v -0.193462 -0.159074 0.072041
v -0.341942 0.067251 0.123400
v -0.099679 0.190820 0.686568
v -0.129454 0.051360 0.679008
v -0.093626 -0.094767 0.587636
v -0.022902 -0.049348 0.936430
v -0.021153 -0.063444 0.917719
v -0.208138 0.257610 -0.678750
v -0.308841 0.050659 -0.683120
v -0.164530 -0.177555 -0.704830
v -0.110706 0.123514 -1.280044
v -0.166911 0.051821 -1.275359
v -0.131043 -0.057767 -1.282631
v 0.017773 0.248875 0.685816
v -0.003826 0.431722 0.122451
v -0.019944 0.380931 -0.705279
v -0.023444 0.177768 -1.284285
v 0.026414 -0.034019 0.970115
v 0.011640 -0.210664 0.512508
v -0.008750 -0.337665 -0.047948
v -0.020442 -0.222210 -0.743486
v -0.023462 -0.113104 -1.287224
v 0.025964 -0.094433 0.955943
v -0.055494 0.040249 -1.570209
v -0.072895 0.011828 -1.568183
v -0.060717 -0.032575 -1.571468
v -0.025162 0.063840 -1.571948
v -0.025161 -0.057490 -1.571674
v -0.043724 0.026351 -1.703176
v -0.056160 0.007273 -1.702083
v -0.048215 -0.021889 -1.703920
v -0.024425 0.040788 -1.704065
v -0.024435 -0.036614 -1.704848
v -0.034068 0.033492 -1.834033
v -0.040684 0.008464 -1.832554
v -0.036452 -0.029794 -1.834993
v -0.023805 0.052433 -1.835271
v -0.023800 -0.049113 -1.836298
v -0.039728 0.187632 -1.980484
v -0.046275 0.035463 -1.978725
v -0.042150 -0.197136 -1.981341
v -0.029526 0.302787 -1.982157
v -0.029565 -0.314588 -1.983181
v -0.042672 0.265364 -2.058389
v -0.049219 0.048424 -2.056630
v -0.045094 -0.283182 -2.059247
v -0.032471 0.429535 -2.060062
v -0.032509 -0.450629 -2.061087
v -0.033073 0.266998 -2.075997
v -0.032149 0.047052 -2.051563
v -0.033037 -0.284283 -2.075053
v 0.025264 0.002003 0.933916
v 0.024171 -0.109233 0.899478
v 0.081277 -0.018766 0.900941
v 0.060237 -0.089820 0.905394
v 0.082437 -0.048825 0.883527
v -0.032728 -0.018766 0.904562
v -0.011447 -0.089820 0.907671
v -0.034990 -0.048825 0.887257
v 0.176882 -0.048368 0.334873
v 0.220608 0.024129 0.294818
v 0.226292 -0.193688 0.198845
v 0.303180 -0.066210 0.128412
v 0.198745 -0.012120 0.314845
v 0.285118 -0.156950 0.150767
v 0.216050 -0.132689 0.271142
v 0.277442 -0.030902 0.214904
v 0.246746 -0.081795 0.243023
v -0.166739 -0.048342 0.347562
v -0.214386 0.024105 0.312156
v -0.226488 -0.192871 0.214881
v -0.310269 -0.065481 0.152624
v -0.190562 -0.012119 0.329859
v -0.289565 -0.156248 0.172434
v -0.210551 -0.132441 0.286623
v -0.277447 -0.030725 0.236913
v -0.243999 -0.081583 0.261768
v -0.007293 0.436122 -0.046010
v -0.006621 0.416399 -0.011534
v -0.022194 0.274162 -1.088154
v -0.022535 0.222699 -1.141637
v -0.010601 0.394554 -0.838274
v -0.028501 0.450024 -0.579534
v -0.002546 0.464016 -0.315810
v -0.012275 0.393161 -0.301804
v -0.018479 0.379138 -0.573429
v -0.020533 0.328875 -0.827503
v 0.023672 -0.038183 0.892301
v 0.024916 -0.083997 0.898416
v 0.120780 0.104667 0.741710
v 0.110606 0.093067 0.768152
v 0.109790 0.065129 0.780646
v 0.118810 0.037220 0.771873
v 0.132383 0.025687 0.746972
v 0.142557 0.037287 0.720530
v 0.143373 0.065225 0.708036
v 0.134353 0.093134 0.716809
v 0.133936 0.085916 0.747770
v 0.129057 0.080353 0.760451
v 0.128666 0.066956 0.766442
v 0.132991 0.053572 0.762235
v 0.139500 0.048041 0.750294
v 0.144379 0.053604 0.737613
v 0.144771 0.067002 0.731622
v 0.140445 0.080386 0.735829
v 0.138846 0.067357 0.750017
v 0.117706 0.104120 0.740288
v 0.107532 0.092520 0.766730
v 0.106716 0.064583 0.779224
v 0.115736 0.036673 0.770451
v 0.129308 0.025141 0.745550
v 0.139482 0.036741 0.719108
v 0.140298 0.064678 0.706614
v 0.131278 0.092588 0.715387
v -0.082255 0.104667 0.748158
v -0.070424 0.093067 0.773902
v -0.068816 0.065129 0.786319
v -0.078375 0.037220 0.778136
v -0.093500 0.025687 0.754146
v -0.105332 0.037287 0.728403
v -0.106939 0.065225 0.715986
v -0.097380 0.093134 0.724169
v -0.095000 0.085916 0.755041
v -0.089326 0.080353 0.767386
v -0.088555 0.066956 0.773341
v -0.093139 0.053572 0.769417
v -0.100393 0.048041 0.757913
v -0.106067 0.053604 0.745567
v -0.106837 0.067002 0.739612
v -0.102253 0.080386 0.743537
v -0.099758 0.067357 0.757595
v -0.079277 0.104120 0.746544
v -0.067446 0.092520 0.772287
v -0.065839 0.064583 0.784704
v -0.075397 0.036673 0.776521
v -0.090522 0.025141 0.752531
v -0.102354 0.036741 0.726788
v -0.103961 0.064678 0.714371
v -0.094402 0.092588 0.722554
vn 0.5605 0.7938 0.2361
vn 0.8551 0.4430 0.2693
vn 0.8056 -0.5692 0.1647
vn 0.6274 -0.7641 0.1503
vn 0.3707 0.6639 0.6495
vn 0.4588 -0.8829 0.1004
vn 0.9456 -0.1350 0.2959
vn 0.9019 -0.3940 0.1771
vn 0.3255 -0.9319 -0.1602
vn 0.8351 -0.5472 -0.0562
vn 0.8755 0.4785 -0.0677
vn 0.5507 0.8324 -0.0618
vn 0.3342 -0.9178 -0.2145
vn 0.8325 -0.5115 -0.2129
vn 0.7654 0.5859 -0.2660
vn 0.5473 0.7887 -0.2801
vn 0.9199 -0.2851 -0.2691
vn 0.5083 0.7996 -0.3197
vn 0.4532 -0.8703 -0.1925
vn 0.8214 0.4816 -0.3055
vn 0.9613 -0.2563 -0.1013
vn 0.6131 0.7788 -0.1325
vn 0.5268 -0.8425 -0.1121
vn 0.8353 0.5363 -0.1210
vn 0.5259 -0.8505 0.0091
vn 0.9665 0.2519 -0.0484
vn 0.9611 -0.2544 -0.1071
vn 0.8771 0.4780 0.0466
vn 0.9928 -0.1055 -0.0571
vn 0.9895 0.0894 0.1138
vn 0.6908 -0.4911 0.5306
vn 0.9990 0.0438 0.0073
vn 0.9995 0.0306 -0.0072
vn 0.9990 -0.0181 -0.0408
vn 0.9959 0.0628 0.0646
vn 0.9908 -0.1077 0.0815
vn 0.8405 0.0498 -0.5395
vn 0.8355 -0.0572 -0.5466
vn 0.7479 -0.0532 -0.6617
vn -0.3569 0.0111 -0.9341
vn -0.4300 0.8729 0.2304
vn -0.8343 0.4403 0.3317
vn -0.7907 -0.5696 0.2242
vn -0.6130 -0.7655 0.1958
vn -0.5265 0.5263 0.6677
vn -0.6510 -0.7288 0.2121
vn -0.9704 -0.2276 0.0808
vn -0.8888 -0.3938 0.2343
vn -0.6981 -0.7160 -0.0090
vn -0.8383 -0.5447 -0.0232
vn -0.8773 0.4788 -0.0327
vn -0.5751 0.8175 -0.0310
vn -0.3403 -0.9166 -0.2098
vn -0.8364 -0.5097 -0.2014
vn -0.8775 0.4314 -0.2094
vn -0.5539 0.7867 -0.2727
vn -0.9233 -0.2851 -0.2575
vn -0.5123 0.7995 -0.3136
vn -0.4557 -0.8703 -0.1869
vn -0.7555 0.5713 -0.3206
vn -0.9605 -0.2552 -0.1114
vn -0.6129 0.7778 -0.1391
vn -0.5695 -0.8116 -0.1303
vn -0.8502 0.5117 -0.1237
vn -0.5263 -0.8503 0.0040
vn -0.8365 0.5399 -0.0943
vn -0.9601 -0.2543 -0.1162
vn -0.5990 0.8007 -0.0005
vn -0.9937 -0.1110 0.0175
vn -0.7517 0.4395 0.4916
vn -0.6687 -0.4765 0.5708
vn -0.9621 0.2593 0.0847
vn -0.9980 0.0435 0.0450
vn -0.9992 -0.0181 0.0348
vn -0.9879 0.0894 0.1265
vn -0.9819 -0.1077 0.1560
vn -0.8789 0.0498 -0.4745
vn 0.2833 -0.0163 -0.9589
vn -0.7957 -0.0532 -0.6033
vn -0.7927 0.0452 -0.6079
vn -0.8808 -0.4126 0.2323
vn -0.8866 0.1659 0.4318
vn -0.2132 -0.9434 0.2540
vn -0.5769 0.5698 0.5853
vn 0.8937 -0.4126 0.1760
vn 0.9122 0.1648 0.3751
vn 0.2289 -0.9434 0.2400
vn 0.6129 0.5698 0.5475
vn 0.8687 -0.3110 0.3855
vn 0.7694 -0.1172 0.6279
vn -0.8572 -0.0847 0.5080
vn -0.8294 -0.3226 0.4560
vn -0.7112 -0.1301 0.6909
vn -0.9890 0.1456 -0.0243
vn -0.9998 -0.0000 0.0195
vn -0.9902 0.1390 0.0154
vn -0.9890 -0.1431 -0.0377
vn 0.2703 -0.9619 0.0419
vn -0.2658 -0.9621 0.0608
vn -0.3802 0.1122 0.9181
vn 0.4322 0.1308 0.8922
vn 0.4881 0.8241 0.2874
vn -0.1820 0.9669 0.1787
vn 0.6231 -0.5956 0.5069
vn -0.5851 -0.5987 0.5470
vn 0.1925 0.9661 0.1718
vn -0.4806 0.8205 0.3094
vn 0.9408 0.3294 -0.0806
vn 0.9216 -0.3250 0.2121
vn 0.6038 -0.0549 0.7953
vn 0.6229 0.5995 0.5026
vn 0.7858 0.5999 0.1504
vn 0.9970 -0.0537 -0.0550
vn 0.7587 -0.3254 0.5643
vn 0.5475 0.3283 0.7698
vn 0.8489 0.2789 0.4490
vn 0.8916 0.2791 0.3567
vn 0.9469 0.1078 0.3029
vn 0.8845 0.0366 0.4651
vn 0.8291 0.2079 0.5190
vn 0.9322 0.2082 0.2962
vn 0.9272 0.0367 0.3729
vn 0.8439 0.1075 0.5257
vn 0.4433 -0.3767 -0.8134
vn -0.0266 -0.9125 0.4081
vn -0.4433 0.3767 0.8134
vn 0.3323 0.3789 -0.8637
vn 0.2946 -0.9116 -0.2866
vn -0.3323 -0.3789 0.8637
vn -0.2946 0.9116 0.2866
vn 0.0267 0.9125 -0.4081
vn -0.9440 0.3294 -0.0207
vn -0.9063 -0.3250 0.2701
vn -0.5521 -0.0549 0.8320
vn -0.5897 0.5995 0.5412
vn -0.7746 0.5999 0.2000
vn -0.9985 -0.0537 0.0083
vn -0.7214 -0.3254 0.6113
vn -0.4975 0.3283 0.8029
vn -0.8187 0.2789 0.5019
vn -0.8671 0.2791 0.4126
vn -0.9258 0.1078 0.3624
vn -0.8532 0.0366 0.5203
vn -0.7945 0.2079 0.5705
vn -0.9115 0.2082 0.3547
vn -0.9016 0.0367 0.4309
vn -0.8088 0.1075 0.5781
vn -0.4940 -0.3767 -0.7836
vn 0.0525 -0.9125 0.4056
vn 0.4941 0.3767 0.7836
vn -0.3864 0.3789 -0.8409
vn -0.3122 -0.9116 -0.2673
vn 0.3864 -0.3789 0.8409
vn 0.3122 0.9116 0.2673
vn -0.0525 0.9125 -0.4056
vn 0.4453 0.8732 0.1979
vn 0.9654 0.1895 0.1788
vn 0.8781 -0.4066 0.2523
vn 0.6634 -0.7292 0.1679
vn 0.5677 0.5267 0.6327
vn 0.6626 -0.7295 0.1698
vn 0.9736 -0.2276 0.0190
vn 0.9126 -0.3695 0.1748
vn 0.6925 -0.7206 -0.0349
vn 0.8451 -0.5323 -0.0509
vn 0.8954 0.4378 -0.0817
vn 0.5728 0.8179 -0.0540
vn 0.4542 -0.8730 -0.1777
vn 0.9445 -0.3019 -0.1292
vn 0.8741 0.4322 -0.2216
vn 0.5148 0.8127 -0.2729
vn 0.9357 -0.2376 -0.2609
vn 0.5906 0.7356 -0.3318
vn 0.5668 -0.8079 -0.1613
vn 0.7513 0.5713 -0.3303
vn 0.9617 -0.2550 -0.1009
vn 0.5987 0.7904 -0.1293
vn 0.5698 -0.8124 -0.1242
vn 0.8507 0.5129 -0.1149
vn 0.8336 -0.5495 0.0563
vn 0.8373 0.5399 -0.0864
vn 0.9918 -0.1044 -0.0733
vn 0.5990 0.8007 0.0052
vn 0.9997 -0.0183 -0.0179
vn 0.7755 0.4509 0.4419
vn 0.9820 -0.1073 0.1553
vn 0.9667 0.2556 0.0100
vn 0.9986 0.0435 -0.0305
vn 0.9996 -0.0128 -0.0236
vn 0.9947 0.0894 0.0516
vn 0.9926 -0.0757 0.0947
vn -0.3549 -0.0163 -0.9348
vn 0.7446 0.0452 -0.6660
vn -0.5441 0.7917 0.2778
vn -0.9493 0.1891 0.2510
vn -0.8567 -0.4076 0.3160
vn -0.6487 -0.7296 0.2166
vn -0.3247 0.6655 0.6721
vn -0.4514 -0.8829 0.1296
vn -0.9249 -0.1350 0.3553
vn -0.9010 -0.3663 0.2325
vn -0.3290 -0.9325 -0.1493
vn -0.8459 -0.5331 -0.0188
vn -0.8979 0.4379 -0.0459
vn -0.5516 0.8331 -0.0404
vn -0.4564 -0.8729 -0.1726
vn -0.9461 -0.3019 -0.1174
vn -0.7689 0.5861 -0.2553
vn -0.5184 0.8130 -0.2653
vn -0.9385 -0.2389 -0.2493
vn -0.5923 0.7376 -0.3243
vn -0.5676 -0.8087 -0.1547
vn -0.8240 0.4834 -0.2955
vn -0.9606 -0.2547 -0.1112
vn -0.5975 0.7903 -0.1355
vn -0.5261 -0.8422 -0.1176
vn -0.8340 0.5362 -0.1299
vn -0.8341 -0.5495 0.0482
vn -0.9660 0.2519 -0.0575
vn -0.9911 -0.1044 -0.0827
vn -0.8775 0.4780 0.0383
vn -0.9980 -0.0184 0.0599
vn -0.9776 0.0894 0.1904
vn -0.9668 -0.1072 0.2318
vn -0.9955 0.0438 0.0846
vn -0.9972 0.0306 0.0683
vn -0.9986 -0.0128 0.0519
vn -0.9882 0.0628 0.1396
vn -0.9826 -0.0757 0.1694
vn -0.8743 -0.0572 -0.4820
vn 0.2854 0.0111 -0.9584
vn -0.8893 -0.4068 0.2087
vn -0.9252 -0.1347 0.3549
vn -0.4514 -0.8829 0.1295
vn -0.5265 0.5265 0.6676
vn 0.9008 -0.4068 0.1519
vn 0.9454 -0.1353 0.2964
vn 0.4587 -0.8829 0.1005
vn 0.5678 0.5265 0.6328
vn 0.8987 -0.0723 0.4327
vn 0.7152 -0.3659 0.5955
vn -0.6578 -0.3780 0.6514
vn -1.0000 -0.0000 0.0064
vn -0.9908 0.1354 -0.0034
vn -0.9860 -0.1304 0.1040
vn -0.9890 0.1461 -0.0209
vn -0.0267 -0.9125 0.4081
vn -0.4434 0.3767 0.8133
vn 0.3324 0.3789 -0.8637
vn -0.2947 0.9116 0.2866
vn -0.4975 0.3282 0.8029
vn 0.4940 0.3767 0.7836
vn -0.3865 0.3789 -0.8409
vn 0.3865 -0.3789 0.8409
usemtl BodyTop.001
s off
f 46//1 1//1 47//1
f 1//2 5//2 3//2
usemtl BodyBottom.001
f 3//3 6//3 2//3
f 2//4 51//4 52//4
usemtl BodyTop.001
f 84//5 4//5 46//5
usemtl BodyBottom.001
f 85//6 6//6 87//6
usemtl BodyTop.001
f 86//7 9//7 88//7
usemtl BodyBottom.001
f 6//8 88//8 87//8
f 12//9 52//9 53//9
f 2//10 11//10 3//10
usemtl BodyTop.001
f 3//11 10//11 1//11
f 47//12 10//12 48//12
usemtl BodyBottom.001
f 53//13 15//13 12//13
f 12//14 14//14 11//14
usemtl BodyTop.001
f 10//15 14//15 13//15
f 10//16 49//16 48//16
usemtl BodyBottom.001
f 15//17 18//17 14//17
usemtl BodyTop.001
f 13//18 59//18 49//18
usemtl BodyBottom.001
f 54//19 19//19 15//19
usemtl BodyTop.001
f 13//20 18//20 17//20
usemtl BodyBottom.001
f 19//21 21//21 18//21
usemtl BodyTop.001
f 17//22 64//22 59//22
usemtl BodyBottom.001
f 19//23 65//23 22//23
usemtl BodyTop.001
f 17//24 21//24 20//24
usemtl BodyBottom.001
f 65//25 25//25 22//25
usemtl BodyTop.001
f 20//26 24//26 23//26
usemtl BodyBottom.001
f 22//27 24//27 21//27
usemtl BodyTop.001
f 64//28 23//28 69//28
usemtl BodyBottom.001
f 25//29 27//29 24//29
usemtl BodyTop.001
f 69//30 26//30 74//30
usemtl BodyBottom.001
f 70//31 28//31 25//31
usemtl BodyTop.001
f 23//32 27//32 26//32
f 26//33 30//33 29//33
usemtl BodyBottom.001
f 28//34 30//34 27//34
usemtl BodyTop.001
f 74//35 29//35 79//35
usemtl BodyBottom.001
f 75//36 31//36 28//36
usemtl BodyTop.001
f 29//37 81//37 79//37
f 29//38 82//38 81//38
usemtl BodyBottom.001
f 31//39 80//39 83//39
f 31//40 82//40 30//40
usemtl BodyTop.001
f 46//41 32//41 35//41
f 36//42 32//42 34//42
usemtl BodyBottom.001
f 37//43 34//43 33//43
f 51//44 33//44 52//44
usemtl BodyTop.001
f 84//45 35//45 89//45
usemtl BodyBottom.001
f 85//46 37//46 51//46
usemtl BodyTop.001
f 89//47 39//47 38//47
usemtl BodyBottom.001
f 91//48 37//48 90//48
f 42//49 52//49 33//49
f 41//50 33//50 34//50
usemtl BodyTop.001
f 40//51 34//51 32//51
f 47//52 40//52 32//52
usemtl BodyBottom.001
f 45//53 53//53 42//53
f 44//54 42//54 41//54
usemtl BodyTop.001
f 40//55 44//55 41//55
f 49//56 40//56 48//56
usemtl BodyBottom.001
f 57//57 45//57 44//57
usemtl BodyTop.001
f 59//58 43//58 49//58
usemtl BodyBottom.001
f 58//59 54//59 45//59
usemtl BodyTop.001
f 43//60 57//60 44//60
usemtl BodyBottom.001
f 62//61 58//61 57//61
usemtl BodyTop.001
f 64//62 56//62 59//62
usemtl BodyBottom.001
f 58//63 65//63 60//63
usemtl BodyTop.001
f 56//64 62//64 57//64
usemtl BodyBottom.001
f 68//65 65//65 63//65
usemtl BodyTop.001
f 61//66 67//66 62//66
usemtl BodyBottom.001
f 67//67 63//67 62//67
usemtl BodyTop.001
f 64//68 66//68 61//68
usemtl BodyBottom.001
f 72//69 68//69 67//69
usemtl BodyTop.001
f 69//70 71//70 66//70
usemtl BodyBottom.001
f 73//71 70//71 68//71
usemtl BodyTop.001
f 66//72 72//72 67//72
f 71//73 77//73 72//73
usemtl BodyBottom.001
f 77//74 73//74 72//74
usemtl BodyTop.001
f 74//75 76//75 71//75
usemtl BodyBottom.001
f 78//76 75//76 73//76
usemtl BodyTop.001
f 76//77 79//77 81//77
f 76//78 82//78 77//78
usemtl BodyBottom.001
f 78//79 83//79 80//79
f 78//80 82//80 83//80
f 39//81 90//81 16//81
usemtl BodyTop.001
f 36//82 89//82 35//82
usemtl BodyBottom.001
f 16//83 85//83 55//83
usemtl BodyTop.001
f 84//84 38//84 50//84
usemtl BodyBottom.001
f 87//85 9//85 8//85
usemtl BodyTop.001
f 86//86 5//86 4//86
usemtl BodyBottom.001
f 85//87 8//87 55//87
usemtl BodyTop.001
f 7//88 84//88 50//88
usemtl Fin.001
f 100//89 95//89 99//89
f 94//89 100//89 98//89
f 92//90 100//90 96//90
f 100//90 93//90 96//90
f 109//91 104//91 106//91
f 109//92 103//92 107//92
f 101//93 109//93 107//93
f 102//93 109//93 105//93
f 112//94 119//94 114//94
f 110//95 117//95 111//95
f 116//96 118//96 117//96
f 114//97 118//97 115//97
usemtl Mouth.001
f 38//98 120//98 50//98
f 120//99 7//99 50//99
f 120//100 121//100 9//100
f 39//101 121//101 120//101
f 16//102 121//102 39//102
f 8//103 121//103 55//103
f 38//104 39//104 120//104
f 120//105 9//105 7//105
f 16//106 55//106 121//106
f 8//107 9//107 121//107
usemtl Eye.001
f 129//108 136//108 128//108
f 135//109 126//109 127//109
f 125//110 132//110 124//110
f 131//111 122//111 123//111
f 122//112 137//112 129//112
f 136//113 127//113 128//113
f 126//114 133//114 125//114
f 124//115 131//115 123//115
usemtl Pupil.001
f 131//116 138//116 130//116
f 130//117 138//117 137//117
f 136//118 138//118 135//118
f 134//119 138//119 133//119
f 132//120 138//120 131//120
f 137//121 138//121 136//121
f 135//122 138//122 134//122
f 133//123 138//123 132//123
usemtl Eye.001
f 127//124 145//124 128//124
f 142//125 126//125 125//125
f 123//126 141//126 124//126
f 145//127 129//127 128//127
f 143//128 127//128 126//128
f 141//129 125//129 124//129
f 139//130 123//130 122//130
f 129//131 139//131 122//131
f 153//132 162//132 154//132
f 151//133 160//133 152//133
f 149//134 158//134 150//134
f 147//135 156//135 148//135
f 154//136 155//136 147//136
f 153//137 160//137 161//137
f 151//138 158//138 159//138
f 149//139 156//139 157//139
usemtl Pupil.001
f 156//140 155//140 163//140
f 155//141 162//141 163//141
f 161//142 160//142 163//142
f 159//143 158//143 163//143
f 157//144 156//144 163//144
f 162//145 161//145 163//145
f 160//146 159//146 163//146
f 158//147 157//147 163//147
usemtl Eye.001
f 153//148 169//148 152//148
f 150//149 168//149 167//149
f 148//150 166//150 165//150
f 154//151 170//151 153//151
f 151//152 169//152 168//152
f 150//153 166//153 149//153
f 147//154 165//154 164//154
f 154//155 164//155 171//155
usemtl BodyTop.001
f 46//156 4//156 1//156
f 1//157 4//157 5//157
usemtl BodyBottom.001
f 3//158 5//158 6//158
f 2//159 6//159 51//159
usemtl BodyTop.001
f 84//160 86//160 4//160
usemtl BodyBottom.001
f 85//161 51//161 6//161
usemtl BodyTop.001
f 86//162 7//162 9//162
usemtl BodyBottom.001
f 6//163 5//163 88//163
f 12//164 2//164 52//164
f 2//165 12//165 11//165
usemtl BodyTop.001
f 3//166 11//166 10//166
f 47//167 1//167 10//167
usemtl BodyBottom.001
f 53//168 54//168 15//168
f 12//169 15//169 14//169
usemtl BodyTop.001
f 10//170 11//170 14//170
f 10//171 13//171 49//171
usemtl BodyBottom.001
f 15//172 19//172 18//172
usemtl BodyTop.001
f 13//173 17//173 59//173
usemtl BodyBottom.001
f 54//174 60//174 19//174
usemtl BodyTop.001
f 13//175 14//175 18//175
usemtl BodyBottom.001
f 19//176 22//176 21//176
usemtl BodyTop.001
f 17//177 20//177 64//177
usemtl BodyBottom.001
f 19//178 60//178 65//178
usemtl BodyTop.001
f 17//179 18//179 21//179
usemtl BodyBottom.001
f 65//180 70//180 25//180
usemtl BodyTop.001
f 20//181 21//181 24//181
usemtl BodyBottom.001
f 22//182 25//182 24//182
usemtl BodyTop.001
f 64//183 20//183 23//183
usemtl BodyBottom.001
f 25//184 28//184 27//184
usemtl BodyTop.001
f 69//185 23//185 26//185
usemtl BodyBottom.001
f 70//186 75//186 28//186
usemtl BodyTop.001
f 23//187 24//187 27//187
f 26//188 27//188 30//188
usemtl BodyBottom.001
f 28//189 31//189 30//189
usemtl BodyTop.001
f 74//190 26//190 29//190
usemtl BodyBottom.001
f 75//191 80//191 31//191
usemtl BodyTop.001
f 29//192 30//192 82//192
usemtl BodyBottom.001
f 31//193 83//193 82//193
usemtl BodyTop.001
f 46//194 47//194 32//194
f 36//195 35//195 32//195
usemtl BodyBottom.001
f 37//196 36//196 34//196
f 51//197 37//197 33//197
usemtl BodyTop.001
f 84//198 46//198 35//198
usemtl BodyBottom.001
f 85//199 90//199 37//199
usemtl BodyTop.001
f 89//200 91//200 39//200
usemtl BodyBottom.001
f 91//201 36//201 37//201
f 42//202 53//202 52//202
f 41//203 42//203 33//203
usemtl BodyTop.001
f 40//204 41//204 34//204
f 47//205 48//205 40//205
usemtl BodyBottom.001
f 45//206 54//206 53//206
f 44//207 45//207 42//207
usemtl BodyTop.001
f 40//208 43//208 44//208
f 49//209 43//209 40//209
usemtl BodyBottom.001
f 57//210 58//210 45//210
usemtl BodyTop.001
f 59//211 56//211 43//211
usemtl BodyBottom.001
f 58//212 60//212 54//212
usemtl BodyTop.001
f 43//213 56//213 57//213
usemtl BodyBottom.001
f 62//214 63//214 58//214
usemtl BodyTop.001
f 64//215 61//215 56//215
usemtl BodyBottom.001
f 58//216 63//216 65//216
usemtl BodyTop.001
f 56//217 61//217 62//217
usemtl BodyBottom.001
f 68//218 70//218 65//218
usemtl BodyTop.001
f 61//219 66//219 67//219
usemtl BodyBottom.001
f 67//220 68//220 63//220
usemtl BodyTop.001
f 64//221 69//221 66//221
usemtl BodyBottom.001
f 72//222 73//222 68//222
usemtl BodyTop.001
f 69//223 74//223 71//223
usemtl BodyBottom.001
f 73//224 75//224 70//224
usemtl BodyTop.001
f 66//225 71//225 72//225
f 71//226 76//226 77//226
usemtl BodyBottom.001
f 77//227 78//227 73//227
usemtl BodyTop.001
f 74//228 79//228 76//228
usemtl BodyBottom.001
f 78//229 80//229 75//229
usemtl BodyTop.001
f 76//230 81//230 82//230
usemtl BodyBottom.001
f 78//231 77//231 82//231
f 39//232 91//232 90//232
usemtl BodyTop.001
f 36//233 91//233 89//233
usemtl BodyBottom.001
f 16//234 90//234 85//234
usemtl BodyTop.001
f 84//235 89//235 38//235
usemtl BodyBottom.001
f 87//236 88//236 9//236
usemtl BodyTop.001
f 86//237 88//237 5//237
usemtl BodyBottom.001
f 85//238 87//238 8//238
usemtl BodyTop.001
f 7//239 86//239 84//239
usemtl Fin.001
f 100//240 97//240 95//240
f 94//241 97//241 100//241
f 92//90 98//90 100//90
f 100//90 99//90 93//90
f 109//92 108//92 104//92
f 109//242 106//242 103//242
f 101//93 105//93 109//93
f 102//93 108//93 109//93
f 112//243 113//243 119//243
f 110//244 116//244 117//244
f 116//245 115//245 118//245
f 114//246 119//246 118//246
usemtl Eye.001
f 129//108 137//108 136//108
f 135//109 134//109 126//109
f 125//110 133//110 132//110
f 131//111 130//111 122//111
f 122//112 130//112 137//112
f 136//113 135//113 127//113
f 126//114 134//114 133//114
f 124//115 132//115 131//115
f 127//124 144//124 145//124
f 142//247 143//247 126//247
f 123//248 140//248 141//248
f 145//249 146//249 129//249
f 143//128 144//128 127//128
f 141//129 142//129 125//129
f 139//250 140//250 123//250
f 129//131 146//131 139//131
f 153//132 161//132 162//132
f 151//133 159//133 160//133
f 149//134 157//134 158//134
f 147//135 155//135 156//135
f 154//136 162//136 155//136
f 153//137 152//137 160//137
f 151//138 150//138 158//138
f 149//251 148//251 156//251
f 153//148 170//148 169//148
f 150//149 151//149 168//149
f 148//252 149//252 166//252
f 154//253 171//253 170//253
f 151//152 152//152 169//152
f 150//254 167//254 166//254
f 147//154 148//154 165//154
f 154//155 147//155 164//155
