# Blender v2.79 (sub 0) OBJ File: 'Minnnow_ioexperment.blend'
# www.blender.org
mtllib Minnow_000014.mtl
v 0.217304 0.273001 0.209779
v 0.178335 -0.159074 0.151733
v 0.328684 0.067251 0.196471
v 0.147094 0.190820 0.759195
v 0.175747 0.051360 0.748135
v 0.129272 -0.094767 0.661716
v 0.107511 -0.049348 1.014858
v 0.086782 -0.089098 1.035930
v 0.103185 -0.063444 0.996570
v 0.206164 0.257610 -0.588107
v 0.306920 0.050659 -0.591023
v 0.162937 -0.177555 -0.614813
v 0.117258 0.123514 -1.190771
v 0.173391 0.051821 -1.185290
v 0.137630 -0.057767 -1.193070
v 0.036365 -0.089098 1.041363
v 0.066733 0.040249 -1.480690
v 0.084016 0.011828 -1.477862
v 0.072006 -0.032575 -1.481706
v 0.065967 0.026351 -1.613166
v 0.078279 0.007273 -1.611104
v 0.070485 -0.021889 -1.613560
v 0.066590 0.033492 -1.744377
v 0.073069 0.008464 -1.742385
v 0.069041 -0.029794 -1.745148
v 0.109297 0.187632 -1.882760
v 0.115185 0.035463 -1.879403
v 0.111857 -0.197136 -1.882977
v 0.131855 0.265364 -1.957387
v 0.137743 0.048424 -1.954029
v 0.134415 -0.283182 -1.957604
v -0.234756 0.273001 0.216191
v -0.197406 -0.159074 0.156818
v -0.346470 0.067251 0.206015
v -0.086827 0.190820 0.778974
v -0.116930 0.051360 0.772882
v -0.085626 -0.094767 0.679887
v 0.011623 -0.049348 1.025191
v 0.011953 -0.063444 1.006401
v -0.170736 0.257610 -0.598415
v -0.271182 0.050659 -0.606834
v -0.126114 -0.177555 -0.622718
v -0.057280 0.123514 -1.194355
v -0.113591 0.051821 -1.191185
v -0.077541 -0.057767 -1.197489
v 0.030420 0.248875 0.772473
v -0.008768 0.431722 0.210050
v 0.018373 0.380931 -0.617348
v 0.030065 0.177768 -1.196247
v 0.063342 -0.034019 1.055055
v 0.015812 -0.210664 0.599713
v -0.011176 -0.337665 0.039793
v 0.019422 -0.222210 -0.655544
v 0.030125 -0.113104 -1.199186
v 0.061823 -0.094433 1.040958
v 0.006152 0.040249 -1.483546
v -0.011320 0.011828 -1.482355
v 0.000998 -0.032575 -1.485053
v 0.036523 0.063840 -1.483829
v 0.036510 -0.057490 -1.483556
v 0.027480 0.026351 -1.616006
v 0.014998 0.007273 -1.615772
v 0.023039 -0.021889 -1.617056
v 0.046792 0.040788 -1.615564
v 0.046782 -0.036614 -1.616347
v 0.046130 0.033492 -1.745887
v 0.039429 0.008464 -1.744867
v 0.043818 -0.029794 -1.747009
v 0.056455 0.052433 -1.746415
v 0.056530 -0.049113 -1.747438
v 0.089659 0.187632 -1.888696
v 0.082896 0.035463 -1.889163
v 0.087648 -0.197136 -1.890295
v 0.099850 0.302787 -1.886960
v 0.100147 -0.314588 -1.887942
v 0.112217 0.265364 -1.963323
v 0.105454 0.048424 -1.963789
v 0.110206 -0.283182 -1.964922
v 0.122408 0.429535 -1.961586
v 0.122705 -0.450629 -1.962568
v 0.127022 0.266998 -1.976851
v 0.119947 0.047052 -1.953445
v 0.126749 -0.284283 -1.975946
v 0.059462 0.002003 1.019046
v 0.055770 -0.109233 0.984789
v 0.112824 -0.018766 0.981935
v 0.092180 -0.089820 0.987964
v 0.112665 -0.048825 0.964484
v -0.000582 -0.018766 0.994156
v 0.020873 -0.089820 0.995648
v -0.004144 -0.048825 0.977071
v 0.176826 -0.051428 0.409099
v 0.221913 0.027002 0.384847
v 0.275153 -0.183179 0.286476
v 0.354433 -0.045268 0.243832
v 0.199370 -0.012213 0.396973
v 0.340516 -0.138454 0.257335
v 0.239920 -0.127859 0.355404
v 0.303223 -0.017742 0.321355
v 0.271571 -0.072801 0.338379
v -0.157017 -0.041209 0.439506
v -0.221278 0.017406 0.404761
v -0.159896 -0.182431 0.290809
v -0.272892 -0.079365 0.229714
v -0.189147 -0.011901 0.422133
v -0.227504 -0.161662 0.244768
v -0.168575 -0.127699 0.368151
v -0.258798 -0.045404 0.319369
v -0.213687 -0.086552 0.343760
v -0.003961 0.436122 0.041663
v -0.005139 0.416399 0.076126
v 0.026037 0.274162 -1.000153
v 0.027135 0.222699 -1.053626
v 0.030902 0.394554 -0.750052
v 0.005129 0.450024 -0.492001
v 0.015248 0.464016 -0.227494
v 0.004782 0.393161 -0.214030
v 0.015015 0.379138 -0.485533
v 0.020685 0.328875 -0.739552
v 0.054731 -0.038183 0.977670
v 0.056434 -0.083997 0.983674
v 0.140189 0.104667 0.820176
v 0.132041 0.093067 0.847311
v 0.132171 0.065129 0.859830
v 0.140502 0.037220 0.850401
v 0.152155 0.025687 0.824547
v 0.160303 0.037287 0.797411
v 0.160173 0.065225 0.784892
v 0.151842 0.093134 0.794321
v 0.153765 0.085916 0.825225
v 0.149857 0.080353 0.838238
v 0.149920 0.066956 0.844242
v 0.153915 0.053572 0.839720
v 0.159503 0.048041 0.827321
v 0.163411 0.053604 0.814308
v 0.163349 0.067002 0.808304
v 0.159353 0.080386 0.812826
v 0.158831 0.067357 0.827094
v 0.137016 0.104120 0.818989
v 0.128868 0.092520 0.846124
v 0.128998 0.064583 0.858644
v 0.137329 0.036673 0.849215
v 0.148982 0.025141 0.823360
v 0.157130 0.036741 0.796225
v 0.157000 0.064678 0.783705
v 0.148669 0.092588 0.793134
v -0.061780 0.104667 0.841939
v -0.048038 0.093067 0.866715
v -0.045498 0.065129 0.878976
v -0.055647 0.037220 0.871538
v -0.072540 0.025687 0.848759
v -0.086282 0.037287 0.823983
v -0.088823 0.065225 0.811723
v -0.078673 0.093134 0.819161
v -0.073969 0.085916 0.849765
v -0.067378 0.080353 0.861646
v -0.066160 0.066956 0.867526
v -0.071027 0.053572 0.863959
v -0.079129 0.048041 0.853035
v -0.085719 0.053604 0.841154
v -0.086937 0.067002 0.835274
v -0.082070 0.080386 0.838841
v -0.078520 0.067357 0.852670
v -0.058932 0.104120 0.840104
v -0.045191 0.092520 0.864880
v -0.042650 0.064583 0.877140
v -0.052799 0.036673 0.869703
v -0.069693 0.025141 0.846924
v -0.083435 0.036741 0.822148
v -0.085975 0.064678 0.809888
v -0.075826 0.092588 0.817325
vn 0.5607 0.7982 0.2204
vn 0.8580 0.4483 0.2508
vn 0.8097 -0.5675 0.1495
vn 0.6331 -0.7609 0.1421
vn 0.4042 0.6698 0.6230
vn 0.4650 -0.8829 0.0663
vn 0.9653 -0.1350 0.2237
vn 0.9128 -0.3933 0.1097
vn 0.3303 -0.9334 -0.1404
vn 0.8339 -0.5517 -0.0114
vn 0.8786 0.4770 -0.0215
vn 0.5522 0.8331 -0.0330
vn 0.3433 -0.9166 -0.2049
vn 0.8392 -0.5097 -0.1896
vn 0.7725 0.5861 -0.2444
vn 0.5578 0.7866 -0.2648
vn 0.9269 -0.2851 -0.2442
vn 0.5168 0.7998 -0.3052
vn 0.4583 -0.8704 -0.1802
vn 0.8319 0.4778 -0.2822
vn 0.9655 -0.2583 -0.0327
vn 0.6188 0.7806 -0.0884
vn 0.5325 -0.8431 -0.0745
vn 0.8416 0.5366 -0.0612
vn 0.5233 -0.8509 0.0454
vn 0.9676 0.2519 0.0183
vn 0.9661 -0.2548 -0.0407
vn 0.8718 0.4780 0.1069
vn 0.9553 -0.1201 0.2700
vn 0.8956 0.0894 0.4357
vn 0.5521 -0.4414 0.7074
vn 0.9398 0.0438 0.3389
vn 0.9475 0.0306 0.3183
vn 0.9579 -0.0181 0.2864
vn 0.9208 0.0628 0.3850
vn 0.9105 -0.1077 0.3993
vn 0.9703 0.0498 -0.2367
vn 0.9678 -0.0572 -0.2451
vn 0.9225 -0.0532 -0.3824
vn -0.0337 0.0111 -0.9994
vn -0.4203 0.8755 0.2383
vn -0.8308 0.4339 0.3486
vn -0.7865 -0.5698 0.2381
vn -0.6081 -0.7674 0.2034
vn -0.4746 0.5279 0.7044
vn -0.6314 -0.7312 0.2581
vn -0.9615 -0.2276 0.1538
vn -0.8688 -0.3946 0.2992
vn -0.7069 -0.7057 -0.0479
vn -0.8399 -0.5386 -0.0668
vn -0.8745 0.4787 -0.0778
vn -0.5748 0.8161 -0.0606
vn -0.3311 -0.9178 -0.2193
vn -0.8294 -0.5116 -0.2247
vn -0.8709 0.4322 -0.2340
vn -0.5432 0.7888 -0.2878
vn -0.9159 -0.2850 -0.2826
vn -0.5036 0.7993 -0.3280
vn -0.4504 -0.8703 -0.1993
vn -0.7466 0.5714 -0.3407
vn -0.9508 -0.2529 -0.1789
vn -0.6042 0.7756 -0.1828
vn -0.5611 -0.8100 -0.1707
vn -0.8409 0.5093 -0.1833
vn -0.5261 -0.8498 -0.0324
vn -0.8280 0.5399 -0.1517
vn -0.9499 -0.2539 -0.1821
vn -0.5976 0.8007 -0.0418
vn -0.9486 -0.0919 -0.3029
vn -0.8477 0.4690 0.2478
vn -0.7732 -0.5170 0.3672
vn -0.9406 0.2421 -0.2380
vn -0.9584 0.0435 -0.2822
vn -0.9562 -0.0181 -0.2922
vn -0.9754 0.0894 -0.2018
vn -0.9792 -0.1077 -0.1719
vn -0.6767 0.0498 -0.7346
vn 0.5798 -0.0163 -0.8146
vn -0.5562 -0.0532 -0.8293
vn -0.5519 0.0452 -0.8327
vn -0.8607 -0.4126 0.2982
vn -0.8513 0.1620 0.4990
vn -0.1934 -0.9434 0.2694
vn -0.5310 0.5698 0.6272
vn 0.9045 -0.4126 0.1080
vn 0.9379 0.1687 0.3030
vn 0.2464 -0.9434 0.2220
vn 0.6525 0.5698 0.4997
vn 0.7628 -0.2547 0.5943
vn 0.5835 -0.0857 0.8076
vn -0.8295 -0.3831 0.4065
vn -0.7275 -0.5959 0.3401
vn -0.6915 -0.4025 0.5999
vn -0.9880 0.1456 -0.0509
vn -0.9994 -0.0000 -0.0342
vn -0.9895 0.1377 -0.0444
vn -0.9873 -0.1439 -0.0677
vn 0.2727 -0.9619 0.0214
vn -0.2604 -0.9621 0.0807
vn -0.3098 0.1122 0.9442
vn 0.4984 0.1308 0.8570
vn 0.5084 0.8241 0.2497
vn -0.1680 0.9669 0.1920
vn 0.6596 -0.5956 0.4584
vn -0.5421 -0.5987 0.5897
vn 0.2050 0.9661 0.1567
vn -0.4558 0.8205 0.3448
vn 0.9320 0.3294 -0.1514
vn 0.9350 -0.3250 0.1418
vn 0.6621 -0.0549 0.7474
vn 0.6591 0.5995 0.4542
vn 0.7949 0.5999 0.0907
vn 0.9900 -0.0537 -0.1302
vn 0.7992 -0.3254 0.5054
vn 0.6040 0.3283 0.7262
vn 0.8804 0.2789 0.3836
vn 0.9160 0.2790 0.2884
vn 0.9671 0.1078 0.2305
vn 0.9171 0.0366 0.3970
vn 0.8660 0.2079 0.4549
vn 0.9519 0.2082 0.2249
vn 0.9527 0.0367 0.3018
vn 0.8812 0.1075 0.4604
vn 0.3806 -0.3767 -0.8445
vn 0.0042 -0.9125 0.4090
vn -0.3806 0.3767 0.8445
vn 0.2662 0.3789 -0.8863
vn 0.2722 -0.9116 -0.3080
vn -0.2661 -0.3789 0.8864
vn -0.2722 0.9116 0.3080
vn -0.0042 0.9125 -0.4090
vn -0.9428 0.3294 0.0506
vn -0.8833 -0.3250 0.3378
vn -0.4877 -0.0549 0.8713
vn -0.5472 0.5995 0.5842
vn -0.7573 0.5999 0.2579
vn -0.9950 -0.0537 0.0837
vn -0.6732 -0.3254 0.6640
vn -0.4355 0.3283 0.8382
vn -0.7784 0.2789 0.5623
vn -0.8335 0.2791 0.4769
vn -0.8958 0.1078 0.4312
vn -0.8115 0.0366 0.5833
vn -0.7492 0.2079 0.6289
vn -0.8821 0.2082 0.4226
vn -0.8665 0.0367 0.4978
vn -0.7628 0.1075 0.6376
vn -0.5518 -0.3767 -0.7440
vn 0.0830 -0.9125 0.4005
vn 0.5519 0.3767 0.7440
vn -0.4489 0.3789 -0.8093
vn -0.3315 -0.9116 -0.2429
vn 0.4488 -0.3789 0.8093
vn 0.3315 0.9116 0.2429
vn -0.0830 0.9125 -0.4005
vn 0.4546 0.8706 0.1883
vn 0.9705 0.1873 0.1520
vn 0.8791 -0.4166 0.2317
vn 0.6628 -0.7324 0.1561
vn 0.6141 0.5255 0.5889
vn 0.6761 -0.7268 0.1213
vn 0.9722 -0.2276 -0.0545
vn 0.9280 -0.3573 0.1051
vn 0.6846 -0.7289 0.0038
vn 0.8459 -0.5333 -0.0041
vn 0.8984 0.4379 -0.0341
vn 0.5744 0.8182 -0.0238
vn 0.4588 -0.8729 -0.1662
vn 0.9477 -0.3019 -0.1040
vn 0.8804 0.4314 -0.1970
vn 0.5221 0.8130 -0.2579
vn 0.9432 -0.2348 -0.2349
vn 0.6042 0.7317 -0.3154
vn 0.5735 -0.8063 -0.1448
vn 0.7599 0.5713 -0.3102
vn 0.9663 -0.2556 -0.0319
vn 0.6061 0.7907 -0.0865
vn 0.5754 -0.8136 -0.0834
vn 0.8555 0.5149 -0.0544
vn 0.8277 -0.5495 0.1139
vn 0.8413 0.5399 -0.0285
vn 0.9945 -0.1044 -0.0046
vn 0.5971 0.8008 0.0464
vn 0.9483 -0.0184 0.3170
vn 0.6359 0.4106 0.6535
vn 0.8741 -0.1072 0.4738
vn 0.9071 0.2611 0.3303
vn 0.9542 0.0435 0.2960
vn 0.9530 -0.0128 0.3029
vn 0.9238 0.0894 0.3723
vn 0.9078 -0.0757 0.4124
vn -0.0315 -0.0163 -0.9994
vn 0.9207 0.0452 -0.3875
vn -0.5441 0.7860 0.2935
vn -0.9421 0.1913 0.2756
vn -0.8548 -0.3963 0.3350
vn -0.6491 -0.7258 0.2279
vn -0.2881 0.6595 0.6943
vn -0.4406 -0.8829 0.1624
vn -0.8955 -0.1350 0.4242
vn -0.8764 -0.3778 0.2987
vn -0.3237 -0.9310 -0.1688
vn -0.8442 -0.5321 -0.0646
vn -0.8944 0.4378 -0.0918
vn -0.5498 0.8324 -0.0691
vn -0.4516 -0.8730 -0.1841
vn -0.9426 -0.3019 -0.1426
vn -0.7616 0.5859 -0.2768
vn -0.5109 0.8127 -0.2801
vn -0.9306 -0.2414 -0.2753
vn -0.5788 0.7411 -0.3403
vn -0.5610 -0.8099 -0.1710
vn -0.8134 0.4867 -0.3186
vn -0.9504 -0.2542 -0.1793
vn -0.5867 0.7902 -0.1774
vn -0.5174 -0.8417 -0.1545
vn -0.8228 0.5360 -0.1887
vn -0.8354 -0.5495 -0.0097
vn -0.9598 0.2519 -0.1240
vn -0.9830 -0.1044 -0.1508
vn -0.8781 0.4780 -0.0223
vn -0.9619 -0.0183 -0.2728
vn -0.9854 0.0894 -0.1450
vn -0.9888 -0.1073 -0.1042
vn -0.9678 0.0438 -0.2478
vn -0.9652 0.0306 -0.2598
vn -0.9611 -0.0128 -0.2757
vn -0.9799 0.0628 -0.1895
vn -0.9843 -0.0757 -0.1595
vn -0.6700 -0.0572 -0.7402
vn 0.5816 0.0111 -0.8134
vn -0.8710 -0.4068 0.2753
vn -0.8940 -0.1366 0.4268
vn -0.4404 -0.8829 0.1632
vn -0.4745 0.5265 0.7054
vn 0.9097 -0.4068 0.0834
vn 0.9664 -0.1330 0.2202
vn 0.4650 -0.8829 0.0656
vn 0.6139 0.5265 0.5881
vn 0.7545 -0.0176 0.6561
vn 0.5656 -0.3358 0.7532
vn -0.5632 -0.6186 0.5479
vn -0.9998 0.0000 -0.0205
vn -0.9892 0.1354 -0.0566
vn -0.9900 -0.1340 0.0450
vn 0.0043 -0.9125 0.4090
vn -0.2662 -0.3789 0.8863
vn -0.0042 0.9125 -0.4089
vn -0.4355 0.3282 0.8382
vn -0.5518 -0.3767 -0.7441
vn 0.5518 0.3767 0.7441
vn 0.4489 -0.3789 0.8093
usemtl BodyTop.001
s off
f 46//1 1//1 47//1
f 1//2 5//2 3//2
usemtl BodyBottom.001
f 3//3 6//3 2//3
f 2//4 51//4 52//4
usemtl BodyTop.001
f 84//5 4//5 46//5
usemtl BodyBottom.001
f 85//6 6//6 87//6
usemtl BodyTop.001
f 86//7 9//7 88//7
usemtl BodyBottom.001
f 6//8 88//8 87//8
f 12//9 52//9 53//9
f 2//10 11//10 3//10
usemtl BodyTop.001
f 3//11 10//11 1//11
f 47//12 10//12 48//12
usemtl BodyBottom.001
f 53//13 15//13 12//13
f 12//14 14//14 11//14
usemtl BodyTop.001
f 10//15 14//15 13//15
f 10//16 49//16 48//16
usemtl BodyBottom.001
f 15//17 18//17 14//17
usemtl BodyTop.001
f 13//18 59//18 49//18
usemtl BodyBottom.001
f 54//19 19//19 15//19
usemtl BodyTop.001
f 13//20 18//20 17//20
usemtl BodyBottom.001
f 19//21 21//21 18//21
usemtl BodyTop.001
f 17//22 64//22 59//22
usemtl BodyBottom.001
f 19//23 65//23 22//23
usemtl BodyTop.001
f 17//24 21//24 20//24
usemtl BodyBottom.001
f 65//25 25//25 22//25
usemtl BodyTop.001
f 20//26 24//26 23//26
usemtl BodyBottom.001
f 22//27 24//27 21//27
usemtl BodyTop.001
f 64//28 23//28 69//28
usemtl BodyBottom.001
f 25//29 27//29 24//29
usemtl BodyTop.001
f 69//30 26//30 74//30
usemtl BodyBottom.001
f 70//31 28//31 25//31
usemtl BodyTop.001
f 23//32 27//32 26//32
f 26//33 30//33 29//33
usemtl BodyBottom.001
f 28//34 30//34 27//34
usemtl BodyTop.001
f 74//35 29//35 79//35
usemtl BodyBottom.001
f 75//36 31//36 28//36
usemtl BodyTop.001
f 29//37 81//37 79//37
f 29//38 82//38 81//38
usemtl BodyBottom.001
f 31//39 80//39 83//39
f 31//40 82//40 30//40
usemtl BodyTop.001
f 46//41 32//41 35//41
f 36//42 32//42 34//42
usemtl BodyBottom.001
f 37//43 34//43 33//43
f 51//44 33//44 52//44
usemtl BodyTop.001
f 84//45 35//45 89//45
usemtl BodyBottom.001
f 85//46 37//46 51//46
usemtl BodyTop.001
f 89//47 39//47 38//47
usemtl BodyBottom.001
f 91//48 37//48 90//48
f 42//49 52//49 33//49
f 41//50 33//50 34//50
usemtl BodyTop.001
f 40//51 34//51 32//51
f 47//52 40//52 32//52
usemtl BodyBottom.001
f 45//53 53//53 42//53
f 44//54 42//54 41//54
usemtl BodyTop.001
f 40//55 44//55 41//55
f 49//56 40//56 48//56
usemtl BodyBottom.001
f 57//57 45//57 44//57
usemtl BodyTop.001
f 59//58 43//58 49//58
usemtl BodyBottom.001
f 58//59 54//59 45//59
usemtl BodyTop.001
f 43//60 57//60 44//60
usemtl BodyBottom.001
f 62//61 58//61 57//61
usemtl BodyTop.001
f 64//62 56//62 59//62
usemtl BodyBottom.001
f 58//63 65//63 60//63
usemtl BodyTop.001
f 56//64 62//64 57//64
usemtl BodyBottom.001
f 68//65 65//65 63//65
usemtl BodyTop.001
f 61//66 67//66 62//66
usemtl BodyBottom.001
f 67//67 63//67 62//67
usemtl BodyTop.001
f 64//68 66//68 61//68
usemtl BodyBottom.001
f 72//69 68//69 67//69
usemtl BodyTop.001
f 69//70 71//70 66//70
usemtl BodyBottom.001
f 73//71 70//71 68//71
usemtl BodyTop.001
f 66//72 72//72 67//72
f 71//73 77//73 72//73
usemtl BodyBottom.001
f 77//74 73//74 72//74
usemtl BodyTop.001
f 74//75 76//75 71//75
usemtl BodyBottom.001
f 78//76 75//76 73//76
usemtl BodyTop.001
f 76//77 79//77 81//77
f 76//78 82//78 77//78
usemtl BodyBottom.001
f 78//79 83//79 80//79
f 78//80 82//80 83//80
f 39//81 90//81 16//81
usemtl BodyTop.001
f 36//82 89//82 35//82
usemtl BodyBottom.001
f 16//83 85//83 55//83
usemtl BodyTop.001
f 84//84 38//84 50//84
usemtl BodyBottom.001
f 87//85 9//85 8//85
usemtl BodyTop.001
f 86//86 5//86 4//86
usemtl BodyBottom.001
f 85//87 8//87 55//87
usemtl BodyTop.001
f 7//88 84//88 50//88
usemtl Fin.001
f 100//89 95//89 99//89
f 94//89 100//89 98//89
f 92//90 100//90 96//90
f 100//90 93//90 96//90
f 109//91 104//91 106//91
f 109//92 103//92 107//92
f 101//93 109//93 107//93
f 102//93 109//93 105//93
f 112//94 119//94 114//94
f 110//95 117//95 111//95
f 116//96 118//96 117//96
f 114//97 118//97 115//97
usemtl Mouth.001
f 38//98 120//98 50//98
f 120//99 7//99 50//99
f 120//100 121//100 9//100
f 39//101 121//101 120//101
f 16//102 121//102 39//102
f 8//103 121//103 55//103
f 38//104 39//104 120//104
f 120//105 9//105 7//105
f 16//106 55//106 121//106
f 8//107 9//107 121//107
usemtl Eye.001
f 129//108 136//108 128//108
f 135//109 126//109 127//109
f 125//110 132//110 124//110
f 131//111 122//111 123//111
f 122//112 137//112 129//112
f 136//113 127//113 128//113
f 126//114 133//114 125//114
f 124//115 131//115 123//115
usemtl Pupil.001
f 131//116 138//116 130//116
f 130//117 138//117 137//117
f 136//118 138//118 135//118
f 134//119 138//119 133//119
f 132//120 138//120 131//120
f 137//121 138//121 136//121
f 135//122 138//122 134//122
f 133//123 138//123 132//123
usemtl Eye.001
f 127//124 145//124 128//124
f 142//125 126//125 125//125
f 123//126 141//126 124//126
f 145//127 129//127 128//127
f 143//128 127//128 126//128
f 141//129 125//129 124//129
f 139//130 123//130 122//130
f 129//131 139//131 122//131
f 153//132 162//132 154//132
f 151//133 160//133 152//133
f 149//134 158//134 150//134
f 147//135 156//135 148//135
f 154//136 155//136 147//136
f 153//137 160//137 161//137
f 151//138 158//138 159//138
f 149//139 156//139 157//139
usemtl Pupil.001
f 156//140 155//140 163//140
f 155//141 162//141 163//141
f 161//142 160//142 163//142
f 159//143 158//143 163//143
f 157//144 156//144 163//144
f 162//145 161//145 163//145
f 160//146 159//146 163//146
f 158//147 157//147 163//147
usemtl Eye.001
f 153//148 169//148 152//148
f 150//149 168//149 167//149
f 148//150 166//150 165//150
f 154//151 170//151 153//151
f 151//152 169//152 168//152
f 150//153 166//153 149//153
f 147//154 165//154 164//154
f 154//155 164//155 171//155
usemtl BodyTop.001
f 46//156 4//156 1//156
f 1//157 4//157 5//157
usemtl BodyBottom.001
f 3//158 5//158 6//158
f 2//159 6//159 51//159
usemtl BodyTop.001
f 84//160 86//160 4//160
usemtl BodyBottom.001
f 85//161 51//161 6//161
usemtl BodyTop.001
f 86//162 7//162 9//162
usemtl BodyBottom.001
f 6//163 5//163 88//163
f 12//164 2//164 52//164
f 2//165 12//165 11//165
usemtl BodyTop.001
f 3//166 11//166 10//166
f 47//167 1//167 10//167
usemtl BodyBottom.001
f 53//168 54//168 15//168
f 12//169 15//169 14//169
usemtl BodyTop.001
f 10//170 11//170 14//170
f 10//171 13//171 49//171
usemtl BodyBottom.001
f 15//172 19//172 18//172
usemtl BodyTop.001
f 13//173 17//173 59//173
usemtl BodyBottom.001
f 54//174 60//174 19//174
usemtl BodyTop.001
f 13//175 14//175 18//175
usemtl BodyBottom.001
f 19//176 22//176 21//176
usemtl BodyTop.001
f 17//177 20//177 64//177
usemtl BodyBottom.001
f 19//178 60//178 65//178
usemtl BodyTop.001
f 17//179 18//179 21//179
usemtl BodyBottom.001
f 65//180 70//180 25//180
usemtl BodyTop.001
f 20//181 21//181 24//181
usemtl BodyBottom.001
f 22//182 25//182 24//182
usemtl BodyTop.001
f 64//183 20//183 23//183
usemtl BodyBottom.001
f 25//184 28//184 27//184
usemtl BodyTop.001
f 69//185 23//185 26//185
usemtl BodyBottom.001
f 70//186 75//186 28//186
usemtl BodyTop.001
f 23//187 24//187 27//187
f 26//188 27//188 30//188
usemtl BodyBottom.001
f 28//189 31//189 30//189
usemtl BodyTop.001
f 74//190 26//190 29//190
usemtl BodyBottom.001
f 75//191 80//191 31//191
usemtl BodyTop.001
f 29//192 30//192 82//192
usemtl BodyBottom.001
f 31//193 83//193 82//193
usemtl BodyTop.001
f 46//194 47//194 32//194
f 36//195 35//195 32//195
usemtl BodyBottom.001
f 37//196 36//196 34//196
f 51//197 37//197 33//197
usemtl BodyTop.001
f 84//198 46//198 35//198
usemtl BodyBottom.001
f 85//199 90//199 37//199
usemtl BodyTop.001
f 89//200 91//200 39//200
usemtl BodyBottom.001
f 91//201 36//201 37//201
f 42//202 53//202 52//202
f 41//203 42//203 33//203
usemtl BodyTop.001
f 40//204 41//204 34//204
f 47//205 48//205 40//205
usemtl BodyBottom.001
f 45//206 54//206 53//206
f 44//207 45//207 42//207
usemtl BodyTop.001
f 40//208 43//208 44//208
f 49//209 43//209 40//209
usemtl BodyBottom.001
f 57//210 58//210 45//210
usemtl BodyTop.001
f 59//211 56//211 43//211
usemtl BodyBottom.001
f 58//212 60//212 54//212
usemtl BodyTop.001
f 43//213 56//213 57//213
usemtl BodyBottom.001
f 62//214 63//214 58//214
usemtl BodyTop.001
f 64//215 61//215 56//215
usemtl BodyBottom.001
f 58//216 63//216 65//216
usemtl BodyTop.001
f 56//217 61//217 62//217
usemtl BodyBottom.001
f 68//218 70//218 65//218
usemtl BodyTop.001
f 61//219 66//219 67//219
usemtl BodyBottom.001
f 67//220 68//220 63//220
usemtl BodyTop.001
f 64//221 69//221 66//221
usemtl BodyBottom.001
f 72//222 73//222 68//222
usemtl BodyTop.001
f 69//223 74//223 71//223
usemtl BodyBottom.001
f 73//224 75//224 70//224
usemtl BodyTop.001
f 66//225 71//225 72//225
f 71//226 76//226 77//226
usemtl BodyBottom.001
f 77//227 78//227 73//227
usemtl BodyTop.001
f 74//228 79//228 76//228
usemtl BodyBottom.001
f 78//229 80//229 75//229
usemtl BodyTop.001
f 76//230 81//230 82//230
usemtl BodyBottom.001
f 78//231 77//231 82//231
f 39//232 91//232 90//232
usemtl BodyTop.001
f 36//233 91//233 89//233
usemtl BodyBottom.001
f 16//234 90//234 85//234
usemtl BodyTop.001
f 84//235 89//235 38//235
usemtl BodyBottom.001
f 87//236 88//236 9//236
usemtl BodyTop.001
f 86//237 88//237 5//237
usemtl BodyBottom.001
f 85//238 87//238 8//238
usemtl BodyTop.001
f 7//239 86//239 84//239
usemtl Fin.001
f 100//240 97//240 95//240
f 94//241 97//241 100//241
f 92//90 98//90 100//90
f 100//90 99//90 93//90
f 109//92 108//92 104//92
f 109//242 106//242 103//242
f 101//93 105//93 109//93
f 102//93 108//93 109//93
f 112//243 113//243 119//243
f 110//244 116//244 117//244
f 116//245 115//245 118//245
f 114//94 119//94 118//94
usemtl Eye.001
f 129//108 137//108 136//108
f 135//109 134//109 126//109
f 125//110 133//110 132//110
f 131//111 130//111 122//111
f 122//112 130//112 137//112
f 136//113 135//113 127//113
f 126//114 134//114 133//114
f 124//115 132//115 131//115
f 127//124 144//124 145//124
f 142//246 143//246 126//246
f 123//126 140//126 141//126
f 145//127 146//127 129//127
f 143//128 144//128 127//128
f 141//247 142//247 125//247
f 139//130 140//130 123//130
f 129//248 146//248 139//248
f 153//132 161//132 162//132
f 151//133 159//133 160//133
f 149//134 157//134 158//134
f 147//135 155//135 156//135
f 154//136 162//136 155//136
f 153//137 152//137 160//137
f 151//138 150//138 158//138
f 149//249 148//249 156//249
f 153//250 170//250 169//250
f 150//149 151//149 168//149
f 148//251 149//251 166//251
f 154//151 171//151 170//151
f 151//152 152//152 169//152
f 150//252 167//252 166//252
f 147//154 148//154 165//154
f 154//155 147//155 164//155
